<svg width="80" height="80" viewBox="0 0 80 80" fill="none" xmlns="http://www.w3.org/2000/svg">
<path d="M44.8495 75H35.1487C32.7803 75 30.7649 73.3812 30.2457 71.0654L29.0149 65.6025C27.0112 64.7537 25.1037 63.6454 23.3157 62.295L18.0016 63.9721C15.7207 64.675 13.2416 63.7096 12.0982 61.6738L7.2624 53.3088C6.10449 51.2379 6.49532 48.6858 8.20157 47.0817L12.3199 43.2958C12.1945 42.1875 12.1303 41.0821 12.1303 40C12.1303 38.9179 12.1916 37.8125 12.317 36.7042L8.21907 32.9358C6.49532 31.3142 6.10157 28.765 7.24782 26.7204L12.1128 18.3058C13.2445 16.2933 15.7207 15.3192 17.9957 16.0279L23.3157 17.705C25.1037 16.3546 27.0141 15.2463 29.0149 14.3975L30.2457 8.93167C30.7649 6.61875 32.7803 5 35.1487 5H44.8495C47.2178 5 49.2332 6.61875 49.7524 8.93458L50.9832 14.3975C52.987 15.2463 54.8945 16.3546 56.6824 17.705L61.9966 16.0279C64.2716 15.3162 66.7537 16.2904 67.8999 18.3263L72.7357 26.6912C73.8937 28.7621 73.5028 31.3142 71.7966 32.9183L67.6782 36.7042C67.8037 37.8125 67.8649 38.9179 67.8649 40C67.8649 41.0821 67.8037 42.1875 67.6782 43.2958L71.7791 47.0642C71.7849 47.07 71.7907 47.0758 71.7966 47.0817C73.5028 48.6858 73.8966 51.235 72.7503 53.2796L67.8853 61.6942C66.7507 63.7067 64.2745 64.6808 62.0024 63.9721L56.6795 62.2921C54.8916 63.6425 52.9812 64.7508 50.9803 65.5996L49.7495 71.0654C49.2332 73.3812 47.2178 75 44.8495 75ZM23.7649 57.6721C24.2666 57.6721 24.7595 57.8442 25.1591 58.1708C27.157 59.8187 29.3445 61.0875 31.6574 61.9421C32.3516 62.1988 32.8707 62.7908 33.0341 63.5142L34.5187 70.1058C34.5857 70.4062 34.8541 70.625 35.1545 70.625H44.8553C45.1557 70.625 45.4212 70.4062 45.4912 70.1087L46.9757 63.5171C47.1391 62.7938 47.6553 62.2017 48.3524 61.945C50.6653 61.0904 52.8528 59.8188 54.8507 58.1738C55.4224 57.7013 56.1895 57.5496 56.9012 57.7742L63.3207 59.8013C63.6241 59.8946 63.9507 59.7896 64.0937 59.53L68.9587 51.1183C69.1045 50.8588 69.052 50.5029 68.8157 50.2754L63.8924 45.7487C63.3557 45.2558 63.102 44.5325 63.2128 43.8121C63.4053 42.5288 63.5045 41.2454 63.5045 40C63.5045 38.7546 63.4082 37.4742 63.2128 36.1879C63.1049 35.4675 63.3587 34.7442 63.8924 34.2513L68.8274 29.7129C69.0491 29.5029 69.1074 29.1442 68.9441 28.8554L64.1082 20.4933C63.9507 20.2162 63.6357 20.1083 63.3149 20.2017L56.9041 22.2258C56.1924 22.4504 55.4253 22.2987 54.8537 21.8263C52.8557 20.1783 50.6682 18.9096 48.3553 18.055C47.6612 17.7983 47.142 17.2063 46.9787 16.4829L45.4941 9.89125C45.4153 9.59375 45.1499 9.375 44.8495 9.375H35.1487C34.8482 9.375 34.5828 9.59375 34.5128 9.89125L33.0282 16.4858C32.8678 17.2092 32.3487 17.7983 31.6545 18.0579C29.3416 18.9125 27.1541 20.1813 25.1562 21.8292C24.5845 22.3017 23.8174 22.4504 23.1057 22.2288L16.6862 20.2017C16.3828 20.1083 16.0562 20.2162 15.9132 20.4729L11.0482 28.8817C10.8995 29.1442 10.9578 29.5029 11.197 29.7304L16.1174 34.2513C16.6541 34.7442 16.9078 35.4675 16.797 36.1879C16.6045 37.4712 16.5053 38.7546 16.5053 40C16.5053 41.2454 16.6016 42.5258 16.797 43.8121C16.9049 44.5325 16.6512 45.2558 16.1174 45.7487L11.1824 50.2871C10.9607 50.4971 10.9024 50.8558 11.0657 51.1446L15.9016 59.5067C16.062 59.7867 16.3799 59.9004 16.6949 59.7983L23.1057 57.7742C23.3216 57.7042 23.5432 57.6721 23.7649 57.6721Z" fill="black"/>
<path d="M37.8144 51.6665C37.6481 51.6665 37.4848 51.649 37.3185 51.6111C36.1431 51.3399 35.4081 50.1645 35.6794 48.989L40.0544 30.0307C40.3256 28.8495 41.5156 28.1232 42.6764 28.3886C43.8519 28.6599 44.5869 29.8353 44.3156 31.0107L39.9406 49.969C39.7073 50.984 38.8089 51.6665 37.8144 51.6665Z" fill="black"/>
<path d="M49.4778 48.7499C48.8799 48.7499 48.2849 48.5078 47.8503 48.0266C47.0424 47.1283 47.1153 45.7458 48.0136 44.9349L53.4999 39.9999L48.0136 35.0649C47.1153 34.257 47.0424 32.8745 47.8503 31.9733C48.6611 31.0778 50.0436 31.0049 50.942 31.8099L58.2336 38.3724C58.6945 38.7895 58.957 39.3816 58.957 39.9999C58.957 40.6183 58.6945 41.2103 58.2336 41.6274L50.942 48.1899C50.522 48.5662 49.9999 48.7499 49.4778 48.7499Z" fill="black"/>
<path d="M30.5192 48.75C29.9971 48.75 29.475 48.5663 29.055 48.19L21.7634 41.6275C21.3025 41.2104 21.04 40.6184 21.04 40C21.04 39.3817 21.3025 38.7896 21.7634 38.3725L29.055 31.81C29.9534 31.0021 31.333 31.075 32.1467 31.9734C32.9546 32.8717 32.8817 34.2542 31.9834 35.065L26.4971 40L31.9834 44.935C32.8817 45.7429 32.9546 47.1254 32.1467 48.0267C31.7121 48.5079 31.1171 48.75 30.5192 48.75Z" fill="black"/>
</svg>
