<svg width="80" height="80" viewBox="0 0 80 80" fill="none" xmlns="http://www.w3.org/2000/svg">
<path d="M62.7429 17.814C63.7396 18.3801 64.8902 18.7054 66.1161 18.7054C69.8948 18.7054 72.9689 15.6313 72.9689 11.8528C72.9689 8.07412 69.8948 5 66.1161 5C62.3377 5 59.2635 8.07412 59.2635 11.8528C59.2635 12.9052 59.5027 13.9027 59.9284 14.7947L52.5312 20.3967C51.4379 19.6582 50.121 19.2265 48.7052 19.2265C47.3233 19.2265 46.0367 19.639 44.9592 20.3453L37.7068 14.4113C37.9904 13.6603 38.1466 12.8475 38.1466 11.9985C38.1466 8.22 35.0725 5.14588 31.294 5.14588C27.5155 5.14588 24.4414 8.22 24.4414 11.9985C24.4414 12.9562 24.6396 13.8684 24.9961 14.6971L15.522 24.6637C14.9965 24.5342 14.4478 24.4641 13.8829 24.4641C10.1044 24.4641 7.03027 27.5382 7.03027 31.3167C7.03027 35.0952 10.1044 38.1693 13.8829 38.1693C17.6614 38.1693 20.7355 35.0952 20.7355 31.3167C20.7355 29.6207 20.1148 28.0679 19.0904 26.8699L27.6898 17.8234C28.7377 18.4742 29.9724 18.8513 31.294 18.8513C32.733 18.8513 34.069 18.4045 35.1727 17.6438L42.3512 23.5172C42.0307 24.3092 41.8524 25.1735 41.8524 26.0792C41.8524 29.8577 44.9265 32.9318 48.705 32.9318C52.4835 32.9318 55.5576 29.8577 55.5576 26.0792C55.5576 25.2074 55.3923 24.3741 55.0942 23.6066L62.7429 17.814ZM66.1161 9.10621C67.6306 9.10621 68.8627 10.3382 68.8627 11.8528C68.8627 13.3671 67.6307 14.599 66.1161 14.599C64.6018 14.599 63.3697 13.3671 63.3697 11.8528C63.3699 10.3383 64.6018 9.10621 66.1161 9.10621ZM13.8829 34.0631C12.3686 34.0631 11.1365 32.8312 11.1365 31.3167C11.1365 29.8023 12.3685 28.5703 13.8829 28.5703C15.3972 28.5703 16.6293 29.8023 16.6293 31.3167C16.6293 32.8312 15.3972 34.0631 13.8829 34.0631ZM31.294 14.7449C29.7797 14.7449 28.5476 13.5129 28.5476 11.9985C28.5476 10.4841 29.7796 9.25223 31.294 9.25223C32.8085 9.25223 34.0404 10.4842 34.0404 11.9985C34.0404 13.5128 32.8083 14.7449 31.294 14.7449ZM48.7052 28.8253C47.1909 28.8253 45.9587 27.5933 45.9587 26.079C45.9587 24.5647 47.1907 23.3326 48.7052 23.3326C50.2196 23.3326 51.4516 24.5646 51.4516 26.079C51.4516 27.5935 50.2194 28.8253 48.7052 28.8253Z" fill="black"/>
<path d="M65.9968 31.4734C62.3036 31.4734 59.2988 34.4782 59.2988 38.1714V75H72.6949V38.1714C72.6949 34.4782 69.6901 31.4734 65.9968 31.4734ZM68.5886 70.8936H63.405V38.1714C63.405 36.7424 64.5677 35.5797 65.9967 35.5797C67.4258 35.5797 68.5885 36.7424 68.5885 38.1714L68.5886 70.8936Z" fill="black"/>
<path d="M48.7048 48.25C45.0116 48.25 42.0068 51.2547 42.0068 54.9481V75H55.4029V54.948C55.4029 51.2547 52.3981 48.25 48.7048 48.25ZM51.2966 70.8936H46.113V54.948C46.113 53.5189 47.2757 52.3562 48.7047 52.3562C50.1338 52.3562 51.2965 53.5189 51.2965 54.948L51.2966 70.8936Z" fill="black"/>
<path d="M31.1874 36.9486C27.4941 36.9486 24.4893 39.9533 24.4893 43.6467V74.9999H37.8855V43.6467C37.8855 39.9534 34.8808 36.9486 31.1874 36.9486ZM33.7793 70.8935H28.5956V43.6467C28.5956 42.2176 29.7583 41.055 31.1874 41.055C32.6165 41.055 33.7792 42.2176 33.7792 43.6467V70.8935H33.7793Z" fill="black"/>
<path d="M13.8954 54.4004C10.2021 54.4004 7.19727 57.4051 7.19727 61.0984V75.0002H20.5934V61.0984C20.5934 57.4051 17.5886 54.4004 13.8954 54.4004ZM16.487 70.8939H11.3036V61.0984C11.3036 59.6693 12.4663 58.5066 13.8954 58.5066C15.3244 58.5066 16.487 59.6693 16.487 61.0984V70.8939Z" fill="black"/>
</svg>
