<svg width="80" height="80" viewBox="0 0 80 80" fill="none" xmlns="http://www.w3.org/2000/svg">
<path d="M66.79 5H13.21C8.68293 5 5 8.68293 5 13.21V66.79C5 71.3171 8.68293 75 13.21 75H66.79C71.3171 75 75 71.3171 75 66.79V13.21C75 8.68293 71.3171 5 66.79 5ZM13.21 9.10156H66.79C69.0555 9.10156 70.8984 10.9445 70.8984 13.21V21.4062H9.10156V13.21C9.10156 10.9445 10.9445 9.10156 13.21 9.10156ZM66.79 70.8984H13.21C10.9445 70.8984 9.10156 69.0555 9.10156 66.79V25.5078H70.8984V66.79C70.8984 69.0555 69.0555 70.8984 66.79 70.8984Z" fill="black"/>
<path d="M31.6602 17.3047H64.7461C65.8787 17.3047 66.7969 16.3865 66.7969 15.2539C66.7969 14.1213 65.8787 13.2031 64.7461 13.2031H31.6602C30.5276 13.2031 29.6094 14.1213 29.6094 15.2539C29.6094 16.3865 30.5276 17.3047 31.6602 17.3047Z" fill="black"/>
<path d="M15.2539 17.3047C16.3865 17.3047 17.3047 16.3865 17.3047 15.2539C17.3047 14.1213 16.3865 13.2031 15.2539 13.2031C14.1213 13.2031 13.2031 14.1213 13.2031 15.2539C13.2031 16.3865 14.1213 17.3047 15.2539 17.3047Z" fill="black"/>
<path d="M23.457 17.3047C24.5896 17.3047 25.5078 16.3865 25.5078 15.2539C25.5078 14.1213 24.5896 13.2031 23.457 13.2031C22.3244 13.2031 21.4062 14.1213 21.4062 15.2539C21.4062 16.3865 22.3244 17.3047 23.457 17.3047Z" fill="black"/>
<path d="M53.1609 36.7411H27.4778L26.1482 31.1831C25.9414 30.2795 25.0805 29.6002 24.1537 29.6095H16.4004C15.2678 29.6095 14.3496 30.5277 14.3496 31.6603C14.3496 32.7928 15.2678 33.711 16.4004 33.711H22.5356L28.1231 56.9222C27.3345 57.9565 26.8648 59.2465 26.8648 60.6446C26.8648 64.037 29.6248 66.797 33.0172 66.797C36.4096 66.797 39.1695 64.037 39.1695 60.6446C39.1695 59.9247 39.0442 59.2338 38.8158 58.5911H46.4959C46.2677 59.2337 46.1422 59.9247 46.1422 60.6446C46.1422 64.037 48.9021 66.797 52.2945 66.797C55.6869 66.797 58.4469 64.037 58.4469 60.6446C58.4469 58.903 57.7183 57.3293 56.5513 56.2089L59.8448 45.8908C60.5333 43.7336 60.1623 41.4473 58.8265 39.6186C57.4905 37.7899 55.4255 36.7411 53.1609 36.7411ZM53.1609 40.8427C54.1017 40.8427 54.9595 41.2784 55.5144 42.038C56.0693 42.7976 56.2236 43.7473 55.9374 44.6435L52.7945 54.4897H31.754L29.228 44.059C29.2276 44.0572 29.2275 44.0556 29.2271 44.0538L28.459 40.8428H53.1609V40.8427ZM33.0171 62.6954C31.8862 62.6954 30.9663 61.7754 30.9663 60.6446C30.9663 59.5138 31.8862 58.5938 33.0171 58.5938C34.1479 58.5938 35.0678 59.5138 35.0678 60.6446C35.0678 61.7754 34.1479 62.6954 33.0171 62.6954ZM52.2944 62.6954C51.1636 62.6954 50.2436 61.7754 50.2436 60.6446C50.2436 59.5138 51.1636 58.5938 52.2944 58.5938C53.4252 58.5938 54.3452 59.5138 54.3452 60.6446C54.3452 61.7754 53.4252 62.6954 52.2944 62.6954Z" fill="black"/>
</svg>
