<svg width="80" height="80" viewBox="0 0 80 80" fill="none" xmlns="http://www.w3.org/2000/svg">
<path d="M47.8613 75H21.3379C15.3068 75 10.4004 70.0936 10.4004 64.0625V15.9375C10.4004 9.90639 15.3068 5 21.3379 5H47.8613C53.8924 5 58.7988 9.90639 58.7988 15.9375V20.1923C58.7988 21.7027 57.5748 22.9267 56.0645 22.9267C54.5541 22.9267 53.3301 21.7027 53.3301 20.1923V15.9375C53.3301 12.9222 50.8766 10.4688 47.8613 10.4688H21.3379C18.3226 10.4688 15.8691 12.9222 15.8691 15.9375V64.0625C15.8691 67.0778 18.3226 69.5312 21.3379 69.5312H47.8613C50.8766 69.5312 53.3301 67.0778 53.3301 64.0625V58.8837C53.3301 57.3734 54.5541 56.1494 56.0645 56.1494C57.5748 56.1494 58.7988 57.3734 58.7988 58.8837V64.0625C58.7988 70.0936 53.8924 75 47.8613 75ZM37.334 62.5751C37.334 61.0648 36.1099 59.8408 34.5996 59.8408C33.0893 59.8408 31.8652 61.0648 31.8652 62.5751C31.8652 64.0855 33.0893 65.3095 34.5996 65.3095C36.1099 65.3095 37.334 64.0855 37.334 62.5751ZM40.0684 17.458C40.0684 15.9476 38.8443 14.7236 37.334 14.7236H31.8652C30.3549 14.7236 29.1309 15.9476 29.1309 17.458C29.1309 18.9683 30.3549 20.1923 31.8652 20.1923H37.334C38.8443 20.1923 40.0684 18.9683 40.0684 17.458ZM43.7988 53.6884C45.0404 53.6884 46.2672 52.8703 46.6036 51.6857L52.8142 29.8385C53.313 28.0852 51.9837 26.3447 50.1466 26.3447C48.9049 26.3447 47.8149 27.1629 47.4784 28.3474L41.2679 50.1952C40.7696 51.9485 41.9616 53.6884 43.7988 53.6884ZM36.6947 50.3869C37.6651 49.2296 37.5134 47.5046 36.3561 46.5347L29.5939 40.8646C29.3103 40.6206 29.2676 40.3146 29.2676 40.1533C29.2676 39.992 29.3103 39.686 29.5939 39.4419L36.3561 33.7718C37.5134 32.802 37.6651 31.077 36.6947 29.9197C35.7249 28.7629 33.9999 28.6107 32.8426 29.5811L26.0718 35.2581C26.0675 35.2618 26.0627 35.2656 26.0584 35.2699C24.6223 36.4891 23.7988 38.2691 23.7988 40.1533C23.7988 42.0374 24.6223 43.8174 26.0584 45.0367C26.0627 45.0404 26.067 45.0442 26.0718 45.0484L32.8426 50.7255C33.3547 51.1549 33.978 51.3642 34.598 51.3642C35.3788 51.3642 36.1543 51.0315 36.6947 50.3869ZM60.7134 50.7073L67.34 45.0367C68.7761 43.8174 69.5996 42.0374 69.5996 40.1533C69.5996 38.2691 68.7761 36.4891 67.3475 35.2763L60.7134 29.5992C59.5657 28.6171 57.8397 28.7517 56.8581 29.8988C55.8759 31.0465 56.0105 32.7726 57.1577 33.7542L63.7997 39.4376C64.0876 39.6822 64.1309 39.9909 64.1309 40.1533C64.1309 40.3151 64.0881 40.6238 63.7923 40.8748L57.1577 46.5524C56.0105 47.534 55.8759 49.26 56.8581 50.4072C57.3991 51.0395 58.1654 51.3642 58.9371 51.3642C59.5657 51.3642 60.1981 51.1485 60.7134 50.7073Z" fill="black"/>
</svg>
