<svg width="80" height="80" viewBox="0 0 80 80" fill="none" xmlns="http://www.w3.org/2000/svg">
<path d="M56.0517 62.3839C58.7489 62.3839 60.9354 60.1974 60.9354 57.5002C60.9354 54.803 58.7489 52.6165 56.0517 52.6165C53.3545 52.6165 51.168 54.803 51.168 57.5002C51.168 60.1974 53.3545 62.3839 56.0517 62.3839Z" fill="black"/>
<path fill-rule="evenodd" clip-rule="evenodd" d="M61.0488 42.5851C61.0488 42.5851 62.2046 45.3689 62.2013 45.3689C62.6441 45.5902 63.0706 45.8377 63.4809 46.1047L66.4697 45.714C67.2804 45.6098 68.0878 45.9158 68.6251 46.5312C70.0478 48.1591 71.1385 50.0507 71.8385 52.0954C72.1023 52.867 71.9655 53.7233 71.4674 54.3712C71.4674 54.3712 69.6344 56.7642 69.6344 56.7609C69.6604 57.2526 69.6604 57.7475 69.6344 58.2358L71.4674 60.6289C71.9655 61.2768 72.1023 62.133 71.8385 62.9047C71.1385 64.9493 70.0478 66.8409 68.6251 68.4688C68.0878 69.0842 67.2804 69.3902 66.4697 69.2861C66.4697 69.2861 63.4809 68.8954 63.4841 68.8921C63.0706 69.1623 62.6441 69.4098 62.2046 69.6312L61.0488 72.4149C60.7362 73.1702 60.0655 73.7172 59.2646 73.8735C57.1451 74.2902 54.9604 74.2902 52.8409 73.8735C52.0399 73.7172 51.3692 73.1702 51.0567 72.4149C51.0567 72.4149 49.8976 69.6312 49.9009 69.6312C49.4613 69.4098 49.0348 69.1623 48.6246 68.8954L45.6358 69.2861C44.8251 69.3902 44.0144 69.0842 43.4771 68.4688C42.0576 66.8409 40.9669 64.9493 40.2669 62.9047C39.9999 62.133 40.1399 61.2768 40.6381 60.6289C40.6381 60.6289 42.4711 58.2358 42.4711 58.2391C42.4451 57.7475 42.4451 57.2526 42.4711 56.7642L40.6381 54.3712C40.1399 53.7233 39.9999 52.867 40.2669 52.0954C40.9669 50.0507 42.0576 48.1591 43.4771 46.5312C44.0144 45.9158 44.8251 45.6098 45.6358 45.714C45.6358 45.714 48.6246 46.1047 48.6213 46.1079C49.0348 45.8377 49.4613 45.5902 49.8976 45.3689L51.0567 42.5851C51.3692 41.8298 52.0399 41.2828 52.8409 41.1265C54.9604 40.7098 57.1451 40.7098 59.2646 41.1265C60.0655 41.2828 60.7362 41.8298 61.0488 42.5851ZM57.0734 45.7433C56.393 45.6847 55.7125 45.6814 55.032 45.7433L54.0423 48.1233C53.7948 48.7191 53.3195 49.1944 52.7204 49.4419C52.0139 49.7349 51.3465 50.1191 50.7409 50.5879C50.2265 50.9819 49.5785 51.1544 48.9372 51.073C48.9372 51.073 46.3813 50.7377 46.3781 50.7377C45.9906 51.2977 45.6488 51.887 45.359 52.5056L46.9283 54.5502C47.3223 55.0647 47.4948 55.7158 47.4102 56.3572C47.3092 57.1158 47.3092 57.8842 47.4102 58.6428C47.4948 59.2842 47.3223 59.9354 46.9283 60.4498C46.9283 60.4498 45.359 62.4944 45.359 62.4977C45.6488 63.113 45.9906 63.7056 46.3813 64.2623L48.9372 63.927C49.5785 63.8456 50.2265 64.0182 50.7409 64.4121C51.3465 64.8809 52.0139 65.2651 52.7204 65.5582C53.3195 65.8056 53.7948 66.2809 54.0423 66.8768C54.0423 66.8768 55.032 69.2568 55.0353 69.2568C55.7125 69.3186 56.393 69.3186 57.0734 69.2568L58.0599 66.8768C58.3106 66.2809 58.786 65.8056 59.3851 65.5582C60.0916 65.2651 60.759 64.8809 61.3646 64.4121C61.879 64.0182 62.5269 63.8456 63.1683 63.927C63.1683 63.927 65.7241 64.2623 65.7274 64.2623C66.1148 63.7023 66.4567 63.113 66.7465 62.4944L65.1771 60.4498C64.7832 59.9354 64.6106 59.2842 64.6953 58.6428C64.7962 57.8842 64.7962 57.1158 64.6953 56.3572C64.6106 55.7158 64.7832 55.0647 65.1771 54.5502C65.1771 54.5502 66.7465 52.5056 66.7465 52.5023C66.4567 51.887 66.1148 51.2944 65.7241 50.7377L63.1683 51.073C62.5269 51.1544 61.879 50.9819 61.3646 50.5879C60.759 50.1191 60.0916 49.7349 59.3851 49.4419C58.786 49.1944 58.3106 48.7191 58.0599 48.1233L57.0734 45.7433Z" fill="black"/>
<path fill-rule="evenodd" clip-rule="evenodd" d="M58.4934 33.4884C58.4934 34.8363 57.3995 35.9302 56.0516 35.9302C54.7069 35.9302 53.6097 34.8363 53.6097 33.4884V13.9535C53.6097 11.707 51.7897 9.88372 49.54 9.88372H16.9818C15.9041 9.88372 14.8688 10.3135 14.1069 11.0753C13.3418 11.8405 12.912 12.8726 12.912 13.9535V66.0465C12.912 67.1274 13.3418 68.1595 14.1069 68.9247C14.8688 69.6865 15.9041 70.1163 16.9818 70.1163H36.7446C38.0925 70.1163 39.1865 71.2102 39.1865 72.5581C39.1865 73.906 38.0925 75 36.7446 75H16.9818C14.6083 75 12.3325 74.0558 10.6525 72.3791C8.97251 70.6991 8.02832 68.42 8.02832 66.0465V13.9535C8.02832 11.58 8.97251 9.30093 10.6525 7.62093C12.3325 5.94419 14.6083 5 16.9818 5H49.54C54.4855 5 58.4934 9.00791 58.4934 13.9535V33.4884Z" fill="black"/>
<path fill-rule="evenodd" clip-rule="evenodd" d="M47.0982 7.44198V12.3257C47.0982 13.8364 46.4992 15.2852 45.4313 16.3531C44.3634 17.4243 42.9145 18.0234 41.4006 18.0234H25.1215C23.6108 18.0234 22.162 17.4243 21.0941 16.3531C20.0262 15.2852 19.4238 13.8364 19.4238 12.3257V7.44198C19.4238 6.09408 20.5178 5.00012 21.8657 5.00012H44.6564C46.0076 5.00012 47.0982 6.09408 47.0982 7.44198ZM42.2145 9.88384H24.3075V12.3257C24.3075 12.5406 24.3955 12.749 24.5485 12.902C24.7015 13.055 24.9066 13.1397 25.1215 13.1397H41.4006C41.6187 13.1397 41.8238 13.055 41.9769 12.902C42.1299 12.749 42.2145 12.5406 42.2145 12.3257V9.88384Z" fill="black"/>
</svg>
