<svg width="80" height="80" viewBox="0 0 80 80" fill="none" xmlns="http://www.w3.org/2000/svg">
<path d="M66.0465 4.99988H13.9535C9.00465 4.99988 5 9.00453 5 13.9534V66.0464C5 70.9952 9.00465 74.9999 13.9535 74.9999H66.0465C70.9953 74.9999 75 70.9952 75 66.0464V13.9534C75 9.00453 70.9953 4.99988 66.0465 4.99988ZM9.88372 13.9534C9.88372 11.7069 11.707 9.8836 13.9535 9.8836H66.0465C68.293 9.8836 70.1163 11.7069 70.1163 13.9534V18.0231H9.88372V13.9534ZM70.1163 66.0464C70.1163 68.2929 68.293 70.1162 66.0465 70.1162H13.9535C11.707 70.1162 9.88372 68.2929 9.88372 66.0464V22.9069H70.1163V66.0464ZM18.186 48.2371C17.2419 47.2929 17.2419 45.7301 18.186 44.7859L26.3256 36.6464C27.2698 35.7022 28.8326 35.7022 29.7767 36.6464C30.7209 37.5906 30.7209 39.1534 29.7767 40.0975L23.3628 46.5115L29.7767 52.9255C30.7209 53.8696 30.7209 55.4324 29.7767 56.3766C29.2884 56.865 28.6698 57.0929 28.0512 57.0929C27.4326 57.0929 26.814 56.865 26.3256 56.3766L18.186 48.2371ZM50.1907 52.9255L56.6047 46.5115L50.1907 40.0975C49.2465 39.1534 49.2465 37.5906 50.1907 36.6464C51.1349 35.7022 52.6977 35.7022 53.6419 36.6464L61.7814 44.7859C62.7256 45.7301 62.7256 47.2929 61.7814 48.2371L53.6419 56.3766C53.1535 56.865 52.5349 57.0929 51.9163 57.0929C51.2977 57.0929 50.6791 56.865 50.1907 56.3766C49.2465 55.4324 49.2465 53.8696 50.1907 52.9255ZM33.6512 58.8185L41.6279 32.772C42.0186 31.5022 43.386 30.7534 44.6884 31.1441C45.9907 31.5348 46.707 32.9022 46.3163 34.2045L38.3395 60.251C38.014 61.2929 37.0372 61.9766 35.9953 61.9766C35.7674 61.9766 35.507 61.9441 35.2791 61.8789C33.9767 61.4882 33.2605 60.1208 33.6512 58.8185Z" fill="black"/>
</svg>
