<svg width="162" height="48" viewBox="0 0 162 48" fill="none" xmlns="http://www.w3.org/2000/svg">
<g clip-path="url(#clip0_3412_28737)">
<path fill-rule="evenodd" clip-rule="evenodd" d="M7.75519 24.3047C7.55843 24.8554 7.24235 25.3558 6.8295 25.7704H6.83167C6.35669 26.2465 5.76904 26.5952 5.12315 26.7842C4.47726 26.9731 3.79405 26.9963 3.13683 26.8515C2.47959 26.7066 1.86961 26.3985 1.3634 25.9556C0.857197 25.5128 0.471133 24.9495 0.241007 24.318C0.0108805 23.6866 -0.0558798 23.0073 0.0469128 22.3432C0.149717 21.6791 0.41874 21.0516 0.829072 20.5191C1.2394 19.9864 1.77777 19.5658 2.39426 19.2962C3.01076 19.0266 3.68545 18.9166 4.35581 18.9766L4.3362 18.9571C5.02227 19.0149 5.7127 18.9225 6.35932 18.6864C7.00595 18.4503 7.59318 18.0762 8.08003 17.5901C8.56688 17.104 8.94156 16.5178 9.17804 15.8722C9.41451 15.2266 9.5071 14.5372 9.44915 13.8522L9.46876 13.8718C9.39186 13.0527 9.56995 12.2298 9.97874 11.5154C10.3874 10.801 11.0069 10.2299 11.7527 9.87987C12.4984 9.52989 13.3342 9.41807 14.1459 9.55969C14.9576 9.70131 15.7059 10.0895 16.2886 10.6712C16.8712 11.253 17.2601 12 17.4019 12.8105C17.5437 13.6209 17.4317 14.4553 17.0812 15.1999C16.7306 15.9445 16.1586 16.563 15.4431 16.9711C14.7276 17.3792 13.9033 17.557 13.0829 17.4802L13.1036 17.4998C12.4174 17.4416 11.7267 17.5337 11.0798 17.7697C10.4329 18.0056 9.84542 18.3797 9.35831 18.8658C8.87119 19.3519 8.49624 19.9383 8.25964 20.5841C8.02305 21.2299 7.9305 21.9195 7.98845 22.6046L7.96777 22.585C8.02454 23.1669 7.95195 23.7541 7.75519 24.3047ZM14.1298 27.953L14.1091 27.9334C14.6922 27.9921 15.281 27.9206 15.8331 27.7242C16.3852 27.5278 16.8867 27.2114 17.3012 26.7979C17.7157 26.3843 18.0331 25.8838 18.2302 25.3327C18.4273 24.7817 18.4993 24.1939 18.441 23.6116L18.4617 23.6312C18.4038 22.9462 18.4964 22.2569 18.7327 21.6112C18.9692 20.9657 19.344 20.3794 19.8308 19.8933C20.3177 19.4073 20.9049 19.0331 21.5515 18.7971C22.1982 18.5609 22.8886 18.4686 23.5747 18.5264L23.554 18.5068C24.3747 18.5838 25.1992 18.4061 25.915 17.9979C26.631 17.5898 27.2033 16.9712 27.554 16.2264C27.9048 15.4816 28.0169 14.6469 27.875 13.8361C27.7332 13.0254 27.3444 12.278 26.7614 11.696C26.1785 11.1141 25.43 10.7258 24.618 10.5842C23.8059 10.4425 22.9699 10.5545 22.2239 10.9047C21.4779 11.2549 20.8583 11.8263 20.4495 12.541C20.0407 13.2558 19.8627 14.079 19.9398 14.8984L19.9202 14.8777C19.9783 15.5628 19.8859 16.2522 19.6496 16.8979C19.4132 17.5436 19.0384 18.1299 18.5516 18.6161C18.0647 19.1021 17.4774 19.4763 16.8307 19.7123C16.1839 19.9483 15.4934 20.0405 14.8073 19.9826L14.8269 20.0032C14.2438 19.9446 13.6549 20.0161 13.1028 20.2125C12.5508 20.4088 12.0493 20.7252 11.6347 21.1388C11.2202 21.5524 10.9029 22.0529 10.7057 22.6039C10.5087 23.155 10.4367 23.7428 10.4949 24.325L10.4753 24.3055C10.5331 24.9904 10.4404 25.6797 10.2039 26.3252C9.96731 26.9707 9.5926 27.5569 9.10582 28.043C8.61899 28.529 8.03184 28.9031 7.3853 29.1393C6.73876 29.3754 6.04841 29.4679 5.36238 29.4103L5.38199 29.4299C4.56126 29.3529 3.73673 29.5306 3.02086 29.9387C2.30501 30.3469 1.73266 30.9655 1.38191 31.7103C1.03115 32.4552 0.919042 33.2898 1.0609 34.1006C1.20275 34.9113 1.59166 35.6587 2.17455 36.2406C2.75745 36.8226 3.50596 37.2109 4.31801 37.3525C5.13006 37.4941 5.96609 37.3822 6.71209 37.032C7.45807 36.6818 8.07771 36.1104 8.48647 35.3957C8.89526 34.6809 9.07325 33.8577 8.99613 33.0383L9.01682 33.0579C8.95888 32.3728 9.05146 31.6836 9.28794 31.0379C9.52431 30.3923 9.89912 29.8061 10.3859 29.3199C10.8728 28.8339 11.46 28.4597 12.1066 28.2237C12.7533 27.9876 13.4437 27.8952 14.1298 27.953ZM22.1652 22.2272C21.7524 22.6419 21.4363 23.1424 21.2393 23.6929C21.0424 24.2435 20.9695 24.8306 21.0258 25.4126L21.0062 25.393C21.0642 26.078 20.9716 26.7673 20.7351 27.413C20.4986 28.0585 20.1239 28.6448 19.6371 29.1309C19.1502 29.6169 18.563 29.9911 17.9163 30.2271C17.2698 30.4632 16.5793 30.5557 15.8933 30.4978L15.9129 30.5174C15.0922 30.4412 14.268 30.6194 13.5525 31.028C12.8371 31.4366 12.2652 32.0555 11.915 32.8004C11.5648 33.5454 11.4532 34.38 11.5954 35.1906C11.7378 36.0011 12.127 36.7481 12.71 37.3298C13.2931 37.9114 14.0417 38.2993 14.8536 38.4405C15.6656 38.5819 16.5014 38.4697 17.2472 38.1194C17.993 37.769 18.6124 37.1976 19.021 36.4829C19.4295 35.7682 19.6074 34.9451 19.5303 34.1258L19.551 34.1454C19.493 33.4605 19.5855 32.7711 19.822 32.1254C20.0585 31.4799 20.4333 30.8936 20.9201 30.4075C21.407 29.9214 21.9942 29.5472 22.6408 29.3112C23.2874 29.0751 23.9778 28.9827 24.6639 29.0405L24.6432 29.021C25.3136 29.0811 25.9884 28.9714 26.605 28.7019C27.2215 28.4324 27.76 28.0119 28.1704 27.4793C28.5809 26.9467 28.8501 26.3192 28.953 25.6552C29.0559 24.991 28.9892 24.3118 28.7592 23.6801C28.5291 23.0486 28.1431 22.4853 27.6369 22.0423C27.1308 21.5994 26.5208 21.2912 25.8635 21.1463C25.2063 21.0015 24.523 21.0245 23.8771 21.2134C23.2311 21.4024 22.6435 21.7511 22.1685 22.2272H22.1652ZM43.9138 14.486H47.4778V31.8296H43.9138V14.486ZM50.5451 22.3858C49.8563 23.4246 49.4913 24.6445 49.4962 25.8908C49.4901 26.7182 49.649 27.5385 49.9636 28.3038C50.2781 29.069 50.742 29.7639 51.3284 30.3478C51.9146 30.9316 52.6113 31.3928 53.3778 31.7043C54.1444 32.0158 54.9653 32.1715 55.7926 32.162C57.039 32.162 58.2573 31.792 59.2934 31.099C60.3293 30.4062 61.1363 29.4212 61.6121 28.2693C62.0879 27.1173 62.2112 25.85 61.9661 24.6279C61.7211 23.4058 61.1189 22.284 60.2358 21.4045C59.3528 20.5249 58.2285 19.9273 57.0054 19.6872C55.7824 19.447 54.5157 19.5753 53.3656 20.0558C52.2155 20.5362 51.2339 21.3471 50.5451 22.3858ZM58.028 24.3931C58.3372 24.8326 58.5101 25.3536 58.525 25.8908C58.545 26.2585 58.4886 26.6263 58.3594 26.971C58.2303 27.3158 58.031 27.6301 57.7743 27.8941C57.5176 28.158 57.209 28.3658 56.8679 28.5045C56.5268 28.6432 56.1606 28.7098 55.7926 28.7C55.2552 28.7 54.7296 28.5416 54.2817 28.2446C53.8338 27.9476 53.4834 27.5252 53.2743 27.0301C53.0651 26.535 53.0067 25.9892 53.106 25.4611C53.2053 24.9328 53.4582 24.4456 53.8329 24.0604C54.2076 23.6751 54.6876 23.409 55.2129 23.295C55.7381 23.181 56.2852 23.2244 56.786 23.4198C57.2866 23.615 57.7186 23.9536 58.028 24.3931ZM76.2934 19.9508V31.2308C76.2934 35.222 73.1806 36.9092 70.021 36.9092C68.9086 36.9925 67.7946 36.7678 66.8014 36.2598C65.8083 35.7517 64.9742 34.98 64.3906 34.0292L67.4314 32.2712C67.6767 32.7668 68.0675 33.1757 68.5515 33.4432C69.0356 33.7105 69.5897 33.8238 70.1398 33.7676C70.4914 33.8164 70.8495 33.7854 71.1875 33.677C71.5254 33.5687 71.8348 33.3857 72.0926 33.1417C72.3503 32.8976 72.5499 32.5988 72.6766 32.2672C72.8032 31.9356 72.8536 31.5798 72.8242 31.226V30.14C72.4068 30.6506 71.8757 31.0564 71.2732 31.3246C70.6707 31.5928 70.0138 31.716 69.355 31.6844C67.7876 31.635 66.3009 30.9776 65.2096 29.8513C64.1183 28.7251 63.5081 27.2184 63.5081 25.6502C63.5081 24.0821 64.1183 22.5754 65.2096 21.4492C66.3009 20.3228 67.7876 19.6655 69.355 19.616C70.0138 19.5845 70.6707 19.7077 71.2732 19.9759C71.8757 20.2441 72.4068 20.6498 72.8242 21.1604V19.9484L76.2934 19.9508ZM72.8254 25.652C72.8494 25.0777 72.7008 24.5093 72.399 24.02C72.0972 23.5307 71.6559 23.143 71.1318 22.9067C70.6078 22.6703 70.0251 22.5962 69.4586 22.6939C68.892 22.7916 68.3678 23.0566 67.953 23.4548C67.5384 23.853 67.2525 24.3661 67.1319 24.9282C67.0114 25.4903 67.0618 26.0756 67.2768 26.6088C67.4918 27.142 67.8614 27.5987 68.338 27.92C68.8146 28.2414 69.3766 28.4128 69.9514 28.412C70.3259 28.4382 70.7016 28.3856 71.0546 28.2577C71.4075 28.1298 71.7297 27.9293 72.0004 27.6694C72.2711 27.4093 72.4845 27.0955 72.6266 26.748C72.7686 26.4006 72.8364 26.0273 72.8254 25.652ZM79.3607 22.3858C78.6718 23.4246 78.3069 24.6445 78.3118 25.8908C78.3057 26.7182 78.4646 27.5385 78.7792 28.3038C79.0937 29.069 79.5576 29.7639 80.144 30.3478C80.7302 30.9316 81.4269 31.3928 82.1935 31.7043C82.9599 32.0158 83.7809 32.1715 84.6082 32.162C85.8546 32.162 87.0729 31.792 88.109 31.099C89.1449 30.4062 89.9519 29.4212 90.4277 28.2693C90.9035 27.1173 91.0268 25.85 90.7817 24.6279C90.5367 23.4058 89.9345 22.284 89.0515 21.4045C88.1684 20.5249 87.0441 19.9273 85.8211 19.6872C84.598 19.447 83.3313 19.5753 82.1812 20.0558C81.0311 20.5362 80.0495 21.3471 79.3607 22.3858ZM86.8436 24.3931C87.1528 24.8326 87.3257 25.3536 87.3406 25.8908C87.3606 26.2585 87.3042 26.6263 87.175 26.971C87.0459 27.3158 86.8466 27.6301 86.5899 27.8941C86.3332 28.158 86.0246 28.3658 85.6834 28.5045C85.3424 28.6432 84.9762 28.7098 84.6082 28.7C84.0707 28.7 83.5453 28.5416 83.0973 28.2446C82.6495 27.9476 82.2991 27.5252 82.0899 27.0301C81.8807 26.535 81.8222 25.9892 81.9215 25.4611C82.0209 24.9328 82.2739 24.4456 82.6485 24.0604C83.0233 23.6751 83.5033 23.409 84.0285 23.295C84.5536 23.181 85.1008 23.2244 85.6016 23.4198C86.1022 23.615 86.5342 23.9536 86.8436 24.3931ZM92.5666 16.7672C92.5666 16.3442 92.692 15.9308 92.9269 15.5792C93.1619 15.2275 93.496 14.9534 93.8867 14.7916C94.2774 14.6297 94.7074 14.5874 95.1222 14.6699C95.5369 14.7524 95.9181 14.9561 96.2171 15.2551C96.5162 15.5542 96.7198 15.9352 96.8024 16.35C96.8848 16.7648 96.8424 17.1948 96.6807 17.5855C96.5188 17.9763 96.2447 18.3102 95.893 18.5452C95.5414 18.7802 95.128 18.9056 94.705 18.9056C94.1397 18.8999 93.5989 18.6729 93.1991 18.273C92.7994 17.8732 92.5722 17.3326 92.5666 16.7672ZM92.9266 19.9508H96.4918V31.8308H92.9218L92.9266 19.9508ZM111.544 28.2023C111.807 27.4615 111.922 26.676 111.881 25.8908C111.922 25.1056 111.808 24.3198 111.545 23.5789C111.281 22.8379 110.874 22.1563 110.346 21.5734C109.818 20.9904 109.181 20.5176 108.469 20.1821C107.758 19.8466 106.988 19.655 106.202 19.6184C105.542 19.5824 104.882 19.6937 104.27 19.9442C103.658 20.1947 103.109 20.5782 102.663 21.0668V19.9508H99.0994V36.5816H102.663V30.7124C103.109 31.2014 103.657 31.5852 104.269 31.836C104.882 32.0867 105.542 32.198 106.202 32.162C106.988 32.1253 107.758 31.9337 108.469 31.5983C109.18 31.2628 109.818 30.79 110.345 30.2072C110.873 29.6244 111.28 28.943 111.544 28.2023ZM107.806 24.3397C108.125 24.7954 108.303 25.3349 108.317 25.8908C108.343 26.2721 108.289 26.6548 108.157 27.0136C108.026 27.3724 107.82 27.6992 107.553 27.973C107.286 28.2466 106.964 28.4608 106.609 28.6013C106.254 28.7419 105.872 28.8059 105.491 28.7888C104.934 28.789 104.391 28.6249 103.927 28.3175C103.464 28.0099 103.101 27.5726 102.885 27.0601C102.669 26.5476 102.609 25.9829 102.712 25.4364C102.816 24.8898 103.078 24.386 103.466 23.9878C103.854 23.5896 104.352 23.3148 104.895 23.1978C105.439 23.0807 106.005 23.1266 106.523 23.3298C107.041 23.5328 107.487 23.8842 107.806 24.3397ZM122.879 28.2656C122.879 30.998 120.504 32.162 117.938 32.162C116.901 32.2559 115.861 32.0368 114.95 31.5326C114.039 31.0286 113.301 30.263 112.83 29.3348L115.917 27.5768C116.042 28.0058 116.311 28.3792 116.678 28.6342C117.044 28.8893 117.488 29.0108 117.933 28.9784C118.788 28.9784 119.216 28.7168 119.216 28.2428C119.216 27.7711 118.456 27.5592 117.484 27.2884C115.76 26.8082 113.371 26.1425 113.371 23.5148C113.371 20.924 115.557 19.6184 118.028 19.6184C118.957 19.589 119.876 19.8094 120.691 20.2564C121.506 20.7035 122.186 21.3608 122.66 22.16L119.619 23.7992C119.486 23.4881 119.264 23.223 118.981 23.0371C118.698 22.8512 118.367 22.7528 118.028 22.754C117.41 22.754 117.03 22.994 117.03 23.4188C117.032 23.9023 117.777 24.0982 118.735 24.3499C120.462 24.8036 122.879 25.4387 122.879 28.2656ZM135.897 31.8308V19.9508L132.337 19.9544V26.4344C132.337 28.1216 131.435 28.8812 130.128 28.8812C129.843 28.8985 129.559 28.8536 129.295 28.7498C129.03 28.646 128.791 28.4858 128.594 28.2802C128.397 28.0747 128.247 27.8287 128.156 27.5594C128.064 27.2902 128.031 27.0042 128.061 26.7212V19.9508H124.497V27.2432C124.497 30.4532 126.537 32.1632 128.937 32.1632C129.578 32.2074 130.219 32.099 130.809 31.847C131.4 31.595 131.922 31.2066 132.333 30.7136V31.8308H135.897ZM156.333 24.536V31.8296H152.769V24.8444C152.769 23.6564 152.199 22.8968 151.059 22.8968C149.871 22.8968 149.205 23.7284 149.205 25.13V31.8296H145.643V24.8444C145.643 23.6564 145.073 22.8968 143.931 22.8968C142.743 22.8968 142.079 23.7284 142.079 25.13V31.8296H138.515V19.9496H142.079V21.0416C142.448 20.5571 142.933 20.1729 143.489 19.9241C144.045 19.6752 144.655 19.5698 145.262 19.6172C145.872 19.5873 146.479 19.716 147.025 19.9907C147.57 20.2653 148.034 20.6766 148.374 21.1844C148.769 20.6531 149.292 20.2307 149.894 19.9566C150.497 19.6826 151.159 19.5658 151.819 19.6172C154.547 19.6184 156.333 21.566 156.333 24.536ZM161.993 17.2328C161.993 18.6935 160.808 19.8776 159.348 19.8776C157.887 19.8776 156.703 18.6935 156.703 17.2328C156.703 15.7721 157.887 14.588 159.348 14.588C160.808 14.588 161.993 15.7721 161.993 17.2328Z" fill="black"/>
</g>
<defs>
<clipPath id="clip0_3412_28737">
<rect width="161.993" height="48" fill="white"/>
</clipPath>
</defs>
</svg>
