<svg width="1361" height="900" viewBox="0 0 1361 900" fill="none" xmlns="http://www.w3.org/2000/svg">
<path d="M1134.38 500.093L990.682 743.642L1042.03 834.066C1053.49 854.178 1070.06 870.876 1090.05 882.459C1110.03 894.041 1132.72 900.093 1155.79 899.999H1360.98L1134.38 500.093Z" fill="#024DF5"/>
<path d="M0 899.999H189.828C217.518 900.098 244.74 892.824 268.722 878.92C292.705 865.015 312.592 844.976 326.359 820.841L684.547 204.005L796.223 401.047L506.738 899.999H696.555C724.245 900.097 751.467 892.824 775.449 878.92C799.432 865.015 819.319 844.975 833.086 820.841L1077.38 399.627L940.215 158.185C939.727 157.352 939.288 156.519 938.752 155.686C904.41 96.6033 852.015 50.2219 789.347 23.4296C779.839 19.4129 770.136 15.7881 760.091 12.6531C711.296 -2.9591 659.062 -4.14934 609.613 9.22421L578.162 20.1966C578.162 20.1966 487.515 51.8893 433.439 152.845L432.805 154.021L429.538 159.654L0 899.999Z" fill="#024DF5"/>
</svg>
