<svg width="60" height="60" viewBox="0 0 60 60" fill="none" xmlns="http://www.w3.org/2000/svg">
<path fill-rule="evenodd" clip-rule="evenodd" d="M22.5185 2.04102C24.8463 0.740936 27.5288 5.6739e-06 30.3843 5.6739e-06C33.2399 5.6739e-06 35.9223 0.740936 38.2501 2.04102L39.9529 0.337967C40.4036 -0.112656 41.1342 -0.112656 41.5849 0.337967C42.0354 0.788567 42.0354 1.51914 41.5849 1.96974L40.2179 3.33681C44.0611 6.28981 46.5382 10.9325 46.5382 16.1539H14.2305C14.2305 10.9325 16.7075 6.28981 20.5508 3.33681L19.1837 1.96974C18.7332 1.51914 18.7332 0.788567 19.1837 0.337967C19.6344 -0.112656 20.365 -0.112656 20.8157 0.337967L22.5185 2.04102ZM25.7689 9.23077C25.7689 10.5053 24.7358 11.5385 23.4612 11.5385C22.1867 11.5385 21.1535 10.5053 21.1535 9.23077C21.1535 7.95628 22.1867 6.92308 23.4612 6.92308C24.7358 6.92308 25.7689 7.95628 25.7689 9.23077ZM37.3074 11.5385C38.5819 11.5385 39.6151 10.5053 39.6151 9.23077C39.6151 7.95628 38.5819 6.92308 37.3074 6.92308C36.0329 6.92308 34.9997 7.95628 34.9997 9.23077C34.9997 10.5053 36.0329 11.5385 37.3074 11.5385Z" fill="#87C527"/>
<path d="M5 21.923C5 20.0113 6.54978 18.4614 8.46154 18.4614C10.3733 18.4614 11.9231 20.0113 11.9231 21.923V35.7691C11.9231 37.6808 10.3733 39.2307 8.46154 39.2307C6.54978 39.2307 5 37.6808 5 35.7691V21.923Z" fill="#87C527"/>
<path d="M21.1535 48.4609V56.5379C21.1535 58.4495 22.7034 59.9994 24.6151 59.9994C26.5268 59.9994 28.0766 58.4495 28.0766 56.5379V48.4609H32.692V56.5379C32.692 58.4495 34.2419 59.9994 36.1535 59.9994C38.0652 59.9994 39.6151 58.4495 39.6151 56.5379V48.4609H41.9228C44.4718 48.4609 46.5382 46.3946 46.5382 43.8456V18.4609H14.2305V43.8456C14.2305 46.3946 16.2968 48.4609 18.8459 48.4609H21.1535Z" fill="#87C527"/>
<path d="M48.8457 21.9225C48.8457 20.0108 50.3955 18.4609 52.3072 18.4609C54.2189 18.4609 55.7688 20.0108 55.7688 21.9225V35.7686C55.7688 37.6803 54.2189 39.2302 52.3072 39.2302C50.3955 39.2302 48.8457 37.6803 48.8457 35.7686V21.9225Z" fill="#87C527"/>
</svg>
