<svg width="60" height="60" viewBox="0 0 60 60" fill="none" xmlns="http://www.w3.org/2000/svg">
<path fill-rule="evenodd" clip-rule="evenodd" d="M18.5676 43.4358L21.8902 35.0655L29.0534 34.9666L36.9074 34.9289L40.5854 43.485L46.5645 43.6173L29.0987 6.12407L12.3565 43.4615L18.5676 43.4358ZM29.0818 18.0834L34.7414 30H29.418H24.0946L29.0818 18.0834Z" fill="white"/>
<path d="M29.1294 59L52.0943 46.185L56.375 10.4335L29.1006 1L29.0987 6.12407L46.5645 43.6173L40.5854 43.485L36.9074 34.9289L29.0534 34.9666L29.1294 59Z" fill="#C3002F"/>
<path d="M34.7414 30L29.0818 18.0834L29.418 30H34.7414Z" fill="#C3002F"/>
<path d="M29.1006 1L2 10.6034L6.28207 46.3559L29.1294 59L29.0534 34.9666L21.8902 35.0655L18.5676 43.4358L12.3565 43.4615L29.0987 6.12407L29.1006 1Z" fill="#DD0031"/>
<path d="M29.0818 18.0834L24.0946 30H29.418L29.0818 18.0834Z" fill="#DD0031"/>
</svg>
