<svg width="60" height="60" viewBox="0 0 60 60" fill="none" xmlns="http://www.w3.org/2000/svg">
<mask id="mask0_786_34723" style="mask-type:luminance" maskUnits="userSpaceOnUse" x="1" y="12" width="58" height="36">
<path d="M59 12.6902H1V47.3098H59V12.6902Z" fill="white"/>
</mask>
<g mask="url(#mask0_786_34723)">
<path d="M1.33657 35.3676C1.80062 35.5314 2.25602 35.7188 2.70103 35.9289C18.5886 44.3691 34.9283 45.501 51.7411 38.9775C52.0715 38.7975 52.4356 38.6878 52.8105 38.6553C53.2116 38.6818 53.589 38.8548 53.8709 39.1413C53.9853 39.2777 53.7488 39.8274 53.5409 40.0873C53.2732 40.3519 52.9664 40.5737 52.6312 40.7448C44.8999 45.6077 35.8139 47.8656 26.7056 47.1874C17.5973 46.5092 8.94596 42.9306 2.0201 36.9763C1.66023 36.627 1.31969 36.2582 1 35.8718L1.33657 35.3676Z" fill="#FF9900"/>
<path d="M30.5927 17.5216C29.8902 20.4307 29.1876 23.3399 28.485 26.249C28.3329 26.8779 28.2043 27.5134 28.0548 28.1423C27.5571 30.2358 27.1374 30.5516 25.0465 30.1942C24.8208 30.1576 24.6059 30.0718 24.4171 29.9429C24.2282 29.814 24.07 29.6452 23.9537 29.4483C22.3748 24.1867 20.8583 18.9043 19.3314 13.6232C19.321 13.5855 19.3756 13.5296 19.4003 13.4815C21.7562 12.6628 22.406 12.9851 22.979 15.2293C23.8272 18.5768 24.6779 21.9226 25.5312 25.2666C25.6066 25.559 25.7327 25.837 25.9783 26.5206C26.9659 22.3726 27.9002 18.6379 28.7254 14.8798C28.9853 13.692 29.4206 13.119 30.7409 13.1255C32.0287 13.1255 32.6901 13.4854 32.9825 14.8252C33.8033 18.6813 34.8239 22.4922 36.0402 26.2425L37.8842 19.1395C38.209 17.8868 38.5348 16.6341 38.8614 15.3814C39.5111 12.8786 39.8282 12.694 42.6689 13.3542C42.561 13.8506 42.4908 14.3639 42.3349 14.8486C40.8587 19.4709 39.2993 24.0684 37.9011 28.7154C37.4566 30.1942 36.5405 30.2306 35.332 30.2553C34.0949 30.28 33.8194 29.5848 33.5894 28.592C32.7369 24.917 31.826 21.2551 30.9371 17.5879L30.5927 17.5216Z" fill="#252F3F"/>
<path d="M18.0086 27.7317C17.6308 26.9036 17.4353 26.004 17.4355 25.0938C17.3614 22.8847 17.4355 20.6755 17.416 18.4664C17.377 15.2515 15.6552 12.9761 12.4637 12.7227C10.2791 12.6936 8.10053 12.9593 5.98701 13.5128C4.43672 13.8207 4.2431 14.9955 4.76419 16.5016C6.05198 16.1299 7.25661 15.6855 8.49891 15.4399C12.7157 14.6043 14.4675 16.1741 14.0867 20.1687C12.1648 20.1687 10.3325 20.0388 8.5327 20.1973C7.78619 20.2234 7.05358 20.4066 6.38274 20.7352C5.71189 21.0637 5.11791 21.53 4.63959 22.1038C4.16128 22.6775 3.8094 23.3457 3.60695 24.0647C3.4045 24.7837 3.35602 25.5373 3.4647 26.2763C3.5273 26.9799 3.74164 27.6615 4.09297 28.2742C4.44429 28.887 4.92426 29.4163 5.4998 29.8257C6.07535 30.2351 6.7328 30.5149 7.42688 30.6459C8.12095 30.7768 8.83516 30.7557 9.52031 30.5841C11.2906 30.1105 13.0065 29.4533 14.6403 28.6232C14.6533 28.6453 14.8859 29.0013 15.1224 29.3548C15.6084 30.076 16.0931 30.6465 17.0833 30.0046C17.954 29.438 18.6596 28.9949 17.993 27.733M9.78801 28.1229C9.07915 28.1476 8.38641 27.908 7.84438 27.4505C7.30235 26.993 6.94974 26.3503 6.85506 25.6474C6.79392 25.2985 6.80446 24.9409 6.88607 24.5962C6.96767 24.2516 7.11861 23.9271 7.3297 23.6427C7.54078 23.3583 7.80758 23.1199 8.11383 22.942C8.42008 22.7641 8.75936 22.6504 9.11097 22.6079C10.7701 22.4904 12.4348 22.4752 14.0958 22.5624C14.3323 26.3686 12.8041 28.1502 9.78801 28.1229Z" fill="#252F3F"/>
<path d="M55.4522 16.1975C54.9724 16.0184 54.4835 15.8644 53.9877 15.7362C52.9469 15.4706 51.8859 15.292 50.8156 15.2021C48.8157 15.1411 47.641 15.8753 47.5279 17.1202C47.3655 18.9005 48.7416 19.3566 50.0073 19.8387C51.0131 20.222 52.0696 20.4715 53.078 20.8497C54.027 21.1057 54.8701 21.6566 55.4856 22.423C56.101 23.1893 56.457 24.1314 56.5022 25.1133C56.5829 26.096 56.3533 27.0792 55.8458 27.9245C55.3383 28.7698 54.5784 29.4346 53.6732 29.8253C52.2673 30.4645 50.7365 30.7816 49.1924 30.7535C47.6483 30.7254 46.13 30.3528 44.7483 29.6628C43.519 29.1339 43.9374 28.1034 44.0414 26.9339C44.6086 27.1331 45.1892 27.292 45.7788 27.4095C47.5165 27.6966 49.272 27.8634 51.0326 27.9085C51.6154 27.936 52.1855 27.7334 52.6204 27.3445C53.0552 26.9556 53.3199 26.4115 53.3574 25.8293C53.4874 24.422 52.4933 23.8255 51.3718 23.4292C50.1529 22.999 48.8963 22.6742 47.6787 22.2375C46.6263 21.9498 45.6992 21.3207 45.043 20.4491C44.3868 19.5774 44.0386 18.5126 44.0531 17.4216C44.1042 16.3544 44.5232 15.3376 45.2388 14.5441C45.9543 13.7506 46.9225 13.2292 47.9788 13.0684C49.9372 12.837 51.9177 12.8672 53.8681 13.158C55.4496 13.3231 56.0188 14.3938 55.4522 16.1975Z" fill="#252F3F"/>
<path d="M54.1186 44.9811C54.6657 43.4049 55.1478 42.1223 55.5598 40.8163C56.7631 37.0075 56.2212 36.3032 52.2448 36.5007C50.8816 36.5683 49.5159 36.7047 48.1605 36.81C48.1098 36.6696 48.0578 36.5293 48.0059 36.3889C48.4601 36.0063 48.9481 35.6657 49.4639 35.3714C51.968 34.1776 54.8091 33.891 57.5012 34.5606C58.1107 34.71 59.0125 35.5417 59.0021 36.042C59.0158 37.6637 58.6772 39.2691 58.0097 40.7472C57.3423 42.2253 56.3618 43.5409 55.1361 44.603C54.815 44.772 54.4735 44.899 54.1199 44.9811" fill="#FF9900"/>
</g>
</svg>
