<svg width="60" height="60" viewBox="0 0 60 60" fill="none" xmlns="http://www.w3.org/2000/svg">
<path d="M30.0005 0.0501709L3.875 14.9874V44.8368L30.0005 59.9498L56.126 45.0125V15.0627L30.0005 0.0501709ZM51.306 41.8828L30.0005 54.2008L8.69508 42.0167V17.933L30.0005 5.61502L51.306 17.9749V41.8828Z" fill="#2474BB"/>
<path d="M40.2923 29.9999C39.8823 29.9999 39.4723 30.0417 39.0706 30.1171C35.9911 26.1422 31.4806 23.5229 26.5016 22.8116L48.0413 10.3597L43.0287 7.48108L23.33 18.8618C20.5852 16.8535 16.7359 17.456 14.7275 20.2091C12.7191 22.9539 13.3216 26.8033 16.0748 28.8116C18.761 30.7698 22.5099 30.2426 24.5601 27.6233C28.6438 27.8576 32.4346 29.8158 34.9869 33.0041C34.4262 33.9497 34.125 35.0292 34.1334 36.1338C34.1334 36.3514 34.1501 36.5773 34.1752 36.7949L12.0664 49.5731L17.0539 52.4434L36.6605 41.1045C39.3969 43.1129 43.2463 42.5187 45.2547 39.7823C47.2631 37.0459 46.6689 33.1966 43.9325 31.1882C42.8781 30.4099 41.6062 29.9999 40.2923 29.9999Z" fill="#76CAE7"/>
</svg>
