<svg width="60" height="60" viewBox="0 0 60 60" fill="none" xmlns="http://www.w3.org/2000/svg">
<path d="M44.166 34.9326V21.8992C44.1674 21.806 44.1407 21.7144 44.0896 21.6364C44.0384 21.5584 43.965 21.4976 43.8789 21.4617C43.7928 21.4258 43.6979 21.4166 43.6065 21.4351C43.515 21.4537 43.4313 21.4993 43.366 21.5659L30.0327 34.8992L16.166 48.7659V58.3326H56.4327C56.6834 58.3371 56.9325 58.291 57.1651 58.1971C57.3977 58.1033 57.6089 57.9635 57.7863 57.7861C57.9636 57.6088 58.1034 57.3975 58.1973 57.165C58.2911 56.9324 58.3372 56.6833 58.3327 56.4326V21.8992C58.334 21.806 58.3074 21.7144 58.2562 21.6364C58.205 21.5584 58.1317 21.4976 58.0455 21.4617C57.9594 21.4258 57.8645 21.4166 57.7731 21.4351C57.6817 21.4537 57.598 21.4993 57.5327 21.5659L44.166 34.9326Z" fill="#005BA1"/>
<path d="M15.833 11.9333C7.99965 11.9333 1.66632 9.63329 1.66632 6.66663V56.4333C1.6618 56.6841 1.70786 56.9331 1.80174 57.1657C1.89562 57.3983 2.03541 57.6095 2.21275 57.7869C2.39009 57.9642 2.60135 58.104 2.83391 58.1979C3.06647 58.2918 3.31556 58.3378 3.56632 58.3333H29.9997V6.66663C29.9997 9.63329 23.6663 11.9333 15.833 11.9333Z" fill="url(#paint0_linear_786_34768)"/>
<path d="M49.6665 43.2333H43.9665C43.4511 43.2333 43.0332 43.6511 43.0332 44.1666V49.8666C43.0332 50.3821 43.4511 50.7999 43.9665 50.7999H49.6665C50.182 50.7999 50.5999 50.3821 50.5999 49.8666V44.1666C50.5999 43.6511 50.182 43.2333 49.6665 43.2333Z" fill="white"/>
<path d="M36.5357 43.234H30.8357C30.3202 43.234 29.9023 43.6519 29.9023 44.1673V49.8673C29.9023 50.3828 30.3202 50.8007 30.8357 50.8007H36.5357C37.0511 50.8007 37.469 50.3828 37.469 49.8673V44.1673C37.469 43.6519 37.0511 43.234 36.5357 43.234Z" fill="white"/>
<path d="M23.397 43.234H17.697C17.1815 43.234 16.7637 43.6519 16.7637 44.1673V49.8673C16.7637 50.3828 17.1815 50.8007 17.697 50.8007H23.397C23.9125 50.8007 24.3303 50.3828 24.3303 49.8673V44.1673C24.3303 43.6519 23.9125 43.234 23.397 43.234Z" fill="white"/>
<path d="M29.9993 6.66663C29.9993 9.49996 23.666 11.8 15.8327 11.8C7.99935 11.8 1.66602 9.63329 1.66602 6.66663C1.66602 3.69996 7.99935 1.66663 15.8327 1.66663C23.666 1.66663 29.9993 3.96663 29.9993 6.66663Z" fill="#EAEAEA"/>
<path d="M26.6689 6.36651C26.6689 8.19985 21.8022 9.69985 15.8022 9.69985C9.80221 9.69985 4.93555 8.26651 4.93555 6.36651C4.93555 4.46651 10.0022 3.13318 15.8355 3.13318C21.6689 3.13318 26.6689 4.56651 26.6689 6.36651Z" fill="#50E6FF"/>
<path d="M15.8324 7.1333C12.9179 7.07571 10.0133 7.49225 7.23242 8.36663C10.0053 9.27861 12.9143 9.70707 15.8324 9.6333C18.7505 9.70707 21.6595 9.27861 24.4324 8.36663C21.6515 7.49225 18.747 7.07571 15.8324 7.1333Z" fill="#198AB3"/>
<defs>
<linearGradient id="paint0_linear_786_34768" x1="1.66632" y1="32.5666" x2="29.9997" y2="32.5666" gradientUnits="userSpaceOnUse">
<stop stop-color="#005BA1"/>
<stop offset="0.07" stop-color="#0060A9"/>
<stop offset="0.36" stop-color="#0071C8"/>
<stop offset="0.52" stop-color="#0078D4"/>
<stop offset="0.64" stop-color="#0074CD"/>
<stop offset="0.81" stop-color="#006ABB"/>
<stop offset="0.99" stop-color="#005BA1"/>
</linearGradient>
</defs>
</svg>
