<svg width="60" height="60" viewBox="0 0 60 60" fill="none" xmlns="http://www.w3.org/2000/svg">
<g clip-path="url(#clip0_786_34762)">
<path fill-rule="evenodd" clip-rule="evenodd" d="M14.502 26.5593V34.2946C15.7212 36.3965 17.451 38.1567 19.5314 39.4123V26.5593H14.502Z" fill="#AECBFA"/>
<path fill-rule="evenodd" clip-rule="evenodd" d="M23.793 19.4419V41.589C24.8755 41.7272 25.9666 41.7862 27.0577 41.7654C28.0371 41.8268 29.0194 41.8268 29.9989 41.7654V19.4419H23.793Z" fill="#669DF6"/>
<path fill-rule="evenodd" clip-rule="evenodd" d="M34.8223 29.5881V39.2646C36.9137 37.9306 38.6338 36.0891 39.8223 33.9117V29.5881H34.8223Z" fill="#AECBFA"/>
<path fill-rule="evenodd" clip-rule="evenodd" d="M46.8832 42.7058L42.7067 46.8823C42.5893 46.9973 42.4961 47.1346 42.4324 47.2861C42.3687 47.4376 42.3359 47.6003 42.3359 47.7647C42.3359 47.929 42.3687 48.0917 42.4324 48.2432C42.4961 48.3947 42.5893 48.532 42.7067 48.647L53.1185 59.0588C53.3496 59.2869 53.6613 59.4148 53.9861 59.4148C54.3109 59.4148 54.6226 59.2869 54.8538 59.0588L59.0596 54.8529C59.2878 54.6217 59.4157 54.31 59.4157 53.9853C59.4157 53.6605 59.2878 53.3488 59.0596 53.1176L48.6479 42.7058C48.5329 42.5885 48.3956 42.4952 48.2441 42.4315C48.0926 42.3679 47.9299 42.3351 47.7655 42.3351C47.6012 42.3351 47.4385 42.3679 47.287 42.4315C47.1355 42.4952 46.9982 42.5885 46.8832 42.7058Z" fill="#4285F4"/>
<path fill-rule="evenodd" clip-rule="evenodd" d="M27.0585 0.588501C21.8231 0.588501 16.7053 2.14097 12.3522 5.0496C7.99915 7.95822 4.60635 12.0924 2.60286 16.9292C0.59936 21.7661 0.0751541 27.0885 1.09653 32.2232C2.1179 37.358 4.63898 42.0746 8.34096 45.7766C12.0429 49.4786 16.7595 51.9997 21.8943 53.0211C27.0291 54.0424 32.3515 53.5182 37.1883 51.5147C42.0252 49.5112 46.1594 46.1184 49.068 41.7654C51.9766 37.4123 53.5291 32.2945 53.5291 27.0591C53.5291 23.5829 52.8444 20.1408 51.5141 16.9292C50.1839 13.7177 48.234 10.7996 45.776 8.34156C43.318 5.88353 40.3999 3.93373 37.1883 2.60345C33.9768 1.27318 30.5347 0.588501 27.0585 0.588501ZM27.0585 46.7356C23.1752 46.7297 19.3807 45.5733 16.1543 43.4122C12.9278 41.2511 10.4142 38.1824 8.93078 34.5935C7.44739 31.0047 7.06079 27.0568 7.81982 23.2484C8.57884 19.4399 10.4494 15.9419 13.1954 13.196C15.9413 10.45 19.4393 8.57944 23.2478 7.82041C27.0562 7.06139 31.0041 7.44799 34.5929 8.93138C38.1818 10.4148 41.2505 12.9284 43.4116 16.1549C45.5727 19.3813 46.7291 23.1758 46.735 27.0591C46.7388 29.6441 46.2325 32.2045 45.2451 34.5935C44.2576 36.9825 42.8084 39.1532 40.9805 40.9811C39.1526 42.809 36.9819 44.2582 34.5929 45.2457C32.2039 46.2331 29.6435 46.7394 27.0585 46.7356Z" fill="#669DF6"/>
</g>
<defs>
<clipPath id="clip0_786_34762">
<rect width="60" height="60" fill="white"/>
</clipPath>
</defs>
</svg>
