<svg width="60" height="60" viewBox="0 0 60 60" fill="none" xmlns="http://www.w3.org/2000/svg">
<g clip-path="url(#clip0_786_34729)">
<path d="M38.1592 19.8253H38.3558L38.2575 19.727L45.1388 12.8456V12.6982C39.3388 7.58631 31.327 5.81682 23.9049 8.02868C16.4829 10.2405 10.7812 16.1389 8.7168 23.61C8.8151 23.5609 8.96256 23.5117 9.11002 23.5117C11.6659 21.8405 14.7134 20.8575 17.9083 20.8575C18.9897 20.8575 20.0219 20.9558 21.0541 21.1524C21.1032 21.1033 21.1524 21.1033 21.2015 21.1033C25.6253 16.2372 33.0965 15.6473 38.2083 19.8253H38.1592Z" fill="#EA4535"/>
<path d="M51.6769 23.5116C50.5464 19.3337 48.1871 15.5489 44.8939 12.6489L37.8651 19.6286C40.8142 22.0371 42.5345 25.6743 42.4362 29.4591V30.6879C50.743 30.6879 50.743 43.0743 42.4362 43.0743H29.9515V52.9049H29.9023L29.9515 53.0032H42.4362C49.6125 53.0523 55.9532 48.432 58.0667 41.6489C60.1803 34.8659 57.5752 27.493 51.6769 23.5116Z" fill="#557EBF"/>
<path d="M17.7114 53.0524H30.6385V43.1236H17.7114C16.7775 43.1236 15.8927 42.927 15.0571 42.5829L7.58594 49.7592V49.8575C10.5351 51.971 14.0741 53.1015 17.7605 53.1015L17.7114 53.0524Z" fill="#36A852"/>
<path d="M18.3016 20.6118C10.9779 20.6609 4.48973 25.1829 2.13041 31.8185C-0.22891 38.5033 2.13041 45.827 7.93041 50.1524L15.5982 42.8287C11.3711 41.0101 10.388 35.7016 13.6321 32.605C16.8762 29.4592 22.3813 30.4423 24.2982 34.4728L31.966 27.149C28.7219 23.0694 23.6592 20.6609 18.3016 20.7101V20.6118Z" fill="#F9BC15"/>
</g>
<defs>
<clipPath id="clip0_786_34729">
<rect width="58" height="46.2034" fill="white" transform="translate(1 6.89819)"/>
</clipPath>
</defs>
</svg>
