<svg width="60" height="60" viewBox="0 0 60 60" fill="none" xmlns="http://www.w3.org/2000/svg">
<path fill-rule="evenodd" clip-rule="evenodd" d="M30.3959 17.206C32.72 17.206 37.0776 13.975 41.6656 14.4462C43.5858 14.5277 48.9744 15.2362 52.4357 20.3981C52.1594 20.5823 46.002 24.235 46.0763 31.8413C46.1543 40.9322 53.8883 43.9507 53.9768 43.9967C53.906 44.2022 52.7404 48.3048 49.8991 52.542C47.4439 56.2017 44.9002 59.8437 40.8897 59.9181C36.9466 59.9961 35.6782 57.5338 31.1682 57.5338C26.6618 57.5338 25.2553 59.8437 21.5212 59.9961C17.6489 60.1449 14.7012 56.0423 12.2283 52.3968C7.16922 44.9321 3.30403 31.3135 8.49425 22.1199C11.0699 17.5532 15.6755 14.6623 20.678 14.5879C24.4794 14.517 28.0718 17.206 30.3959 17.206ZM42.7422 0C43.1496 3.45425 41.6581 6.92266 39.458 9.42031C37.2473 11.9145 33.6301 13.8559 30.0837 13.5938C29.6055 10.2033 31.3946 6.68175 33.4352 4.46394C35.7168 1.96981 39.5679 0.120469 42.7422 0Z" fill="black"/>
</svg>
