<svg width="60" height="60" viewBox="0 0 60 60" fill="none" xmlns="http://www.w3.org/2000/svg">
<g clip-path="url(#clip0_256_12025)">
<mask id="mask0_256_12025" style="mask-type:luminance" maskUnits="userSpaceOnUse" x="7" y="0" width="44" height="59">
<path d="M7.74219 0.650391H50.5187V58.6504H7.74219V0.650391Z" fill="white"/>
</mask>
<g mask="url(#mask0_256_12025)">
<path d="M20.1297 39.1544C20.1297 39.1544 17.6437 40.9926 21.4404 41.3874C26.6115 42.0018 31.8488 41.7503 36.9372 40.6434C37.6239 41.2872 38.4361 41.7824 39.323 42.0979C25.5955 46.1133 10.3073 42.4137 20.1297 39.1544Z" fill="#5382A1"/>
<path fill-rule="evenodd" clip-rule="evenodd" d="M31.8266 28.3836C34.6253 31.6055 31.0928 34.5044 31.0928 34.5044C31.0928 34.5044 38.1974 30.8382 34.9331 26.2449C34.8019 26.0605 34.6721 25.88 34.5447 25.703C31.7139 21.7694 30.0949 19.5198 42.1996 12.5012C42.1996 12.4921 22.3443 17.4519 31.8266 28.3836Z" fill="#F8981D"/>
<path d="M21.5164 45.503C21.5164 45.503 19.3027 46.7915 23.0954 47.2237C27.0946 47.7875 31.1636 47.6164 35.1021 46.7176C36.1209 47.3264 37.1896 47.8475 38.2966 48.2754C26.9478 53.142 12.5989 47.993 21.5164 45.503Z" fill="#5382A1"/>
<path d="M22.5842 32.5742C22.5842 32.5742 12.0432 35.0793 18.8522 35.9883C23.4957 36.3485 28.1618 36.2977 32.7963 35.8365C37.1589 35.4721 41.5376 34.6876 41.5376 34.6876C40.6175 35.0874 39.7319 35.5612 38.8877 36.1047C28.1807 38.9217 7.50348 37.6078 13.4582 34.7312C16.2854 33.2956 19.4145 32.5558 22.5852 32.5732L22.5842 32.5752V32.5742Z" fill="#5382A1"/>
<path d="M41.4951 43.1435C52.3762 37.4904 47.3456 32.0559 43.8333 32.7887C43.4092 32.8677 42.9932 32.979 42.5873 33.1238C42.8179 32.7965 43.1422 32.5467 43.5175 32.4072C50.4652 29.9657 55.8076 39.61 41.2765 43.43C41.3665 43.3495 41.4403 43.2526 41.4941 43.1446L41.4951 43.1435Z" fill="#5382A1"/>
<path fill-rule="evenodd" clip-rule="evenodd" d="M34.9391 0.653552L34.9361 0.650426L34.9381 0.649414L34.9391 0.653552ZM34.9391 0.653552C35.0916 0.809647 40.8072 6.80103 29.2202 15.9468C21.9395 21.6993 24.6368 25.539 27.2261 29.225C27.9846 30.3048 28.7338 31.3713 29.2202 32.4689C23.7219 27.5091 19.6903 23.1435 22.3949 19.0816C23.7163 17.0966 25.8166 15.452 27.9414 13.7881C32.2009 10.4526 36.5591 7.03989 34.9391 0.653552Z" fill="#F8981D"/>
<path d="M46.8436 50.2016C46.8436 50.2016 48.4823 51.5529 45.0368 52.5975C38.4838 54.5824 17.7601 55.1816 12.0017 52.6774C9.93478 51.7756 13.8145 50.5275 15.0383 50.2644C15.6923 50.1044 16.3641 50.0289 17.0374 50.0396C14.7356 48.4201 2.16312 53.223 10.6514 54.6006C33.8004 58.3528 52.8499 52.9113 46.8456 50.2016H46.8436Z" fill="#5382A1"/>
<path d="M23.654 58.4722C34.0978 59.1403 50.1391 58.1018 50.5187 53.1582C50.5187 53.1582 49.7879 55.0308 41.8867 56.5187C33.1493 58.0184 24.2323 58.1549 15.4531 56.9236C15.4531 56.9236 16.7882 58.0259 23.654 58.4722Z" fill="#5382A1"/>
</g>
</g>
<defs>
<clipPath id="clip0_256_12025">
<rect width="43" height="58" fill="white" transform="translate(8 1)"/>
</clipPath>
</defs>
</svg>
