<svg width="60" height="60" viewBox="0 0 60 60" fill="none" xmlns="http://www.w3.org/2000/svg">
<g clip-path="url(#clip0_256_12019)">
<path d="M0 0H60V60H0V0Z" fill="#FFDF00"/>
<path d="M40.3055 46.8753C41.5141 48.8486 43.0865 50.2991 45.8675 50.2991C48.2036 50.2991 49.696 49.1314 49.696 47.5181C49.696 45.5847 48.1627 44.9 45.5913 43.7752L44.1818 43.1704C40.1131 41.4371 37.4103 39.2656 37.4103 34.6752C37.4103 30.4466 40.6323 27.2275 45.6675 27.2275C49.2522 27.2275 51.8294 28.4751 53.6865 31.7418L49.2961 34.5609C48.3294 32.8276 47.2865 32.1447 45.6675 32.1447C44.0161 32.1447 42.9693 33.1924 42.9693 34.5609C42.9693 36.2524 44.017 36.9371 46.436 37.9848L47.8455 38.5885C52.636 40.6428 55.3407 42.7371 55.3407 47.4457C55.3407 52.5219 51.3531 55.3028 45.9978 55.3028C40.7616 55.3028 37.3788 52.8076 35.7235 49.5371L40.3055 46.8753ZM20.3884 47.3639C21.2741 48.9353 22.0798 50.2639 24.017 50.2639C25.8693 50.2639 27.0379 49.5391 27.0379 46.7211V27.5496H32.6761V46.7971C32.6761 52.6352 29.2532 55.2924 24.257 55.2924C19.7427 55.2924 17.1284 52.9562 15.7988 50.1424L20.3884 47.3639Z" fill="black"/>
</g>
<defs>
<clipPath id="clip0_256_12019">
<rect width="60" height="60" fill="white"/>
</clipPath>
</defs>
</svg>
