<svg width="60" height="60" viewBox="0 0 60 60" fill="none" xmlns="http://www.w3.org/2000/svg">
<path d="M29.8734 4.66629e-06C27.9367 0.000854135 26.1582 1.06926 25.248 2.77869C24.3378 4.48811 24.444 6.5601 25.5243 8.16745L27.7636 5.93135C27.6896 5.70829 27.6523 5.4747 27.6531 5.23968C27.6531 4.01867 28.6429 3.02885 29.8639 3.02885C31.0849 3.02885 32.0747 4.01867 32.0747 5.23968C32.0747 6.46068 31.0849 7.45051 29.8639 7.45051C29.6299 7.45102 29.3974 7.41369 29.1754 7.33997L26.9393 9.57606C28.8014 10.839 31.2619 10.7721 33.0527 9.40983C34.8434 8.04756 35.5645 5.6941 34.8443 3.56247C34.1241 1.43085 32.1234 -0.00298497 29.8734 4.66629e-06Z" fill="#34A853"/>
<path d="M27.7895 15.2705C27.7929 13.5005 27.2197 11.7776 26.1566 10.3624L23.251 13.2649C24.1597 14.927 23.8327 16.9928 22.4551 18.293L24.0342 22.1525C26.374 20.6456 27.7884 18.0535 27.7895 15.2705Z" fill="#FBBC04"/>
<path d="M19.6697 19.4363H19.5939C17.8117 19.4365 16.2264 18.3037 15.6492 16.6175C15.072 14.9313 15.6306 13.0647 17.0391 11.9726C18.4475 10.8806 20.3944 10.8046 21.8837 11.7837L24.7609 8.90645C21.9632 6.63826 18.0122 6.4633 15.0249 8.47529C12.0376 10.4873 10.7146 14.2143 11.7649 17.6595C12.8151 21.1046 15.9922 23.4598 19.5939 23.4632C20.1497 23.4635 20.704 23.4084 21.2489 23.299L19.6697 19.4363Z" fill="#EA4335"/>
<path d="M29.9839 22.7748C28.1653 22.7729 26.3563 23.0379 24.6147 23.5612L26.9171 29.1862C27.9194 28.9378 28.9482 28.8126 29.9807 28.8135C35.9637 28.8152 41.1124 33.0429 42.2783 38.9112C43.4443 44.7795 40.3027 50.6543 34.7747 52.943C29.2468 55.2317 22.8719 53.2971 19.5483 48.322C16.2248 43.347 16.8782 36.7171 21.109 32.4866C21.9918 31.6066 22.9996 30.8616 24.0999 30.2758L21.8227 24.6666C13.3346 28.8237 9.31567 38.6873 12.4816 47.5928C15.6475 56.4982 24.9908 61.6116 34.1983 59.4777C43.4057 57.3439 49.5473 48.642 48.4732 39.2517C47.3991 29.8615 39.4511 22.7711 29.9997 22.7716L29.9839 22.7748Z" fill="#4285F4"/>
</svg>
