<svg width="60" height="60" viewBox="0 0 60 60" fill="none" xmlns="http://www.w3.org/2000/svg">
<g clip-path="url(#clip0_256_12022)">
<path d="M29.9688 59.8408C46.4726 59.8408 59.8516 46.4618 59.8516 29.958C59.8516 13.4542 46.4726 0.0751953 29.9688 0.0751953C13.4649 0.0751953 0.0859375 13.4542 0.0859375 29.958C0.0859375 46.4618 13.4649 59.8408 29.9688 59.8408Z" fill="black"/>
<path d="M49.7273 52.3768L23.0434 18.0049H18.0156V41.9014H22.0379V23.1126L46.5701 54.8086C47.6753 54.0689 48.73 53.2566 49.7273 52.3768Z" fill="url(#paint0_linear_256_12022)"/>
<path fill-rule="evenodd" clip-rule="evenodd" d="M38.2695 18.0049H42.2537V41.9111H38.2695V18.0049Z" fill="url(#paint1_linear_256_12022)"/>
</g>
<defs>
<linearGradient id="paint0_linear_256_12022" x1="36.2775" y1="38.7572" x2="48.0646" y2="53.3666" gradientUnits="userSpaceOnUse">
<stop stop-color="white"/>
<stop offset="1" stop-color="white" stop-opacity="0"/>
</linearGradient>
<linearGradient id="paint1_linear_256_12022" x1="40.2616" y1="18.0054" x2="40.1948" y2="35.5615" gradientUnits="userSpaceOnUse">
<stop stop-color="white"/>
<stop offset="1" stop-color="white" stop-opacity="0"/>
</linearGradient>
<clipPath id="clip0_256_12022">
<rect width="60" height="60" fill="white"/>
</clipPath>
</defs>
</svg>
