<svg width="60" height="60" viewBox="0 0 60 60" fill="none" xmlns="http://www.w3.org/2000/svg">
<g clip-path="url(#clip0_256_12028)">
<mask id="mask0_256_12028" style="mask-type:luminance" maskUnits="userSpaceOnUse" x="1" y="12" width="58" height="36">
<path d="M1 12.0515H59V47.574H1V12.0515Z" fill="white"/>
</mask>
<g mask="url(#mask0_256_12028)">
<mask id="mask1_256_12028" style="mask-type:luminance" maskUnits="userSpaceOnUse" x="1" y="12" width="58" height="36">
<path d="M59 12.0515H1V47.574H59V12.0515Z" fill="white"/>
</mask>
<g mask="url(#mask1_256_12028)">
<path d="M29.6594 47.574C29.4627 47.574 29.2791 47.5217 29.1087 47.4298L27.3651 46.394C27.1028 46.2497 27.234 46.1973 27.3125 46.171C27.6665 46.053 27.7321 46.0267 28.0992 45.817C28.1385 45.7907 28.1909 45.8037 28.2303 45.83L29.5675 46.63C29.62 46.6561 29.6855 46.6561 29.7248 46.63L34.9558 43.601C35.0084 43.5747 35.0345 43.5223 35.0345 43.4567V37.4116C35.0345 37.3462 35.0084 37.2936 34.9558 37.2675L29.7248 34.2515C29.6724 34.2252 29.6068 34.2252 29.5675 34.2515L24.3366 37.2675C24.284 37.2936 24.258 37.3592 24.258 37.4116V43.4567C24.258 43.509 24.284 43.5747 24.3366 43.601L25.7656 44.427C26.539 44.8204 27.0241 44.3614 27.0241 43.9024V37.9362C27.0241 37.8575 27.0897 37.7789 27.1814 37.7789H27.8501C27.9288 37.7789 28.0075 37.8443 28.0075 37.9362V43.9024C28.0075 44.9384 27.4437 45.5416 26.4604 45.5416C26.1589 45.5416 25.9229 45.5416 25.2542 45.2137L23.8776 44.427C23.7101 44.3296 23.5711 44.1899 23.4745 44.0219C23.3779 43.8539 23.3271 43.6635 23.3271 43.4697V37.4249C23.327 37.2311 23.3778 37.0406 23.4745 36.8726C23.5711 36.7046 23.7101 36.5649 23.8776 36.4676L29.1087 33.4385C29.4364 33.2549 29.8822 33.2549 30.2099 33.4385L35.4409 36.4676C35.6085 36.5649 35.7476 36.7046 35.8443 36.8726C35.9409 37.0406 35.9917 37.231 35.9916 37.4249V43.4697C35.9916 43.8631 35.7819 44.2303 35.4409 44.427L30.2099 47.456C30.0525 47.5217 29.8561 47.574 29.6594 47.574Z" fill="#5FA04E"/>
<path d="M31.2849 43.4172C28.9906 43.4172 28.5186 42.3681 28.5186 41.4765C28.5186 41.3978 28.5842 41.3191 28.6759 41.3191H29.3576C29.4363 41.3191 29.5019 41.3715 29.5019 41.4502C29.6067 42.1452 29.9083 42.4861 31.2979 42.4861C32.3993 42.4861 32.8712 42.2371 32.8712 41.6469C32.8712 41.3061 32.7401 41.0568 31.0226 40.8864C29.5937 40.7421 28.7022 40.4274 28.7022 39.2867C28.7022 38.2245 29.5937 37.5951 31.0882 37.5951C32.7664 37.5951 33.5923 38.1721 33.6972 39.4308C33.6972 39.4701 33.684 39.5095 33.6579 39.5488C33.6316 39.5751 33.5923 39.6014 33.5529 39.6014H32.8581C32.8245 39.6002 32.7921 39.588 32.7661 39.5667C32.74 39.5454 32.7217 39.5161 32.7138 39.4834C32.5565 38.7621 32.1501 38.5261 31.0752 38.5261C29.869 38.5261 29.7247 38.9457 29.7247 39.2604C29.7247 39.6407 29.8951 39.7587 31.5209 39.9685C33.1335 40.1782 33.8939 40.4798 33.8939 41.6075C33.8939 42.7615 32.9368 43.4172 31.2849 43.4172ZM38.8363 37.0705C38.8363 37.6214 38.3776 38.0802 37.8269 38.0802C37.2764 38.0802 36.8174 37.6344 36.8174 37.0705C36.8174 36.4937 37.2894 36.0608 37.8269 36.0608C38.3645 36.0608 38.8363 36.5067 38.8363 37.0705ZM36.9747 37.0705C36.9747 37.5427 37.355 37.9228 37.8138 37.9228C38.2858 37.9228 38.6659 37.5295 38.6659 37.0705C38.6659 36.5984 38.2858 36.2314 37.8138 36.2314C37.3681 36.2314 36.9747 36.5984 36.9747 37.0705ZM37.4467 36.5067H37.8401C37.9712 36.5067 38.2333 36.5067 38.2333 36.8084C38.2333 37.0181 38.1022 37.0574 38.0235 37.0837C38.1809 37.0968 38.1939 37.2017 38.2072 37.346C38.2202 37.4377 38.2333 37.5951 38.2595 37.6475H38.0235C38.0235 37.5951 37.9842 37.3067 37.9842 37.2934C37.9712 37.228 37.9449 37.2017 37.8662 37.2017H37.6695V37.6607H37.4467V36.5067ZM37.6565 37.005H37.8269C37.9712 37.005 37.9974 36.9001 37.9974 36.8477C37.9974 36.6904 37.8925 36.6904 37.8269 36.6904H37.6434V37.005H37.6565Z" fill="#5FA04E"/>
<path fill-rule="evenodd" clip-rule="evenodd" d="M13.4417 23.9319C13.4408 23.8142 13.4088 23.6988 13.349 23.5975C13.2891 23.4961 13.2034 23.4124 13.1007 23.3549L7.55522 20.1422C7.46351 20.09 7.35855 20.0635 7.25358 20.0505H7.2014C7.09644 20.0505 6.99168 20.0898 6.89976 20.1422L1.34079 23.3418C1.23658 23.4009 1.15004 23.4868 1.09012 23.5905C1.03021 23.6942 0.999104 23.8121 1.00002 23.9319L1.01306 32.5339C1.01306 32.6519 1.07869 32.77 1.18365 32.8223C1.28841 32.888 1.41947 32.888 1.51138 32.8223L4.81518 30.934C4.9178 30.8765 5.00337 30.7928 5.06322 30.6915C5.12306 30.5902 5.15506 30.4749 5.15595 30.3572V26.3313C5.15595 26.0955 5.287 25.8726 5.49693 25.7546L6.89976 24.9416C7.00452 24.8759 7.12253 24.8498 7.24054 24.8498C7.35855 24.8498 7.47655 24.8759 7.56827 24.9416L8.97111 25.7546C9.07376 25.8121 9.15935 25.8958 9.2192 25.9972C9.27905 26.0985 9.31102 26.2139 9.31188 26.3315V30.3568C9.31188 30.593 9.44313 30.8158 9.65286 30.9338L12.9304 32.8221C12.9814 32.8543 13.0405 32.8714 13.1008 32.8714C13.1612 32.8714 13.2203 32.8543 13.2713 32.8221C13.3761 32.7697 13.4417 32.6517 13.4417 32.5337V23.9319ZM40.1605 12.091C40.0557 12.0387 39.9244 12.0387 39.8327 12.091C39.728 12.1567 39.6623 12.2616 39.6623 12.3794V20.9028C39.6623 20.9815 39.623 21.0602 39.5443 21.1126C39.508 21.1319 39.4675 21.142 39.4263 21.142C39.3852 21.142 39.3446 21.1319 39.3083 21.1126L37.9187 20.3128C37.8168 20.2548 37.7016 20.2243 37.5844 20.2243C37.4671 20.2243 37.3519 20.2548 37.25 20.3128L31.6912 23.5253C31.5886 23.5828 31.5031 23.6665 31.4432 23.7678C31.3834 23.8691 31.3514 23.9844 31.3505 24.1021V30.5142C31.3505 30.7504 31.4815 30.9732 31.6912 31.0912L37.25 34.3038C37.3519 34.3619 37.4671 34.3924 37.5844 34.3924C37.7016 34.3924 37.8168 34.3619 37.9187 34.3038L43.4775 31.0912C43.5801 31.0336 43.6657 30.9499 43.7255 30.8486C43.7854 30.7473 43.8174 30.632 43.8183 30.5144V14.5301C43.8192 14.4103 43.7881 14.2924 43.7282 14.1887C43.6683 14.0849 43.5817 13.9991 43.4775 13.94L40.1605 12.091ZM39.6493 28.4033C39.6493 28.4689 39.623 28.5213 39.5706 28.5476L37.6695 29.649C37.6429 29.6619 37.6138 29.6687 37.5843 29.6687C37.5547 29.6687 37.5256 29.6619 37.4991 29.649L35.5981 28.5476C35.5457 28.5215 35.5195 28.4559 35.5195 28.4033V26.2005C35.5195 26.1351 35.5457 26.0825 35.5981 26.0564L37.4991 24.9548C37.5256 24.9419 37.5547 24.9351 37.5843 24.9351C37.6138 24.9351 37.6429 24.9419 37.6695 24.9548L39.5706 26.0564C39.623 26.0825 39.6493 26.1481 39.6493 26.2005V28.4033ZM58.659 26.1479C58.869 26.0299 58.987 25.8069 58.987 25.5709V24.0105C58.9859 23.8944 58.9552 23.7805 58.8978 23.6796C58.8404 23.5786 58.7582 23.4939 58.659 23.4336L53.1396 20.2341C53.0378 20.1761 52.9226 20.1456 52.8054 20.1456C52.6881 20.1456 52.5729 20.1761 52.4711 20.2341L46.9123 23.4468C46.8097 23.5043 46.7241 23.588 46.6642 23.6893C46.6043 23.7906 46.5723 23.9059 46.5714 24.0236V30.4357C46.5714 30.6719 46.7026 30.8947 46.9123 31.0127L52.4318 34.1597C52.6415 34.2779 52.8905 34.2779 53.0872 34.1597L56.4304 32.2979C56.5353 32.2453 56.6007 32.1273 56.6007 32.0093C56.6007 31.8913 56.5353 31.7733 56.4304 31.7209L50.8453 28.5083C50.7405 28.4426 50.6749 28.3377 50.6749 28.2197V26.2135C50.6749 26.0955 50.7405 25.9775 50.8453 25.9249L52.5891 24.9285C52.6401 24.8964 52.6992 24.8793 52.7595 24.8793C52.8198 24.8793 52.8789 24.8964 52.9299 24.9285L54.6735 25.9249C54.7785 25.9906 54.8441 26.0955 54.8441 26.2135V27.787C54.8441 27.905 54.9095 28.023 55.0145 28.0756C55.0655 28.1077 55.1246 28.1247 55.1849 28.1247C55.2452 28.1247 55.3042 28.1077 55.3552 28.0756L58.659 26.1479Z" fill="#333333"/>
<path fill-rule="evenodd" clip-rule="evenodd" d="M52.7203 25.8461C52.7397 25.8333 52.7625 25.8264 52.7858 25.8264C52.8091 25.8264 52.8319 25.8333 52.8513 25.8461L53.9132 26.4624C53.9525 26.4885 53.9788 26.528 53.9788 26.5804V27.8131C53.9789 27.8367 53.9729 27.86 53.9614 27.8807C53.95 27.9013 53.9333 27.9187 53.9132 27.9311L52.8513 28.5472C52.8319 28.56 52.8091 28.5669 52.7858 28.5669C52.7625 28.5669 52.7397 28.56 52.7203 28.5472L51.6582 27.9311C51.6381 27.9187 51.6215 27.9013 51.61 27.8806C51.5986 27.86 51.5926 27.8367 51.5928 27.8131V26.5804C51.5928 26.528 51.6189 26.4887 51.6582 26.4624L52.7203 25.8461Z" fill="#5FA04E"/>
<path d="M22.7366 20.2599C22.6347 20.2019 22.5195 20.1714 22.4022 20.1714C22.285 20.1714 22.1697 20.2019 22.0679 20.2599L16.5484 23.4463C16.3387 23.5645 16.2207 23.7875 16.2207 24.0233V30.4093C16.2207 30.6453 16.3518 30.8683 16.5484 30.9863L22.0679 34.1727C22.1697 34.2307 22.285 34.2612 22.4022 34.2612C22.5195 34.2612 22.6347 34.2307 22.7366 34.1727L28.256 30.9863C28.4657 30.8683 28.5837 30.6451 28.5837 30.4093V24.0233C28.5826 23.9072 28.5519 23.7934 28.4945 23.6925C28.4372 23.5916 28.3551 23.5069 28.256 23.4465L22.7366 20.2599Z" fill="url(#paint0_linear_256_12028)"/>
<path d="M28.27 23.4466L22.7243 20.2598C22.6698 20.2323 22.6127 20.2104 22.5539 20.1943L16.3535 30.8162C16.4059 30.8818 16.4886 30.9775 16.5542 31.0169L22.0688 34.1727C22.2262 34.2645 22.4096 34.2907 22.5802 34.2382L28.4141 23.5646C28.3758 23.5147 28.3265 23.4743 28.27 23.4466Z" fill="url(#paint1_linear_256_12028)"/>
<path d="M21.8843 19.093L21.8057 19.1324H21.9106L21.8843 19.093Z" fill="url(#paint2_linear_256_12028)"/>
<path d="M28.2558 30.9863C28.4131 30.8944 28.555 30.7224 28.555 30.5151L22.5134 20.1814C22.356 20.1551 22.1856 20.1682 22.0413 20.2599L16.5352 23.4332L22.474 34.2644C22.5604 34.2503 22.6443 34.2238 22.7231 34.1857L28.2558 30.9863Z" fill="url(#paint3_linear_256_12028)"/>
</g>
</g>
</g>
<defs>
<linearGradient id="paint0_linear_256_12028" x1="24.65" y1="22.6331" x2="19.6582" y2="32.8148" gradientUnits="userSpaceOnUse">
<stop stop-color="#3F873F"/>
<stop offset="0.33" stop-color="#3F8B3D"/>
<stop offset="0.637" stop-color="#3E9638"/>
<stop offset="0.934" stop-color="#3DA92E"/>
<stop offset="1" stop-color="#3DAE2B"/>
</linearGradient>
<linearGradient id="paint1_linear_256_12028" x1="21.5643" y1="27.9619" x2="35.569" y2="17.6166" gradientUnits="userSpaceOnUse">
<stop offset="0.138" stop-color="#3F873F"/>
<stop offset="0.402" stop-color="#52A044"/>
<stop offset="0.713" stop-color="#64B749"/>
<stop offset="0.908" stop-color="#6ABF4B"/>
</linearGradient>
<linearGradient id="paint2_linear_256_12028" x1="16.0183" y1="19.1085" x2="28.7902" y2="19.1085" gradientUnits="userSpaceOnUse">
<stop offset="0.092" stop-color="#6ABF4B"/>
<stop offset="0.287" stop-color="#64B749"/>
<stop offset="0.598" stop-color="#52A044"/>
<stop offset="0.862" stop-color="#3F873F"/>
</linearGradient>
<linearGradient id="paint3_linear_256_12028" x1="16.0188" y1="27.2143" x2="28.7904" y2="27.2143" gradientUnits="userSpaceOnUse">
<stop offset="0.092" stop-color="#6ABF4B"/>
<stop offset="0.287" stop-color="#64B749"/>
<stop offset="0.598" stop-color="#52A044"/>
<stop offset="0.862" stop-color="#3F873F"/>
</linearGradient>
<clipPath id="clip0_256_12028">
<rect width="58" height="35.6255" fill="white" transform="translate(1 12)"/>
</clipPath>
</defs>
</svg>
