<svg width="60" height="60" viewBox="0 0 60 60" fill="none" xmlns="http://www.w3.org/2000/svg">
<path d="M0 29.9999C0 38.7155 13.4318 45.781 29.9999 45.781C46.5682 45.781 60 38.7155 60 29.9999C60 21.2844 46.5682 14.2187 29.9999 14.2187C13.4318 14.2189 0 21.2844 0 29.9999Z" fill="url(#paint0_radial_256_12035)"/>
<path d="M30 44.6094C45.921 44.6094 58.8281 38.0684 58.8281 29.9999C58.8281 21.9315 45.921 15.3904 30 15.3904C14.0789 15.3904 1.17188 21.9315 1.17188 29.9999C1.17188 38.0686 14.0789 44.6094 30 44.6094Z" fill="#777BB3"/>
<path d="M16.2991 31.8111C17.6082 31.8111 18.5855 31.5697 19.2038 31.0938C19.8155 30.6227 20.2381 29.8067 20.4595 28.6683C20.666 27.6043 20.5874 26.8613 20.2258 26.4605C19.856 26.051 19.0569 25.8434 17.8501 25.8434H15.758L14.5982 31.8113L16.2991 31.8111ZM9.45631 39.1624C9.35922 39.1624 9.26697 39.1189 9.20523 39.0439C9.14333 38.9689 9.11826 38.8702 9.13688 38.7747L12.2107 22.9599C12.2405 22.807 12.3744 22.6964 12.5303 22.6964H19.1551C21.2371 22.6964 22.7869 23.2618 23.7609 24.3769C24.7401 25.4978 25.0425 27.0649 24.6596 29.0341C24.5039 29.8363 24.2358 30.5815 23.8631 31.2487C23.49 31.9166 22.9968 32.5345 22.3971 33.0858C21.6792 33.7576 20.8667 34.2448 19.9844 34.5315C19.116 34.8144 18.0008 34.9579 16.6697 34.9579H13.9871L13.2209 38.8989C13.1912 39.0519 13.0573 39.1624 12.9015 39.1624H9.45631Z" fill="black"/>
<path d="M16.0269 26.1689H17.8506C19.3068 26.1689 19.8128 26.4885 19.9847 26.6788C20.2698 26.995 20.3236 27.6617 20.1404 28.6067C19.9345 29.6645 19.5528 30.4147 19.0057 30.8359C18.4456 31.2671 17.535 31.4856 16.2994 31.4856H14.9937L16.0269 26.1689ZM19.1552 22.3711H12.5304C12.2187 22.3711 11.9508 22.592 11.8914 22.8979L8.81763 38.7129C8.78053 38.9037 8.83069 39.1011 8.95418 39.2512C9.07781 39.4012 9.26216 39.488 9.45664 39.488H12.9017C13.2135 39.488 13.4813 39.2672 13.5408 38.9612L14.2557 35.2834H16.6699C18.0351 35.2834 19.1844 35.1346 20.0856 34.8411C21.0123 34.54 21.865 34.0295 22.6196 33.3237C23.2438 32.7496 23.7578 32.105 24.1474 31.4078C24.537 30.7104 24.817 29.9326 24.9794 29.0964C25.3825 27.0235 25.055 25.3636 24.0061 24.163C22.9675 22.974 21.3353 22.3711 19.1552 22.3711ZM14.2038 32.1367H16.2994C17.6884 32.1367 18.723 31.875 19.4027 31.3517C20.0827 30.8283 20.5411 29.9546 20.7794 28.7306C21.0073 27.5553 20.9035 26.7259 20.4679 26.2427C20.0318 25.7594 19.1594 25.5179 17.8506 25.5179H15.4901L14.2038 32.1367ZM19.1552 23.0221C21.1481 23.0221 22.602 23.5451 23.5158 24.5913C24.4295 25.6374 24.7048 27.0975 24.3402 28.9722C24.1902 29.7445 23.9363 30.4505 23.579 31.0901C23.2213 31.7301 22.7542 32.3154 22.177 32.8462C21.489 33.49 20.7249 33.9488 19.8839 34.222C19.043 34.496 17.9719 34.6324 16.6699 34.6324H13.7189L12.9017 38.837H9.45664L12.5304 23.0221H19.1552Z" fill="white"/>
<path d="M32.5588 34.9573C32.4616 34.9573 32.3695 34.9139 32.3078 34.8388C32.2459 34.7638 32.2208 34.6651 32.2393 34.5697L33.599 27.5722C33.7283 26.9068 33.6963 26.4291 33.5092 26.2273C33.3947 26.1039 33.0504 25.897 32.0328 25.897H29.5695L27.86 34.6939C27.8302 34.8468 27.6963 34.9573 27.5404 34.9573H24.1225C24.0252 34.9573 23.9331 34.9139 23.8712 34.8388C23.8094 34.7638 23.7843 34.6651 23.8029 34.5697L26.8766 18.7546C26.9064 18.6018 27.0403 18.4912 27.1962 18.4912H30.6141C30.7114 18.4912 30.8035 18.5346 30.8653 18.6096C30.9272 18.6847 30.9523 18.7832 30.9337 18.8788L30.1919 22.6958H32.8419C34.8607 22.6958 36.2296 23.0518 37.0269 23.7839C37.8397 24.5309 38.0931 25.7253 37.7807 27.3341L36.3506 34.6936C36.3208 34.8465 36.1869 34.957 36.031 34.957H32.5588V34.9573Z" fill="black"/>
<path d="M30.6144 18.1663H27.1965C26.8847 18.1663 26.6169 18.3871 26.5574 18.6931L23.4836 34.5081C23.4465 34.6989 23.4967 34.8963 23.6203 35.0463C23.744 35.1964 23.9283 35.2832 24.1228 35.2832H27.5407C27.8524 35.2832 28.1203 35.0623 28.1799 34.7564L29.8382 26.2229H32.0331C33.049 26.2229 33.2623 26.44 33.2708 26.4492C33.3324 26.5155 33.4135 26.8226 33.2797 27.5105L31.92 34.508C31.8829 34.6988 31.9331 34.8962 32.0567 35.0462C32.1803 35.1962 32.3647 35.2831 32.5592 35.2831H36.0314C36.343 35.2831 36.611 35.0622 36.6705 34.7563L38.1005 27.3968C38.436 25.6693 38.149 24.3734 37.2475 23.5448C36.3872 22.7547 34.9462 22.3707 32.8422 22.3707H30.587L31.2536 18.9414C31.2906 18.7506 31.2405 18.553 31.1169 18.4031C30.9931 18.2532 30.8089 18.1663 30.6144 18.1663ZM30.6144 18.8173L29.7972 23.0219H32.8422C34.7582 23.0219 36.0796 23.3563 36.8069 24.0243C37.5342 24.6927 37.7521 25.7758 37.4615 27.2729L36.0314 34.6322H32.5592L33.9189 27.6348C34.0736 26.8388 34.0167 26.2958 33.7481 26.0063C33.4793 25.7168 32.9076 25.5719 32.0332 25.5719H29.3015L27.5409 34.6322H24.1229L27.1967 18.8173H30.6144Z" fill="white"/>
<path d="M43.1888 31.8111C44.4979 31.8111 45.4752 31.5697 46.0935 31.0938C46.7053 30.6229 47.1278 29.8069 47.3494 28.6683C47.5559 27.6043 47.4773 26.8613 47.1156 26.4605C46.7459 26.051 45.9467 25.8434 44.7402 25.8434H42.648L41.4883 31.8113L43.1888 31.8111ZM36.346 39.1624C36.2489 39.1624 36.1567 39.1189 36.0949 39.0439C36.0331 38.9689 36.008 38.8702 36.0265 38.7747L39.1002 22.9597C39.1299 22.8069 39.2638 22.6963 39.4199 22.6963H46.0446C48.1267 22.6963 49.6763 23.2617 50.6504 24.3767C51.6297 25.4977 51.932 27.0646 51.5492 29.034C51.3931 29.8362 51.1252 30.5814 50.7525 31.2485C50.3794 31.9164 49.8862 32.5343 49.2865 33.0856C48.5686 33.7575 47.7561 34.2447 46.8738 34.5314C46.0054 34.8143 44.8902 34.9577 43.5591 34.9577H40.8765L40.1108 38.8989C40.081 39.0519 39.9471 39.1624 39.7911 39.1624H36.346Z" fill="black"/>
<path d="M42.9165 26.1689H44.7403C46.1966 26.1689 46.7024 26.4885 46.8743 26.6788C47.1596 26.995 47.2134 27.6617 47.0301 28.6065C46.8242 29.6645 46.4423 30.4147 45.8954 30.8359C45.3353 31.2671 44.4247 31.4856 43.189 31.4856H41.8833L42.9165 26.1689ZM46.0448 22.3711H39.42C39.1083 22.3711 38.8404 22.592 38.781 22.8979L35.7073 38.7129C35.6702 38.9037 35.7203 39.1011 35.8438 39.2512C35.9675 39.4012 36.1518 39.488 36.3463 39.488H39.7913C40.103 39.488 40.371 39.2672 40.4305 38.9612L41.1452 35.2834H43.5594C44.9246 35.2834 46.0739 35.1346 46.9751 34.8411C47.9018 34.54 48.7547 34.0293 49.5094 33.3234C50.1336 32.7494 50.6475 32.105 51.037 31.4078C51.4267 30.7104 51.7067 29.9326 51.869 29.0964C52.2722 27.0233 51.9447 25.3634 50.8958 24.1629C49.8571 22.974 48.2251 22.3711 46.0448 22.3711ZM41.0935 32.1367H43.189C44.5781 32.1367 45.6126 31.875 46.2924 31.3517C46.9724 30.8283 47.4308 29.9546 47.6691 28.7306C47.8971 27.5553 47.7933 26.7259 47.3576 26.2427C46.9214 25.7594 46.0491 25.5179 44.7403 25.5179H42.3798L41.0935 32.1367ZM46.0448 23.0221C48.0378 23.0221 49.4916 23.5451 50.4055 24.5913C51.3193 25.6374 51.5943 27.0975 51.2299 28.9722C51.0798 29.7445 50.826 30.4505 50.4687 31.0901C50.111 31.7301 49.6439 32.3154 49.0666 32.8462C48.3786 33.49 47.6145 33.9488 46.7736 34.222C45.9326 34.496 44.8616 34.6324 43.5595 34.6324H40.6085L39.7915 38.837H36.3464L39.4201 23.0221H46.0448Z" fill="white"/>
<defs>
<radialGradient id="paint0_radial_256_12035" cx="0" cy="0" r="1" gradientUnits="userSpaceOnUse" gradientTransform="translate(18.0224 19.8026) scale(49.2529 49.2529)">
<stop stop-color="#AEB2D5"/>
<stop offset="0.3" stop-color="#AEB2D5"/>
<stop offset="0.75" stop-color="#484C89"/>
<stop offset="1" stop-color="#484C89"/>
</radialGradient>
</defs>
</svg>
