<svg width="60" height="60" viewBox="0 0 60 60" fill="none" xmlns="http://www.w3.org/2000/svg">
<path d="M35.16 31.15C33.3475 31.15 31.8775 32.5125 31.8775 34.1925V47.575C31.8775 49.255 33.35 50.6175 35.1625 50.6175C36.9775 50.6175 38.4475 49.255 38.4475 47.5725V34.1925C38.4475 32.5125 36.975 31.15 35.16 31.15ZM45.49 18.93C43.675 18.93 42.205 20.2925 42.205 21.975V47.4825C42.205 49.1625 43.68 50.525 45.49 50.525C47.305 50.525 48.775 49.1625 48.775 47.4825V21.975C48.775 20.2925 47.305 18.93 45.49 18.93ZM24.835 26.5175C23.0225 26.5175 21.5525 27.88 21.5525 29.5625V47.575C21.5525 49.255 23.025 50.6175 24.84 50.6175C26.6525 50.6175 28.1225 49.255 28.1225 47.5725V29.56C28.1225 27.88 26.65 26.5175 24.835 26.5175ZM14.51 37.5125C12.695 37.5125 11.2225 38.8775 11.2225 40.5575L11.225 47.575C11.225 49.255 12.695 50.6175 14.51 50.6175C16.325 50.6175 17.795 49.255 17.7925 47.5725V40.5575C17.7925 38.875 16.325 37.5125 14.51 37.5125ZM60 15.5575V38.465C60 42.0825 56.825 45.025 52.9225 45.025H51.7125V42.7825H52.9225C55.49 42.7825 57.58 40.845 57.58 38.465V15.5575C57.58 13.1775 55.49 11.2425 52.9225 11.2425H7.0775C4.51 11.2425 2.42 13.1775 2.42 15.5575V38.465C2.42 40.845 4.51 42.7825 7.0775 42.7825H8.2875V45.025H7.075C3.175 45.0225 0 42.08 0 38.4625V15.5575C0 11.9425 3.175 9 7.075 9H52.925C56.825 8.9975 60 11.94 60 15.5575Z" fill="#FFC900"/>
</svg>
