<svg width="60" height="60" viewBox="0 0 60 60" fill="none" xmlns="http://www.w3.org/2000/svg">
<path d="M29.3418 1.00045C26.976 1.01165 24.7178 1.21282 22.7296 1.56472C16.874 2.59912 15.8116 4.76432 15.8116 8.75793V14.0314H29.6483V15.7892H10.6182C6.59717 15.7892 3.07593 18.206 1.97428 22.8053C0.703408 28.0754 0.647373 31.3647 1.97428 36.8679C2.9577 40.9646 5.30668 43.8829 9.32831 43.8829H14.0862V37.561C14.0862 32.9936 18.0373 28.9653 22.7302 28.9653H36.5512C40.3986 28.9653 43.4693 25.797 43.4693 21.934V8.75849C43.4693 5.00807 40.3056 2.19119 36.5512 1.56528C34.1731 1.16967 31.707 0.989799 29.3418 1.00045ZM21.8589 5.24173C23.2877 5.24173 24.4555 6.42799 24.4555 7.88714C24.4555 9.34013 23.2883 10.5152 21.8589 10.5152C20.4244 10.5152 19.2628 9.34013 19.2628 7.88714C19.2622 6.42799 20.4244 5.24173 21.8589 5.24173Z" fill="url(#paint0_linear_256_12032)"/>
<path d="M45.1946 15.7891V21.9339C45.1946 26.6969 41.1556 30.7062 36.5506 30.7062H22.7296C18.9439 30.7062 15.8115 33.9467 15.8115 37.738V50.9147C15.8115 54.664 19.0716 56.8701 22.7296 57.9454C27.1093 59.2325 31.3097 59.4656 36.5506 57.9454C40.0338 56.9362 43.4687 54.9066 43.4687 50.9147V45.6406H29.6482V43.8823H50.3879C54.409 43.8823 55.9085 41.0777 57.3071 36.8673C58.7517 32.5329 58.6895 28.3645 57.3071 22.8047C56.313 18.801 54.4151 15.7886 50.3879 15.7886L45.1946 15.7891ZM37.4209 49.1563C38.8559 49.1563 40.0175 50.3313 40.0175 51.7854C40.0175 53.2435 38.8553 54.4297 37.4209 54.4297C35.992 54.4297 34.8248 53.2435 34.8248 51.7854C34.8248 50.3313 35.992 49.1563 37.4209 49.1563Z" fill="url(#paint1_linear_256_12032)"/>
<defs>
<linearGradient id="paint0_linear_256_12032" x1="-0.387102" y1="2.64935" x2="31.5269" y2="29.8655" gradientUnits="userSpaceOnUse">
<stop stop-color="#5A9FD4"/>
<stop offset="1" stop-color="#306998"/>
</linearGradient>
<linearGradient id="paint1_linear_256_12032" x1="43.5342" y1="46.7834" x2="32.0893" y2="30.7338" gradientUnits="userSpaceOnUse">
<stop stop-color="#FFD43B"/>
<stop offset="1" stop-color="#FFE873"/>
</linearGradient>
</defs>
</svg>
