<svg width="60" height="60" viewBox="0 0 60 60" fill="none" xmlns="http://www.w3.org/2000/svg">
<g clip-path="url(#clip0_256_12013)">
<path d="M58.9591 30.0059C58.9591 26.2852 54.1545 22.7628 46.7866 20.5764C48.4868 13.298 47.7309 7.50668 44.4016 5.64631C43.598 5.20913 42.6886 4.98803 41.7673 5.00589V7.55972C42.2335 7.54775 42.6952 7.65119 43.1087 7.86029C44.7136 8.75413 45.4107 12.1527 44.8676 16.5237C44.724 17.6546 44.5211 18.7778 44.2597 19.8888C41.7919 19.312 39.2871 18.8953 36.7621 18.6414C35.2585 16.6314 33.6183 14.7209 31.8522 12.9228C35.7023 9.45545 39.3093 7.55383 41.7653 7.55383V5C38.523 5 34.2676 7.24344 29.9737 11.1331C25.6758 7.26505 21.4265 5.04322 18.1802 5.04322V7.59705C20.624 7.59705 24.2472 9.48491 28.0953 12.9306C26.337 14.7236 24.708 16.6317 23.2198 18.6414C20.6937 18.8926 18.1886 19.3127 15.7222 19.8986C15.4385 18.7514 15.2359 17.6454 15.0981 16.5904C14.5429 12.2096 15.2359 8.8111 16.8225 7.90743C17.2391 7.69099 17.708 7.58717 18.1802 7.60687V5.05501C17.2478 5.03574 16.3269 5.25674 15.5115 5.69543C12.1963 7.55383 11.4506 13.3294 13.1629 20.5842C5.81929 22.7845 1.03906 26.295 1.03906 30.0039C1.03906 33.7129 5.84361 37.247 13.2095 39.4334C11.5094 46.702 12.2652 52.5031 15.5925 54.3635C16.403 54.8036 17.3204 55.0248 18.2491 55.0039C21.4913 55.0039 25.7467 52.7605 30.0426 48.8708C34.3406 52.7389 38.5899 54.9607 41.8362 54.9607C42.7679 54.9796 43.6881 54.7586 44.5029 54.3203C47.8201 52.4658 48.5557 46.6883 46.8535 39.4315C54.1728 37.245 58.953 33.7207 58.953 30.0138L58.9591 30.0059ZM43.589 22.3719C43.1299 23.9009 42.5984 25.4086 41.9963 26.8902C41.512 25.9748 41.0033 25.0593 40.4481 24.1399C39.8929 23.2206 39.3255 22.3326 38.748 21.4624C40.4238 21.704 42.0408 22.0006 43.587 22.3621L43.589 22.3719ZM38.1826 34.5517C37.2626 36.0958 36.3183 37.5613 35.3457 38.9227C31.8033 39.2276 28.2402 39.2322 24.6971 38.9364C22.6684 36.1201 20.8916 33.1409 19.3859 30.0314C20.1174 28.4991 20.9442 26.9649 21.8297 25.466C22.7497 23.9219 23.694 22.4564 24.6667 21.095C28.2091 20.7907 31.7722 20.7868 35.3153 21.0832C36.2947 22.4453 37.2471 23.8944 38.1725 25.4306C39.0702 26.9315 39.8827 28.452 40.6285 29.9862C39.8827 31.5205 39.0681 33.0607 38.1826 34.5615V34.5517ZM41.9983 33.0646C42.6366 34.5969 43.1776 36.1311 43.6194 37.6202C42.0138 37.9985 40.391 38.304 38.7561 38.5357C39.3356 37.6556 39.9131 36.75 40.4562 35.8247C40.9993 34.8994 41.516 33.9879 41.9983 33.0725V33.0646ZM30.0285 45.2837C28.871 44.1182 27.776 42.896 26.7477 41.6219C27.8096 41.6671 28.8957 41.7024 29.99 41.7024C31.0842 41.7024 32.1967 41.6788 33.2707 41.6219C32.2588 42.8982 31.1765 44.1206 30.0285 45.2837ZM21.2461 38.5435C19.62 38.3142 18.0054 38.0139 16.4071 37.6438C16.8428 36.1685 17.3859 34.644 17.9999 33.1255C18.4842 34.0409 18.9908 34.9564 19.548 35.8758C20.1053 36.7951 20.6646 37.6792 21.2441 38.5494L21.2461 38.5435ZM29.9596 14.7281C31.1179 15.8933 32.2136 17.1155 33.2423 18.3899C32.1805 18.3447 31.0943 18.3094 30.0001 18.3094C28.9058 18.3094 27.7934 18.3329 26.7194 18.3899C27.7311 17.1134 28.8114 15.891 29.9596 14.7281ZM21.234 21.4683C20.0649 23.2373 18.9856 25.0605 17.9999 26.9315C17.378 25.4414 16.8369 23.9207 16.3788 22.3758C17.9269 22.0222 19.5541 21.7138 21.2421 21.4761L21.234 21.4683ZM10.5468 35.809C6.36844 34.0802 3.65715 31.8132 3.65715 30.0177C3.65715 28.2221 6.36034 25.9433 10.5468 24.2264C11.56 23.8021 12.6725 23.4268 13.8174 23.0713C14.5402 25.4499 15.4278 27.7785 16.474 30.0413C15.4388 32.2923 14.5634 34.6092 13.8539 36.9759C12.7346 36.6394 11.6329 36.25 10.5529 35.809H10.5468ZM16.8975 52.1476C15.2926 51.2557 14.5955 47.8571 15.1447 43.4842C15.2744 42.4077 15.4872 41.2761 15.7526 40.119C18.2205 40.6959 20.7252 41.1126 23.2502 41.3665C24.7542 43.378 26.3952 45.2897 28.1622 47.089C24.312 50.5563 20.701 52.456 18.2451 52.456C17.7784 52.4628 17.3174 52.3568 16.9036 52.1476H16.8975ZM44.898 43.4272C45.4533 47.8002 44.7683 51.1987 43.1736 52.1024C42.757 52.3188 42.2881 52.4226 41.8159 52.403C39.3721 52.403 35.7489 50.5151 31.9008 47.0694C33.6591 45.2764 35.2881 43.3683 36.7763 41.3586C39.3058 41.1079 41.8144 40.6878 44.284 40.1014C44.5467 41.1982 44.7496 42.3077 44.892 43.4253L44.898 43.4272ZM49.4432 35.7952C48.43 36.2176 47.3175 36.5948 46.1726 36.9503C45.4502 34.5722 44.5627 32.2443 43.516 29.9823C44.5509 27.7312 45.4263 25.4143 46.1362 23.0477C47.3054 23.4013 48.4138 23.7903 49.4533 24.2146C53.6317 25.9433 56.343 28.2084 56.343 30.0059C56.343 31.8034 53.6236 34.0743 49.4452 35.7992L49.4432 35.7952Z" fill="#61DAFB"/>
<path d="M29.9899 35.2353C31.0568 35.2353 32.0997 34.9286 32.9868 34.354C33.8739 33.7793 34.5653 32.9626 34.9735 32.007C35.3818 31.0515 35.4886 30 35.2805 28.9856C35.0724 27.9712 34.5586 27.0394 33.8042 26.308C33.0498 25.5767 32.0887 25.0786 31.0423 24.8769C29.9959 24.6751 28.9113 24.7786 27.9256 25.1744C26.94 25.5702 26.0975 26.2405 25.5048 27.1005C24.9121 27.9605 24.5957 28.9715 24.5957 30.0058C24.5957 31.3928 25.164 32.7229 26.1756 33.7036C27.1872 34.6843 28.5593 35.2353 29.9899 35.2353Z" fill="#61DAFB"/>
</g>
<defs>
<clipPath id="clip0_256_12013">
<rect width="58" height="50" fill="white" transform="translate(1 5)"/>
</clipPath>
</defs>
</svg>
