<svg width="60" height="60" viewBox="0 0 60 60" fill="none" xmlns="http://www.w3.org/2000/svg">
<g clip-path="url(#clip0_786_34669)">
<path d="M39.8465 7.69631C39.7875 7.68855 39.7283 7.68458 39.6688 7.68444L39.9572 59.0013L55.5475 55.1521C55.4856 54.733 49.1858 12.4668 49.1581 12.1794C49.1378 12.0554 49.0767 11.9417 48.9843 11.8565C48.8913 11.7701 48.7722 11.7177 48.6457 11.7075C48.4296 11.7075 44.3063 11.6271 44.2773 11.6271L44.2612 11.6113C43.6799 11.0524 40.7693 8.24334 40.4753 7.93225C40.2876 7.80453 40.0719 7.72364 39.8465 7.69631Z" fill="#5E8E3E"/>
<path fill-rule="evenodd" clip-rule="evenodd" d="M4 52.8282L39.9572 59.0013L39.6688 7.68444C39.5015 7.68454 39.3355 7.71396 39.1784 7.77142L37.429 8.30926C37.2144 7.60544 36.9349 6.92315 36.5935 6.27132C36.1579 5.2344 35.4333 4.34462 34.5062 3.70797C33.579 3.07133 32.4881 2.71468 31.3639 2.6806C31.2053 2.67668 31.0467 2.68552 30.8895 2.70699L30.82 2.62657C30.7979 2.60318 30.7767 2.57945 30.7554 2.55557C30.7335 2.53101 30.7115 2.50628 30.6881 2.48155C30.225 1.9824 29.6571 1.59173 29.0255 1.33739C28.478 1.11674 27.8935 1.00353 27.3031 1.00391C27.2583 1.00391 27.2128 1.00588 27.1673 1.00785C27.1218 1.00982 27.0763 1.01179 27.0315 1.01179C24.2027 1.09088 21.3844 3.12088 19.096 6.72743C17.5081 9.22132 16.4275 12.004 15.9164 14.916L10.347 16.6296C8.70847 17.1437 8.65328 17.1978 8.44501 18.7255C8.31451 19.6338 5.64356 40.175 4.50333 48.9462C4.2041 51.2464 4.00791 52.7583 4 52.8282ZM13.5806 45.9367L14.7907 40.8104L14.7894 40.7998C14.9133 40.8907 17.8438 43.0249 20.2733 43.0249H20.4934C20.7969 43.0202 21.0964 42.9543 21.3739 42.8311C21.6503 42.7057 21.8986 42.5264 22.1051 42.3039C22.3107 42.0811 22.4694 41.8193 22.5717 41.534C22.6736 41.2505 22.7153 40.9487 22.6934 40.6482C22.5804 38.9362 21.3083 38.0349 19.8263 36.9848L19.8118 36.9744C17.9241 35.6484 15.7832 34.139 15.5631 30.5154C15.454 29.1452 15.6185 27.7669 16.0471 26.4609C16.4757 25.1549 17.16 23.9472 18.0598 22.9081C19.1727 21.7259 20.5114 20.7786 21.9963 20.1221C23.4812 19.4655 25.0825 19.113 26.7058 19.0854C27.0327 19.0643 27.3569 19.0538 27.6719 19.0538C28.9178 19.0037 30.1606 19.212 31.3221 19.6654L29.5108 26.3881C28.2627 25.8743 26.926 25.6105 25.5762 25.6117C25.4181 25.6117 25.2581 25.6157 25.0999 25.6223C21.6872 25.8398 21.5487 27.9488 21.5869 28.5908C21.662 29.7778 22.9817 30.6186 24.5098 31.592L24.5123 31.5936C26.9233 33.1293 29.9221 35.0393 30.1963 39.2997C30.4431 41.726 29.7462 44.1541 28.2506 46.0804C27.5355 46.9302 26.6517 47.6224 25.6554 48.1132C24.6591 48.604 23.5718 48.8826 22.4623 48.9316C22.171 48.9488 21.8849 48.958 21.6108 48.958C18.6474 49.0072 15.7767 47.927 13.5806 45.9367ZM27.0907 2.89549H27.2407V2.89284C27.7893 2.89217 28.3272 3.04711 28.7912 3.33969C27.969 3.76924 27.2269 4.33737 26.5977 5.01908C24.6887 7.22606 23.4033 9.90276 22.8749 12.7726L17.9465 14.2885C18.9325 9.70123 22.7539 3.00359 27.0907 2.89549ZM27.9712 6.30298C28.5394 5.67431 29.2337 5.17258 30.009 4.83057C30.6924 6.57014 31.0172 8.43027 30.961 10.2984L30.9513 10.3142L24.939 12.1452C25.4777 9.98706 26.5167 7.98581 27.9712 6.30298ZM32.8327 9.73288C32.8421 7.98699 32.5475 6.25277 31.9625 4.60779L31.9663 4.60517C34.1044 5.00458 35.171 7.43795 35.6139 8.85632L35.6235 8.87474L32.8327 9.73288Z" fill="#95BF46"/>
</g>
<defs>
<clipPath id="clip0_786_34669">
<rect width="51.5436" height="58" fill="white" transform="translate(4 1)"/>
</clipPath>
</defs>
</svg>
