<svg width="60" height="60" viewBox="0 0 60 60" fill="none" xmlns="http://www.w3.org/2000/svg">
<path d="M0 20.8C0 10.9948 0 6.09218 3.04608 3.04608C6.09218 0 10.9948 0 20.8 0H39.2001C49.0053 0 53.9077 0 56.9539 3.04608C60 6.09218 60 10.9948 60 20.8V39.2001C60 49.0053 60 53.9077 56.9539 56.9539C53.9077 60 49.0053 60 39.2001 60H20.8C10.9948 60 6.09218 60 3.04608 56.9539C0 53.9077 0 49.0053 0 39.2001V20.8Z" fill="#4945FF"/>
<path fill-rule="evenodd" clip-rule="evenodd" d="M41.3994 18.2H21.1992V28.5H31.4994V38.7999H41.7993V18.6C41.7993 18.3791 41.6201 18.2 41.3994 18.2Z" fill="white"/>
<path d="M31.4996 28.5001H31.0996V28.9001H31.4996V28.5001Z" fill="white"/>
<path d="M21.1992 28.5001H31.0992C31.3202 28.5001 31.4994 28.6792 31.4994 28.9V38.8H21.5992C21.3783 38.8 21.1992 38.6211 21.1992 38.4001V28.5001Z" fill="#9593FF"/>
<path d="M31.5 38.7998H41.7999L31.8413 48.7584C31.7154 48.8844 31.5 48.7952 31.5 48.6172V38.7998Z" fill="#9593FF"/>
<path d="M21.1992 28.5H11.382C11.2039 28.5 11.1146 28.2846 11.2406 28.1586L21.1992 18.2V28.5Z" fill="#9593FF"/>
</svg>
