<svg width="60" height="60" viewBox="0 0 60 60" fill="none" xmlns="http://www.w3.org/2000/svg">
<g clip-path="url(#clip0_786_34756)">
<path d="M29.0458 3.3031V6.03136H24.166V7.80584H29.0458V13.2402H30.9534V7.80584H35.9552V6.03136H30.9534V0.585938H29.0458V3.3031Z" fill="#7099A6"/>
<path d="M13.0972 10.2236V14.1829H5.71094V16.6671H13.0972V24.7077H15.8365V16.6671H23.3337V14.1829H15.8365V6.26428H13.0972V10.2236Z" fill="#EB912C"/>
<path d="M44.0523 10.2236V14.1829H36.666V16.7891H44.0523V24.7077H46.9025V16.7891H54.2888V14.1829H46.9025V6.26428H44.0523V10.2236Z" fill="#59879B"/>
<path d="M28.3352 23.7096V28.1458H20.1172V31.4508H28.3352V40.3232H31.6624V31.4508H39.8804V28.1458H31.6624V19.2734H28.3352V23.7096Z" fill="#E8762C"/>
<path d="M52.5018 25.9499V28.7336H47.5V30.9849H52.5018V36.5413H54.9972V30.9849H59.999V28.7336H54.9972V23.1772H52.5018V25.9499Z" fill="#5B6591"/>
<path d="M4.87981 26.1938V28.8555H0V30.7409H4.87981V36.0643H6.78737V30.7409L11.7892 30.5635V28.8555H6.78737V23.5321H4.87981V26.1938Z" fill="#7099A6"/>
<path d="M13.0972 38.7261V42.6854H5.71094V45.2917H13.0972V53.2103H15.9474V45.2917H23.3337V42.6854H15.9474V34.7668H13.0972V38.7261Z" fill="#C72035"/>
<path d="M44.0523 38.7261V42.6854H36.666V45.1697H44.0523V53.2103H46.9025V45.1697H54.2888V42.6854H46.9025V34.7668H44.0523V38.7261Z" fill="#1F447E"/>
<path d="M28.8123 48.7852V51.5578H23.8105V53.8092H28.8123V59.3655H31.3077V53.8092H36.3095V51.5578H31.3077V46.0015H28.8123V48.7852Z" fill="#5B6591"/>
</g>
<defs>
<clipPath id="clip0_786_34756">
<rect width="60" height="60" fill="white"/>
</clipPath>
</defs>
</svg>
