<svg width="60" height="60" viewBox="0 0 60 60" fill="none" xmlns="http://www.w3.org/2000/svg">
<path d="M5.56846 12.0703H54.4071C57.498 12.0703 59.9999 14.5723 59.9999 17.6632V36.3056C59.9999 39.3966 57.498 41.8985 54.4071 41.8985H36.8929L39.2969 47.7855L28.7245 41.8985H5.59284C2.50213 41.8985 0.000180017 39.3966 0.000180017 36.3056V17.6632C-0.0244294 14.5969 2.47729 12.0703 5.56846 12.0703Z" fill="#9B5C8F"/>
<path d="M3.41684 17.168C3.75832 16.7044 4.27043 16.4607 4.9534 16.4119C6.19746 16.3142 6.90481 16.8994 7.07543 18.1679C7.83152 23.2655 8.66074 27.5827 9.53871 31.1192L14.8801 20.9485C15.3681 20.0215 15.9779 19.5338 16.7096 19.4851C17.7829 19.4119 18.4412 20.0947 18.7096 21.5337C19.3194 24.7775 20.0999 27.5337 21.0266 29.8751C21.6608 23.6801 22.734 19.2167 24.2462 16.4607C24.6118 15.7777 25.1486 15.4362 25.8559 15.3872C26.417 15.3387 26.9291 15.5093 27.3925 15.8752C27.8558 16.2411 28.0998 16.7044 28.1486 17.2655C28.1729 17.7045 28.0998 18.0704 27.9048 18.4362C26.9535 20.1924 26.1728 23.1436 25.5388 27.241C24.9292 31.2167 24.7096 34.3144 24.8558 36.534C24.9048 37.1433 24.8071 37.6801 24.5633 38.1436C24.2704 38.6801 23.8316 38.9729 23.2705 39.0216C22.6363 39.0704 21.9779 38.7779 21.3437 38.1193C19.0754 35.802 17.2705 32.3386 15.9536 27.729C14.368 30.8508 13.1973 33.1922 12.4412 34.7532C11.0021 37.5094 9.7827 38.9241 8.75824 38.9972C8.09965 39.046 7.53879 38.4849 7.05106 37.3144C5.80723 34.1192 4.46566 27.9483 3.02684 18.8021C2.9291 18.1679 3.07535 17.6068 3.41684 17.168ZM55.8315 20.9972C54.9536 19.4607 53.6607 18.534 51.9292 18.1679C51.4656 18.0704 51.0268 18.0216 50.612 18.0216C48.2706 18.0216 46.3682 19.2411 44.8803 21.6802C43.6119 23.7533 42.9779 26.0459 42.9779 28.5582C42.9779 30.4362 43.3682 32.0459 44.1486 33.3875C45.0266 34.924 46.3194 35.8508 48.051 36.2166C48.5143 36.3143 48.9533 36.3631 49.3682 36.3631C51.7339 36.3631 53.6364 35.1436 55.0998 32.7045C56.368 30.6068 57.0022 28.3142 57.0022 25.8022C57.0266 23.8997 56.612 22.3142 55.8315 20.9972ZM52.7584 27.7533C52.4169 29.363 51.8071 30.5581 50.9045 31.3629C50.1974 31.9972 49.5388 32.2653 48.9292 32.1434C48.3437 32.0215 47.8557 31.5094 47.4901 30.5581C47.1971 29.802 47.0511 29.0459 47.0511 28.3386C47.0511 27.729 47.0999 27.1191 47.2218 26.5583C47.4414 25.5582 47.856 24.5825 48.5143 23.6558C49.3194 22.4604 50.173 21.9729 51.051 22.1436C51.6364 22.2654 52.1244 22.7778 52.49 23.7289C52.7828 24.485 52.929 25.2411 52.929 25.9484C52.929 26.5826 52.8803 27.1925 52.7584 27.7533ZM40.5632 20.9972C39.6852 19.4607 38.368 18.534 36.6608 18.1679C36.1975 18.0704 35.7585 18.0216 35.3436 18.0216C33.0022 18.0216 31.0998 19.2411 29.612 21.6802C28.3438 23.7533 27.7096 26.0459 27.7096 28.5582C27.7096 30.4362 28.0998 32.0459 28.8803 33.3875C29.7582 34.924 31.0511 35.8508 32.7826 36.2166C33.2462 36.3143 33.685 36.3631 34.0998 36.3631C36.4656 36.3631 38.368 35.1436 39.8314 32.7045C41.0999 30.6068 41.7339 28.3142 41.7339 25.8022C41.7339 23.8997 41.3436 22.3142 40.5632 20.9972ZM37.4657 27.7533C37.1242 29.363 36.5143 30.5581 35.612 31.3629C34.9046 31.9972 34.2461 32.2653 33.6362 32.1434C33.051 32.0215 32.5632 31.5094 32.1971 30.5581C31.9046 29.802 31.7584 29.0459 31.7584 28.3386C31.7584 27.729 31.8071 27.1191 31.929 26.5583C32.1486 25.5582 32.5632 24.5825 33.2218 23.6558C34.0267 22.4604 34.8803 21.9729 35.7582 22.1436C36.3437 22.2654 36.8317 22.7778 37.1973 23.7289C37.4903 24.485 37.6363 25.2411 37.6363 25.9484C37.6609 26.5826 37.5875 27.1925 37.4657 27.7533Z" fill="white"/>
</svg>
