<svg width="60" height="60" viewBox="0 0 60 60" fill="none" xmlns="http://www.w3.org/2000/svg">
<g clip-path="url(#clip0_786_34696)">
<path d="M54.6698 30.0854C54.6698 27.5283 54.2744 25.0531 53.5576 22.734L42.5371 51.334C49.7963 47.039 54.6698 39.1335 54.6698 30.0854Z" fill="#21759B"/>
<path d="M22.2109 53.4822C24.6643 54.3063 27.2905 54.7491 30.0256 54.7491C32.8834 54.7491 35.6209 54.2654 38.1729 53.3707L30.6438 33.851L22.2109 53.4822Z" fill="#21759B"/>
<path d="M6.35098 23.109C5.69957 25.3192 5.34375 27.6587 5.34375 30.0813C5.34375 39.3243 10.4323 47.3779 17.9537 51.5977L6.42647 23.2638L6.35098 23.109Z" fill="#21759B"/>
<path d="M18.9229 21.5211L17.8633 21.4739C15.5519 21.4354 15.8078 23.8351 15.8078 23.8351L24.0089 44.4043L29.5224 31.2349L26.4444 23.3986C25.212 21.3266 22.2045 21.3484 22.2045 21.3484V20.2567H39.4487L39.4231 21.4674L37.6288 21.5788C35.3943 21.5788 35.8461 23.7045 35.8461 23.7045L43.3292 43.694L45.4741 38.1588C49.279 29.533 46.9317 23.1492 46.9317 23.1492C43.1217 15.3104 47.9364 14.1854 47.9364 14.1854C48.2409 14.1419 48.5264 14.1176 48.8067 14.1047C44.2824 8.78838 37.5429 5.41611 30.019 5.41611C19.8456 5.41611 11.1071 11.581 7.33789 20.3773L18.8818 20.2583L18.9229 21.5211Z" fill="#21759B"/>
<path d="M57.7226 30.002C57.7226 45.288 45.2841 57.7279 30.0019 57.7279C14.7118 57.7279 2.27331 45.288 2.27331 30.002C2.27331 14.712 14.7118 2.27732 30.0019 2.27732C45.2841 2.27857 57.7226 14.7121 57.7226 30.002ZM30.0019 1C14.0118 1 1 14.0119 1 30.0033C1 45.9946 14.0119 59 30.0019 59C45.9893 59 58.9923 45.9945 58.9923 30.0033C58.9923 14.0119 45.9895 1 30.0019 1Z" fill="#21759B"/>
</g>
<defs>
<clipPath id="clip0_786_34696">
<rect width="58" height="58" fill="white" transform="translate(1 1)"/>
</clipPath>
</defs>
</svg>
