<svg width="80" height="80" viewBox="0 0 80 80" fill="none" xmlns="http://www.w3.org/2000/svg">
<path d="M9.60689 51.7886H6.60822L3.80122 65.7839C3.44315 67.5657 5.44889 68.7232 8.10776 68.7232C10.7666 68.7232 12.7718 67.567 12.4153 65.7839L9.60689 51.7886Z" fill="#024DF5"/>
<path d="M10.3105 48.1442C10.3105 49.3603 9.32651 50.3522 8.10254 50.3522C6.88652 50.3522 5.89453 49.3603 5.89453 48.1442C5.89453 46.9202 6.88652 45.9282 8.10254 45.9282C9.32651 45.9282 10.3105 46.9202 10.3105 48.1442Z" fill="#024DF5" fill-opacity="0.5"/>
<path d="M77.3059 24.2676L41.0432 11.4743C40.295 11.2097 39.7073 11.2097 38.9593 11.4743L2.694 24.2676C2.23385 24.4296 2 24.7606 2 25.2484V28.7135C2 29.2018 2.23385 29.5336 2.694 29.6955L40 42.8568L77.306 29.6955C77.7662 29.5322 78 29.2025 78 28.714V25.2489C78 24.7606 77.766 24.4296 77.3059 24.2676Z" fill="#024DF5" fill-opacity="0.5"/>
<path d="M39.9975 45.9826L39.0173 45.6363L16.75 37.7803V45.7029C16.75 58.0289 24.59 63.5836 39.9973 63.5836C55.404 63.5836 63.2433 58.0289 63.2433 45.7029V37.7803L40.9773 45.6363L39.9975 45.9826Z" fill="#024DF5"/>
<path d="M9.58101 35.2496L6.63281 34.21V44.7246H9.58101V35.2496Z" fill="#024DF5"/>
</svg>
