<svg width="80" height="80" viewBox="0 0 80 80" fill="none" xmlns="http://www.w3.org/2000/svg">
<path d="M8.33203 38.333V68.333C8.33203 72.0147 11.317 74.9997 14.9987 74.9997H64.9987C68.6804 74.9997 71.6654 72.0147 71.6654 68.333V38.333H8.33203ZM58.332 63.333H21.6654C20.7454 63.333 19.9987 62.5863 19.9987 61.6663C19.9987 60.7463 20.7454 59.9997 21.6654 59.9997H58.332C59.252 59.9997 59.9987 60.7463 59.9987 61.6663C59.9987 62.5863 59.252 63.333 58.332 63.333ZM58.332 51.6663H21.6654C20.7454 51.6663 19.9987 50.9197 19.9987 49.9997C19.9987 49.0797 20.7454 48.333 21.6654 48.333H58.332C59.252 48.333 59.9987 49.0797 59.9987 49.9997C59.9987 50.9197 59.252 51.6663 58.332 51.6663Z" fill="#024DF5"/>
<path d="M20.6354 25H8.33203V35H15.6354L20.6354 25Z" fill="#024DF5" fill-opacity="0.5"/>
<path d="M19.3633 35H28.9699L33.9699 25H24.3633L19.3633 35Z" fill="#024DF5" fill-opacity="0.5"/>
<path d="M47.302 25H37.6953L32.6953 35H42.302L47.302 25Z" fill="#024DF5" fill-opacity="0.5"/>
<path d="M60.6379 25H51.0312L46.0312 35H55.6379L60.6379 25Z" fill="#024DF5" fill-opacity="0.5"/>
<path d="M69.9999 25H64.3633L59.3633 35H71.6666V26.6667C71.6666 25.7467 70.9199 25 69.9999 25Z" fill="#024DF5" fill-opacity="0.5"/>
<path d="M18.713 13.0146L9.87964 14.573C8.06631 14.893 6.85631 16.6213 7.17631 18.4346L8.33464 24.9996L15.5263 23.7313L18.7146 13.0146H18.713Z" fill="#024DF5" fill-opacity="0.5"/>
<path d="M19.1953 23.0847L28.657 21.4164L31.8436 10.6997L22.3836 12.368L19.1953 23.0847Z" fill="#024DF5" fill-opacity="0.5"/>
<path d="M44.9765 8.38574L35.5148 10.0541L32.3281 20.7707L41.7881 19.1024L44.9765 8.38574Z" fill="#024DF5" fill-opacity="0.5"/>
<path d="M58.107 6.06934L48.6454 7.73767L45.457 18.4527L54.9187 16.7843L58.107 6.06934Z" fill="#024DF5" fill-opacity="0.5"/>
<path d="M69.5443 7.43726C69.2243 5.62393 67.4959 4.41393 65.6826 4.73393L61.7726 5.42393L58.5859 16.1406L69.0609 14.2939C69.9676 14.1339 70.5726 13.2689 70.4126 12.3639L69.5443 7.44059V7.43726Z" fill="#024DF5" fill-opacity="0.5"/>
</svg>
