<svg width="80" height="80" viewBox="0 0 80 80" fill="none" xmlns="http://www.w3.org/2000/svg">
<path d="M39.9829 17.9093C26.9048 6.47043 10.2761 16.5209 10.0034 30.146C9.93389 33.6184 10.9362 37.0008 12.9314 40.119H25.8637L28.164 36.2852C28.8319 35.1721 30.4482 35.1362 31.154 36.2459L36.0072 43.8723L43.0816 28.9376C43.6986 27.6345 45.5372 27.5931 46.2177 28.8568L52.2819 40.119H67.0344C77.9628 23.0389 56.3647 3.58113 39.9829 17.9093Z" fill="#024DF5" fill-opacity="0.5"/>
<path d="M49.6835 42.7091L44.7695 33.583L37.8207 48.2527C37.2295 49.5008 35.4907 49.6092 34.7493 48.444L29.7141 40.5316L28.3651 42.7801C28.0474 43.3095 27.4753 43.6334 26.8579 43.6334H15.7109C16.0604 43.9991 14.198 42.1405 38.7422 66.5577C39.4277 67.2398 40.5358 67.2399 41.2214 66.5577C65.3879 42.5162 63.9039 43.9984 64.2526 43.6334H51.2311C50.5843 43.6335 49.99 43.2785 49.6835 42.7091Z" fill="#024DF5"/>
</svg>
