<svg width="80" height="80" viewBox="0 0 80 80" fill="none" xmlns="http://www.w3.org/2000/svg">
<path d="M40 51.25C37.9806 51.2525 36.0445 52.0558 34.6166 53.4838C33.1886 54.9117 32.3853 56.8477 32.3828 58.8672V70H47.6172V58.8672C47.6147 56.8477 46.8114 54.9117 45.3834 53.4838C43.9555 52.0558 42.0194 51.2525 40 51.25Z" fill="#024DF5" fill-opacity="0.5"/>
<path d="M54.1211 40.5859C52.0533 42.0388 49.5877 42.8184 47.0605 42.8184C44.5334 42.8184 42.0678 42.0388 40 40.5859C37.9322 42.0388 35.4666 42.8184 32.9395 42.8184C30.4123 42.8184 27.9467 42.0388 25.8789 40.5859C24.2873 41.7019 22.4538 42.4246 20.5288 42.6949C18.6038 42.9652 16.6421 42.7754 14.8047 42.141V68.2422C14.8047 68.7084 14.9899 69.1555 15.3195 69.4851C15.6492 69.8148 16.0963 70 16.5625 70H28.8672V58.8672C28.8672 55.9146 30.0401 53.0829 32.1279 50.9951C34.2157 48.9073 37.0474 47.7344 40 47.7344C42.9526 47.7344 45.7843 48.9073 47.8721 50.9951C49.9599 53.0829 51.1328 55.9146 51.1328 58.8672V70H63.4375C63.9037 70 64.3508 69.8148 64.6805 69.4851C65.0101 69.1555 65.1953 68.7084 65.1953 68.2422V42.141C63.3579 42.7754 61.3962 42.9652 59.4712 42.6949C57.5462 42.4246 55.7127 41.7019 54.1211 40.5859Z" fill="#024DF5"/>
<path d="M10 25.2344V30.4785C9.99983 32.3304 10.5829 34.1353 11.6665 35.6371C12.7501 37.1389 14.2791 38.2612 16.0366 38.8449C17.7941 39.4286 19.6908 39.4439 21.4575 38.8887C23.2242 38.3335 24.7712 37.236 25.8789 35.752C26.6989 36.8511 27.7642 37.7436 28.99 38.3584C30.2158 38.9732 31.5681 39.2934 32.9395 39.2934C34.3108 39.2934 35.6632 38.9732 36.8889 38.3584C38.1147 37.7436 39.18 36.8511 40 35.752C40.82 36.8511 41.8853 37.7436 43.1111 38.3584C44.3368 38.9732 45.6892 39.2934 47.0605 39.2934C48.4319 39.2934 49.7842 38.9732 51.01 38.3584C52.2358 37.7436 53.3011 36.8511 54.1211 35.752C55.2288 37.236 56.7758 38.3335 58.5425 38.8887C60.3092 39.4439 62.2059 39.4286 63.9634 38.8449C65.7209 38.2612 67.2499 37.1389 68.3335 35.6371C69.4171 34.1353 70.0002 32.3304 70 30.4785V25.2344H10Z" fill="#024DF5" fill-opacity="0.5"/>
<path d="M63.9559 10.9715C63.8098 10.6795 63.5853 10.4339 63.3075 10.2623C63.0298 10.0907 62.7097 9.9999 62.3832 10H17.6176C17.2911 9.9999 16.971 10.0907 16.6932 10.2623C16.4155 10.4339 16.191 10.6795 16.0449 10.9715L10.6719 21.7188H69.3289L63.9559 10.9715Z" fill="#024DF5"/>
</svg>
