<svg width="80" height="80" viewBox="0 0 80 80" fill="none" xmlns="http://www.w3.org/2000/svg">
<path d="M15.3833 15.7089C19.3865 15.7089 22.6317 12.4636 22.6317 8.4604C22.6317 4.45717 19.3865 1.21191 15.3833 1.21191C11.38 1.21191 8.13477 4.45717 8.13477 8.4604C8.13477 12.4636 11.38 15.7089 15.3833 15.7089Z" fill="#024DF5"/>
<path d="M45.7106 64.9693C32.707 59.059 33.7531 47.9754 33.6379 47.2845C35.5531 41.5148 34.5834 32.4602 32.8621 25.9996C35.2743 27.1148 36.9955 28.6057 37.9894 30.4723C40.5797 35.3935 48.1082 31.4639 45.4561 26.5087C43.5409 22.8845 40.244 19.9754 35.9167 18.0966C24.7567 13.2008 16.4924 16.0942 16.8137 22.8239C16.8137 28.0008 12.5846 33.6142 4.6076 35.2481C2.21487 35.7426 0.840326 38.0614 1.29851 40.2299C1.7676 42.5196 3.96639 43.9742 6.29245 43.5511C11.9167 42.3996 16.5591 39.8542 19.8803 36.1087C20.0743 39.7814 19.7106 42.9451 19.5409 44.4481C19.4209 45.7766 12.4609 57.8129 11.9773 73.8057C11.8779 76.4748 14.0973 78.6626 16.6924 78.7875C16.7288 78.7875 16.7288 78.7754 16.8015 78.7875C16.9252 78.7305 21.5167 78.2239 21.6379 74.0966C21.844 67.3814 23.4318 61.2239 25.1652 56.4238C29.0076 68.0238 40.5228 73.2723 41.9773 73.8905C44.347 74.9063 47.2452 73.8105 48.2803 71.2966C49.3106 68.836 48.1591 65.9996 45.7106 64.9693Z" fill="#024DF5"/>
<path d="M58.5098 68.3879C53.3619 70.9612 55.1679 78.7879 60.9704 78.7879C64.9898 78.7879 67.6964 74.5285 65.8795 70.8364C64.5219 68.1334 61.2128 67.0303 58.5098 68.3879Z" fill="#024DF5" fill-opacity="0.5"/>
<path d="M51.478 44.087L46.0853 33.4785C45.4671 34.0118 44.7519 34.424 43.9883 34.7149L49.3131 45.1767L48.6428 45.5149C47.3459 46.1694 46.8246 47.7573 47.4671 49.0543L56.3762 66.8482C60.3786 64.0312 65.8659 65.4179 68.0489 69.7452C68.2307 70.1088 68.3762 70.4846 68.4974 70.8603L71.5883 69.3088L56.8489 41.3815L51.478 44.087Z" fill="#024DF5" fill-opacity="0.5"/>
<path d="M67.2385 40.715C66.2324 38.715 63.796 37.9029 61.7839 38.909L59.0215 40.2981L73.7488 68.2205L75.9172 67.1272C77.9318 66.1114 78.7245 63.6496 77.7354 61.6726L67.2385 40.715Z" fill="#024DF5" fill-opacity="0.5"/>
<path d="M62.0139 16.9695H73.7836C76.5472 16.9695 78.7896 14.7271 78.7896 11.9634C78.7896 9.13434 76.4308 6.90282 73.7108 6.96949C73.4939 3.7804 70.8696 1.21191 67.5533 1.21191C64.2793 1.21191 61.5763 3.75737 61.3957 7.00585C58.9496 7.28828 57.0078 9.4107 57.0078 11.9634C57.0078 14.7271 59.2502 16.9695 62.0139 16.9695Z" fill="#024DF5"/>
</svg>
