<svg width="101" height="100" viewBox="0 0 101 100" fill="none" xmlns="http://www.w3.org/2000/svg">
<g clip-path="url(#clip0_256_12213)">
<path fill-rule="evenodd" clip-rule="evenodd" d="M98.8344 62.5788H93.8432C93.4277 62.5788 93.0473 62.7317 92.7551 62.9842H90.2557C90.1023 62.9842 89.9521 62.9221 89.8438 62.8135L82.1348 55.1047C80.898 53.868 79.3725 53.0249 77.7102 52.6383C78.6186 51.6151 79.0514 50.2446 78.8979 48.8757C78.6529 46.6915 76.8936 44.9071 74.7148 44.6327C74.3174 44.5827 73.9229 44.5803 73.5361 44.6245V38.8755C73.5361 37.9395 72.7748 37.1784 71.8391 37.1784H64.4119C63.8084 37.1784 63.2455 37.5028 62.9432 38.0251C62.641 38.5465 62.6396 39.195 62.94 39.7186C63.1475 40.0794 63.2289 40.495 63.175 40.9206C63.0676 41.7735 62.3682 42.4624 61.5119 42.5583C60.9553 42.6204 60.4258 42.4528 60.0164 42.0866C59.6121 41.7251 59.3801 41.2071 59.3801 40.6653C59.3801 40.3337 59.466 40.0077 59.6283 39.7231C59.9291 39.1964 59.9273 38.5442 59.6238 38.0212C59.3219 37.501 58.7603 37.1782 58.1584 37.1782H44.5188C44.5631 36.7915 44.5607 36.3967 44.5107 35.9995C44.2363 33.821 42.452 32.0616 40.268 31.8165C38.8936 31.6618 37.5172 32.0989 36.4926 33.0151C35.3305 34.054 34.7289 35.6036 34.9111 37.1782H29.1611C28.2254 37.1782 27.4641 37.9395 27.4641 38.8753V46.3024C27.4641 46.9063 27.7887 47.4692 28.3115 47.7715C28.8334 48.0735 29.482 48.0743 30.0043 47.7741C30.3652 47.5667 30.7813 47.4854 31.2063 47.5389C32.0594 47.6465 32.7482 48.346 32.8441 49.2022C32.9764 50.3821 32.0553 51.3342 30.9514 51.3342C30.6199 51.3342 30.2941 51.2483 30.009 51.0856C29.4822 50.785 28.8301 50.787 28.307 51.0905C27.8332 51.3657 27.523 51.8565 27.4717 52.3969H25.4023C22.933 52.3969 20.6115 53.3585 18.8652 55.1046L11.1566 62.8133C11.0465 62.9235 10.9 62.9842 10.7443 62.9842H8.24492C7.95293 62.7317 7.57246 62.5788 7.15684 62.5788H2.16562C1.24727 62.5788 0.5 63.326 0.5 64.2444V82.7176C0.5 83.636 1.24727 84.3833 2.16562 84.3833H7.15684C8.02949 84.3833 8.74746 83.7087 8.81699 82.8536H11.832C11.9834 82.8536 12.127 82.9094 12.2252 83.0063C14.8922 85.6387 18.4252 87.0885 22.1732 87.0885H27.0814L33.9178 87.0883H37.0023C39.024 87.0883 40.6686 85.4436 40.6686 83.4219V81.4798C40.6686 81.1153 40.6152 80.7633 40.5158 80.4309C41.8023 79.861 42.702 78.5719 42.702 77.0768V75.1272C42.702 74.3016 42.4279 73.5393 41.9656 72.9258C42.4277 72.3124 42.702 71.5499 42.702 70.7243V68.7782C42.702 68.5241 42.676 68.2762 42.6266 68.0366C45.0873 67.9235 47.0545 65.8862 47.0545 63.3979C47.0545 62.7911 46.9377 62.211 46.7254 61.679H54.2758C54.0631 62.2108 53.9459 62.7909 53.9459 63.3979C53.9459 65.886 55.9131 67.9233 58.3738 68.0364C58.3244 68.276 58.2984 68.5241 58.2984 68.7782V70.7243C58.2984 71.5497 58.5727 72.3124 59.0348 72.9258C58.5727 73.5393 58.2984 74.302 58.2984 75.1274V77.0735C58.2984 78.5688 59.1982 79.8579 60.485 80.4278C60.3855 80.7602 60.3322 81.1122 60.3322 81.4764V83.4225C60.3322 85.4442 61.977 87.0889 63.9986 87.0889C68.995 87.0889 69.7131 87.0888 70.4657 87.0888C71.2941 87.0886 72.1642 87.0885 78.8273 87.0885C82.5752 87.0885 86.1082 85.6387 88.7756 83.0065C88.874 82.9092 89.0172 82.8536 89.1686 82.8536H92.1836C92.2529 83.7087 92.9711 84.3833 93.8438 84.3833H98.835C99.7533 84.3833 100.501 83.636 100.501 82.7176V64.2444C100.5 63.326 99.7527 62.5788 98.8344 62.5788ZM3.42969 81.4536H5.89277V65.5085H3.42969V81.4536ZM57.3266 48.8762C57.4807 50.2506 57.0434 51.6264 56.1275 52.6508C55.0904 53.8108 53.5463 54.4122 51.9648 54.2325V58.7493H64.0186C63.3803 57.7577 63.0098 56.5782 63.0098 55.3137V54.8608C63.0098 53.4967 64.1197 52.3868 65.4838 52.3868H70.615C70.6691 51.8503 70.9785 51.3637 71.4494 51.0903C71.9725 50.7868 72.6244 50.7848 73.1514 51.0854C73.4363 51.2481 73.7623 51.334 74.0938 51.334C75.1957 51.334 76.1189 50.3846 75.9865 49.2018C75.8904 48.3456 75.2016 47.6464 74.3484 47.5389C73.924 47.485 73.5078 47.5667 73.1467 47.7741C72.6244 48.0743 71.9758 48.0735 71.4539 47.7715C70.9311 47.4692 70.6064 46.9063 70.6064 46.3024V40.1079H66.09C66.1344 40.4946 66.1318 40.8897 66.0818 41.287C65.807 43.4657 64.0227 45.2249 61.8381 45.4696C60.4635 45.6237 59.0879 45.1866 58.0635 44.2706C56.901 43.2311 56.3006 41.6811 56.4826 40.1079H51.9648V44.6251C52.352 44.5807 52.7477 44.5825 53.1441 44.6325C55.323 44.9075 57.082 46.6921 57.3266 48.8762ZM70.6744 68.778C70.6744 68.3717 70.3439 68.0415 69.9379 68.0415L61.9645 68.0417C61.5582 68.0417 61.2279 68.3721 61.2279 68.7784V70.7245C61.2279 71.1307 61.5582 71.4612 61.9645 71.4612H69.9379C70.3441 71.4612 70.6744 71.1307 70.6744 70.7247V68.778ZM61.2279 77.0735C61.2279 77.4798 61.5582 77.8102 61.9645 77.8102L69.9379 77.8104C70.3441 77.8104 70.6744 77.4799 70.6744 77.0739V75.1272C70.6744 74.721 70.3439 74.3907 69.9379 74.3907H61.9645C61.5582 74.3907 61.2279 74.7212 61.2279 75.1274V77.0735ZM63.2615 81.4766V83.4227C63.2615 83.829 63.592 84.1594 63.9984 84.1594C68.9329 84.1594 69.8334 84.1591 69.9494 84.159L69.9633 84.159C70.3578 84.1458 70.6746 83.8208 70.6746 83.4231V81.4764C70.6746 81.0702 70.3441 80.7399 69.9381 80.7399H68.3324C68.2994 80.7422 68.2662 80.7434 68.2328 80.7434L65.6345 80.7435H65.6196C63.9825 80.7436 63.9649 80.7436 63.9474 80.7426L63.941 80.7422C63.5613 80.7715 63.2615 81.0897 63.2615 81.4766ZM95.1072 81.4536H97.5703V65.5081H95.1072V67.7977C95.1072 68.6067 94.4516 69.2626 93.6424 69.2626C92.8332 69.2626 92.1775 68.6067 92.1775 67.7977V65.9137H90.2557C89.3172 65.9137 88.4352 65.5483 87.7719 64.8848L80.0629 57.176C78.8705 55.9833 77.2846 55.3264 75.5977 55.3264C75.5598 55.3254 75.4487 55.3259 75.3099 55.3264C74.996 55.3277 74.5404 55.3295 74.4691 55.3163H65.9393C65.9408 57.2094 67.4815 58.7491 69.3748 58.7491H74.7676C75.5768 58.7491 76.2324 59.4049 76.2324 60.2139C76.2324 63.1233 78.5992 65.4901 81.5086 65.4901C82.3178 65.4901 82.9734 66.146 82.9734 66.9549C82.9734 67.7639 82.3178 68.4198 81.5086 68.4198C77.4836 68.4198 74.1264 65.5071 73.4338 61.6788L71.5368 61.6787L69.9053 61.6788C68.8587 61.6789 67.8121 61.6794 64.4429 61.6809L58.5887 61.6837C57.6439 61.684 56.8754 62.453 56.8754 63.3975C56.8754 64.3424 57.6441 65.1114 58.5893 65.1114H69.9379C71.9596 65.1114 73.6041 66.7561 73.6041 68.7776V70.7243C73.6041 71.5497 73.3299 72.3122 72.868 72.9256C73.3299 73.5391 73.6041 74.3016 73.6041 75.127V77.0737C73.6041 77.8991 73.3299 78.6616 72.8678 79.2751C73.3299 79.8883 73.6041 80.6508 73.6041 81.4762V83.4229C73.6041 83.6749 73.5785 83.921 73.5299 84.1589H78.827C81.7994 84.1589 84.6016 83.0089 86.717 80.9212C87.3688 80.278 88.2391 79.9239 89.168 79.9239H92.1775V74.6342C92.1775 73.8253 92.8332 73.1694 93.6424 73.1694C94.4516 73.1694 95.1072 73.8253 95.1072 74.6342V81.4536ZM32.1191 58.7493H30.3937V54.2317C31.9732 54.4145 33.5211 53.8089 34.5562 52.6508C35.4723 51.6264 35.9096 50.2505 35.7555 48.876C35.5109 46.6919 33.7518 44.9071 31.5727 44.6323C31.176 44.5823 30.7807 44.5798 30.3937 44.6241V40.1075H36.5873C37.1893 40.1075 37.7506 39.7846 38.0525 39.2647C38.3563 38.7417 38.358 38.0895 38.0574 37.563C37.8924 37.2737 37.8088 36.9567 37.8088 36.6204C37.8088 35.5198 38.7564 34.5956 39.9412 34.7276C40.7973 34.8237 41.4967 35.5126 41.6041 36.3653C41.6576 36.7907 41.5764 37.2063 41.3686 37.568C41.0686 38.0905 41.0699 38.7391 41.3719 39.2606C41.6744 39.7829 42.2373 40.1075 42.8408 40.1075H49.0352V46.7317C49.0352 47.2868 49.3488 47.794 49.8453 48.0421C50.3416 48.2901 50.9357 48.2362 51.3795 47.903C51.7771 47.6046 52.2748 47.4755 52.7771 47.5387C53.6303 47.6464 54.3191 48.346 54.415 49.2022C54.5477 50.385 53.623 51.334 52.5223 51.334C52.1059 51.334 51.7109 51.2026 51.3797 50.954C50.9359 50.6204 50.3416 50.5667 49.8453 50.8147C49.3488 51.0628 49.0352 51.5702 49.0352 52.1251V58.7493H38.9553H32.1191ZM22.1732 84.1589H27.0814L33.9178 84.1587H37.0023C37.4086 84.1587 37.7389 83.8282 37.7389 83.4219V81.4798C37.7389 81.0735 37.4086 80.743 37.0023 80.743H32.7674C31.9582 80.743 31.3025 80.0872 31.3025 79.2782C31.3025 78.4692 31.9582 77.8133 32.7674 77.8133H39.0357C39.442 77.8133 39.7723 77.4831 39.7723 77.0768V75.1272C39.7723 74.7212 39.442 74.3907 39.0357 74.3907H32.7674C31.9582 74.3907 31.3025 73.7348 31.3025 72.9258C31.3025 72.1169 31.9582 71.461 32.7674 71.461H39.0357C39.442 71.461 39.7723 71.1305 39.7723 70.7243V68.7782C39.7723 68.3719 39.442 68.0415 39.0357 68.0415H32.7674C31.9582 68.0415 31.3025 67.3856 31.3025 66.5766C31.3025 65.7676 31.9582 65.1118 32.7674 65.1118H42.4109C43.3559 65.1118 44.1248 64.3428 44.1248 63.3979C44.1248 62.4505 43.3562 61.6794 42.4117 61.679H38.9553H32.1191H26.358C25.5488 61.679 24.8932 61.0231 24.8932 60.2141C24.8932 59.4051 25.5488 58.7493 26.358 58.7493H27.4641V55.3266H25.4023C23.7158 55.3266 22.1297 55.9835 20.9369 57.1762L13.2283 64.885C12.5645 65.5485 11.6826 65.9139 10.7443 65.9139H8.82246V79.9239H11.8322C12.7607 79.9239 13.6312 80.278 14.283 80.921C16.3986 83.009 19.2006 84.1589 22.1732 84.1589Z" fill="black"/>
<path d="M50.3977 26.6259C52.6922 26.6259 54.559 24.7591 54.559 22.4646V17.072C54.559 14.7774 52.6922 12.9106 50.3977 12.9106C48.1031 12.9106 46.2363 14.7774 46.2363 17.072V22.4647C46.2363 24.7593 48.1029 26.6259 50.3977 26.6259ZM49.166 17.072C49.166 16.3929 49.7186 15.8403 50.3977 15.8403C51.0768 15.8403 51.6293 16.3929 51.6293 17.072V22.4647C51.6293 23.1438 51.0768 23.6964 50.3977 23.6964C49.7186 23.6964 49.166 23.1438 49.166 22.4647V17.072Z" fill="black"/>
<path d="M61.7985 28.7643C62.7573 29.318 63.8778 29.4688 64.9561 29.1799C66.0296 28.8922 66.927 28.2038 67.4829 27.2411L70.1794 22.5708C70.7352 21.6083 70.8829 20.4868 70.5952 19.4131C70.3073 18.3395 69.619 17.4422 68.6563 16.8864C66.6692 15.7389 64.1192 16.4223 62.9719 18.4094L60.2755 23.0797C59.1282 25.0672 59.8114 27.6172 61.7985 28.7643ZM62.8124 24.5448L65.5089 19.8745C65.7368 19.4797 66.1516 19.259 66.5776 19.259C67.1178 19.259 67.6169 19.6176 67.7651 20.1715C67.8503 20.4893 67.8065 20.8212 67.6421 21.1061L64.9456 25.7764C64.7811 26.0612 64.5155 26.2651 64.1977 26.3503C63.8799 26.4352 63.5483 26.3917 63.2633 26.2272C62.6753 25.8878 62.4729 25.1329 62.8124 24.5448Z" fill="black"/>
<path d="M33.3138 27.2412C34.0837 28.5748 35.4853 29.3209 36.9245 29.3209C37.63 29.3209 38.3447 29.1416 38.9982 28.7643C40.9853 27.6168 41.6685 25.0668 40.5212 23.0799L37.8247 18.4096C37.2689 17.4469 36.3716 16.7584 35.298 16.4707C34.2241 16.183 33.1031 16.3307 32.1404 16.8864C30.1533 18.0334 29.47 20.5834 30.6171 22.5707L33.3138 27.2412ZM33.6054 19.4237C33.8904 19.2592 34.2218 19.2155 34.5398 19.3006C34.8575 19.3858 35.1232 19.5895 35.2876 19.8745L37.9841 24.5448C38.3236 25.1328 38.1214 25.8875 37.5333 26.2272C36.9454 26.5666 36.1906 26.3647 35.8509 25.7764L33.1544 21.1061C32.815 20.518 33.0171 19.7633 33.6054 19.4237Z" fill="black"/>
</g>
<defs>
<clipPath id="clip0_256_12213">
<rect width="100" height="100" fill="white" transform="translate(0.5)"/>
</clipPath>
</defs>
</svg>
