<svg width="101" height="100" viewBox="0 0 101 100" fill="none" xmlns="http://www.w3.org/2000/svg">
<g clip-path="url(#clip0_1442_29931)">
<path d="M90.1549 43.1036C90.1549 40.2518 87.8342 37.9312 84.9825 37.9312H57.3963C56.4429 37.9312 55.6722 38.7036 55.6722 39.6553C55.6722 40.607 56.4429 41.3794 57.3963 41.3794H84.9825C85.9342 41.3794 86.7067 42.1536 86.7067 43.1036V60.3449C86.7067 61.2949 85.9342 62.0691 84.9825 62.0691H29.8101C28.8584 62.0691 28.086 61.2949 28.086 60.3449V56.8967C28.086 55.9449 27.3153 55.1725 26.3618 55.1725C25.4084 55.1725 24.6377 55.9449 24.6377 56.8967V60.3449C24.6377 63.1967 26.9584 65.5174 29.8101 65.5174H84.9825C87.8342 65.5174 90.1549 63.1967 90.1549 60.3449V43.1036Z" fill="black"/>
<path d="M91.8792 13.7932H57.3964C56.443 13.7932 55.6723 14.5656 55.6723 15.5174C55.6723 16.4691 56.443 17.2415 57.3964 17.2415H91.8792C94.7309 17.2415 97.0516 19.5622 97.0516 22.4139V27.5863H57.3964C56.443 27.5863 55.6723 28.3587 55.6723 29.3105C55.6723 30.2622 56.443 31.0346 57.3964 31.0346H97.0516V91.3794C97.0516 94.2311 94.7309 96.5518 91.8792 96.5518H22.9137C20.0619 96.5518 17.7412 94.2311 17.7412 91.3794V56.8967C17.7412 55.9449 16.9706 55.1725 16.0171 55.1725C15.0637 55.1725 14.293 55.9449 14.293 56.8967V91.3794C14.293 96.1329 18.1602 100 22.9137 100H91.8792C96.6326 100 100.5 96.1329 100.5 91.3794V22.4139C100.5 17.6605 96.6326 13.7932 91.8792 13.7932Z" fill="black"/>
<path d="M91.8794 24.138C92.8329 24.138 93.6036 23.3656 93.6036 22.4138C93.6036 21.4621 92.8329 20.6897 91.8794 20.6897H88.4312C87.4777 20.6897 86.707 21.4621 86.707 22.4138C86.707 23.3656 87.4777 24.138 88.4312 24.138H91.8794Z" fill="black"/>
<path d="M81.5347 24.138C82.4882 24.138 83.2589 23.3656 83.2589 22.4138C83.2589 21.4621 82.4882 20.6897 81.5347 20.6897H78.0864C77.133 20.6897 76.3623 21.4621 76.3623 22.4138C76.3623 23.3656 77.133 24.138 78.0864 24.138H81.5347Z" fill="black"/>
<path d="M71.1895 24.138C72.143 24.138 72.9136 23.3656 72.9136 22.4138C72.9136 21.4621 72.143 20.6897 71.1895 20.6897H67.7412C66.7878 20.6897 66.0171 21.4621 66.0171 22.4138C66.0171 23.3656 66.7878 24.138 67.7412 24.138H71.1895Z" fill="black"/>
<path fill-rule="evenodd" clip-rule="evenodd" d="M52.2241 43.1034V8.62069C52.2241 3.86724 48.3569 0 43.6034 0H9.12069C4.36724 0 0.5 3.86724 0.5 8.62069V15.5172V43.1034C0.5 47.8569 4.36724 51.7241 9.12069 51.7241H43.6034C48.3569 51.7241 52.2241 47.8569 52.2241 43.1034ZM9.12069 3.44828C6.26897 3.44828 3.94828 5.76897 3.94828 8.62069V15.5172V43.1034C3.94828 45.9552 6.26897 48.2759 9.12069 48.2759H43.6034C46.4552 48.2759 48.7759 45.9552 48.7759 43.1034V8.62069C48.7759 5.76897 46.4552 3.44828 43.6034 3.44828H9.12069Z" fill="black"/>
<path d="M41.8792 25.862C41.8792 17.3068 34.9189 10.3447 26.362 10.3447C17.8051 10.3447 10.8447 17.3068 10.8447 25.862C10.8447 34.4171 17.8051 41.3792 26.362 41.3792C34.9189 41.3792 41.8792 34.4171 41.8792 25.862ZM38.293 24.1378H33.2137C33.0568 20.7171 32.424 17.4137 31.3533 14.8878C35.0189 16.562 37.6982 20.0137 38.293 24.1378ZM33.2154 27.5861H38.2947C37.6999 31.7102 35.0206 35.162 31.3551 36.8361C32.4258 34.3102 33.0585 31.0051 33.2154 27.5861ZM26.362 13.793C27.2861 13.793 29.4413 17.4085 29.7654 24.1378H22.9602C23.2844 17.4085 25.4378 13.793 26.362 13.793ZM14.4309 27.5861H19.5085C19.6654 31.0068 20.2982 34.3102 21.3689 36.8361C17.7033 35.162 15.0258 31.7102 14.4309 27.5861ZM19.5085 24.1378H14.4309C15.0258 20.0137 17.7051 16.562 21.3706 14.8878C20.2999 17.4137 19.6671 20.7189 19.5102 24.1378H19.5085ZM22.9585 27.5861H29.7637C29.4396 34.3154 27.2844 37.9309 26.3602 37.9309C25.4361 37.9309 23.2827 34.3154 22.9585 27.5861Z" fill="black"/>
<path d="M64.2931 75.8621C65.2466 75.8621 66.0173 75.0897 66.0173 74.138C66.0173 73.1862 65.2466 72.4138 64.2931 72.4138H50.5C49.5466 72.4138 48.7759 73.1862 48.7759 74.138C48.7759 75.0897 49.5466 75.8621 50.5 75.8621H64.2931Z" fill="black"/>
<path d="M90.1549 81.0344C90.1549 80.0827 89.3842 79.3103 88.4308 79.3103H26.3618C25.4084 79.3103 24.6377 80.0827 24.6377 81.0344C24.6377 81.9862 25.4084 82.7586 26.3618 82.7586H88.4308C89.3842 82.7586 90.1549 81.9862 90.1549 81.0344Z" fill="black"/>
<path d="M36.707 86.2068C35.7536 86.2068 34.9829 86.9792 34.9829 87.9309C34.9829 88.8826 35.7536 89.6551 36.707 89.6551H78.0864C79.0398 89.6551 79.8105 88.8826 79.8105 87.9309C79.8105 86.9792 79.0398 86.2068 78.0864 86.2068H36.707Z" fill="black"/>
</g>
<defs>
<clipPath id="clip0_1442_29931">
<rect width="100" height="100" fill="white" transform="translate(0.5)"/>
</clipPath>
</defs>
</svg>
