<svg width="101" height="100" viewBox="0 0 101 100" fill="none" xmlns="http://www.w3.org/2000/svg">
<path d="M20.0614 20.6459C24.5504 20.6459 28.2028 16.9938 28.2028 12.5045C28.2028 8.01523 24.5506 4.36328 20.0614 4.36328C15.5752 4.36328 11.9256 8.01543 11.9256 12.5045C11.9256 16.9936 15.5754 20.6459 20.0614 20.6459ZM20.0614 7.49141C22.8256 7.49141 25.0746 9.74043 25.0746 12.5045C25.0746 15.2688 22.8256 17.5178 20.0614 17.5178C17.3 17.5178 15.0536 15.2688 15.0536 12.5045C15.0537 9.74043 17.3002 7.49141 20.0614 7.49141ZM42.6674 23.9871C41.4172 21.2398 38.1627 20.0168 35.4118 21.2609C35.41 21.2617 35.4082 21.2625 35.4067 21.2633L28.9866 24.1949L20.6032 20.9447C17.7799 19.8539 14.5977 21.2592 13.5133 24.0662C13.2727 24.6758 13.1465 25.3246 13.1385 25.9926C13.095 29.257 12.8651 44.1865 12.8178 47.8762L3.01957 62.1799C1.31175 64.676 1.9516 68.0951 4.44418 69.8004C5.36703 70.434 6.43636 70.7635 7.53207 70.7635C7.86898 70.7635 8.20824 70.7324 8.54633 70.6693C9.98461 70.4014 11.2328 69.5895 12.062 68.3812L22.7051 52.8342C23.1119 52.2773 23.4055 51.6613 23.5776 51.0147L24.6577 51.518L25.0147 62.7664C25.0633 64.2309 25.6789 65.5883 26.7481 66.5887C27.8172 67.5893 29.2098 68.1148 30.6731 68.0646C32.1352 68.0199 33.4922 67.407 34.4936 66.3395C35.4979 65.2687 36.0241 63.8705 35.9752 62.4049L35.5155 47.7891C35.443 45.7104 34.2286 43.8766 32.3483 43.0041L23.9018 39.0703L23.9893 34.0172L27.1024 35.2234C28.4901 35.7854 30.0678 35.7525 31.435 35.1316L39.9483 31.2459C41.2825 30.6389 42.2998 29.5484 42.8133 28.1754C43.326 26.8043 43.2739 25.3162 42.6674 23.9871ZM39.8832 27.0801C39.6627 27.6697 39.2258 28.1381 38.651 28.3996L30.1389 32.285C29.541 32.5564 28.8774 32.5695 28.2705 32.3219C28.2619 32.3184 28.2534 32.315 28.2448 32.3117L23.0295 30.291C22.5528 30.1061 22.0159 30.1662 21.5918 30.4514C21.1676 30.7365 20.9096 31.2111 20.9006 31.7223L20.7567 40.0324C20.7459 40.6502 21.1 41.2164 21.6602 41.4773L31.0299 45.841C31.8373 46.2156 32.3584 47.0039 32.3893 47.8928L32.8489 62.5063C32.87 63.1379 32.6438 63.7393 32.2121 64.1994C31.7836 64.6564 31.2028 64.9188 30.5733 64.9381C29.9393 64.9572 29.3444 64.734 28.8854 64.3045C28.4264 63.875 28.1621 63.2918 28.1412 62.6646L27.7537 50.4568C27.735 49.867 27.3858 49.3379 26.851 49.0887L22.8702 47.234C22.3899 47.0104 21.8289 47.0447 21.3801 47.3258C20.9309 47.6066 20.6545 48.0959 20.6457 48.6256L20.6289 49.6381C20.6256 50.1279 20.4676 50.5986 20.1711 50.9996C20.16 51.0148 20.1491 51.0303 20.1385 51.0457L9.48187 66.6125C9.1264 67.1305 8.59086 67.4791 7.97347 67.5939C7.35629 67.7088 6.73187 67.5764 6.21215 67.2199C5.14144 66.4873 4.86722 65.0186 5.60062 63.9467L15.6659 49.2531C15.8405 48.9984 15.9356 48.6977 15.9393 48.3889C15.9869 44.5756 16.2225 29.3006 16.2659 26.032C16.2696 25.7439 16.3221 25.4689 16.4266 25.2039C16.786 24.2736 17.6789 23.7027 18.6243 23.7027C18.9069 23.7027 19.1946 23.7539 19.4739 23.8617L28.4703 27.3496C28.8635 27.502 29.3016 27.4893 29.6854 27.3141L36.7034 24.1096C37.8858 23.5768 39.2832 24.1023 39.8207 25.284C40.0809 25.8543 40.1032 26.492 39.8832 27.0801ZM37.0471 68.8736H23.9756C23.1118 68.8736 22.4116 69.5738 22.4116 70.4377V94.0727C22.4116 94.9365 23.1118 95.6367 23.9756 95.6367H37.0471C37.911 95.6367 38.6112 94.9365 38.6112 94.0727V70.4377C38.6112 69.5738 37.911 68.8736 37.0471 68.8736ZM35.483 92.5086H25.5397V72.0018H35.483V92.5086ZM16.9389 77.8482H3.86742C3.00355 77.8482 2.30336 78.5484 2.30336 79.4123V94.0729C2.30336 94.9367 3.00355 95.6369 3.86742 95.6369H16.9389C17.8028 95.6369 18.503 94.9367 18.503 94.0729V79.4121C18.503 78.5482 17.8028 77.8482 16.9389 77.8482ZM15.3748 92.5086H5.43148V80.9762H15.3748V92.5086ZM85.2784 49.0664L89.7297 44.6207C90.1875 44.1635 90.3164 43.4713 90.0539 42.8797L88.7028 39.8344C89.5481 38.3373 90.2067 36.7494 90.668 35.0953L93.7705 33.9008C94.3743 33.6684 94.7725 33.0881 94.7725 32.4412V26.1463C94.7725 25.4994 94.3743 24.9191 93.7703 24.6867L90.668 23.4922C90.2071 21.8396 89.5485 20.2504 88.7026 18.7492L90.0537 15.7086C90.3164 15.1172 90.1879 14.4252 89.7303 13.9676L85.2789 9.51621C84.8213 9.05859 84.1291 8.93008 83.5381 9.19277L80.4975 10.5438C78.9961 9.69805 77.4069 9.03945 75.7545 8.57832L74.5598 5.47598C74.3274 4.87227 73.7473 4.47402 73.1002 4.47402H66.8055C66.1586 4.47402 65.5784 4.87227 65.3459 5.47598L64.1514 8.57832C62.4975 9.03965 60.9096 9.69824 59.4129 10.5434L56.3733 9.19277C55.7825 8.93027 55.0901 9.05859 54.6325 9.51621L50.1811 13.9676C49.7235 14.4252 49.595 15.1172 49.8577 15.7086L51.2086 18.7492C50.3647 20.2473 49.7049 21.8363 49.2397 23.4914L46.1352 24.6867C45.5315 24.9191 45.1332 25.4994 45.1332 26.1463V32.4412C45.1332 33.0881 45.5315 33.6684 46.1352 33.9008L49.2397 35.0963C49.7039 36.7482 50.3623 38.3369 51.2045 39.8377L49.8571 42.8809C49.5951 43.4721 49.7243 44.1637 50.1819 44.6207L54.6332 49.0664C55.0907 49.523 55.7817 49.6512 56.3717 49.3898L59.4137 48.0428C60.91 48.8844 62.4975 49.5428 64.1508 50.007L65.3461 53.1115C65.5784 53.7152 66.1586 54.1135 66.8057 54.1135H73.1004C73.7473 54.1135 74.3274 53.7152 74.56 53.1115L75.7547 50.009C77.4075 49.5479 78.9973 48.8891 80.4989 48.043L83.5401 49.3898C84.1307 49.6512 84.8211 49.523 85.2784 49.0664ZM79.5776 44.9559C77.9133 45.9801 76.112 46.7264 74.2233 47.1744C73.7211 47.2934 73.31 47.6525 73.1246 48.1342L72.0266 50.9857H67.8793L66.7813 48.1344C66.5965 47.6541 66.187 47.2955 65.6868 47.1754C63.793 46.7211 61.9916 45.9742 60.3329 44.9553C59.8944 44.6857 59.3516 44.6498 58.8809 44.8578L56.0852 46.0957L53.1516 43.166L54.3891 40.3717C54.5971 39.902 54.5612 39.36 54.2928 38.9219C53.2727 37.2555 52.5252 35.4516 52.0715 33.5604C51.9514 33.06 51.5928 32.6508 51.1127 32.4658L48.2614 31.3678V27.2203L51.1127 26.1225C51.5928 25.9375 51.9514 25.5283 52.0715 25.0279C52.5262 23.1326 53.2748 21.3297 54.2967 19.6693C54.567 19.2301 54.6034 18.6859 54.394 18.2146L53.1526 15.4203L56.0852 12.4879L58.8795 13.7293C59.3514 13.9391 59.8969 13.9021 60.336 13.6309C61.9928 12.6082 63.7918 11.8621 65.6832 11.4135C66.1852 11.2943 66.5963 10.9354 66.7817 10.4537L67.8797 7.60234H72.027L73.125 10.4537C73.3104 10.9352 73.7215 11.2943 74.2235 11.4135C76.1122 11.8615 77.9139 12.608 79.5782 13.632C80.0172 13.9023 80.5616 13.9387 81.0327 13.7293L83.827 12.4879L86.7596 15.4203L85.518 18.2146C85.3086 18.6859 85.345 19.2303 85.6155 19.6695C86.6395 21.3336 87.386 23.1352 87.8338 25.024C87.953 25.5262 88.3121 25.9371 88.7936 26.1227L91.6452 27.2205V31.368L88.7936 32.466C88.312 32.6516 87.953 33.0625 87.8338 33.5646C87.3854 35.4559 86.6393 37.2549 85.6162 38.9117C85.3452 39.351 85.3082 39.8957 85.5176 40.3676L86.7596 43.167L83.8266 46.0963L81.0309 44.8584C80.5598 44.6494 80.0164 44.6859 79.5776 44.9559ZM69.9555 14.0963C61.5741 14.0963 54.7553 20.9125 54.7553 29.291C54.7553 37.6725 61.5741 44.4912 69.9555 44.4912C78.3338 44.4912 85.1502 37.6725 85.1502 29.291C85.1502 20.9127 78.334 14.0963 69.9555 14.0963ZM69.9555 41.3633C63.2989 41.3633 57.8832 35.9477 57.8832 29.291C57.8832 22.6375 63.2989 17.2244 69.9555 17.2244C76.609 17.2244 82.0221 22.6375 82.0221 29.291C82.0223 35.9477 76.6092 41.3633 69.9555 41.3633ZM69.9555 24.0121C67.0448 24.0121 64.6766 26.3803 64.6766 29.291C64.6766 32.2049 67.0448 34.5756 69.9555 34.5756C72.8662 34.5756 75.2344 32.2049 75.2344 29.291C75.2346 26.3803 72.8664 24.0121 69.9555 24.0121ZM69.9555 31.4475C68.7696 31.4475 67.8045 30.4801 67.8045 29.291C67.8045 28.1051 68.7694 27.14 69.9555 27.14C71.1416 27.14 72.1065 28.1049 72.1065 29.291C72.1065 30.4801 71.1416 31.4475 69.9555 31.4475ZM58.0133 53.7738C57.5696 53.4854 57.0102 53.4408 56.5262 53.6559L43.4493 59.4635C42.884 59.7145 42.52 60.2746 42.52 60.8928V94.0725C42.52 94.9363 43.2201 95.6365 44.084 95.6365H57.161C58.0248 95.6365 58.725 94.9363 58.725 94.0725V55.0852C58.7248 54.5559 58.4571 54.0623 58.0133 53.7738ZM55.5969 92.5086H45.6481V61.9096L55.5969 57.491V92.5086ZM77.2694 58.0721H64.1922C63.3284 58.0721 62.6282 58.7723 62.6282 59.6361V94.0727C62.6282 94.9365 63.3284 95.6367 64.1922 95.6367H77.2694C78.1332 95.6367 78.8334 94.9365 78.8334 94.0727V59.6361C78.8332 58.7725 78.133 58.0721 77.2694 58.0721ZM75.7053 92.5086H65.7563V61.2002H75.7053V92.5086ZM98.2432 45.5775C97.8075 45.2879 97.2549 45.2352 96.7719 45.4381L83.695 50.9303C83.1141 51.1742 82.7366 51.7426 82.7366 52.3723V94.0725C82.7366 94.9363 83.4368 95.6365 84.3006 95.6365H97.3776C98.2414 95.6365 98.9416 94.9363 98.9416 94.0725V46.8803C98.9416 46.3564 98.6795 45.8676 98.2432 45.5775ZM95.8135 92.5086H85.8647V53.4119L95.8135 49.2336V92.5086Z" fill="black"/>
</svg>
