<svg width="101" height="100" viewBox="0 0 101 100" fill="none" xmlns="http://www.w3.org/2000/svg">
<path d="M67.2503 68.324L53.7122 76.2094C53.3181 76.4389 52.9197 76.6273 52.5128 76.7752C52.6142 76.5316 52.7011 76.2756 52.7732 76.0074C53.515 73.2387 51.8755 70.35 49.0406 69.4309C48.9736 69.4092 48.9052 69.392 48.8361 69.3795C44.9751 68.6832 41.1507 67.3006 38.0779 66.1896C37.0031 65.801 35.9876 65.434 35.1208 65.1529C31.5201 63.9846 28.298 65.4117 25.6212 66.9613L15.8648 72.6102L15.0949 71.2496C14.129 69.5434 11.9552 68.9408 10.2488 69.9064L6.45032 72.0563C4.74407 73.0219 4.14134 75.1957 5.10696 76.9022L16.2745 96.6344C16.9281 97.7889 18.1345 98.4381 19.3751 98.4381C19.9681 98.4381 20.5687 98.2898 21.1206 97.9775L24.9191 95.8277C26.6253 94.8619 27.2279 92.6881 26.2622 90.9816L25.2872 89.2588L27.1435 88.1871L44.3384 92.7943C45.3271 93.0594 46.3109 93.1912 47.2786 93.191C49.2365 93.191 51.1283 92.6518 52.8577 91.5869L77.4265 76.4586C79.8251 74.9818 80.5929 71.2715 79.0376 68.6744C78.2855 67.4197 75.214 63.6859 67.2503 68.324ZM23.3796 93.1082L19.5812 95.258C19.3779 95.3729 19.1091 95.2986 18.9941 95.0953L7.8265 75.3633C7.71146 75.16 7.78607 74.8912 7.98919 74.7762L11.7876 72.6264C11.8527 72.5896 11.9243 72.5723 11.9956 72.5723C12.1472 72.5723 12.2966 72.651 12.3747 72.7891L23.5423 92.5211C23.6574 92.7244 23.5829 92.9932 23.3796 93.1082ZM75.7878 73.7982L51.2193 88.9266C49.3587 90.0719 47.3159 90.358 45.1472 89.7766L27.3269 85.0018C26.9265 84.8945 26.4999 84.9506 26.1413 85.1578L23.7478 86.5396L17.4038 75.3301L27.1868 69.6658C29.3724 68.4004 31.7296 67.3381 34.1566 68.1256C34.974 68.3906 35.9199 68.7326 37.0154 69.1287C40.1689 70.2687 44.0863 71.685 48.165 72.434C49.3825 72.8727 50.0634 74.0457 49.7544 75.199C49.4259 76.425 48.5072 76.96 47.0261 76.792C45.054 76.3853 43.1726 75.8486 41.1825 75.2803C40.2298 75.0082 39.2447 74.727 38.2308 74.4551C37.397 74.232 36.5404 74.7266 36.3171 75.56C36.0939 76.3936 36.5886 77.2502 37.422 77.4736C38.4113 77.7387 39.3837 78.0164 40.3243 78.285C42.3972 78.877 44.355 79.4361 46.4699 79.8684C46.4804 79.8705 46.4911 79.8713 46.5017 79.8732C46.5118 79.8752 46.5218 79.8781 46.532 79.8797L48.2163 80.1535C50.8202 80.5701 53.1322 80.1631 55.2847 78.9096L68.823 71.0242C72.4718 68.899 75.3583 68.6143 76.3562 70.2803C77.0298 71.4053 76.7376 73.2133 75.7878 73.7982ZM12.712 76.123C12.8204 76.8643 12.3074 77.5527 11.5663 77.6611C10.8251 77.7695 10.1367 77.2564 10.0283 76.5154C9.91985 75.7744 10.4329 75.0857 11.174 74.9773C11.915 74.8689 12.6036 75.3818 12.712 76.123ZM28.3232 26.2773C28.564 26.7539 28.781 27.177 28.9757 27.5568C29.7556 29.0775 30.147 29.8406 30.2611 30.4877C30.3751 31.1346 30.2685 31.9857 30.0558 33.6816C30.0027 34.1053 29.9435 34.577 29.8802 35.107C29.5372 37.9744 31.0906 40.6648 33.7454 41.8018C34.2363 42.0119 34.6743 42.1965 35.0677 42.3623C35.1769 42.4082 35.2814 42.4523 35.3831 42.4953L29.1105 55.9682C28.8648 56.4959 28.9327 57.1162 29.2868 57.5783C29.6409 58.0402 30.2224 58.2676 30.7958 58.1668L37.7136 56.9582L41.2419 63.0299C41.5224 63.5125 42.038 63.8072 42.5927 63.8072C42.6163 63.8072 42.6402 63.8066 42.6638 63.8057C43.2452 63.7793 43.7638 63.4318 44.0095 62.9043L50.1876 49.6342L50.015 49.5537C51.1566 49.2062 51.8156 49.0314 52.3609 49.0314C53.0179 49.0314 53.8376 49.2844 55.4704 49.7883C55.6558 49.8455 55.8521 49.9061 56.0574 49.9691L60.5363 60.3684C60.7665 60.9029 61.2749 61.2652 61.8552 61.3084C61.8941 61.3113 61.9329 61.3127 61.9716 61.3127C62.5091 61.3127 63.0126 61.0355 63.299 60.574L67.0017 54.607L73.8814 56.016C74.4519 56.1328 75.0394 55.9229 75.4068 55.4715C75.7742 55.0199 75.8601 54.4018 75.63 53.8672L70.5175 41.9971C70.6657 41.9342 70.8173 41.8695 70.9763 41.8016C73.631 40.6646 75.1843 37.9742 74.8417 35.1068C74.7783 34.5766 74.7193 34.1047 74.6661 33.6811C74.4534 31.9854 74.3466 31.1344 74.4609 30.4873C74.5749 29.8404 74.9663 29.077 75.7462 27.5562C75.9409 27.1764 76.1579 26.7535 76.3988 26.277C77.7015 23.6998 77.162 20.6402 75.0564 18.6639C74.6669 18.2982 74.3185 17.975 74.0054 17.6846C72.7525 16.5225 72.1238 15.9391 71.7952 15.3701C71.4667 14.8012 71.2759 13.9648 70.8958 12.2986C70.8009 11.8824 70.6952 11.4189 70.5734 10.899C69.9148 8.08731 67.5349 6.09023 64.6515 5.92988C64.1185 5.9002 63.6435 5.87656 63.2171 5.85547C61.5103 5.77051 60.6536 5.72773 60.0363 5.50313C59.4189 5.27852 58.7353 4.76055 57.3732 3.72871C57.0327 3.4709 56.6538 3.18359 56.2263 2.86367C53.9142 1.1334 50.8075 1.1334 48.4958 2.86367C48.0685 3.18359 47.6896 3.47051 47.3492 3.72832C45.987 4.76035 45.3033 5.27852 44.6859 5.50313C44.0685 5.72773 43.2118 5.77051 41.505 5.85547C41.0786 5.87656 40.6038 5.9002 40.0706 5.92988C37.1872 6.09023 34.8074 8.08711 34.1488 10.899C34.0269 11.4189 33.9212 11.8822 33.8263 12.2984C33.4462 13.9646 33.2554 14.801 32.9269 15.3699C32.5984 15.9389 31.9697 16.5221 30.7169 17.6842C30.4038 17.9746 30.0552 18.2982 29.6658 18.6637C27.5599 20.6404 27.0204 23.7 28.3232 26.2773ZM42.4398 58.8715L39.8683 54.4465C39.5396 53.8809 38.8933 53.5799 38.2484 53.6924L33.2068 54.5732L38.1419 43.9732C38.5753 44.4148 39.0314 45.1207 39.8316 46.3596C40.0632 46.7184 40.3212 47.1178 40.6134 47.5648C41.9034 49.5373 44.0853 50.607 46.3466 50.4799L42.4398 58.8715ZM66.5618 51.3272C65.9204 51.1959 65.2658 51.4779 64.9208 52.034L62.2222 56.3826L59.655 50.4217C61.4363 50.1635 63.0644 49.1605 64.1081 47.5647C64.4003 47.118 64.6581 46.7186 64.8898 46.36C65.8169 44.9242 66.2822 44.2035 66.7855 43.7812C67.0056 43.5967 67.2806 43.4291 67.6519 43.2434L71.5757 52.3539L66.5618 51.3272ZM31.804 20.9428C32.1886 20.5818 32.5327 20.2625 32.8419 19.9758C35.8187 17.2143 35.9693 16.9531 36.8726 12.9941C36.9663 12.5832 37.0706 12.1256 37.1909 11.6123C37.5359 10.14 38.7341 9.13457 40.2439 9.05059C40.7702 9.02129 41.239 8.99785 41.6601 8.97695C45.716 8.775 45.9992 8.67188 49.2361 6.21953C49.572 5.96504 49.9462 5.68164 50.3681 5.36562C51.5784 4.45957 53.1429 4.45957 54.3533 5.36562C54.7753 5.68164 55.1495 5.96504 55.4857 6.21973C58.7222 8.67188 59.0054 8.775 63.0613 8.97695C63.4822 8.99785 63.9511 9.02129 64.4775 9.05059C65.9872 9.13457 67.1855 10.14 67.5304 11.6123C67.6507 12.1256 67.755 12.5832 67.8488 12.9941C68.7521 16.9533 68.9027 17.2143 71.8796 19.976C72.1888 20.2627 72.5329 20.582 72.9173 20.9428C74.0199 21.9775 74.2915 23.5182 73.6093 24.8676C73.3716 25.3379 73.1574 25.7555 72.965 26.1307C71.1118 29.7441 71.0597 30.041 71.565 34.0701C71.6175 34.4885 71.6759 34.9543 71.7384 35.4779C71.9177 36.9793 71.1357 38.334 69.7456 38.9291C69.2611 39.1367 68.8284 39.3189 68.4398 39.4826C64.6978 41.0596 64.4669 41.2533 62.2638 44.6648C62.0353 45.0187 61.7806 45.4133 61.4921 45.8543C60.6646 47.1197 59.1941 47.6547 57.7472 47.2174C57.2425 47.0648 56.7941 46.9264 56.3913 46.8021C54.4511 46.2035 53.4058 45.9041 52.3603 45.9041C51.3148 45.9041 50.2695 46.2035 48.3292 46.8021C47.9265 46.9264 47.4779 47.0648 46.9732 47.2174C45.5263 47.6549 44.0558 47.1197 43.2283 45.8543C42.9396 45.4131 42.6849 45.0186 42.4562 44.6645C40.2534 41.2533 40.0226 41.0596 36.2804 39.4826C35.8919 39.3189 35.4593 39.1367 34.9747 38.9291C33.5847 38.3338 32.8027 36.9793 32.9822 35.4779C33.0447 34.9545 33.1033 34.4889 33.1556 34.0705C33.6609 30.0412 33.6085 29.7443 31.7556 26.1311C31.5632 25.7561 31.349 25.3383 31.1113 24.8678C30.43 23.5182 30.7017 21.9775 31.804 20.9428ZM52.3609 41.2695C60.7654 41.2695 67.6031 34.432 67.6031 26.0275C67.6031 17.623 60.7656 10.7854 52.3609 10.7854C43.9562 10.7854 37.1187 17.6229 37.1187 26.0275C37.1187 34.432 43.9564 41.2695 52.3609 41.2695ZM52.3609 13.9104C59.0423 13.9104 64.4781 19.3461 64.4781 26.0275C64.4781 32.7088 59.0423 38.1445 52.3609 38.1445C45.6794 38.1445 40.2437 32.7088 40.2437 26.0275C40.2437 19.3461 45.6794 13.9104 52.3609 13.9104ZM44.8247 27.5152C44.2146 26.9051 44.2146 25.9158 44.8247 25.3057C45.4349 24.6955 46.4241 24.6955 47.0343 25.3057L49.7329 28.0043L57.7417 20.7361C58.3808 20.1561 59.3689 20.2041 59.949 20.8432C60.5288 21.4822 60.481 22.4705 59.8419 23.0504L50.7308 31.3189C50.4322 31.5898 50.0562 31.7244 49.681 31.7244C49.2802 31.7244 48.8802 31.5711 48.5759 31.2668L44.8247 27.5152ZM95.8458 11.4432L88.0931 2.31211C87.6888 1.83574 87.0984 1.5625 86.4734 1.5625C85.8484 1.5625 85.2576 1.83555 84.8533 2.31172C84.8531 2.31172 84.8531 2.31191 84.8531 2.31191L77.1005 11.4428C76.5579 12.0816 76.4394 12.951 76.7911 13.7113C77.1429 14.4719 77.8824 14.9441 78.7206 14.9441H80.7689V32.841C80.7689 34.3236 81.9749 35.5297 83.4576 35.5297H89.4888C90.9714 35.5297 92.1775 34.3236 92.1775 32.841V14.9445H94.2259C95.0642 14.9445 95.8036 14.4721 96.1554 13.7117C96.507 12.9514 96.3884 12.082 95.8458 11.4432ZM87.2345 4.33496C87.2337 4.33613 87.2327 4.33711 87.2318 4.33809L87.2345 4.33496ZM90.6148 11.8195C89.7519 11.8195 89.0523 12.5191 89.0523 13.382V32.4051H83.8937V13.382C83.8937 12.5191 83.1941 11.8195 82.3312 11.8195H80.8798L86.473 5.23203L92.0659 11.8195H90.6148ZM10.496 14.9445H12.5443V32.8414C12.5443 34.324 13.7503 35.5301 15.2329 35.5301H21.2642C22.7468 35.5301 23.9529 34.324 23.9529 32.8414V14.9445H26.0013C26.8396 14.9445 27.579 14.4721 27.9308 13.7117C28.2825 12.9514 28.164 12.082 27.6216 11.4434L19.8689 2.31211C19.4644 1.83574 18.874 1.5625 18.249 1.5625C17.624 1.5625 17.0331 1.83555 16.6288 2.31172C16.6286 2.31172 16.6286 2.31191 16.6286 2.31191L8.8761 11.4428C8.33353 12.0816 8.21497 12.951 8.56673 13.7113C8.91849 14.4721 9.65775 14.9445 10.496 14.9445ZM19.0101 4.33496C19.0093 4.33613 19.0083 4.33711 19.0074 4.33809L19.0101 4.33496ZM18.2488 5.23203L23.8417 11.8195H22.3906C21.5277 11.8195 20.8281 12.5191 20.8281 13.382V32.4051H15.6693V13.382C15.6693 12.5191 14.9697 11.8195 14.1068 11.8195H12.6554L18.2488 5.23203Z" fill="black"/>
</svg>
