<svg width="101" height="100" viewBox="0 0 101 100" fill="none" xmlns="http://www.w3.org/2000/svg">
<g clip-path="url(#clip0_256_12175)">
<path d="M22.8139 63.3725C22.9152 63.3928 23.0174 63.4025 23.1191 63.4025C23.4258 63.4025 23.7281 63.3123 23.9867 63.1395C24.3314 62.9092 24.5705 62.5516 24.6514 62.1453L24.8053 61.3725L40.2391 76.8061C41.292 77.859 42.6752 78.3854 44.0584 78.3854C45.4416 78.3854 46.8248 77.859 47.8775 76.8061C48.4523 76.2313 48.8703 75.558 49.1313 74.8402L50.8937 76.6027C51.9109 77.6199 53.2674 78.1801 54.7133 78.1801C56.1592 78.1801 57.5156 77.6197 58.5328 76.6023C59.1195 76.0156 59.5428 75.3262 59.8025 74.5914C60.742 75.3186 61.8914 75.7123 63.1037 75.7121C64.5494 75.7121 65.9059 75.1518 66.923 74.1346C67.9836 73.0738 68.51 71.6783 68.5023 70.285C68.5125 70.2852 68.5225 70.2852 68.5326 70.2852C69.9158 70.285 71.2992 69.7586 72.352 68.7055C73.7207 67.3369 74.224 65.3189 73.7416 63.4869L76.1383 61.0902L76.3484 62.1451C76.4295 62.5514 76.6686 62.909 77.0131 63.1393C77.2719 63.3121 77.5742 63.4023 77.8807 63.4023C77.9824 63.4023 78.0848 63.3924 78.1859 63.3723L87.5277 61.5111C88.374 61.3426 88.9234 60.5199 88.7549 59.6734L83.0113 30.842C82.8428 29.9957 82.0207 29.4465 81.1736 29.6148L71.8318 31.4758C70.9855 31.6443 70.4361 32.4672 70.6047 33.3135L70.8641 34.6154C66.9971 35.8291 62.3211 36.0504 56.5355 31.277C53.6156 28.8682 49.8053 28.7934 47.0541 31.0906L44.4412 33.2721H30.401C30.4686 32.8785 30.3842 32.4734 30.1619 32.1404C29.9318 31.7957 29.5742 31.5566 29.1678 31.4758L19.826 29.6148C18.9791 29.4453 18.157 29.9955 17.9883 30.842L12.2449 59.6734C12.0764 60.5197 12.6258 61.3426 13.4721 61.5111L22.8139 63.3725ZM80.2521 32.985L85.3852 58.7518L79.108 60.0021L73.975 34.2354L80.2521 32.985ZM49.0572 33.4896C50.6424 32.1664 52.7975 32.2441 54.5473 33.6877C61.3266 39.2809 67.0377 39.0271 71.4783 37.6969L75.4045 57.4055L71.9346 60.8754L56.4213 45.1361C56.4016 45.1162 56.3814 45.0969 56.3607 45.0779C53.0543 42.0652 50.0197 40.7619 48.0354 41.5023C47.0406 41.8734 46.3955 42.7168 46.2654 43.8162C46.2639 43.8285 46.2625 43.8408 46.2613 43.8533C46.2295 44.191 46.2 44.5279 46.1705 44.8629C45.798 49.0949 45.5182 52.2752 41.5742 53.852L39.2057 42.9984C39.0098 42.1014 39.5557 41.4229 40.048 41.0117L49.0572 33.4896ZM38.0449 38.6127C36.4348 39.9574 35.7449 41.7988 36.1523 43.6646L38.8852 56.1877C38.975 56.5994 39.2275 56.9576 39.5854 57.1807C39.9432 57.4037 40.3758 57.4719 40.7855 57.3717C48.3711 55.5027 48.8557 49.9953 49.2832 45.1365C49.3039 44.901 49.3248 44.6646 49.3463 44.4277C49.9697 44.4893 51.6631 45.0334 54.2252 47.36L70.6281 64.002C70.9795 64.8455 70.7928 65.8455 70.1424 66.4961C69.2547 67.3838 67.8107 67.3836 66.923 66.4963C66.9227 66.4959 66.9225 66.4957 66.9221 66.4953L55.4926 55.0656C54.8824 54.4553 53.8932 54.4555 53.283 55.0654C52.6729 55.6756 52.6727 56.6648 53.283 57.2752L64.7133 68.7057C64.7135 68.7059 64.7137 68.7061 64.7137 68.7061C65.6008 69.5939 65.6006 71.0377 64.7135 71.9246C64.2863 72.352 63.7146 72.5871 63.1035 72.5871C62.4926 72.5873 61.9211 72.3521 61.4941 71.925L49.4158 59.8467C48.8057 59.2367 47.8164 59.2365 47.2061 59.8469C46.5959 60.457 46.5959 61.4463 47.2061 62.0564L56.3221 71.1725C56.3223 71.1729 56.3227 71.173 56.3228 71.1734C57.2104 72.0609 57.2102 73.5051 56.3228 74.3926C55.8959 74.8197 55.3242 75.0549 54.7131 75.0549C54.102 75.0549 53.5303 74.8197 53.1033 74.3926L43.3391 64.6283C42.7289 64.0184 41.7396 64.0184 41.1295 64.6283C40.5193 65.2387 40.5193 66.2277 41.1295 66.8381L45.668 71.3766C46.5555 72.2641 46.5553 73.7082 45.6678 74.5957C44.7803 75.4834 43.3361 75.4834 42.4486 74.5957L25.5396 57.6867L29.7809 36.3969H40.6984L38.0449 38.6127ZM20.748 32.985L27.0252 34.2354L21.892 60.0021L15.6148 58.7518L20.748 32.985ZM94.5322 84.8367C94.6014 85.6967 93.96 86.4502 93.0998 86.5191L83.2346 87.3109C83.1928 87.3143 83.151 87.3158 83.1094 87.3158C82.6967 87.3158 82.2988 87.1523 82.0047 86.8582C81.6809 86.5344 81.5154 86.0848 81.5521 85.6283L82.3436 75.7629C82.4125 74.9027 83.1654 74.2604 84.026 74.3303C84.8861 74.3994 85.5275 75.1525 85.4584 76.0127L85.0125 81.5709C92.9307 72.9271 97.2773 61.7646 97.2773 50C97.2773 40.4125 94.3949 31.1957 88.9414 23.3457C88.449 22.6369 88.6244 21.6633 89.3332 21.1709C90.0422 20.6785 91.0156 20.8539 91.508 21.5627C97.3268 29.9387 100.402 39.7721 100.402 50C100.402 62.633 95.7037 74.6146 87.1508 83.8615L92.8496 83.4041C93.7129 83.3357 94.4633 83.9768 94.5322 84.8367ZM21.6711 11.167C21.1787 10.4584 21.3541 9.48457 22.0627 8.99238C30.4383 3.17344 40.2717 0.0976562 50.5 0.0976562C63.1332 0.0976562 75.1148 4.79648 84.3615 13.3494L83.9043 7.65039C83.8352 6.79023 84.4766 6.03691 85.3367 5.96797C86.199 5.89863 86.9502 6.54023 87.0191 7.40039L87.8109 17.266C87.8477 17.7225 87.6822 18.1721 87.3584 18.4959C87.0643 18.79 86.6664 18.9535 86.2537 18.9535C86.2121 18.9535 86.1705 18.952 86.1287 18.9484L76.2635 18.1568C75.4033 18.0879 74.7619 17.3346 74.8311 16.4744C74.9 15.6141 75.6531 14.9715 76.5135 15.042L82.0717 15.4881C73.4273 7.56953 62.2648 3.22266 50.5 3.22266C40.9123 3.22266 31.6953 6.10527 23.8457 11.5586C23.1369 12.051 22.1635 11.8758 21.6711 11.167ZM12.0586 76.6545C12.551 77.3633 12.3756 78.3367 11.667 78.8293C11.3953 79.018 11.0846 79.1088 10.7768 79.1088C10.2822 79.1088 9.7959 78.8746 9.49219 78.4375C3.67344 70.0617 0.597656 60.2281 0.597656 50C0.597656 37.367 5.29629 25.3854 13.8494 16.1385L8.15039 16.5957C7.2916 16.6662 6.53711 16.0234 6.46797 15.1633C6.39883 14.3031 7.04023 13.5498 7.90039 13.4809L17.7656 12.6893C18.2225 12.6525 18.6715 12.818 18.9953 13.1418C19.3191 13.4656 19.4846 13.915 19.4479 14.3715L18.6564 24.2367C18.591 25.0545 17.907 25.6742 17.1008 25.6744C17.0588 25.6744 17.0166 25.6727 16.9742 25.6693C16.1141 25.6004 15.4727 24.8473 15.5418 23.9869L15.9877 18.4287C8.06934 27.0729 3.72266 38.2354 3.72266 50C3.72266 59.5877 6.60527 68.8047 12.0586 76.6545ZM79.3291 88.8332C79.8215 89.542 79.6461 90.5154 78.9375 91.008C70.5615 96.8268 60.7281 99.9023 50.5 99.9023C37.867 99.9023 25.8854 95.2037 16.6387 86.6508L17.0959 92.3498C17.165 93.2098 16.5236 93.9633 15.6635 94.0322C15.6209 94.0357 15.5785 94.0371 15.5367 94.0371C14.7305 94.0371 14.0467 93.4172 13.9811 92.5996L13.1893 82.7344C13.1525 82.2779 13.318 81.8283 13.6418 81.5047C13.9656 81.1809 14.4154 81.0168 14.8715 81.0519L24.7369 81.8434C25.5971 81.9125 26.2385 82.6656 26.1693 83.5258C26.1004 84.3859 25.3469 85.0268 24.4869 84.9584L18.9283 84.5125C27.5729 92.4305 38.7354 96.7773 50.5 96.7773C60.0877 96.7773 69.3047 93.8947 77.1545 88.4414C77.8635 87.949 78.8367 88.1246 79.3291 88.8332Z" fill="black"/>
</g>
<defs>
<clipPath id="clip0_256_12175">
<rect width="100" height="100" fill="white" transform="translate(0.5)"/>
</clipPath>
</defs>
</svg>
