<svg width="101" height="100" viewBox="0 0 101 100" fill="none" xmlns="http://www.w3.org/2000/svg">
<path d="M11.3238 72.7616C11.7579 73.5073 11.5054 74.4639 10.7597 74.8979C10.5124 75.0418 10.2419 75.1104 9.97494 75.1104C9.43705 75.1104 8.91341 74.8323 8.62318 74.3338C3.42279 65.4026 1.24759 55.2346 2.33236 44.9295C3.68685 32.0635 9.97025 20.495 20.0257 12.3549C30.081 4.21507 42.7042 0.478743 55.5704 1.83206C64.1449 2.7348 72.2179 5.85902 79.1031 10.91L78.0954 7.37816C77.8587 6.54827 78.3394 5.68363 79.1693 5.44671C79.999 5.2098 80.8636 5.69085 81.1005 6.52054L83.473 14.8358C83.6048 15.2977 83.5167 15.7946 83.2343 16.183C82.9519 16.5715 82.5064 16.8086 82.0265 16.826L73.3849 17.1368C73.3658 17.1373 73.3468 17.1377 73.3279 17.1377C72.4908 17.1377 71.7978 16.4744 71.7675 15.6313C71.7365 14.769 72.4105 14.0448 73.273 14.0137L77.8195 13.8504C71.2587 8.87933 63.4999 5.80902 55.2435 4.94007C30.397 2.32386 8.0558 20.4104 5.44017 45.2567C4.42533 54.8971 6.4599 64.408 11.3238 72.7616ZM92.3775 25.6662C91.9431 24.9203 90.9868 24.6682 90.241 25.1018C89.4952 25.536 89.2425 26.4924 89.6767 27.2381C94.5404 35.593 96.5747 45.1041 95.5601 54.743C94.2931 66.7791 88.415 77.6012 79.0083 85.216C69.6017 92.8309 57.7923 96.327 45.757 95.0596C37.4954 94.1897 29.741 91.1219 23.1792 86.1494L27.7275 85.9862C28.59 85.9551 29.2638 85.2309 29.2329 84.3686C29.2021 83.5063 28.4753 82.8401 27.6154 82.8631L18.9738 83.1735C18.4937 83.1908 18.0484 83.428 17.766 83.8164C17.4835 84.2049 17.3956 84.7018 17.5273 85.1637L19.8997 93.4789C20.0956 94.1655 20.7212 94.6131 21.4015 94.6131C21.5435 94.6131 21.6876 94.5936 21.831 94.5528C22.6609 94.3158 23.1415 93.4512 22.9048 92.6213L21.8974 89.0901C28.7829 94.1416 36.8505 97.2641 45.4298 98.1672C47.1574 98.3491 48.8786 98.4393 50.5917 98.4391C61.6376 98.4387 72.2695 94.6914 80.9745 87.6446C91.0298 79.5045 97.3136 67.936 98.6679 55.07C99.7525 44.7666 97.5773 34.5987 92.3775 25.6662ZM20.1997 65.6961C18.6056 62.9657 17.3947 60.0444 16.591 56.9912L10.8763 54.7916C10.273 54.5596 9.87513 53.9799 9.87513 53.3334V48.0469C9.87513 47.184 10.5747 46.4844 11.4376 46.4844H32.0611C32.924 46.4844 33.6236 47.184 33.6236 48.0469C33.6236 57.3528 41.1943 64.9235 50.5001 64.9235C59.806 64.9235 67.3767 57.3526 67.3767 48.0469C67.3767 47.184 68.0763 46.4844 68.9392 46.4844H89.5626C90.4255 46.4844 91.1251 47.184 91.1251 48.0469V53.3332C91.1251 53.9797 90.7271 54.5592 90.124 54.7914L84.4077 56.9916C83.6048 60.0424 82.3939 62.9627 80.7997 65.6942L83.2876 71.2961C83.5499 71.8867 83.4216 72.578 82.9644 73.0352L75.4882 80.5114C75.0314 80.9684 74.3398 81.0971 73.7492 80.8344L68.1495 78.3473C65.4187 79.9416 62.4974 81.1528 59.4445 81.9563L57.2449 87.6709C57.0128 88.2741 56.4331 88.6721 55.7867 88.6721H45.2136C44.5671 88.6721 43.9876 88.2741 43.7554 87.6709L41.5552 81.9545C38.5042 81.1516 35.5839 79.9407 32.8529 78.3465L27.2509 80.8344C26.6603 81.0963 25.9691 80.9684 25.5119 80.5114L18.0357 73.0352C17.5786 72.578 17.4501 71.8867 17.7126 71.2961L20.1997 65.6961ZM23.2874 64.7694C23.5577 65.208 23.5943 65.752 23.3851 66.2229L21.004 71.584L26.9632 77.5428L32.3261 75.161C32.7968 74.9516 33.3406 74.9881 33.7796 75.2584C36.6658 77.036 39.7962 78.3336 43.0839 79.1161C43.5851 79.2352 43.9954 79.5938 44.1804 80.0746L46.2867 85.5469H54.714L56.8197 80.0764C57.0046 79.5955 57.415 79.2369 57.9161 79.1178C61.206 78.3348 64.3372 77.0368 67.223 75.2594C67.6617 74.9891 68.2056 74.9524 68.6767 75.1618L74.0374 77.5428L79.9964 71.5838L77.6146 66.2207C77.4054 65.7498 77.4419 65.2061 77.7122 64.7674C79.4896 61.8809 80.7874 58.7502 81.5697 55.4631C81.689 54.9619 82.0476 54.5516 82.5285 54.3666L88.0001 52.2604V49.6094H70.4413C69.6417 59.911 61.0035 68.0485 50.5001 68.0485C39.997 68.0485 31.3587 59.911 30.5591 49.6094H13.0001V52.2606L18.4706 54.3662C18.9515 54.5512 19.3101 54.9616 19.4294 55.4625C20.2124 58.753 21.5105 61.884 23.2874 64.7694ZM60.8152 46.4844C61.6781 46.4844 62.3777 47.184 62.3777 48.0469C62.3777 54.5961 57.0494 59.9244 50.5001 59.9244C43.9509 59.9244 38.6226 54.5963 38.6226 48.0469C38.6226 47.6325 38.7872 47.2352 39.0802 46.942C39.3732 46.6491 39.7706 46.4844 40.1851 46.4844H60.8152ZM59.113 49.6094H41.8872C42.6261 53.6928 46.2072 56.7994 50.5001 56.7994C54.7931 56.7994 58.3742 53.6926 59.113 49.6094ZM60.1281 28.6922C58.6617 31.3032 56.5105 33.5213 53.988 34.628C54.3413 37.1444 56.505 39.102 59.1146 39.1225C59.9726 39.1293 60.6646 39.8266 60.6648 40.6846L60.6654 43.4065C60.6654 43.8209 60.5009 44.2184 60.2078 44.5116C59.9148 44.8047 59.5173 44.9694 59.1029 44.9694H41.8976C41.0347 44.9694 40.3351 44.2698 40.3351 43.4069V40.6858C40.3351 39.8276 41.0271 39.1301 41.8853 39.1233C44.4951 39.103 46.6591 37.1448 47.0122 34.628C44.4898 33.5213 42.3386 31.3032 40.872 28.692C35.5292 27.495 32.365 23.8178 32.365 18.7297V13.8223C32.365 12.9594 33.0646 12.2598 33.9275 12.2598H38.8062V9.98538C38.8062 9.12249 39.5058 8.42288 40.3687 8.42288H60.6312C61.4941 8.42288 62.1937 9.12249 62.1937 9.98538V12.2598H67.0726C67.9355 12.2598 68.6351 12.9594 68.6351 13.8223V18.7297C68.6353 23.818 65.4708 27.4951 60.1281 28.6922ZM39.3042 24.8733C38.9808 23.6762 38.8064 22.4686 38.8064 21.3051V15.3848H35.4902V18.7297C35.49 22.125 37.3351 23.9217 39.3042 24.8733ZM50.9425 35.3688C50.7956 35.3768 50.6484 35.3821 50.5001 35.3821C50.3519 35.3821 50.2046 35.3766 50.0578 35.3688C49.5124 38.4149 47.3019 40.9037 44.4054 41.8442H56.5968C53.6994 40.9045 51.4878 38.4155 50.9425 35.3688ZM59.0689 21.3051V11.5479H41.9314V21.3049C41.9314 26.1327 45.9658 32.2571 50.5001 32.2571C55.0343 32.2573 59.0689 26.1327 59.0689 21.3051ZM65.5103 15.3848H62.1939V21.3051C62.1939 22.4688 62.0195 23.6764 61.696 24.8735C63.6652 23.9219 65.5103 22.1252 65.5103 18.7299V15.3848Z" fill="black"/>
</svg>
