<svg width="162" height="45" viewBox="0 0 162 45" fill="none" xmlns="http://www.w3.org/2000/svg">
<path d="M56.7191 25.0047L49.5341 37.1821L52.1014 41.7033C52.6747 42.7089 53.5032 43.5438 54.5024 44.1229C55.5016 44.702 56.6358 45.0047 57.7894 44.9999H68.0488L56.7191 25.0047Z" fill="#024DF5"/>
<path d="M0 44.9999H9.49138C10.8759 45.0049 12.237 44.6412 13.4361 43.946C14.6352 43.2508 15.6296 42.2488 16.318 41.042L34.2274 10.2002L39.8111 20.0524L25.3369 44.9999H34.8277C36.2122 45.0049 37.5733 44.6412 38.7725 43.946C39.9716 43.2508 40.966 42.2488 41.6543 41.042L53.869 19.9813L47.0107 7.90923C46.9864 7.8676 46.9644 7.82596 46.9376 7.78432C45.2205 4.83016 42.6007 2.5111 39.4674 1.17148C38.992 0.970645 38.5068 0.789404 38.0045 0.632655C35.5648 -0.147955 32.9531 -0.207467 30.4807 0.461211L28.9081 1.00983C28.9081 1.00983 24.3758 2.59447 21.6719 7.64227L21.6402 7.70105L21.4769 7.98272L0 44.9999Z" fill="#024DF5"/>
<path d="M87.9588 21.01H79.6188L78.2388 25H73.8288L81.3588 4.03H86.2488L93.7788 25H89.3388L87.9588 21.01ZM86.8188 17.65L83.7888 8.89L80.7588 17.65H86.8188ZM105.773 25L102.353 19.84L99.3234 25H94.8234L100.253 16.66L94.7634 8.38H99.5034L102.893 13.51L105.953 8.38H110.453L104.993 16.66L110.513 25H105.773ZM114.925 6.4C114.185 6.4 113.565 6.17 113.065 5.71C112.585 5.23 112.345 4.64 112.345 3.94C112.345 3.24 112.585 2.66 113.065 2.2C113.565 1.72 114.185 1.48 114.925 1.48C115.665 1.48 116.275 1.72 116.755 2.2C117.255 2.66 117.505 3.24 117.505 3.94C117.505 4.64 117.255 5.23 116.755 5.71C116.275 6.17 115.665 6.4 114.925 6.4ZM116.995 8.38V25H112.795V8.38H116.995ZM128.524 25.27C126.924 25.27 125.484 24.92 124.204 24.22C122.924 23.5 121.914 22.49 121.174 21.19C120.454 19.89 120.094 18.39 120.094 16.69C120.094 14.99 120.464 13.49 121.204 12.19C121.964 10.89 122.994 9.89 124.294 9.19C125.594 8.47 127.044 8.11 128.644 8.11C130.244 8.11 131.694 8.47 132.994 9.19C134.294 9.89 135.314 10.89 136.054 12.19C136.814 13.49 137.194 14.99 137.194 16.69C137.194 18.39 136.804 19.89 136.024 21.19C135.264 22.49 134.224 23.5 132.904 24.22C131.604 24.92 130.144 25.27 128.524 25.27ZM128.524 21.61C129.284 21.61 129.994 21.43 130.654 21.07C131.334 20.69 131.874 20.13 132.274 19.39C132.674 18.65 132.874 17.75 132.874 16.69C132.874 15.11 132.454 13.9 131.614 13.06C130.794 12.2 129.784 11.77 128.584 11.77C127.384 11.77 126.374 12.2 125.554 13.06C124.754 13.9 124.354 15.11 124.354 16.69C124.354 18.27 124.744 19.49 125.524 20.35C126.324 21.19 127.324 21.61 128.524 21.61ZM149.485 8.14C151.465 8.14 153.065 8.77 154.285 10.03C155.505 11.27 156.115 13.01 156.115 15.25V25H151.915V15.82C151.915 14.5 151.585 13.49 150.925 12.79C150.265 12.07 149.365 11.71 148.225 11.71C147.065 11.71 146.145 12.07 145.465 12.79C144.805 13.49 144.475 14.5 144.475 15.82V25H140.275V8.38H144.475V10.45C145.035 9.73 145.745 9.17 146.605 8.77C147.485 8.35 148.445 8.14 149.485 8.14ZM80.6388 30.545V31.655H77.7888V41H76.4238V31.655H73.5588V30.545H80.6388ZM89.8191 36.575C89.8191 36.835 89.8041 37.11 89.7741 37.4H83.2041C83.2541 38.21 83.5291 38.845 84.0291 39.305C84.5391 39.755 85.1541 39.98 85.8741 39.98C86.4641 39.98 86.9541 39.845 87.3441 39.575C87.7441 39.295 88.0241 38.925 88.1841 38.465H89.6541C89.4341 39.255 88.9941 39.9 88.3341 40.4C87.6741 40.89 86.8541 41.135 85.8741 41.135C85.0941 41.135 84.3941 40.96 83.7741 40.61C83.1641 40.26 82.6841 39.765 82.3341 39.125C81.9841 38.475 81.8091 37.725 81.8091 36.875C81.8091 36.025 81.9791 35.28 82.3191 34.64C82.6591 34 83.1341 33.51 83.7441 33.17C84.3641 32.82 85.0741 32.645 85.8741 32.645C86.6541 32.645 87.3441 32.815 87.9441 33.155C88.5441 33.495 89.0041 33.965 89.3241 34.565C89.6541 35.155 89.8191 35.825 89.8191 36.575ZM88.4091 36.29C88.4091 35.77 88.2941 35.325 88.0641 34.955C87.8341 34.575 87.5191 34.29 87.1191 34.1C86.7291 33.9 86.2941 33.8 85.8141 33.8C85.1241 33.8 84.5341 34.02 84.0441 34.46C83.5641 34.9 83.2891 35.51 83.2191 36.29H88.4091ZM91.1108 36.875C91.1108 36.025 91.2808 35.285 91.6208 34.655C91.9608 34.015 92.4308 33.52 93.0308 33.17C93.6408 32.82 94.3358 32.645 95.1158 32.645C96.1258 32.645 96.9558 32.89 97.6058 33.38C98.2658 33.87 98.7008 34.55 98.9108 35.42H97.4408C97.3008 34.92 97.0258 34.525 96.6158 34.235C96.2158 33.945 95.7158 33.8 95.1158 33.8C94.3358 33.8 93.7058 34.07 93.2258 34.61C92.7458 35.14 92.5058 35.895 92.5058 36.875C92.5058 37.865 92.7458 38.63 93.2258 39.17C93.7058 39.71 94.3358 39.98 95.1158 39.98C95.7158 39.98 96.2158 39.84 96.6158 39.56C97.0158 39.28 97.2908 38.88 97.4408 38.36H98.9108C98.6908 39.2 98.2508 39.875 97.5908 40.385C96.9308 40.885 96.1058 41.135 95.1158 41.135C94.3358 41.135 93.6408 40.96 93.0308 40.61C92.4308 40.26 91.9608 39.765 91.6208 39.125C91.2808 38.485 91.1108 37.735 91.1108 36.875ZM104.812 32.63C105.432 32.63 105.992 32.765 106.492 33.035C106.992 33.295 107.382 33.69 107.662 34.22C107.952 34.75 108.097 35.395 108.097 36.155V41H106.747V36.35C106.747 35.53 106.542 34.905 106.132 34.475C105.722 34.035 105.162 33.815 104.452 33.815C103.732 33.815 103.157 34.04 102.727 34.49C102.307 34.94 102.097 35.595 102.097 36.455V41H100.732V29.9H102.097V33.95C102.367 33.53 102.737 33.205 103.207 32.975C103.687 32.745 104.222 32.63 104.812 32.63ZM114.332 32.63C115.332 32.63 116.142 32.935 116.762 33.545C117.382 34.145 117.692 35.015 117.692 36.155V41H116.342V36.35C116.342 35.53 116.137 34.905 115.727 34.475C115.317 34.035 114.757 33.815 114.047 33.815C113.327 33.815 112.752 34.04 112.322 34.49C111.902 34.94 111.692 35.595 111.692 36.455V41H110.327V32.78H111.692V33.95C111.962 33.53 112.327 33.205 112.787 32.975C113.257 32.745 113.772 32.63 114.332 32.63ZM123.507 41.135C122.737 41.135 122.037 40.96 121.407 40.61C120.787 40.26 120.297 39.765 119.937 39.125C119.587 38.475 119.412 37.725 119.412 36.875C119.412 36.035 119.592 35.295 119.952 34.655C120.322 34.005 120.822 33.51 121.452 33.17C122.082 32.82 122.787 32.645 123.567 32.645C124.347 32.645 125.052 32.82 125.682 33.17C126.312 33.51 126.807 34 127.167 34.64C127.537 35.28 127.722 36.025 127.722 36.875C127.722 37.725 127.532 38.475 127.152 39.125C126.782 39.765 126.277 40.26 125.637 40.61C124.997 40.96 124.287 41.135 123.507 41.135ZM123.507 39.935C123.997 39.935 124.457 39.82 124.887 39.59C125.317 39.36 125.662 39.015 125.922 38.555C126.192 38.095 126.327 37.535 126.327 36.875C126.327 36.215 126.197 35.655 125.937 35.195C125.677 34.735 125.337 34.395 124.917 34.175C124.497 33.945 124.042 33.83 123.552 33.83C123.052 33.83 122.592 33.945 122.172 34.175C121.762 34.395 121.432 34.735 121.182 35.195C120.932 35.655 120.807 36.215 120.807 36.875C120.807 37.545 120.927 38.11 121.167 38.57C121.417 39.03 121.747 39.375 122.157 39.605C122.567 39.825 123.017 39.935 123.507 39.935ZM130.881 29.9V41H129.516V29.9H130.881ZM132.698 36.86C132.698 36.02 132.868 35.285 133.208 34.655C133.548 34.015 134.013 33.52 134.603 33.17C135.203 32.82 135.868 32.645 136.598 32.645C137.318 32.645 137.943 32.8 138.473 33.11C139.003 33.42 139.398 33.81 139.658 34.28V32.78H141.038V41H139.658V39.47C139.388 39.95 138.983 40.35 138.443 40.67C137.913 40.98 137.293 41.135 136.583 41.135C135.853 41.135 135.193 40.955 134.603 40.595C134.013 40.235 133.548 39.73 133.208 39.08C132.868 38.43 132.698 37.69 132.698 36.86ZM139.658 36.875C139.658 36.255 139.533 35.715 139.283 35.255C139.033 34.795 138.693 34.445 138.263 34.205C137.843 33.955 137.378 33.83 136.868 33.83C136.358 33.83 135.893 33.95 135.473 34.19C135.053 34.43 134.718 34.78 134.468 35.24C134.218 35.7 134.093 36.24 134.093 36.86C134.093 37.49 134.218 38.04 134.468 38.51C134.718 38.97 135.053 39.325 135.473 39.575C135.893 39.815 136.358 39.935 136.868 39.935C137.378 39.935 137.843 39.815 138.263 39.575C138.693 39.325 139.033 38.97 139.283 38.51C139.533 38.04 139.658 37.495 139.658 36.875ZM144.709 34.31C144.989 33.82 145.399 33.42 145.939 33.11C146.479 32.8 147.094 32.645 147.784 32.645C148.524 32.645 149.189 32.82 149.779 33.17C150.369 33.52 150.834 34.015 151.174 34.655C151.514 35.285 151.684 36.02 151.684 36.86C151.684 37.69 151.514 38.43 151.174 39.08C150.834 39.73 150.364 40.235 149.764 40.595C149.174 40.955 148.514 41.135 147.784 41.135C147.074 41.135 146.449 40.98 145.909 40.67C145.379 40.36 144.979 39.965 144.709 39.485V41H143.344V29.9H144.709V34.31ZM150.289 36.86C150.289 36.24 150.164 35.7 149.914 35.24C149.664 34.78 149.324 34.43 148.894 34.19C148.474 33.95 148.009 33.83 147.499 33.83C146.999 33.83 146.534 33.955 146.104 34.205C145.684 34.445 145.344 34.8 145.084 35.27C144.834 35.73 144.709 36.265 144.709 36.875C144.709 37.495 144.834 38.04 145.084 38.51C145.344 38.97 145.684 39.325 146.104 39.575C146.534 39.815 146.999 39.935 147.499 39.935C148.009 39.935 148.474 39.815 148.894 39.575C149.324 39.325 149.664 38.97 149.914 38.51C150.164 38.04 150.289 37.49 150.289 36.86ZM156.391 41.135C155.761 41.135 155.196 41.03 154.696 40.82C154.196 40.6 153.801 40.3 153.511 39.92C153.221 39.53 153.061 39.085 153.031 38.585H154.441C154.481 38.995 154.671 39.33 155.011 39.59C155.361 39.85 155.816 39.98 156.376 39.98C156.896 39.98 157.306 39.865 157.606 39.635C157.906 39.405 158.056 39.115 158.056 38.765C158.056 38.405 157.896 38.14 157.576 37.97C157.256 37.79 156.761 37.615 156.091 37.445C155.481 37.285 154.981 37.125 154.591 36.965C154.211 36.795 153.881 36.55 153.601 36.23C153.331 35.9 153.196 35.47 153.196 34.94C153.196 34.52 153.321 34.135 153.571 33.785C153.821 33.435 154.176 33.16 154.636 32.96C155.096 32.75 155.621 32.645 156.211 32.645C157.121 32.645 157.856 32.875 158.416 33.335C158.976 33.795 159.276 34.425 159.316 35.225H157.951C157.921 34.795 157.746 34.45 157.426 34.19C157.116 33.93 156.696 33.8 156.166 33.8C155.676 33.8 155.286 33.905 154.996 34.115C154.706 34.325 154.561 34.6 154.561 34.94C154.561 35.21 154.646 35.435 154.816 35.615C154.996 35.785 155.216 35.925 155.476 36.035C155.746 36.135 156.116 36.25 156.586 36.38C157.176 36.54 157.656 36.7 158.026 36.86C158.396 37.01 158.711 37.24 158.971 37.55C159.241 37.86 159.381 38.265 159.391 38.765C159.391 39.215 159.266 39.62 159.016 39.98C158.766 40.34 158.411 40.625 157.951 40.835C157.501 41.035 156.981 41.135 156.391 41.135Z" fill="black"/>
</svg>
