<svg width="520" height="520" viewBox="0 0 520 520" fill="none" xmlns="http://www.w3.org/2000/svg">
<path d="M406.025 61.2021H355.172V63.4986H406.025V61.2021Z" fill="#CDCDCD"/>
<path d="M230.634 325.596H175.145V328.827H230.634V325.596Z" fill="#60A4C2"/>
<path d="M199.978 309.437H117.062L96.3105 290.075L98.3822 287.67L118.249 306.206H199.978V309.437Z" fill="#9900A6"/>
<path d="M101.252 125.48L99.3359 128.022L209.122 217.709L211.038 215.168L101.252 125.48Z" fill="#EEBD3A"/>
<path d="M119.45 154.877L118.496 156.152L212.818 232.63L213.772 231.355L119.45 154.877Z" fill="#CACACA"/>
<path d="M311.397 207.215L310.258 206.118L323.115 191.674V162.555H324.667V192.308L311.397 207.215Z" fill="#C84B2A"/>
<path d="M313.395 217.322L311.113 215.131L329.327 194.591V103.936H321.886V100.705H332.432V195.856L313.395 217.322Z" fill="#CDCDCD"/>
<path d="M381.288 246.926H329.68V250.156H381.288V246.926Z" fill="#CDCDCD"/>
<path d="M422.419 256.618H337.439V259.849H422.419V256.618Z" fill="#CDCDCD"/>
<path d="M385.848 254.991C382.218 254.991 379.264 251.915 379.264 248.135C379.264 244.357 382.218 241.282 385.848 241.282C389.479 241.282 392.433 244.357 392.433 248.135C392.433 251.915 389.48 254.991 385.848 254.991ZM385.848 244.287C383.809 244.287 382.15 246.013 382.15 248.135C382.15 250.258 383.809 251.985 385.848 251.985C387.887 251.985 389.546 250.258 389.546 248.135C389.547 246.013 387.887 244.287 385.848 244.287Z" fill="#CDCDCD"/>
<path d="M513.415 257.417C509.784 257.417 506.83 254.342 506.83 250.563C506.83 246.784 509.784 243.708 513.415 243.708C517.045 243.708 520 246.784 520 250.563C520 254.342 517.045 257.417 513.415 257.417ZM513.415 246.713C511.376 246.713 509.717 248.44 509.717 250.563C509.717 252.685 511.376 254.412 513.415 254.412C515.454 254.412 517.113 252.685 517.113 250.563C517.113 248.441 515.454 246.713 513.415 246.713Z" fill="#CDCDCD"/>
<path d="M132.113 442.443C128.483 442.443 125.529 439.369 125.529 435.589C125.529 431.81 128.483 428.735 132.113 428.735C135.744 428.735 138.699 431.81 138.699 435.589C138.699 439.369 135.744 442.443 132.113 442.443ZM132.113 431.74C130.074 431.74 128.416 433.467 128.416 435.59C128.416 437.713 130.074 439.439 132.113 439.439C134.153 439.439 135.812 437.713 135.812 435.59C135.812 433.466 134.153 431.74 132.113 431.74Z" fill="#CDCDCD"/>
<path d="M246.194 519.997C242.563 519.997 239.609 516.922 239.609 513.143C239.609 509.364 242.563 506.288 246.194 506.288C249.825 506.288 252.779 509.364 252.779 513.143C252.779 516.922 249.825 519.997 246.194 519.997ZM246.194 509.293C244.155 509.293 242.496 511.02 242.496 513.143C242.496 515.266 244.155 516.993 246.194 516.993C248.233 516.993 249.892 515.266 249.892 513.143C249.892 511.02 248.233 509.293 246.194 509.293Z" fill="#CDCDCD"/>
<path d="M348.597 31.7569C344.966 31.7569 342.012 28.681 342.012 24.9016C342.012 21.1222 344.966 18.0474 348.597 18.0474C352.228 18.0474 355.182 21.1222 355.182 24.9016C355.182 28.681 352.228 31.7569 348.597 31.7569ZM348.597 21.0524C346.557 21.0524 344.899 22.7792 344.899 24.9021C344.899 27.0251 346.557 28.7524 348.597 28.7524C350.636 28.7524 352.295 27.0251 352.295 24.9021C352.295 22.7786 350.636 21.0524 348.597 21.0524Z" fill="#CDCDCD"/>
<path d="M97.1491 130.583C93.5183 130.583 90.5645 127.508 90.5645 123.728C90.5645 119.949 93.5183 116.874 97.1491 116.874C100.78 116.874 103.734 119.949 103.734 123.728C103.734 127.508 100.78 130.583 97.1491 130.583ZM97.1491 119.879C95.1101 119.879 93.4508 121.606 93.4508 123.728C93.4508 125.85 95.1096 127.577 97.1491 127.577C99.188 127.577 100.847 125.85 100.847 123.728C100.847 121.606 99.188 119.879 97.1491 119.879Z" fill="#EEBD3A"/>
<path d="M140.608 260.343C136.977 260.343 134.023 257.268 134.023 253.488C134.023 249.709 136.977 246.634 140.608 246.634C144.239 246.634 147.193 249.709 147.193 253.488C147.193 257.268 144.239 260.343 140.608 260.343ZM140.608 249.639C138.569 249.639 136.91 251.366 136.91 253.488C136.91 255.611 138.569 257.338 140.608 257.338C142.647 257.338 144.306 255.611 144.306 253.488C144.306 251.365 142.647 249.639 140.608 249.639Z" fill="#CDCDCD"/>
<path d="M194.448 383.438C190.818 383.438 187.863 380.363 187.863 376.584C187.863 372.805 190.818 369.73 194.448 369.73C198.079 369.73 201.033 372.805 201.033 376.584C201.033 380.363 198.079 383.438 194.448 383.438ZM194.448 372.734C192.409 372.734 190.75 374.461 190.75 376.583C190.75 378.706 192.409 380.433 194.448 380.433C196.487 380.433 198.146 378.706 198.146 376.583C198.146 374.461 196.487 372.734 194.448 372.734Z" fill="#CDCDCD"/>
<path d="M366.446 379.399C362.815 379.399 359.861 376.324 359.861 372.545C359.861 368.765 362.815 365.69 366.446 365.69C370.077 365.69 373.031 368.765 373.031 372.545C373.031 376.324 370.077 379.399 366.446 379.399ZM366.446 368.695C364.407 368.695 362.748 370.422 362.748 372.545C362.748 374.668 364.406 376.394 366.446 376.394C368.485 376.394 370.144 374.668 370.144 372.545C370.144 370.422 368.485 368.695 366.446 368.695Z" fill="#CDCDCD"/>
<path d="M194.448 28.7944C190.818 28.7944 187.863 25.7197 187.863 21.9408C187.863 18.1614 190.818 15.0854 194.448 15.0854C198.079 15.0854 201.033 18.1614 201.033 21.9408C201.033 25.7197 198.079 28.7944 194.448 28.7944ZM194.448 18.0905C192.409 18.0905 190.75 19.8178 190.75 21.9408C190.75 24.0626 192.409 25.7894 194.448 25.7894C196.487 25.7894 198.146 24.0626 198.146 21.9408C198.146 19.8178 196.487 18.0905 194.448 18.0905Z" fill="#CDCDCD"/>
<path d="M413.527 292.3H336.438V293.916H413.527V292.3Z" fill="#60A4C2"/>
<path d="M403.697 284.489H339.283V287.719H403.697V284.489Z" fill="#EEBD3A"/>
<path d="M230.898 248.54H179.289V250.156H230.898V248.54Z" fill="#CDCDCD"/>
<path d="M229.345 263.889H177.736V265.505H229.345V263.889Z" fill="#CDCDCD"/>
<path d="M215.752 274.79H153.791V276.406H215.752V274.79Z" fill="#CDCDCD"/>
<path d="M52.718 180.46L33.2598 161.033V147.695H36.1466V159.752L54.7161 178.293L52.718 180.46Z" fill="#CDCDCD"/>
<path d="M323.576 216.247L321.299 214.05L371.751 157.389H426.722V160.619H373.107L323.576 216.247Z" fill="#CDCDCD"/>
<path d="M304.951 254.485L302.674 252.288L353.126 195.626H374.466V198.858H354.482L304.951 254.485Z" fill="#CDCDCD"/>
<path d="M324.04 223.238L322.902 222.141L373.124 165.736H427.756V167.353H373.802L324.04 223.238Z" fill="#CDCDCD"/>
<path d="M199.855 257.809H166.607V260.814H199.855V257.809Z" fill="#CDCDCD"/>
<path d="M194.158 282.444H137.117V285.45H194.158V282.444Z" fill="#CDCDCD"/>
<path d="M195.602 25.98H192.715V78.4894H195.602V25.98Z" fill="#CDCDCD"/>
<path d="M489.452 425.749H444.894L387.484 386.728L389.063 384.212L445.753 422.744H489.452V425.749Z" fill="#A9C732"/>
<path d="M201.615 86.5674H198.729V47.458L220.858 23.3263L222.946 25.4005L201.615 48.6627V86.5674Z" fill="#CDCDCD"/>
<path d="M94.8215 355.041H56.7949V356.657H94.8215V355.041Z" fill="#CDCDCD"/>
<path d="M287.321 467.882L285.076 465.648L302.218 446.974H338.578V450.205H303.546L287.321 467.882Z" fill="#CDCDCD"/>
<path d="M340.13 438.896H312.58V440.512H340.13V438.896Z" fill="#CACACA"/>
<path d="M205.12 422.025H202.016V332.76H224.52V335.991H205.12V422.025Z" fill="#CDCDCD"/>
<path d="M195.808 381.633H192.703V426.064H195.808V381.633Z" fill="#CDCDCD"/>
<path d="M206.025 452.554H202.92V500.386H206.025V452.554Z" fill="#CDCDCD"/>
<path d="M306.728 305.161L305.881 306.515L367.277 348.132L368.124 346.779L306.728 305.161Z" fill="#CDCDCD"/>
<path d="M287.701 345.347H286.148V407.551H287.701V345.347Z" fill="#CACACA"/>
<path d="M281.234 345.078H278.129V383.855H281.234V345.078Z" fill="#CDCDCD"/>
<path d="M213.986 211.948L110.697 127.352V67.4485H112.249V126.567L214.945 210.678L213.986 211.948Z" fill="#EEBD3A"/>
<path d="M243.05 152.811H239.945V211.784H243.05V152.811Z" fill="#CDCDCD"/>
<path d="M136.022 206.505H102.277L46.9941 157.814L48.9993 155.347L103.414 203.275H136.022V206.505Z" fill="#CDCDCD"/>
<path d="M450.779 188.732H430.168L374.885 140.042L376.89 137.576L431.304 185.501H450.779V188.732Z" fill="#CDCDCD"/>
<path d="M466.631 182.271H433.169L432.952 182.079L378.104 133.77L379.106 132.537L433.738 180.654H466.631V182.271Z" fill="#CDCDCD"/>
<path d="M381.678 127.681L380.676 128.914L435.525 177.221L436.528 175.988L381.678 127.681Z" fill="#CDCDCD"/>
<path d="M476.649 414.665H448.033V417.67H476.649V414.665Z" fill="#CDCDCD"/>
<path d="M279.21 41.0996H276.105V194.994H279.21V41.0996Z" fill="#CDCDCD"/>
<path d="M228.822 172.199H227.27V218.246H228.822V172.199Z" fill="#CACACA"/>
<path d="M234.404 182.297H231.518V218.246H234.404V182.297Z" fill="#CDCDCD"/>
<path d="M384.67 67.5167H354.805V68.6641H384.67V67.5167Z" fill="#CDCDCD"/>
<path d="M69.4684 267.256H27.5605V268.872H69.4684V267.256Z" fill="#CDCDCD"/>
<path d="M110.341 214.679C110.398 216.869 108.739 218.692 106.635 218.752C104.532 218.811 102.78 217.083 102.724 214.894C102.667 212.704 104.327 210.881 106.43 210.822C108.533 210.763 110.285 212.489 110.341 214.679Z" fill="#CDCDCD"/>
<path d="M79.0804 191.128L78.1172 192.395L104.116 213.803L105.079 212.535L79.0804 191.128Z" fill="#CDCDCD"/>
<path d="M74.9093 195.75L72.9512 198.258L135.741 251.395L137.699 248.888L74.9093 195.75Z" fill="#CDCDCD"/>
<path d="M41.0524 147.695C41.0524 151.097 38.4029 153.855 35.1349 153.855C31.8662 153.855 29.2168 151.097 29.2168 147.695C29.2168 144.293 31.8662 141.536 35.1349 141.536C38.4029 141.536 41.0524 144.293 41.0524 147.695Z" fill="#828282"/>
<path d="M180.451 327.672C180.451 331.168 177.729 334.001 174.371 334.001C171.013 334.001 168.291 331.168 168.291 327.672C168.291 324.177 171.012 321.343 174.371 321.343C177.729 321.344 180.451 324.177 180.451 327.672Z" fill="#60A4C2"/>
<path d="M319.219 101.84C319.219 104.993 316.764 107.549 313.735 107.549C310.705 107.549 308.25 104.993 308.25 101.84C308.25 98.6884 310.705 96.1306 313.735 96.1306C316.764 96.1306 319.219 98.6884 319.219 101.84Z" fill="#BDC2C5"/>
<path d="M313.735 110.323C309.241 110.323 305.586 106.518 305.586 101.84C305.586 97.1623 309.242 93.3568 313.735 93.3568C318.229 93.3568 321.885 97.1623 321.885 101.84C321.885 106.518 318.229 110.323 313.735 110.323ZM313.735 94.638C309.919 94.638 306.816 97.8686 306.816 101.84C306.816 105.812 309.919 109.043 313.735 109.043C317.551 109.043 320.654 105.812 320.654 101.84C320.654 97.8686 317.551 94.638 313.735 94.638Z" fill="#BDC2C5"/>
<path d="M319.061 404.445C319.061 407.598 316.606 410.154 313.576 410.154C310.547 410.154 308.092 407.598 308.092 404.445C308.092 401.292 310.547 398.736 313.576 398.736C316.606 398.736 319.061 401.292 319.061 404.445Z" fill="#BDC2C5"/>
<path d="M313.577 412.928C309.084 412.928 305.428 409.123 305.428 404.445C305.428 399.767 309.084 395.963 313.577 395.963C318.071 395.963 321.726 399.768 321.726 404.445C321.727 409.123 318.071 412.928 313.577 412.928ZM313.577 397.242C309.762 397.242 306.658 400.474 306.658 404.445C306.658 408.416 309.762 411.647 313.577 411.647C317.393 411.647 320.497 408.416 320.497 404.445C320.497 400.474 317.393 397.242 313.577 397.242Z" fill="#BDC2C5"/>
<path d="M97.201 282.874C97.201 286.027 94.746 288.583 91.7164 288.583C88.6869 288.583 86.2324 286.027 86.2324 282.874C86.2324 279.721 88.6874 277.165 91.7164 277.165C94.746 277.165 97.201 279.721 97.201 282.874Z" fill="#9900A6"/>
<path d="M91.7182 291.357C87.2237 291.357 83.5684 287.553 83.5684 282.875C83.5684 278.196 87.2237 274.391 91.7182 274.391C96.2121 274.391 99.8679 278.196 99.8679 282.875C99.8679 287.553 96.2121 291.357 91.7182 291.357ZM91.7182 275.672C87.9033 275.672 84.7986 278.902 84.7986 282.875C84.7986 286.846 87.9033 290.077 91.7182 290.077C95.5341 290.077 98.6377 286.846 98.6377 282.875C98.6377 278.902 95.5341 275.672 91.7182 275.672Z" fill="#9900A6"/>
<path d="M218.779 207.983L116.518 124.692L116.42 53.9894L123.405 53.9798L123.498 121.146L223.083 202.257L218.779 207.983Z" fill="#979797"/>
<path d="M293.106 196.031H286.121V150.926C286.121 138.676 295.696 128.711 307.464 128.711H314.965V135.98H307.464C299.547 135.98 293.106 142.685 293.106 150.926V196.031Z" fill="#979797"/>
<path d="M363.733 231.575H333.463V238.845H363.733V231.575Z" fill="#979797"/>
<path d="M379.639 238.845H360.629V231.575H379.639C387.556 231.575 393.996 224.87 393.996 216.629V191.857H400.981V216.629C400.981 228.88 391.407 238.845 379.639 238.845Z" fill="#979797"/>
<path d="M271.448 142.879H264.463V190.377H271.448V142.879Z" fill="#979797"/>
<path d="M271.448 146.11H264.463V101.276C264.463 93.0348 258.023 86.3308 250.106 86.3308H243.051V79.0611H250.106C261.874 79.0611 271.448 89.0264 271.448 101.276V146.11Z" fill="#979797"/>
<path d="M206.38 312.898H184.592V320.168H206.38V312.898Z" fill="#979797"/>
<path d="M149.67 343.192H142.686V335.114C142.686 322.864 152.259 312.898 164.027 312.898H187.697V320.168H164.027C156.111 320.168 149.67 326.873 149.67 335.114V343.192Z" fill="#979797"/>
<path d="M128.329 373.487H125.484V366.217H128.329C136.245 366.217 142.686 359.513 142.686 351.272V334.174H149.671V351.272C149.671 363.521 140.097 373.487 128.329 373.487Z" fill="#979797"/>
<path d="M217.305 399.943H210.32C210.32 387.694 219.894 377.729 231.662 377.729H242.347V384.998H231.662C223.746 384.998 217.305 391.702 217.305 399.943Z" fill="#979797"/>
<path d="M245.479 384.996H235.082V377.726H245.479C253.396 377.726 259.836 371.022 259.836 362.781V344.54H266.821V362.781C266.821 375.031 257.247 384.996 245.479 384.996Z" fill="#979797"/>
<path d="M316.911 141.521C321.911 141.443 325.903 137.16 325.828 131.955C325.752 126.749 321.637 122.594 316.637 122.672C311.637 122.751 307.645 127.034 307.721 132.239C307.796 137.444 311.911 141.6 316.911 141.521Z" fill="#979797"/>
<path d="M364.861 303.426L377.849 303.522L368.081 316.525L364.861 303.426Z" fill="#979797"/>
<path d="M436.629 376.232L423.641 376.249L433.305 363.162L436.629 376.232Z" fill="#505050"/>
<path d="M428.937 374.226L419.605 367.78L423.466 361.722L432.799 368.168L428.937 374.226ZM409.905 361.08L400.205 354.38L404.067 348.322L413.767 355.022L409.905 361.08ZM390.505 347.679L380.805 340.978L384.668 334.92L394.368 341.621L390.505 347.679ZM371.106 334.278L361.407 327.578L365.268 321.52L374.968 328.22L371.106 334.278ZM351.708 320.878L342.008 314.178L345.87 308.12L355.569 314.82L351.708 320.878Z" fill="#505050"/>
<path d="M371.203 304.598L367.361 310.672L450.26 367.487L454.102 361.414L371.203 304.598Z" fill="#979797"/>
<path d="M186.303 302.936H174.662V295.667H186.303V302.936ZM163.022 302.936H151.38V295.667H163.022V302.936ZM139.739 302.936H133.253C131.188 302.936 129.144 302.629 127.178 302.023L129.163 295.052C130.484 295.46 131.861 295.667 133.253 295.667H139.739V302.936ZM116.011 293.816C113.328 289.995 111.91 285.467 111.91 280.721V280.318H118.895V280.721C118.895 283.914 119.848 286.958 121.65 289.526L116.011 293.816ZM118.896 268.199H111.911V256.082H118.896V268.199Z" fill="#505050"/>
<path d="M24.7067 238.03H21.3433C9.57584 238.03 0.00195312 228.064 0.00195312 215.815V206.121H6.98686V215.815C6.98686 224.055 13.4272 230.759 21.3433 230.759H24.7067V238.03Z" fill="#505050"/>
<path d="M24.7067 238.03H21.3433C9.57584 238.03 0.00195312 228.064 0.00195312 215.815V206.121H6.98686V215.815C6.98686 224.055 13.4272 230.759 21.3433 230.759H24.7067V238.03Z" fill="#505050"/>
<path d="M6.98491 206.87H0V203.369C0 191.12 9.57389 181.154 21.3414 181.154H23.6695V188.424H21.3414C13.4252 188.424 6.98491 195.128 6.98491 203.369V206.87Z" fill="#505050"/>
<path d="M6.98491 206.87H0V203.369C0 191.12 9.57389 181.154 21.3414 181.154H23.6695V188.424H21.3414C13.4252 188.424 6.98491 195.128 6.98491 203.369V206.87Z" fill="#505050"/>
<path d="M35.1109 184.675L21.8027 195.352V173.997L35.1109 184.675Z" fill="#505050"/>
<path d="M118.876 256.485H111.891V252.984C111.891 244.743 105.45 238.039 97.5336 238.039H23.7324V230.77H97.5336C109.302 230.77 118.876 240.735 118.876 252.984V256.485Z" fill="#505050"/>
<path d="M409.519 266.312H339.672V273.582H409.519V266.312Z" fill="#979797"/>
<path d="M388.787 392.169C385.519 392.169 382.869 389.411 382.869 386.009C382.869 382.607 385.519 379.849 388.787 379.849C392.055 379.849 394.704 382.607 394.704 386.009C394.704 389.411 392.055 392.169 388.787 392.169Z" fill="#A9C732"/>
<path d="M162.851 264.799C159.583 264.799 156.934 262.041 156.934 258.639C156.934 255.237 159.583 252.479 162.851 252.479C166.119 252.479 168.769 255.237 168.769 258.639C168.769 262.041 166.119 264.799 162.851 264.799Z" fill="#CDCDCD"/>
<path d="M315.018 395.962H312.132V346.899L287.369 329.975L288.953 327.465L315.018 345.276V395.962Z" fill="#CDCDCD"/>
<path d="M300.19 324.226L298.596 326.731L361.845 370.352L363.439 367.847L300.19 324.226Z" fill="#CDCDCD"/>
<path d="M409.13 476.34C405.499 476.34 402.545 473.265 402.545 469.486C402.545 465.706 405.499 462.631 409.13 462.631C412.76 462.631 415.714 465.706 415.714 469.486C415.714 473.265 412.76 476.34 409.13 476.34ZM409.13 465.636C407.091 465.636 405.431 467.363 405.431 469.486C405.431 471.609 407.09 473.335 409.13 473.335C411.169 473.335 412.827 471.609 412.827 469.486C412.827 467.363 411.169 465.636 409.13 465.636Z" fill="#CDCDCD"/>
<path d="M390.271 453.518L388.643 456L404.552 467.311L406.18 464.828L390.271 453.518Z" fill="#CDCDCD"/>
<path d="M232.236 18.7081C232.236 21.8622 229.781 24.4172 226.752 24.4172C223.723 24.4172 221.268 21.8622 221.268 18.7081C221.268 15.5556 223.723 13.0001 226.752 13.0001C229.781 13.0001 232.236 15.5562 232.236 18.7081Z" fill="#A9C732"/>
<path d="M226.753 27.1924C222.259 27.1924 218.604 23.3869 218.604 18.7084C218.604 14.0316 222.259 10.2261 226.753 10.2261C231.246 10.2261 234.903 14.0316 234.903 18.7084C234.903 23.3869 231.246 27.1924 226.753 27.1924ZM226.753 11.5061C222.937 11.5061 219.833 14.7379 219.833 18.7078C219.833 22.68 222.937 25.9118 226.753 25.9118C230.568 25.9118 233.671 22.68 233.671 18.7078C233.672 14.7379 230.568 11.5061 226.753 11.5061Z" fill="#A9C732"/>
<path d="M286.045 472.987C286.045 476.14 283.59 478.696 280.56 478.696C277.531 478.696 275.076 476.14 275.076 472.987C275.076 469.834 277.531 467.278 280.56 467.278C283.59 467.278 286.045 469.834 286.045 472.987Z" fill="#BDC2C5"/>
<path d="M280.561 481.469C276.067 481.469 272.412 477.664 272.412 472.986C272.412 468.308 276.068 464.503 280.561 464.503C285.055 464.503 288.711 468.308 288.711 472.986C288.71 477.664 285.055 481.469 280.561 481.469ZM280.561 465.784C276.745 465.784 273.642 469.014 273.642 472.986C273.642 476.957 276.745 480.189 280.561 480.189C284.376 480.189 287.48 476.957 287.48 472.986C287.48 469.014 284.376 465.784 280.561 465.784Z" fill="#BDC2C5"/>
<path d="M242.196 510.832L224.254 492.988V472.33H227.359V491.606L244.34 508.495L242.196 510.832Z" fill="#CDCDCD"/>
<path d="M327.572 159.974C327.628 162.164 325.969 163.986 323.866 164.047C321.762 164.105 320.011 162.379 319.955 160.188C319.897 157.998 321.557 156.175 323.66 156.117C325.764 156.058 327.515 157.784 327.572 159.974Z" fill="#C84B2A"/>
<path d="M420.699 293C420.755 295.188 419.097 297.012 416.993 297.071C414.89 297.131 413.138 295.403 413.082 293.213C413.024 291.024 414.684 289.2 416.787 289.141C418.891 289.083 420.642 290.809 420.699 293Z" fill="#60A4C2"/>
<path d="M231.855 169.534C231.913 171.723 230.253 173.547 228.149 173.606C226.046 173.665 224.294 171.938 224.238 169.749C224.181 167.56 225.84 165.736 227.944 165.678C230.047 165.617 231.798 167.344 231.855 169.534Z" fill="#60A4C2"/>
<path d="M470.886 181.247C470.943 183.436 469.283 185.26 467.18 185.319C465.077 185.378 463.325 183.65 463.269 181.461C463.212 179.272 464.871 177.448 466.974 177.389C469.078 177.329 470.829 179.057 470.886 181.247Z" fill="#828282"/>
<path d="M120.975 153.511C121.031 155.701 119.372 157.524 117.268 157.583C115.165 157.642 113.414 155.915 113.357 153.726C113.3 151.536 114.959 149.713 117.062 149.653C119.166 149.595 120.917 151.321 120.975 153.511Z" fill="#828282"/>
<path d="M154.955 275.599C155.011 277.787 153.352 279.611 151.249 279.67C149.146 279.73 147.394 278.002 147.337 275.813C147.28 273.623 148.94 271.801 151.043 271.742C153.147 271.682 154.898 273.408 154.955 275.599Z" fill="#828282"/>
<path d="M291.354 404.677C291.41 406.865 289.751 408.689 287.647 408.748C285.544 408.808 283.792 407.08 283.736 404.891C283.679 402.701 285.339 400.878 287.442 400.819C289.545 400.759 291.296 402.487 291.354 404.677Z" fill="#828282"/>
<path d="M212.681 430.783H211.129V492.988H212.681V430.783Z" fill="#CACACA"/>
<path d="M216.333 490.113C216.391 492.303 214.732 494.126 212.628 494.185C210.524 494.245 208.773 492.517 208.716 490.328C208.66 488.138 210.318 486.315 212.422 486.256C214.525 486.196 216.277 487.924 216.333 490.113Z" fill="#828282"/>
<path d="M316.777 439.595C316.833 441.786 315.174 443.608 313.071 443.667C310.968 443.726 309.216 442 309.16 439.809C309.102 437.62 310.762 435.797 312.866 435.738C314.968 435.679 316.721 437.406 316.777 439.595Z" fill="#828282"/>
<path d="M370.479 352.56C368.438 353.093 366.368 351.804 365.854 349.681C365.341 347.556 366.579 345.4 368.62 344.867C370.661 344.332 372.731 345.621 373.244 347.746C373.758 349.87 372.519 352.026 370.479 352.56Z" fill="#CDCDCD"/>
<path d="M61.3784 355.473C61.4356 357.663 59.7767 359.485 57.673 359.544C55.5692 359.604 53.8178 357.876 53.7612 355.686C53.704 353.497 55.3634 351.674 57.4666 351.614C59.5709 351.555 61.3207 353.283 61.3784 355.473Z" fill="#636363"/>
<path d="M97.2706 395.564L95.2012 397.658L128.288 433.092L130.357 430.998L97.2706 395.564Z" fill="#CDCDCD"/>
<path d="M142.295 204.613C142.295 208.109 139.573 210.942 136.215 210.942C132.857 210.942 130.135 208.109 130.135 204.613C130.135 201.117 132.857 198.284 136.215 198.284C139.573 198.284 142.295 201.117 142.295 204.613Z" fill="#BDC2C5"/>
<path d="M208.803 510.85C211.178 508.379 211.178 504.371 208.803 501.9C206.429 499.428 202.58 499.428 200.205 501.9C197.831 504.371 197.831 508.379 200.205 510.85C202.58 513.322 206.429 513.322 208.803 510.85Z" fill="#BDC2C5"/>
<path d="M172.816 420.071H132.729L132.503 419.841L103.074 390.017L104.157 388.86L133.36 418.455H172.816V420.071Z" fill="#CACACA"/>
<path d="M176.496 419.022C176.552 421.211 174.893 423.035 172.789 423.094C170.686 423.153 168.935 421.426 168.878 419.236C168.821 417.045 170.481 415.223 172.584 415.164C174.688 415.106 176.438 416.832 176.496 419.022Z" fill="#828282"/>
<path d="M65.3998 268.44C65.3432 266.25 67.0026 264.427 69.1063 264.368C71.2095 264.309 72.9615 266.037 73.0181 268.225C73.0753 270.415 71.4154 272.238 69.3127 272.297C67.2084 272.356 65.457 270.629 65.3998 268.44Z" fill="#CDCDCD"/>
<path d="M505.621 319.495H447.934V321.111H505.621V319.495Z" fill="#CDCDCD"/>
<path d="M501.554 320.679C501.498 318.491 503.157 316.667 505.261 316.608C507.364 316.549 509.115 318.277 509.172 320.466C509.228 322.655 507.569 324.479 505.466 324.537C503.363 324.597 501.611 322.87 501.554 320.679Z" fill="#CDCDCD"/>
<path d="M484.927 323.535H443.02V325.151H484.927V323.535Z" fill="#CDCDCD"/>
<path d="M343.421 22.7479H300.221V24.3641H343.421V22.7479Z" fill="#CDCDCD"/>
<path d="M304.289 23.18C304.345 25.3688 302.686 27.1924 300.583 27.2514C298.479 27.3109 296.727 25.5836 296.671 23.3932C296.614 21.205 298.273 19.3808 300.377 19.3212C302.48 19.2634 304.232 20.9901 304.289 23.18Z" fill="#9900A6"/>
<path d="M344.587 26.787H316.002V28.4032H344.587V26.787Z" fill="#CDCDCD"/>
<path d="M247.416 149.176C247.416 152.577 244.766 155.335 241.498 155.335C238.229 155.335 235.58 152.577 235.58 149.176C235.58 145.774 238.229 143.016 241.498 143.016C244.766 143.016 247.416 145.774 247.416 149.176Z" fill="#CDCDCD"/>
<path d="M509.244 249.062H464.91V252.067H509.244V249.062Z" fill="#CDCDCD"/>
<path d="M103.035 394.225L101.938 395.368L123.15 417.449L124.248 416.306L103.035 394.225Z" fill="#CDCDCD"/>
<path d="M121.782 164.277L120.828 165.551L210.76 238.524L211.714 237.25L121.782 164.277Z" fill="#CDCDCD"/>
<path d="M50.2919 164.921L49.2285 166.098L62.164 178.754L63.2274 177.576L50.2919 164.921Z" fill="#CDCDCD"/>
<path d="M292.617 330.805H291.064V371.737H292.617V330.805Z" fill="#CDCDCD"/>
<path d="M338.579 432.297H321.506V433.913H338.579V432.297Z" fill="#CDCDCD"/>
<path d="M323.743 322.691L322.91 324.054L339.584 335.083L340.417 333.72L323.743 322.691Z" fill="#CDCDCD"/>
<path d="M499.315 255.137H459.994V256.753H499.315V255.137Z" fill="#CDCDCD"/>
<path d="M475.614 129.777C471.983 129.777 469.029 126.702 469.029 122.923C469.029 119.143 471.983 116.068 475.614 116.068C479.245 116.068 482.199 119.143 482.199 122.923C482.199 126.702 479.245 129.777 475.614 129.777ZM475.614 119.073C473.575 119.073 471.916 120.8 471.916 122.923C471.916 125.046 473.575 126.772 475.614 126.772C477.653 126.772 479.312 125.045 479.312 122.923C479.312 120.8 477.653 119.073 475.614 119.073Z" fill="#CDCDCD"/>
<path d="M471.444 121.421H430.217V124.426H471.444V121.421Z" fill="#CDCDCD"/>
<path d="M461.516 127.497H425.301V129.113H461.516V127.497Z" fill="#CDCDCD"/>
<path d="M102.339 476.52C98.7078 476.52 95.7539 473.445 95.7539 469.666C95.7539 465.887 98.7078 462.812 102.339 462.812C105.969 462.812 108.923 465.887 108.923 469.666C108.924 473.445 105.97 476.52 102.339 476.52ZM102.339 465.817C100.3 465.817 98.6408 467.544 98.6408 469.667C98.6408 471.79 100.3 473.516 102.339 473.516C104.377 473.516 106.036 471.79 106.036 469.667C106.037 467.543 104.377 465.817 102.339 465.817Z" fill="#CDCDCD"/>
<path d="M150.843 468.164H106.51V471.169H150.843V468.164Z" fill="#CDCDCD"/>
<path d="M155.758 476.263H116.438V477.879H155.758V476.263Z" fill="#CDCDCD"/>
<path d="M188.728 40.5205H187.176V74.9883H188.728V40.5205Z" fill="#CDCDCD"/>
<path d="M207.351 51.0225H205.799V85.4903H207.351V51.0225Z" fill="#CDCDCD"/>
<path d="M183.296 52.0997H181.744V89.1264H183.296V52.0997Z" fill="#CDCDCD"/>
<path d="M495.79 290.751H488.825L480.09 284.551L480.964 283.216L489.303 289.134H495.79V290.751Z" fill="#CDCDCD"/>
<path d="M495.273 296.405H485.585L462.811 279.492L463.712 278.177L486.081 294.789H495.273V296.405Z" fill="#CDCDCD"/>
<path d="M388.428 197.748C388.428 200.9 385.972 203.457 382.944 203.457C379.914 203.457 377.459 200.9 377.459 197.748C377.459 194.595 379.914 192.039 382.944 192.039C385.972 192.039 388.428 194.595 388.428 197.748Z" fill="#60A4C2"/>
<path d="M382.943 206.231C378.449 206.231 374.793 202.425 374.793 197.748C374.793 193.07 378.449 189.265 382.943 189.265C387.436 189.265 391.092 193.071 391.092 197.748C391.092 202.426 387.436 206.231 382.943 206.231ZM382.943 190.545C379.127 190.545 376.023 193.776 376.023 197.748C376.023 201.72 379.127 204.951 382.943 204.951C386.758 204.951 389.861 201.72 389.861 197.748C389.861 193.776 386.758 190.545 382.943 190.545Z" fill="#60A4C2"/>
<path d="M418.948 62.3326C418.948 65.4856 416.492 68.0417 413.463 68.0417C410.434 68.0417 407.979 65.4856 407.979 62.3326C407.979 59.179 410.434 56.6246 413.463 56.6246C416.492 56.6241 418.948 59.179 418.948 62.3326Z" fill="#BDC2C5"/>
<path d="M413.464 70.8155C408.97 70.8155 405.314 67.01 405.314 62.3321C405.314 57.6541 408.97 53.8486 413.464 53.8486C417.958 53.8486 421.613 57.6541 421.613 62.3321C421.613 67.01 417.957 70.8155 413.464 70.8155ZM413.464 55.1304C409.648 55.1304 406.544 58.3599 406.544 62.3321C406.544 66.3031 409.648 69.5349 413.464 69.5349C417.279 69.5349 420.383 66.3031 420.383 62.3321C420.383 58.3605 417.279 55.1304 413.464 55.1304Z" fill="#BDC2C5"/>
<path d="M343.782 40.8247H339.977V38.8757H339.152V40.8247H332.821V38.8757H331.997V40.8247H328.192C327.746 40.8247 327.385 41.2022 327.385 41.6654V52.1737C327.385 52.638 327.746 53.0144 328.192 53.0144H343.782C344.228 53.0144 344.59 52.638 344.59 52.1737V41.6654C344.59 41.2017 344.228 40.8247 343.782 40.8247ZM330.509 44.9975C330.509 44.1432 331.174 43.4499 331.995 43.4499C332.815 43.4499 333.481 44.1432 333.481 44.9975C333.481 45.8524 332.815 46.5451 331.995 46.5451C331.174 46.5451 330.509 45.853 330.509 44.9975ZM340.987 50.858H330.988V49.7327H340.987V50.858ZM339.98 46.5451C339.159 46.5451 338.493 45.853 338.493 44.9975C338.493 44.1432 339.159 43.4499 339.98 43.4499C340.8 43.4499 341.466 44.1432 341.466 44.9975C341.466 45.853 340.8 46.5451 339.98 46.5451Z" fill="#999999"/>
<path d="M325.126 63.1146H322.035V54.0637H325.126V63.1146Z" fill="#999999"/>
<path d="M325.126 72.8207H322.035V63.7687H325.126V72.8207Z" fill="#999999"/>
<path d="M323.581 73.0256C321.687 73.0256 320.15 74.6248 320.15 76.5964C320.15 78.1792 321.139 79.5182 322.507 79.987V78.7687C321.749 78.3606 321.224 77.546 321.224 76.5959C321.224 75.241 322.28 74.1424 323.582 74.1424C324.883 74.1424 325.939 75.2404 325.939 76.5959C325.939 77.5465 325.414 78.3606 324.656 78.7687V79.987C326.024 79.5176 327.013 78.1792 327.013 76.5964C327.012 74.6248 325.475 73.0256 323.581 73.0256Z" fill="#999999"/>
<path d="M350.033 63.1144H346.941V54.0635H350.033V63.1144Z" fill="#999999"/>
<path d="M350.033 72.8205H346.941V63.7684H350.033V72.8205Z" fill="#999999"/>
<path d="M348.487 73.0251C346.593 73.0251 345.057 74.6243 345.057 76.596C345.057 78.1787 346.046 79.5177 347.414 79.9865V78.7683C346.654 78.3601 346.131 77.5455 346.131 76.5954C346.131 75.2405 347.186 74.1419 348.488 74.1419C349.79 74.1419 350.845 75.24 350.845 76.5954C350.845 77.5461 350.321 78.3601 349.562 78.7683V79.9865C350.93 79.5171 351.919 78.1787 351.919 76.596C351.918 74.6243 350.382 73.0251 348.487 73.0251Z" fill="#999999"/>
<path d="M345.478 53.5768H326.497C326.051 53.5768 325.689 53.9543 325.689 54.4175V69.3413C325.689 69.8056 326.051 70.182 326.497 70.182H345.478C345.924 70.182 346.285 69.8056 346.285 69.3413V54.4175C346.285 53.9538 345.924 53.5768 345.478 53.5768ZM342.439 65.1855C342.439 65.8748 341.901 66.4343 341.239 66.4343H337.475L340.026 63.7779C340.32 63.4735 340.32 62.9791 340.026 62.6736C339.733 62.368 339.258 62.368 338.965 62.6736L335.354 66.4337H330.736C330.072 66.4337 329.535 65.8748 329.535 65.1849V60.8108C329.535 60.1215 330.073 59.562 330.736 59.562H341.238C341.9 59.562 342.438 60.1209 342.438 60.8108V65.1855H342.439Z" fill="#999999"/>
<path d="M334.818 71.0921H329.717V79.3703H334.818V71.0921Z" fill="#999999"/>
<path d="M334.818 80.2286H329.717V84.1555H334.818V80.2286Z" fill="#999999"/>
<path d="M335.637 86.4461C335.637 87.416 334.982 88.2034 334.174 88.2034H328.398C327.59 88.2034 326.936 87.416 326.936 86.4461C326.936 85.4761 327.59 84.6887 328.398 84.6887H334.174C334.982 84.6887 335.637 85.4761 335.637 86.4461Z" fill="#999999"/>
<path d="M342.353 71.0918H337.252V79.37H342.353V71.0918Z" fill="#999999"/>
<path d="M342.353 80.2284H337.252V84.1552H342.353V80.2284Z" fill="#999999"/>
<path d="M336.43 86.4463C336.43 87.4163 337.085 88.2037 337.893 88.2037H343.669C344.477 88.2037 345.132 87.4163 345.132 86.4463C345.132 85.4764 344.477 84.689 343.669 84.689H337.893C337.085 84.689 336.43 85.4764 336.43 86.4463Z" fill="#999999"/>
<path d="M68.2512 307.688C68.2512 303.095 63.9511 299.234 58.1197 298.117C58.3626 299.052 58.4851 300.009 58.4851 300.981C58.4851 303.038 57.9372 305.023 56.8562 306.881C55.8487 308.614 54.4214 310.159 52.6155 311.473C50.4905 313.018 47.9625 314.152 45.2129 314.82C47.6581 316.532 50.9823 317.584 54.6436 317.584C55.1702 317.584 55.6897 317.562 56.2011 317.52L65.4754 321.994L61.2734 316.332C65.4368 314.639 68.2512 311.402 68.2512 307.688Z" fill="#BDC2C5"/>
<path d="M56.6928 300.981C56.6928 293.982 48.891 288.308 39.267 288.308C29.643 288.308 21.8418 293.982 21.8418 300.981C21.8418 306.304 26.3532 310.86 32.7472 312.738L29.881 320.731L40.4014 313.629C49.4972 313.202 56.6928 307.704 56.6928 300.981Z" fill="#BDC2C5"/>
<path d="M292.297 427.124C292.384 426.193 292.151 424.731 291.208 423.673C290.73 423.138 289.876 422.503 288.515 422.503H282.185C282.173 421.549 282.173 420.053 282.239 418.726C282.335 416.809 281.306 414.472 280.287 413.246C279.751 412.6 279.208 412.238 278.672 412.169C278.499 412.147 278.321 412.135 278.141 412.135C276.973 412.135 275.594 412.621 275.324 413.686C275.205 414.15 275.316 414.638 275.434 415.154C275.589 415.84 275.785 416.694 275.58 417.886C275.232 419.927 272.247 424.887 271.322 425.725C271.048 425.972 270.644 426.182 270.215 426.35C269.94 425.602 269.22 425.045 268.447 425.045H261.493C260.61 425.045 259.98 425.775 260.062 426.686L259.988 440.908C259.988 440.95 259.99 440.99 259.995 441.031C260.118 441.976 260.956 442.744 261.865 442.744H270.742C271.649 442.744 272.287 441.976 272.165 441.031L272.104 440.561C272.415 440.607 272.664 440.666 272.825 440.734C273.571 441.047 277.379 442.615 279.229 442.615H287.147C287.686 442.615 289.487 442.492 290.028 440.915C290.288 440.156 290.189 439.44 289.937 438.828C289.935 438.769 289.932 438.718 289.93 438.684C289.93 438.672 289.928 438.657 289.928 438.641C290.918 438.368 291.557 437.682 291.726 436.667C291.931 435.443 291.578 434.596 291.223 434.085C292.27 433.578 292.817 432.56 292.705 431.184C292.619 430.11 292.096 429.319 291.414 428.757C291.926 428.374 292.232 427.821 292.297 427.124Z" fill="#BDC2C5"/>
<path d="M177.249 225.43C176.958 225.43 176.671 225.446 176.387 225.477C176.402 225.246 176.41 225.014 176.41 224.781C176.41 219.198 172.063 214.674 166.701 214.674C161.641 214.674 157.487 218.702 157.033 223.845C158.761 225.246 159.881 227.422 159.908 229.867C159.932 229.867 159.954 229.867 159.977 229.867C163.335 229.867 166.065 232.586 166.065 235.929C166.065 238.003 165.007 239.842 163.401 240.936H177.289L177.29 240.935C181.589 240.913 185.067 237.451 185.067 233.184C185.068 228.901 181.566 225.43 177.249 225.43Z" fill="#636363"/>
<path d="M165.012 235.928C165.012 233.19 162.754 230.961 159.977 230.961C159.794 230.961 159.606 230.972 159.42 230.992L158.797 231.06L158.84 230.41C158.85 230.254 158.854 230.1 158.854 229.952C158.854 226.29 155.993 223.311 152.475 223.311C150.861 223.311 149.32 223.94 148.137 225.081C146.961 226.218 146.243 227.756 146.115 229.413L146.071 229.989L145.521 229.913C145.289 229.881 145.053 229.866 144.82 229.866C141.899 229.866 139.521 232.339 139.521 235.38C139.521 238.405 141.885 240.878 144.791 240.895H144.887H159.925H160.004C162.766 240.88 165.012 238.653 165.012 235.928Z" fill="#636363"/>
<path d="M241.882 351.684H241.167V350.963C241.167 350.819 241.055 350.703 240.917 350.703H237.045C236.908 350.703 236.797 350.819 236.797 350.963V351.684H233.863L232.618 349.719C232.618 349.554 232.467 349.419 232.282 349.419H230.58H228.888H227.186C227.002 349.419 226.851 349.554 226.851 349.719L225.605 351.684H217.587C216.724 351.684 216.025 352.412 216.025 353.31V368.951C216.025 369.847 216.724 370.575 217.587 370.575H241.881C242.744 370.575 243.442 369.847 243.442 368.951V353.31C243.443 352.411 242.744 351.684 241.882 351.684ZM229.734 367.951C226.114 367.951 223.181 364.897 223.181 361.129C223.181 357.361 226.114 354.307 229.734 354.307C233.353 354.307 236.288 357.361 236.288 361.129C236.288 364.896 233.353 367.951 229.734 367.951Z" fill="#CDCDCD"/>
<path d="M229.734 356.583C227.321 356.583 225.365 358.618 225.365 361.129C225.365 363.641 227.321 365.678 229.734 365.678C232.148 365.678 234.103 363.641 234.103 361.129C234.103 358.618 232.148 356.583 229.734 356.583Z" fill="#CDCDCD"/>
<path d="M451.155 317.411C451.155 324.777 438.345 334.121 438.345 334.121C438.345 334.121 425.535 324.777 425.535 317.411C425.535 310.045 434.872 308.867 438.345 315.148C441.609 308.989 451.155 310.045 451.155 317.411Z" fill="#999999"/>
<path d="M180.531 475.296L179.154 475.298C179.154 475.298 179.154 490.727 179.154 495.734C177.945 495.395 176.352 495.507 174.757 496.145C171.911 497.283 170.141 499.659 170.803 501.454C171.465 503.249 174.308 503.781 177.154 502.643C179.536 501.691 181.159 499.871 181.237 498.251L181.245 498.255V482.457C183.063 483.274 185.154 486.136 185.204 489.306C185.253 492.476 184.43 493.817 183.966 494.203C183.322 494.738 184.02 495.104 184.437 494.778C185.21 494.176 186.993 492.782 186.993 487.926C186.993 483.069 184.179 481.034 182.179 478.774C180.407 476.77 180.531 475.296 180.531 475.296Z" fill="#636363"/>
<path d="M282.603 27.2972L283.02 23.8477C285.918 22.1459 288.334 20.2242 290.493 17.5054C297.051 9.2493 296.388 2.47842 296.388 2.47842L298.312 0L295.718 1.66494C295.718 1.66494 289.391 -0.0498893 280.553 5.4387C277.645 7.24366 275.454 9.43184 273.398 12.1495L270.045 12.052C270.045 12.052 265.299 12.9131 260.201 19.2186C260.201 19.2186 265.478 18.218 268.135 20.252C267.72 20.9413 267.292 21.655 266.848 22.3914C266.848 22.3914 266.638 23.6697 268.844 26.3483C271.049 29.0245 272.307 29.0189 272.307 29.0189C273.075 28.6742 273.815 28.3426 274.533 28.0211C276.049 31.0653 274.297 36.3311 274.297 36.3311C281.063 32.0489 282.603 27.2972 282.603 27.2972ZM286.286 10.7918C285.492 9.82922 285.6 8.3797 286.524 7.55431C287.449 6.72893 288.841 6.84004 289.634 7.80318C290.428 8.76575 290.32 10.2153 289.396 11.0395C288.471 11.8649 287.079 11.7549 286.286 10.7918Z" fill="#9900A6"/>
<path d="M65.4365 424.171C62.0116 424.171 59.2363 428.537 59.2363 433.922C59.2363 434.179 59.2423 434.436 59.2548 434.687H67.8839C68.0984 431.857 68.8233 429.273 69.9097 427.169C68.783 425.321 67.195 424.171 65.4365 424.171Z" fill="#60A4C2"/>
<path d="M65.4364 415.806C63.2597 415.806 61.4941 417.56 61.4941 419.726C61.4941 421.89 63.2597 423.643 65.4364 423.643C67.6137 423.643 69.3803 421.89 69.3803 419.726C69.3798 417.56 67.6137 415.806 65.4364 415.806Z" fill="#60A4C2"/>
<path d="M86.1034 427.646C84.444 424.148 81.7913 421.881 78.8026 421.881C75.9489 421.881 73.4019 423.948 71.7322 427.181C70.68 429.224 69.9731 431.731 69.7646 434.475C69.7232 435.041 69.6992 435.612 69.6992 436.193C69.6992 436.571 69.7107 436.946 69.7275 437.316H87.8771C87.8951 436.945 87.9027 436.571 87.9027 436.193C87.9027 435.911 87.9 435.632 87.8863 435.351C87.7818 432.473 87.1354 429.821 86.1034 427.646Z" fill="#60A4C2"/>
<path d="M78.8024 409.601C75.6073 409.601 73.0156 412.178 73.0156 415.358C73.0156 418.537 75.6068 421.11 78.8024 421.11C81.9992 421.11 84.5876 418.537 84.5876 415.358C84.5876 412.178 81.9992 409.601 78.8024 409.601Z" fill="#60A4C2"/>
<path d="M137.562 391.56C137.562 400.608 144.633 407.97 153.327 407.97C156.326 407.97 159.251 407.068 161.753 405.423L163.604 408.792L166.599 402.906L169.593 397.02L163.201 396.723L156.809 396.426L158.586 399.66C157.05 400.75 155.24 401.336 153.327 401.336C148.149 401.336 143.936 396.95 143.936 391.56C143.936 386.172 148.149 381.787 153.327 381.787C156.003 381.787 158.561 382.982 160.343 385.065C161.512 386.432 163.529 386.555 164.842 385.335C165.548 384.68 165.911 383.772 165.911 382.857C165.909 382.073 165.644 381.284 165.103 380.653C162.113 377.157 157.821 375.152 153.328 375.152C144.633 375.152 137.562 382.513 137.562 391.56Z" fill="#CDCDCD"/>
<path d="M23.9401 275.186C20.3093 275.186 17.3555 272.112 17.3555 268.332C17.3555 264.553 20.3093 261.478 23.9401 261.478C27.5709 261.478 30.5253 264.553 30.5253 268.332C30.5253 272.112 27.5714 275.186 23.9401 275.186ZM23.9401 264.483C21.9012 264.483 20.2418 266.21 20.2418 268.332C20.2418 270.455 21.9012 272.182 23.9401 272.182C25.9796 272.182 27.6384 270.455 27.6384 268.332C27.639 266.209 25.9796 264.483 23.9401 264.483Z" fill="#C84B2A"/>
<path d="M478.137 286.984C476.371 285.792 475.867 283.336 477.011 281.497C478.156 279.66 480.515 279.136 482.281 280.326C484.047 281.518 484.551 283.973 483.407 285.812C482.262 287.65 479.903 288.175 478.137 286.984Z" fill="#CDCDCD"/>
<path d="M250.821 441.22C251.15 422.039 236.478 406.212 218.051 405.871C199.624 405.529 184.42 420.802 184.092 439.983C183.764 459.165 198.436 474.992 216.863 475.333C235.29 475.675 250.493 460.402 250.821 441.22Z" fill="#C84B2A"/>
<path d="M168.322 470.03C169.533 481.725 161.408 492.227 150.173 493.487C138.939 494.748 128.85 486.29 127.639 474.596C126.428 462.901 134.554 452.399 145.788 451.139C157.023 449.878 167.112 458.336 168.322 470.03Z" fill="#EEBD3A"/>
<path d="M407.352 431.538C410.102 452.348 396.125 471.538 376.134 474.402C356.142 477.265 337.706 462.717 334.955 441.906C332.204 421.096 346.181 401.905 366.173 399.042C386.165 396.178 404.602 410.727 407.352 431.538Z" fill="#9900A6"/>
<path d="M476.687 255.235C476.687 273.528 462.441 288.357 444.869 288.357C427.295 288.357 413.049 273.528 413.049 255.235C413.049 236.942 427.295 222.113 444.869 222.113C462.441 222.113 476.687 236.942 476.687 255.235Z" fill="#A9C732"/>
<path d="M89.2813 184.969C89.2813 196.793 80.0728 206.378 68.7149 206.378C57.3569 206.378 48.1484 196.792 48.1484 184.969C48.1484 173.146 57.3569 163.562 68.7149 163.562C80.0728 163.561 89.2813 173.146 89.2813 184.969Z" fill="#60A4C2"/>
<path d="M339.096 296.87C354.332 254.929 334.019 208.072 293.727 192.213C253.435 176.354 208.421 197.497 193.186 239.439C177.95 281.38 198.263 328.237 238.555 344.096C278.847 359.956 323.861 338.812 339.096 296.87Z" fill="#024DF5"/>
<path d="M297.633 267.872L287.663 285.462L291.225 291.993C292.021 293.445 293.17 294.651 294.557 295.488C295.943 296.324 297.517 296.761 299.118 296.754H313.354L297.633 267.872Z" fill="white"/>
<path d="M218.928 296.754H232.098C234.019 296.761 235.908 296.236 237.572 295.232C239.236 294.228 240.616 292.78 241.571 291.037L266.423 246.488L274.171 260.719L254.086 296.754H267.256C269.177 296.761 271.066 296.236 272.729 295.232C274.393 294.228 275.773 292.78 276.728 291.037L293.678 260.617L284.161 243.179C284.127 243.119 284.097 243.059 284.06 242.999C281.677 238.732 278.042 235.382 273.694 233.447C273.034 233.157 272.361 232.895 271.664 232.669C268.278 231.541 264.654 231.455 261.224 232.421L259.041 233.213C259.041 233.213 252.752 235.502 249 242.794L248.956 242.878L248.73 243.285L218.928 296.754Z" fill="white"/>
<path d="M120.995 368.241C120.995 384.75 108.139 398.131 92.281 398.131C76.4225 398.131 63.5664 384.75 63.5664 368.241C63.5664 351.734 76.4225 338.352 92.281 338.352C108.139 338.352 120.995 351.734 120.995 368.241Z" fill="#A9C732"/>
<path d="M445.839 133.479C445.839 162.478 423.254 185.988 395.395 185.988C367.536 185.988 344.951 162.478 344.951 133.479C344.951 104.479 367.535 80.9697 395.395 80.9697C423.254 80.9697 445.839 104.48 445.839 133.479Z" fill="#EEBD3A"/>
<path d="M240.057 104.652C240.057 129.08 221.033 148.882 197.566 148.882C174.1 148.882 155.076 129.08 155.076 104.652C155.076 80.2251 174.1 60.4238 197.566 60.4238C221.033 60.4238 240.057 80.2257 240.057 104.652Z" fill="#C84B2A"/>
<path d="M399.589 125.445L402.57 123.485C402.26 121.856 401.766 120.3 401.112 118.845L397.591 119.11C397.248 118.476 396.865 117.867 396.447 117.288L398.087 114.045C397.05 112.818 395.875 111.726 394.59 110.789L391.671 112.848C391.073 112.48 390.451 112.152 389.807 111.863L389.669 108.201C388.203 107.682 386.663 107.344 385.076 107.203L383.541 110.503C383.028 110.499 382.512 110.518 381.991 110.564C381.811 110.582 381.632 110.606 381.456 110.628L379.574 107.522C378.007 107.846 376.513 108.359 375.115 109.041L375.37 112.707C374.761 113.064 374.175 113.463 373.622 113.898L370.502 112.19C369.324 113.271 368.273 114.494 367.376 115.832L369.356 118.869C369.001 119.493 368.684 120.139 368.407 120.809L364.888 120.952C364.391 122.48 364.068 124.081 363.932 125.736L367.103 127.333C367.098 127.868 367.116 128.406 367.16 128.946C367.178 129.134 367.2 129.318 367.221 129.504L364.239 131.462C364.551 133.092 365.042 134.646 365.697 136.102L369.216 135.836C369.562 136.471 369.943 137.078 370.361 137.657L368.722 140.902C369.759 142.131 370.935 143.223 372.22 144.157L375.138 142.098C375.737 142.468 376.358 142.798 377.001 143.085L377.14 146.748C378.606 147.264 380.145 147.604 381.732 147.744L383.269 144.445C383.78 144.449 384.299 144.429 384.819 144.383C384.999 144.367 385.176 144.341 385.353 144.319L387.234 147.426C388.801 147.101 390.296 146.59 391.693 145.908L391.439 142.243C392.047 141.882 392.633 141.485 393.188 141.051L396.305 142.757C397.483 141.678 398.533 140.455 399.433 139.117L397.454 136.08C397.806 135.455 398.124 134.808 398.401 134.14L401.92 133.996C402.417 132.469 402.741 130.866 402.875 129.214L399.707 127.615C399.71 127.081 399.693 126.543 399.647 126.001C399.634 125.814 399.609 125.631 399.589 125.445ZM391.434 126.744C391.821 131.363 388.539 135.431 384.105 135.834C379.669 136.238 375.76 132.818 375.374 128.203C374.987 123.586 378.269 119.516 382.704 119.116C387.142 118.713 391.05 122.13 391.434 126.744Z" fill="white"/>
<path d="M422.977 134.713C422.504 134.167 421.996 133.667 421.453 133.218L422.103 130.539C421.179 129.882 420.197 129.335 419.17 128.904L417.383 130.955C416.718 130.733 416.04 130.566 415.351 130.457L414.622 127.791C413.52 127.704 412.406 127.74 411.3 127.905L410.734 130.605C410.058 130.757 409.393 130.97 408.737 131.241L406.828 129.314C406.334 129.559 405.841 129.834 405.364 130.143C404.888 130.45 404.434 130.784 404.002 131.134L404.812 133.773C404.288 134.267 403.809 134.794 403.378 135.357L400.802 134.682C400.171 135.642 399.645 136.666 399.231 137.731L401.203 139.594C400.989 140.286 400.832 140.994 400.726 141.71L398.168 142.468C398.08 143.616 398.116 144.776 398.273 145.93L400.869 146.512C401.015 147.218 401.218 147.912 401.474 148.598L399.624 150.583C399.86 151.1 400.126 151.607 400.423 152.101C400.72 152.599 401.039 153.074 401.376 153.526L403.91 152.679C404.382 153.223 404.894 153.722 405.432 154.171L404.785 156.854C405.707 157.509 406.689 158.058 407.714 158.485L409.503 156.435C410.168 156.659 410.844 156.823 411.536 156.931L412.264 159.596C413.365 159.681 414.481 159.65 415.587 159.487L416.149 156.784C416.826 156.633 417.493 156.42 418.151 156.151L420.061 158.078C420.555 157.834 421.044 157.556 421.521 157.248C421.999 156.939 422.449 156.607 422.885 156.253L422.074 153.618C422.597 153.124 423.076 152.594 423.506 152.033L426.084 152.708C426.714 151.748 427.243 150.724 427.652 149.658L425.683 147.793C425.895 147.104 426.055 146.399 426.161 145.681L428.719 144.924C428.805 143.774 428.768 142.616 428.615 141.461L426.021 140.875C425.873 140.172 425.667 139.475 425.411 138.792L427.263 136.807C427.023 136.29 426.76 135.779 426.461 135.283C426.167 134.788 425.847 134.315 425.507 133.863L422.977 134.713ZM418.273 140.922C419.957 143.752 419.12 147.467 416.403 149.221C413.686 150.974 410.119 150.102 408.433 147.277C406.746 144.449 407.583 140.735 410.299 138.98C413.017 137.223 416.587 138.097 418.273 140.922Z" fill="white"/>
<path d="M425.385 245.831V264.663C425.385 265.991 426.452 267.068 427.769 267.068H461.441C462.758 267.068 463.825 265.991 463.825 264.663V245.849L444.6 256.601L425.385 245.831Z" fill="white"/>
<path d="M461.441 242.148H427.769C426.452 242.148 425.385 243.259 425.385 244.63V245.045L444.606 254.942L463.826 245.045V244.63C463.826 243.259 462.758 242.148 461.441 242.148Z" fill="white"/>
<path d="M392.258 452.845L393.547 453.646C394.603 454.3 396.159 453.607 397.024 452.095C397.888 450.585 397.733 448.83 396.677 448.175L395.328 447.339C394.92 448.573 394.438 449.624 393.931 450.513C393.385 451.467 392.808 452.231 392.258 452.845Z" fill="white"/>
<path d="M347.733 421.541C342.92 429.955 345.57 440.838 353.654 445.848C360.84 450.304 369.896 448.613 375.201 442.272L390.327 451.647C391.377 450.507 392.566 448.754 393.411 446.151L378.331 436.803C381.159 428.927 378.272 419.832 371.085 415.377C363.002 410.367 352.546 413.126 347.733 421.541ZM372.651 436.986C369.269 442.897 361.925 444.835 356.246 441.316C350.569 437.795 348.708 430.151 352.088 424.24C355.469 418.329 362.814 416.391 368.493 419.912C374.17 423.431 376.032 431.076 372.651 436.986Z" fill="white"/>
<path d="M224.184 87.8082H171.891V91.0791H224.184V87.8082Z" fill="white"/>
<path d="M224.184 94.1199H171.891V97.3925H224.184V94.1199Z" fill="white"/>
<path d="M224.184 100.431H171.891V103.704H224.184V100.431Z" fill="white"/>
<path d="M224.184 106.743H171.891V110.016H224.184V106.743Z" fill="white"/>
<path d="M224.184 113.055H171.891V116.327H224.184V113.055Z" fill="white"/>
<path d="M197.894 119.366H171.891V122.639H197.894V119.366Z" fill="white"/>
<path d="M231.926 431.906H230.821V428.229C230.821 420.508 224.785 414.225 217.37 414.225C209.952 414.225 203.918 420.508 203.918 428.229V431.906H202.812C200.552 431.906 198.717 433.815 198.717 436.168V456.394C198.717 458.748 200.551 460.657 202.812 460.657H231.925C234.186 460.657 236.018 458.748 236.018 456.394V436.168C236.019 433.815 234.187 431.906 231.926 431.906ZM209.816 428.229C209.816 423.892 213.203 420.366 217.37 420.366C221.533 420.366 224.922 423.892 224.922 428.229V431.906H209.815V428.229H209.816Z" fill="white"/>
<path d="M148.528 458.591L152.519 467.01L161.445 468.36L154.985 474.914L156.511 484.168L148.528 479.798L140.542 484.168L142.067 474.914L135.609 468.36L144.536 467.01L148.528 458.591Z" fill="white"/>
<path d="M75.6086 182.363L73.3175 182.334C71.9789 180.409 70.5341 178.842 68.5856 177.519C62.6703 173.501 58.2858 174.495 58.2858 174.495L56.5137 173.321L57.8054 175.033C57.8054 175.033 57.1699 179.657 61.4487 185.507C62.856 187.432 64.4576 188.818 66.3974 190.067L66.5924 192.455C66.5924 192.455 67.5236 195.758 72.0476 198.889C72.0476 198.889 70.984 195.22 72.1113 193.178C72.596 193.42 73.0953 193.668 73.6127 193.926C73.6127 193.926 74.4666 193.976 76.0508 192.204C77.6334 190.432 77.5321 189.54 77.5321 189.54C77.2473 189.022 76.9734 188.521 76.7065 188.036C78.5843 186.725 82.1688 187.561 82.1688 187.561C78.8402 183.09 75.6086 182.363 75.6086 182.363ZM64.5115 181.025C63.9419 181.662 62.9845 181.698 62.3724 181.105C61.7602 180.512 61.7254 179.516 62.2945 178.878C62.8641 178.241 63.8221 178.205 64.4336 178.797C65.0458 179.39 65.0812 180.387 64.5115 181.025Z" fill="white"/>
<path d="M93.6836 374.553C91.0679 374.587 88.9789 376.822 89.0121 379.544C89.0459 382.262 91.1883 384.442 93.804 384.406C96.4191 384.372 98.5108 382.137 98.4771 379.418C98.4439 376.697 96.2993 374.519 93.6836 374.553Z" fill="white"/>
<path d="M93.4822 363.135C88.2203 363.204 83.5478 366.029 80.498 370.393L85.4032 374.814C87.3288 372.084 90.2664 370.317 93.5698 370.273C96.9969 370.229 100.073 372.049 102.06 374.904L106.906 370.425C103.753 365.927 98.8948 363.063 93.4822 363.135Z" fill="white"/>
<path d="M93.3435 351.756C84.9693 351.867 77.5438 356.412 72.7422 363.406L77.65 367.827C81.326 362.465 87.0143 358.979 93.4306 358.894C100.015 358.808 105.919 362.319 109.717 367.821L114.562 363.339C109.598 356.197 101.911 351.643 93.3435 351.756Z" fill="white"/>
</svg>
