<svg width="526" height="450" viewBox="0 0 526 450" fill="none" xmlns="http://www.w3.org/2000/svg">
<g clip-path="url(#clip0_212_8200)">
<path d="M483.859 443.215C483.784 443.215 483.708 443.196 483.64 443.156L273.429 321.791C273.22 321.67 273.148 321.402 273.268 321.192C273.391 320.98 273.661 320.91 273.868 321.031L484.078 442.397C484.288 442.518 484.36 442.786 484.24 442.996C484.158 443.136 484.01 443.215 483.859 443.215Z" fill="#DBDEE4"/>
<g opacity="0.1">
<path d="M347.381 423.355C343.626 425.523 343.626 429.046 347.357 431.214L376.757 448.299C380.487 450.467 386.55 450.467 390.305 448.299L486.285 392.885C490.061 390.705 490.081 387.193 486.35 385.025L456.95 367.94C453.219 365.772 447.137 365.76 443.362 367.94L347.381 423.355Z" fill="black"/>
</g>
<path d="M345.885 411.194L345.95 420.798C345.994 422.22 346.913 423.642 348.772 424.736L378.174 441.799C378.852 442.193 379.618 442.521 380.45 442.784C382.921 443.572 385.897 443.637 388.5 443.025C389.681 442.762 390.775 442.346 391.738 441.8L487.688 386.386C489.613 385.292 490.532 383.849 490.532 382.427L490.466 372.801C490.466 374.245 489.504 375.667 487.623 376.761L391.628 432.196C390.71 432.721 389.638 433.137 388.5 433.377C385.919 434.012 382.966 433.946 380.45 433.202C379.597 432.94 378.788 432.611 378.087 432.196L348.707 415.089C346.825 414.038 345.885 412.594 345.885 411.194Z" fill="#BEC4CD"/>
<path d="M380.449 433.201V442.784C382.921 443.571 385.897 443.636 388.5 443.024V433.377C385.918 434.011 382.965 433.945 380.449 433.201Z" fill="#F0F2F5"/>
<path d="M384.928 443.867C382.392 443.867 379.867 443.307 377.953 442.186L348.546 425.117C346.657 424.009 345.552 422.442 345.515 420.816L345.451 411.236C345.451 411.221 345.451 411.204 345.451 411.188C345.451 410.946 345.647 410.75 345.888 410.749H345.89C346.132 410.749 346.327 410.944 346.329 411.185V411.226C346.348 412.527 347.289 413.793 348.918 414.704L378.301 431.809C381.915 433.91 387.796 433.909 391.41 431.808L487.403 376.382C489.095 375.406 490.028 374.133 490.028 372.798C490.028 372.556 490.223 372.36 490.465 372.358H490.467C490.708 372.358 490.904 372.553 490.906 372.795L490.971 382.414C490.971 384.098 489.88 385.641 487.902 386.762L391.947 442.186C390.003 443.307 387.46 443.867 384.928 443.867ZM346.346 413.676L346.393 420.803C346.424 422.111 347.37 423.409 348.988 424.358L378.395 441.427C381.979 443.527 387.863 443.528 391.508 441.426L487.466 386C489.162 385.04 490.093 383.768 490.093 382.416L490.045 375.263C489.527 375.961 488.786 376.598 487.842 377.142L391.851 432.568C387.993 434.81 381.72 434.81 377.858 432.568L348.483 415.466C347.581 414.962 346.859 414.351 346.346 413.676Z" fill="#373B42"/>
<path d="M348.716 407.239C344.961 409.407 344.961 412.93 348.692 415.098L378.092 432.184C381.822 434.352 387.885 434.352 391.64 432.184L487.62 376.769C491.396 374.589 491.416 371.078 487.685 368.91L458.285 351.825C454.554 349.657 448.472 349.645 444.697 351.825L348.716 407.239Z" fill="white"/>
<path d="M384.856 434.238C382.322 434.238 379.793 433.68 377.869 432.563L348.47 415.479C346.525 414.348 345.454 412.817 345.457 411.171C345.459 409.52 346.537 407.989 348.495 406.859L444.477 351.445C448.354 349.205 454.646 349.203 458.506 351.445L487.906 368.53C489.843 369.656 490.908 371.178 490.906 372.815C490.903 374.469 489.814 376.009 487.839 377.149L391.858 432.563C389.925 433.68 387.389 434.238 384.856 434.238ZM348.934 407.619C347.259 408.586 346.337 409.848 346.335 411.171C346.333 412.492 347.247 413.753 348.912 414.719L378.312 431.804C381.912 433.897 387.792 433.899 391.42 431.804L487.4 376.389C489.092 375.411 490.027 374.142 490.028 372.815C490.03 371.503 489.119 370.251 487.463 369.289L458.064 352.204C454.451 350.103 448.553 350.105 444.916 352.204L348.934 407.619Z" fill="#373B42"/>
<path d="M432.206 264.782L432.509 371.779L452.117 383.174L451.814 276.177L432.206 264.782Z" fill="#373B42"/>
<path d="M452.117 383.613C452.041 383.613 451.964 383.593 451.896 383.554L432.288 372.159C432.154 372.08 432.07 371.936 432.07 371.78L431.767 264.783C431.767 264.626 431.851 264.48 431.986 264.402C432.123 264.323 432.289 264.323 432.427 264.402L452.035 275.797C452.168 275.876 452.252 276.02 452.252 276.176L452.556 383.173C452.556 383.33 452.472 383.476 452.336 383.554C452.267 383.593 452.192 383.613 452.117 383.613ZM432.948 371.526L451.676 382.41L451.374 276.43L432.646 265.546L432.948 371.526Z" fill="#373B42"/>
<path d="M451.812 276.177L452.116 383.174L471.866 371.772L471.563 264.774L451.812 276.177Z" fill="white"/>
<path d="M452.115 383.613C452.04 383.613 451.965 383.593 451.896 383.555C451.76 383.476 451.676 383.332 451.676 383.175L451.373 276.178C451.373 276.021 451.457 275.875 451.593 275.797L471.343 264.394C471.48 264.315 471.644 264.316 471.782 264.393C471.917 264.471 472.001 264.616 472.001 264.773L472.305 371.77C472.305 371.927 472.22 372.073 472.085 372.151L452.335 383.554C452.266 383.593 452.191 383.613 452.115 383.613ZM452.251 276.43L452.553 382.416L471.427 371.519L471.125 265.533L452.251 276.43Z" fill="#373B42"/>
<path d="M432.206 264.782L451.814 276.177L471.564 264.774L451.956 253.38L432.206 264.782Z" fill="#024DF5" fill-opacity="0.8"/>
<path d="M451.813 276.616C451.738 276.616 451.661 276.596 451.592 276.557L431.984 265.162C431.849 265.083 431.767 264.938 431.767 264.781C431.767 264.625 431.851 264.481 431.986 264.402L451.736 253.001C451.873 252.922 452.04 252.922 452.177 253.001L471.785 264.395C471.92 264.474 472.002 264.619 472.002 264.776C472.002 264.932 471.918 265.076 471.783 265.154L452.033 276.557C451.964 276.596 451.889 276.616 451.813 276.616ZM433.082 264.783L451.813 275.669L470.687 264.773L451.956 253.888L433.082 264.783Z" fill="#373B42"/>
<path d="M398.376 307.103L398.679 391.311L418.287 402.705L417.984 318.497L398.376 307.103Z" fill="#373B42"/>
<path d="M418.288 403.145C418.212 403.145 418.135 403.125 418.067 403.086L398.459 391.691C398.325 391.612 398.241 391.468 398.241 391.312L397.938 307.104C397.938 306.947 398.02 306.802 398.157 306.723C398.294 306.644 398.46 306.644 398.598 306.723L418.206 318.117C418.339 318.196 418.423 318.339 418.423 318.495L418.727 402.704C418.727 402.862 418.644 403.007 418.507 403.086C418.439 403.125 418.363 403.145 418.288 403.145ZM399.117 391.058L417.845 401.941L417.547 318.75L398.818 307.868L399.117 391.058Z" fill="#373B42"/>
<path d="M417.984 318.497L418.288 402.705L438.038 391.303L437.734 307.095L417.984 318.497Z" fill="white"/>
<path d="M418.287 403.145C418.212 403.145 418.137 403.125 418.068 403.086C417.933 403.008 417.848 402.863 417.848 402.707L417.545 318.499C417.545 318.341 417.629 318.195 417.764 318.117L437.515 306.715C437.652 306.636 437.816 306.637 437.954 306.714C438.089 306.793 438.173 306.937 438.173 307.093L438.476 391.301C438.476 391.459 438.393 391.605 438.257 391.683L418.507 403.086C418.438 403.125 418.363 403.145 418.287 403.145ZM418.425 318.75L418.723 401.947L437.597 391.05L437.299 307.854L418.425 318.75Z" fill="#373B42"/>
<path d="M398.376 307.102L417.984 318.497L437.733 307.095L418.126 295.7L398.376 307.102Z" fill="#024DF5" fill-opacity="0.8"/>
<path d="M417.984 318.936C417.909 318.936 417.832 318.916 417.763 318.877L398.155 307.483C398.02 307.404 397.938 307.259 397.938 307.102C397.938 306.946 398.021 306.801 398.157 306.723L417.907 295.32C418.044 295.241 418.21 295.241 418.348 295.32L437.956 306.715C438.091 306.794 438.173 306.939 438.173 307.096C438.173 307.252 438.089 307.397 437.954 307.475L418.204 318.876C418.135 318.916 418.06 318.936 417.984 318.936ZM399.252 307.104L417.984 317.989L436.858 307.094L418.127 296.207L399.252 307.104Z" fill="#373B42"/>
<path d="M364.562 349.415L364.865 410.834L384.473 422.229L384.169 360.81L364.562 349.415Z" fill="#373B42"/>
<path d="M384.473 422.668C384.398 422.668 384.321 422.648 384.252 422.608L364.644 411.213C364.51 411.135 364.426 410.991 364.426 410.836L364.123 349.418C364.123 349.26 364.205 349.114 364.343 349.035C364.476 348.956 364.646 348.956 364.783 349.035L384.391 360.43C384.525 360.508 384.609 360.652 384.609 360.807L384.912 422.226C384.912 422.384 384.83 422.53 384.693 422.608C384.626 422.648 384.549 422.668 384.473 422.668ZM365.302 410.581L384.031 421.464L383.732 361.062L365.004 350.18L365.302 410.581Z" fill="#373B42"/>
<path d="M384.169 360.81L384.472 422.229L404.208 410.834L403.905 349.415L384.169 360.81Z" fill="white"/>
<path d="M384.473 422.668C384.397 422.668 384.322 422.648 384.255 422.609C384.118 422.531 384.034 422.387 384.034 422.231L383.73 360.812C383.73 360.654 383.813 360.507 383.95 360.429L403.686 349.035C403.824 348.956 403.99 348.957 404.124 349.034C404.261 349.112 404.345 349.256 404.345 349.412L404.647 410.831C404.647 410.989 404.564 411.135 404.427 411.213L384.692 422.608C384.624 422.648 384.548 422.668 384.473 422.668ZM384.61 361.062L384.908 421.471L403.767 410.581L403.47 350.173L384.61 361.062Z" fill="#373B42"/>
<path d="M364.562 349.415L384.169 360.81L403.905 349.415L384.297 338.02L364.562 349.415Z" fill="#024DF5" fill-opacity="0.8"/>
<path d="M384.17 361.248C384.094 361.248 384.017 361.228 383.949 361.189L364.341 349.795C364.205 349.716 364.123 349.571 364.123 349.414C364.123 349.258 364.207 349.113 364.343 349.035L384.079 337.64C384.216 337.561 384.382 337.561 384.52 337.64L404.128 349.035C404.263 349.114 404.345 349.259 404.345 349.416C404.345 349.572 404.261 349.717 404.126 349.795L384.389 361.189C384.321 361.228 384.245 361.248 384.17 361.248ZM365.438 349.416L384.17 360.302L403.03 349.414L384.298 338.527L365.438 349.416Z" fill="#373B42"/>
<path d="M476.655 444.817C473.481 442.984 473.463 440.011 476.616 438.178C479.77 436.345 484.903 436.346 488.077 438.179C491.251 440.011 491.267 442.983 488.113 444.816C484.959 446.649 479.829 446.649 476.655 444.817Z" fill="white"/>
<path d="M482.391 446.621C480.237 446.621 478.08 446.146 476.436 445.196C474.754 444.226 473.827 442.907 473.823 441.486C473.821 440.073 474.735 438.763 476.395 437.798C479.667 435.898 485.004 435.897 488.296 437.799C489.978 438.769 490.906 440.087 490.908 441.508C490.909 442.92 489.995 444.23 488.334 445.196C486.698 446.146 484.545 446.621 482.391 446.621ZM482.338 437.238C480.342 437.238 478.35 437.678 476.838 438.558C475.459 439.358 474.699 440.398 474.701 441.484C474.703 442.58 475.476 443.629 476.875 444.437C479.922 446.194 484.862 446.197 487.891 444.436C489.271 443.635 490.031 442.596 490.03 441.509C490.028 440.415 489.256 439.367 487.857 438.558C486.333 437.679 484.334 437.238 482.338 437.238Z" fill="#DBDEE4"/>
<path d="M482.348 439.404C483.585 439.404 484.783 439.686 485.634 440.177C486.317 440.571 486.709 441.056 486.71 441.506C486.71 441.951 486.326 442.43 485.655 442.82C484.811 443.31 483.619 443.591 482.383 443.591C481.146 443.591 479.95 443.31 479.099 442.819C478.415 442.424 478.023 441.939 478.022 441.488C478.022 441.043 478.406 440.565 479.076 440.175C479.92 439.685 481.112 439.404 482.348 439.404Z" fill="#024DF5" fill-opacity="0.8"/>
<path d="M454.402 423.499C455.732 423.499 457.018 423.801 457.931 424.329C458.665 424.752 459.086 425.273 459.087 425.756C459.087 426.234 458.675 426.748 457.954 427.167C457.048 427.694 455.767 427.996 454.44 427.996C453.112 427.996 451.827 427.693 450.913 427.166C450.179 426.742 449.758 426.221 449.757 425.737C449.756 425.259 450.169 424.745 450.889 424.327C451.794 423.8 453.075 423.499 454.402 423.499Z" fill="#373B42"/>
<path d="M337.724 356.313C336.394 356.313 335.108 356.615 334.195 357.143C333.461 357.567 333.04 358.087 333.039 358.571C333.039 359.048 333.451 359.563 334.172 359.981C335.078 360.508 336.359 360.81 337.686 360.81C339.014 360.81 340.299 360.508 341.212 359.98C341.947 359.557 342.368 359.035 342.369 358.551C342.37 358.073 341.957 357.559 341.237 357.141C340.332 356.615 339.051 356.313 337.724 356.313Z" fill="#373B42"/>
<path d="M410.361 236.916C410.286 236.916 410.21 236.897 410.142 236.857L322.674 186.358C322.465 186.237 322.393 185.969 322.513 185.759C322.635 185.547 322.907 185.478 323.113 185.598L410.58 236.097C410.79 236.218 410.862 236.486 410.742 236.696C410.66 236.837 410.512 236.916 410.361 236.916Z" fill="#DBDEE4"/>
<path d="M403.157 238.518C399.983 236.685 399.965 233.712 403.118 231.879C406.272 230.046 411.405 230.047 414.579 231.88C417.753 233.713 417.769 236.684 414.615 238.517C411.461 240.35 406.331 240.35 403.157 238.518Z" fill="white"/>
<path d="M408.892 240.322C406.738 240.322 404.583 239.848 402.937 238.898C401.255 237.927 400.328 236.609 400.326 235.187C400.324 233.775 401.238 232.465 402.898 231.499C406.17 229.6 411.507 229.599 414.799 231.5C416.479 232.471 417.407 233.788 417.409 235.209C417.41 236.622 416.498 237.931 414.837 238.897C413.201 239.847 411.047 240.322 408.892 240.322ZM403.376 238.138C406.422 239.896 411.363 239.899 414.394 238.137C415.775 237.336 416.532 236.296 416.531 235.21C416.529 234.116 415.759 233.068 414.36 232.26C411.311 230.499 406.365 230.498 403.341 232.259C401.962 233.06 401.202 234.1 401.204 235.187C401.206 236.281 401.977 237.33 403.376 238.138Z" fill="#DBDEE4"/>
<path d="M408.851 233.105C410.088 233.105 411.286 233.387 412.136 233.878C412.82 234.272 413.212 234.757 413.213 235.207C413.213 235.652 412.829 236.131 412.158 236.521C411.314 237.011 410.121 237.292 408.886 237.292C407.649 237.292 406.452 237.011 405.602 236.52C404.918 236.125 404.526 235.64 404.525 235.189C404.525 234.744 404.909 234.266 405.579 233.876C406.422 233.386 407.615 233.105 408.851 233.105Z" fill="#024DF5" fill-opacity="0.8"/>
<path d="M380.905 217.2C382.234 217.2 383.521 217.502 384.434 218.03C385.168 218.454 385.589 218.974 385.59 219.458C385.59 219.936 385.178 220.45 384.457 220.868C383.551 221.395 382.27 221.697 380.942 221.697C379.615 221.697 378.329 221.394 377.416 220.867C376.682 220.443 376.261 219.922 376.26 219.438C376.259 218.96 376.672 218.446 377.392 218.028C378.298 217.502 379.578 217.2 380.905 217.2Z" fill="#373B42"/>
<path d="M410.361 236.916C410.286 236.916 410.21 236.897 410.142 236.857L322.674 186.358C322.465 186.237 322.393 185.969 322.513 185.759C322.635 185.547 322.907 185.478 323.113 185.598L410.58 236.097C410.79 236.218 410.862 236.486 410.742 236.696C410.66 236.837 410.512 236.916 410.361 236.916Z" fill="#DBDEE4"/>
<path d="M403.157 238.518C399.983 236.685 399.965 233.712 403.118 231.879C406.272 230.046 411.405 230.047 414.579 231.88C417.753 233.713 417.769 236.684 414.615 238.517C411.461 240.35 406.331 240.35 403.157 238.518Z" fill="white"/>
<path d="M408.892 240.322C406.738 240.322 404.583 239.848 402.937 238.898C401.255 237.927 400.328 236.609 400.326 235.187C400.324 233.775 401.238 232.465 402.898 231.499C406.17 229.6 411.507 229.599 414.799 231.5C416.479 232.471 417.407 233.788 417.409 235.209C417.41 236.622 416.498 237.931 414.837 238.897C413.201 239.847 411.047 240.322 408.892 240.322ZM403.376 238.138C406.422 239.896 411.363 239.899 414.394 238.137C415.775 237.336 416.532 236.296 416.531 235.21C416.529 234.116 415.759 233.068 414.36 232.26C411.311 230.499 406.365 230.498 403.341 232.259C401.962 233.06 401.202 234.1 401.204 235.187C401.206 236.281 401.977 237.33 403.376 238.138Z" fill="#DBDEE4"/>
<path d="M408.851 233.105C410.088 233.105 411.286 233.387 412.136 233.878C412.82 234.272 413.212 234.757 413.213 235.207C413.213 235.652 412.829 236.131 412.158 236.521C411.314 237.011 410.121 237.292 408.886 237.292C407.649 237.292 406.452 237.011 405.602 236.52C404.918 236.125 404.526 235.64 404.525 235.189C404.525 234.744 404.909 234.266 405.579 233.876C406.422 233.386 407.615 233.105 408.851 233.105Z" fill="#024DF5" fill-opacity="0.8"/>
<path d="M380.905 217.2C382.234 217.2 383.521 217.502 384.434 218.03C385.168 218.454 385.589 218.974 385.59 219.458C385.59 219.936 385.178 220.45 384.457 220.868C383.551 221.395 382.27 221.697 380.942 221.697C379.615 221.697 378.329 221.394 377.416 220.867C376.682 220.443 376.261 219.922 376.26 219.438C376.259 218.96 376.672 218.446 377.392 218.028C378.298 217.502 379.578 217.2 380.905 217.2Z" fill="#373B42"/>
<path d="M344.869 187.682C344.794 187.682 344.719 187.663 344.65 187.623L257.184 137.124C256.975 137.003 256.903 136.735 257.023 136.525C257.145 136.314 257.417 136.243 257.623 136.365L345.089 186.863C345.298 186.984 345.37 187.252 345.25 187.462C345.168 187.603 345.02 187.682 344.869 187.682Z" fill="#DBDEE4"/>
<path d="M264.607 134.704C267.781 136.536 267.799 139.51 264.646 141.342C261.492 143.175 256.359 143.174 253.185 141.342C250.011 139.509 249.995 136.537 253.149 134.704C256.303 132.872 261.433 132.871 264.607 134.704Z" fill="white"/>
<path d="M258.923 143.147C256.768 143.147 254.611 142.671 252.965 141.721C251.285 140.751 250.357 139.433 250.355 138.013C250.352 136.6 251.266 135.29 252.927 134.324C256.2 132.424 261.54 132.424 264.827 134.324C266.509 135.295 267.436 136.613 267.438 138.034C267.44 139.447 266.526 140.757 264.866 141.722C263.23 142.671 261.078 143.147 258.923 143.147ZM258.87 133.764C256.876 133.764 254.883 134.203 253.37 135.084C251.989 135.885 251.231 136.925 251.233 138.011C251.235 139.106 252.005 140.154 253.404 140.961C256.452 142.722 261.399 142.723 264.423 140.962C265.804 140.161 266.561 139.122 266.56 138.036C266.558 136.94 265.786 135.892 264.387 135.084C262.863 134.204 260.866 133.764 258.87 133.764Z" fill="#DBDEE4"/>
<path d="M258.914 140.116C257.676 140.116 256.479 139.835 255.628 139.343C254.945 138.949 254.553 138.465 254.552 138.014C254.551 137.569 254.936 137.091 255.606 136.701C256.45 136.21 257.643 135.929 258.879 135.929C260.115 135.929 261.312 136.211 262.162 136.702C262.846 137.097 263.238 137.582 263.239 138.032C263.24 138.477 262.856 138.956 262.185 139.346C261.342 139.836 260.15 140.116 258.914 140.116Z" fill="#024DF5" fill-opacity="0.8"/>
<path d="M286.858 156.022C285.529 156.022 284.243 155.719 283.329 155.191C282.596 154.768 282.175 154.248 282.174 153.764C282.173 153.286 282.586 152.772 283.307 152.353C284.213 151.826 285.494 151.525 286.821 151.525C288.149 151.525 289.434 151.827 290.347 152.354C291.082 152.778 291.503 153.299 291.504 153.783C291.504 154.261 291.092 154.775 290.372 155.194C289.466 155.72 288.186 156.022 286.858 156.022Z" fill="#373B42"/>
<path d="M344.869 187.682C344.794 187.682 344.719 187.663 344.65 187.623L257.184 137.124C256.975 137.003 256.903 136.735 257.023 136.525C257.145 136.314 257.417 136.243 257.623 136.365L345.089 186.863C345.298 186.984 345.37 187.252 345.25 187.462C345.168 187.603 345.02 187.682 344.869 187.682Z" fill="#DBDEE4"/>
<path d="M264.607 134.704C267.781 136.536 267.799 139.51 264.646 141.342C261.492 143.175 256.359 143.174 253.185 141.342C250.011 139.509 249.995 136.537 253.149 134.704C256.303 132.872 261.433 132.871 264.607 134.704Z" fill="white"/>
<path d="M258.923 143.147C256.768 143.147 254.611 142.671 252.965 141.721C251.285 140.751 250.357 139.433 250.355 138.013C250.352 136.6 251.266 135.29 252.927 134.324C256.2 132.424 261.54 132.424 264.827 134.324C266.509 135.295 267.436 136.613 267.438 138.034C267.44 139.447 266.526 140.757 264.866 141.722C263.23 142.671 261.078 143.147 258.923 143.147ZM258.87 133.764C256.876 133.764 254.883 134.203 253.37 135.084C251.989 135.885 251.231 136.925 251.233 138.011C251.235 139.106 252.005 140.154 253.404 140.961C256.452 142.722 261.399 142.723 264.423 140.962C265.804 140.161 266.561 139.122 266.56 138.036C266.558 136.94 265.786 135.892 264.387 135.084C262.863 134.204 260.866 133.764 258.87 133.764Z" fill="#DBDEE4"/>
<path d="M258.914 140.116C257.676 140.116 256.479 139.835 255.628 139.343C254.945 138.949 254.553 138.465 254.552 138.014C254.551 137.569 254.936 137.091 255.606 136.701C256.45 136.21 257.643 135.929 258.879 135.929C260.115 135.929 261.312 136.211 262.162 136.702C262.846 137.097 263.238 137.582 263.239 138.032C263.24 138.477 262.856 138.956 262.185 139.346C261.342 139.836 260.15 140.116 258.914 140.116Z" fill="#024DF5" fill-opacity="0.8"/>
<path d="M286.858 156.022C285.529 156.022 284.243 155.719 283.329 155.191C282.596 154.768 282.175 154.248 282.174 153.764C282.173 153.286 282.586 152.772 283.307 152.353C284.213 151.826 285.494 151.525 286.821 151.525C288.149 151.525 289.434 151.827 290.347 152.354C291.082 152.778 291.503 153.299 291.504 153.783C291.504 154.261 291.092 154.775 290.372 155.194C289.466 155.72 288.186 156.022 286.858 156.022Z" fill="#373B42"/>
<path d="M217.788 261.045C217.637 261.045 217.49 260.966 217.408 260.825C217.288 260.615 217.36 260.347 217.569 260.226L427.779 138.862C427.983 138.74 428.256 138.811 428.379 139.022C428.499 139.232 428.427 139.5 428.218 139.621L218.008 260.986C217.939 261.026 217.864 261.045 217.788 261.045Z" fill="#DBDEE4"/>
<path d="M420.797 137.201C417.622 139.033 417.604 142.007 420.758 143.839C423.912 145.672 429.045 145.671 432.219 143.839C435.393 142.006 435.408 139.034 432.255 137.201C429.101 135.368 423.971 135.368 420.797 137.201Z" fill="white"/>
<path d="M426.479 145.645C424.323 145.645 422.172 145.169 420.536 144.219C418.876 143.253 417.962 141.943 417.964 140.531C417.967 139.109 418.895 137.791 420.577 136.82C423.867 134.92 429.205 134.922 432.474 136.821C434.136 137.787 435.05 139.097 435.048 140.509C435.046 141.931 434.119 143.247 432.437 144.218C430.791 145.169 428.634 145.645 426.479 145.645ZM426.532 136.261C424.538 136.261 422.54 136.7 421.016 137.58C419.617 138.389 418.844 139.437 418.842 140.532C418.84 141.619 419.6 142.659 420.978 143.459C424.003 145.219 428.949 145.219 431.998 143.459C433.397 142.65 434.168 141.603 434.17 140.509C434.172 139.423 433.412 138.383 432.032 137.581C430.52 136.7 428.528 136.261 426.532 136.261Z" fill="#DBDEE4"/>
<path d="M426.488 142.613C427.725 142.613 428.923 142.332 429.773 141.84C430.457 141.446 430.849 140.962 430.85 140.511C430.85 140.066 430.466 139.588 429.795 139.198C428.951 138.707 427.758 138.426 426.522 138.426C425.286 138.426 424.089 138.708 423.239 139.199C422.555 139.594 422.163 140.079 422.162 140.529C422.162 140.974 422.546 141.453 423.216 141.842C424.059 142.332 425.251 142.613 426.488 142.613Z" fill="#024DF5" fill-opacity="0.8"/>
<path d="M398.543 158.519C399.872 158.519 401.158 158.216 402.072 157.688C402.806 157.265 403.227 156.745 403.228 156.261C403.228 155.783 402.815 155.269 402.095 154.85C401.189 154.323 399.908 154.021 398.58 154.022C397.252 154.022 395.967 154.324 395.054 154.851C394.32 155.275 393.898 155.796 393.897 156.28C393.897 156.758 394.309 157.272 395.029 157.691C395.935 158.217 397.216 158.519 398.543 158.519Z" fill="#373B42"/>
<path d="M295.898 217.432C297.228 217.432 298.514 217.129 299.427 216.602C300.161 216.178 300.582 215.658 300.583 215.174C300.583 214.697 300.171 214.182 299.45 213.763C298.544 213.237 297.263 212.935 295.936 212.935C294.608 212.935 293.323 213.237 292.41 213.764C291.675 214.188 291.254 214.709 291.253 215.194C291.252 215.672 291.665 216.186 292.385 216.604C293.29 217.13 294.571 217.432 295.898 217.432Z" fill="#373B42"/>
<path d="M73.7464 407.715C72.5529 407.715 71.3613 407.406 70.2967 406.789L12.1931 373.023C11.984 372.901 11.9135 372.632 12.0352 372.423C12.1552 372.211 12.4228 372.142 12.6353 372.264L70.7388 406.03C72.5838 407.105 74.8847 407.107 76.7365 406.039L135.236 372.264C135.44 372.142 135.711 372.213 135.836 372.424C135.956 372.634 135.884 372.903 135.675 373.023L77.1752 406.799C76.1177 407.41 74.9312 407.715 73.7464 407.715Z" fill="#DBDEE4"/>
<path d="M21.7847 371.142C24.959 372.974 24.977 375.948 21.8234 377.78C18.6697 379.613 13.5368 379.612 10.3627 377.779C7.18843 375.947 7.17301 372.975 10.3267 371.142C13.4803 369.31 18.6106 369.309 21.7847 371.142Z" fill="white"/>
<path d="M16.1018 379.585C13.9467 379.585 11.7897 379.11 10.1436 378.159C8.46175 377.188 7.53589 375.872 7.53223 374.451C7.5304 373.039 8.44424 371.729 10.1057 370.762C13.3754 368.864 18.7111 368.861 22.0049 370.762C23.687 371.732 24.6145 373.051 24.6163 374.472C24.6181 375.885 23.7043 377.195 22.0443 378.16C20.4087 379.11 18.257 379.585 16.1018 379.585ZM16.0488 370.202C14.053 370.202 12.0607 370.641 10.5484 371.522C9.16812 372.323 8.40871 373.363 8.41027 374.45C8.4121 375.544 9.18353 376.592 10.5827 377.399C13.6313 379.16 18.5776 379.161 21.6022 377.4C22.9807 376.599 23.7403 375.559 23.7385 374.472C23.7367 373.378 22.9652 372.329 21.5661 371.521C20.0421 370.642 18.0445 370.202 16.0488 370.202Z" fill="#DBDEE4"/>
<path d="M16.0925 376.555C14.8549 376.555 13.6575 376.273 12.8066 375.782C12.1235 375.387 11.7313 374.903 11.7305 374.452C11.7299 374.007 12.1144 373.528 12.7852 373.139C13.629 372.648 14.8217 372.367 16.0575 372.367C17.2938 372.367 18.4904 372.649 19.3408 373.14C20.0246 373.535 20.4169 374.02 20.4177 374.47C20.4182 374.915 20.034 375.394 19.3638 375.783C18.5207 376.273 17.3283 376.555 16.0925 376.555Z" fill="#024DF5" fill-opacity="0.8"/>
<path d="M44.0361 392.46C42.707 392.46 41.4207 392.157 40.5071 391.63C39.7733 391.206 39.3523 390.686 39.3516 390.202C39.351 389.724 39.7637 389.21 40.4844 388.791C41.3904 388.265 42.6714 387.963 43.9989 387.963C45.3267 387.963 46.6119 388.265 47.525 388.792C48.2593 389.216 48.6808 389.737 48.6816 390.221C48.6821 390.699 48.2698 391.213 47.5498 391.632C46.6441 392.158 45.3633 392.46 44.0361 392.46Z" fill="#373B42"/>
<path d="M186.767 428.435C186.617 428.435 186.469 428.357 186.388 428.216C186.267 428.006 186.337 427.738 186.548 427.616L244.501 394.024C245.252 393.587 245.701 392.806 245.699 391.936C245.699 391.065 245.248 390.286 244.494 389.85L177.812 351.351C177.603 351.23 177.531 350.962 177.651 350.752C177.773 350.54 178.045 350.471 178.251 350.591L244.932 389.09C245.961 389.684 246.577 390.747 246.577 391.934C246.578 393.121 245.968 394.187 244.941 394.784L186.987 428.375C186.918 428.416 186.843 428.435 186.767 428.435Z" fill="#DBDEE4"/>
<path d="M206.032 48.5804C204.5 47.6911 202.381 47.8048 200.016 49.1668L22.6924 151.573L22.6545 151.592C20.1952 152.992 18.0006 155.489 16.4491 158.308C15.068 160.843 14.1978 163.662 14.2166 166.197V166.292L14.5759 296.111C14.5759 298.76 15.5219 300.652 17.0355 301.541L3.90608 293.898C2.39249 293.028 1.44648 291.155 1.44648 288.468L1.06836 158.686V158.554C1.06836 156 1.91949 153.219 3.31966 150.665C4.85207 147.846 7.04667 145.368 9.5248 143.93L186.868 41.5236C189.251 40.1616 191.37 40.0479 192.903 40.956L206.032 48.5804Z" fill="#BEC4CD"/>
<path d="M17.0355 301.98C16.96 301.98 16.8847 301.961 16.8144 301.919L3.68599 294.278C1.95943 293.285 1.00795 291.221 1.00795 288.468L0.630859 158.554C0.630859 156.042 1.44881 153.165 2.93705 150.454C4.57973 147.431 6.8428 144.978 9.30682 143.55L186.649 41.1439C189.09 39.7482 191.393 39.5501 193.127 40.5782L206.245 48.196C206.248 48.1978 206.252 48.1994 206.255 48.2012C206.464 48.323 206.534 48.5922 206.413 48.8012C206.291 49.0121 206.024 49.0816 205.813 48.9606C204.349 48.1092 202.365 48.3201 200.237 49.5478L22.9132 151.953C20.5848 153.275 18.4417 155.6 16.8332 158.52C15.4119 161.131 14.6386 163.857 14.6556 166.194L15.0157 296.11C15.0157 298.484 15.8336 300.324 17.2584 301.162C17.4659 301.285 17.5362 301.553 17.4144 301.762C17.3321 301.902 17.1865 301.98 17.0355 301.98ZM190.659 40.8086C189.577 40.8086 188.36 41.1763 187.086 41.9052L9.74506 144.31C7.42006 145.658 5.27511 147.99 3.70638 150.875C2.28843 153.459 1.50839 156.186 1.50839 158.554V158.686L1.88548 288.467C1.88548 290.894 2.68094 292.687 4.12632 293.517L14.9059 299.793C14.4052 298.776 14.1379 297.522 14.1379 296.111L13.7778 166.292C13.759 163.717 14.5717 160.84 16.0633 158.098C17.7489 155.037 20.012 152.592 22.4365 151.211L199.797 48.7874C201.065 48.057 202.297 47.6532 203.434 47.5796L192.682 41.336C192.089 40.9835 191.404 40.8086 190.659 40.8086Z" fill="#373B42"/>
<path d="M22.6924 151.573L22.6545 151.592C20.1952 152.992 18.0006 155.489 16.4491 158.308C15.068 160.843 14.1978 163.662 14.2166 166.197V166.292L1.06836 158.686V158.554C1.06836 156 1.91949 153.219 3.31966 150.665C4.85207 147.846 7.04667 145.368 9.5248 143.93L22.6924 151.573Z" fill="#F0F2F5"/>
<g opacity="0.1">
<path d="M22.1819 327.228C17.5105 329.925 17.4857 334.308 22.1268 337.005L134.457 402.284C139.098 404.981 146.664 404.981 151.336 402.284L328.708 299.878C333.392 297.174 333.404 292.798 328.763 290.101L216.433 224.822C211.792 222.125 204.238 222.118 199.554 224.822L22.1819 327.228Z" fill="black"/>
</g>
<path d="M23.0677 300.954C18.3963 303.651 18.3714 308.034 23.0126 310.731L135.343 376.01C139.984 378.707 147.55 378.707 152.221 376.01L329.594 273.604C334.277 270.9 334.289 266.525 329.649 263.828L217.318 198.549C212.677 195.851 205.124 195.844 200.44 198.549L23.0677 300.954Z" fill="white"/>
<path d="M143.77 378.463C140.634 378.463 137.502 377.772 135.122 376.389L22.7912 311.11C20.4147 309.729 19.1066 307.864 19.1084 305.859C19.1118 303.841 20.4388 301.965 22.8479 300.574L200.221 198.168C205.011 195.402 212.78 195.402 217.54 198.168L329.87 263.447C332.25 264.83 333.56 266.696 333.557 268.699C333.555 270.714 332.224 272.592 329.814 273.984L152.441 376.389C150.045 377.772 146.906 378.463 143.77 378.463ZM23.2867 301.334C21.1606 302.562 19.9896 304.169 19.9862 305.86C19.9844 307.539 21.1368 309.134 23.2336 310.351L135.564 375.63C140.08 378.255 147.455 378.255 152.002 375.63L329.375 273.224C331.502 271.994 332.677 270.388 332.678 268.698C332.682 267.021 331.526 265.427 329.428 264.207L217.097 198.928C212.581 196.303 205.207 196.303 200.66 198.928L23.2867 301.334Z" fill="#373B42"/>
<path d="M22.6456 151.576C17.9741 154.273 14.1909 160.825 14.2061 166.193L14.5743 296.113C14.5895 301.481 18.3975 303.651 23.0689 300.954L200.441 198.548C205.125 195.844 208.896 189.298 208.88 183.931L208.512 54.0105C208.497 48.6426 204.702 46.4655 200.018 49.17L22.6456 151.576Z" fill="#373B42"/>
<path d="M19.2741 302.557C18.3892 302.557 17.5697 302.349 16.8427 301.931C15.1041 300.93 14.144 298.865 14.1354 296.114L13.7666 166.194C13.7512 160.69 17.6348 153.962 22.4254 151.196L199.798 48.79C202.211 47.3968 204.501 47.1878 206.247 48.1889C207.982 49.1885 208.942 51.2556 208.951 54.0099L209.319 183.93C209.335 189.435 205.451 196.163 200.661 198.928L23.2877 301.334C21.8818 302.147 20.5153 302.557 19.2741 302.557ZM22.8644 151.956C18.3174 154.582 14.6293 160.968 14.6447 166.192L15.0134 296.113C15.0202 298.536 15.8261 300.333 17.2802 301.17C18.7428 302.011 20.7213 301.803 22.849 300.575L200.222 198.168C204.769 195.543 208.457 189.157 208.442 183.932L208.073 54.012C208.066 51.5851 207.262 49.7872 205.808 48.9507C204.344 48.1079 202.363 48.3222 200.237 49.5499L22.8644 151.956Z" fill="#373B42"/>
<path d="M19.2732 290.66C18.4605 290.66 18.3933 288.981 18.3915 288.467L18.0225 166.182C18.0113 162.178 21.063 156.897 24.5527 154.882L201.925 52.4762C202.943 51.889 203.588 51.8255 203.817 51.8255C204.645 51.8255 204.692 53.6542 204.694 54.0206L205.061 176.307C205.072 180.312 202.02 185.592 198.531 187.606L21.1581 290.012C20.1458 290.597 19.5026 290.66 19.2732 290.66Z" fill="white"/>
<path d="M19.273 291.099C18.4276 291.099 17.958 290.165 17.9527 288.47L17.584 166.184C17.572 162.044 20.7251 156.585 24.3327 154.502L201.706 52.0965C202.775 51.4792 203.489 51.3867 203.818 51.3867C204.994 51.3867 205.13 53.2272 205.133 54.0196L205.5 176.306C205.51 180.448 202.355 185.906 198.75 187.987L21.3784 290.392C20.312 291.007 19.6022 291.099 19.273 291.099ZM203.818 52.2645C203.665 52.2645 203.098 52.3074 202.144 52.8569L24.7717 155.261C21.3991 157.21 18.4501 162.313 18.4621 166.181L18.8308 288.466C18.8342 289.596 19.0947 290.221 19.2732 290.221C19.424 290.221 19.9916 290.178 20.9397 289.632L198.311 187.226C201.683 185.281 204.632 180.178 204.622 176.308L204.255 54.0224C204.25 52.9494 203.993 52.2645 203.818 52.2645Z" fill="#373B42"/>
<path d="M14.537 286.09C14.4615 286.09 14.3863 286.072 14.3175 286.031L1.18392 278.415C0.973033 278.293 0.902724 278.025 1.0245 277.815C1.14445 277.604 1.41545 277.535 1.62294 277.656L14.7566 285.272C14.9675 285.394 15.0377 285.662 14.916 285.872C14.8355 286.013 14.6881 286.09 14.537 286.09Z" fill="#373B42"/>
<path d="M333.173 285.366C333.193 287.141 332.028 288.916 329.661 290.272L152.285 392.685C151.54 393.124 150.72 393.467 149.861 393.754C147.894 394.422 145.661 394.727 143.427 394.689H143.408C141.271 394.651 139.171 394.288 137.338 393.601C136.65 393.334 136.002 393.028 135.41 392.685L23.0892 327.419C20.7793 326.064 19.6154 324.307 19.6154 322.532L19.5391 305.886C19.5581 307.623 20.7223 309.38 23.0129 310.735L135.333 376.001C135.944 376.363 136.613 376.669 137.338 376.936C139.17 377.623 141.289 377.986 143.408 378.024V378.005C145.642 378.043 147.894 377.738 149.86 377.051C150.7 376.764 151.502 376.421 152.227 376.001L329.603 273.588C331.932 272.251 333.116 270.438 333.116 268.682L333.173 285.366Z" fill="#BEC4CD"/>
<path d="M29.4459 331.542C29.2041 331.542 29.0068 331.346 29.0068 331.103V314.476C29.0068 314.234 29.2041 314.037 29.4459 314.037C29.6876 314.037 29.8849 314.234 29.8849 314.476V331.103C29.8849 331.346 29.6876 331.542 29.4459 331.542Z" fill="#373B42"/>
<path d="M159.502 388.962C159.26 388.962 159.062 388.765 159.062 388.523V371.801C159.062 371.559 159.26 371.362 159.502 371.362C159.743 371.362 159.941 371.559 159.941 371.801V388.523C159.941 388.765 159.743 388.962 159.502 388.962Z" fill="#373B42"/>
<path d="M149.861 377.051V393.754C147.894 394.422 145.661 394.727 143.427 394.689H143.408C141.271 394.651 139.171 394.288 137.338 393.601V376.936C139.17 377.623 141.289 377.986 143.408 378.024V378.005C145.642 378.043 147.894 377.738 149.861 377.051Z" fill="#F0F2F5"/>
<path d="M143.826 395.132C143.692 395.132 143.556 395.131 143.419 395.128C140.271 395.067 137.357 394.334 135.189 393.064L22.8692 327.798C20.4877 326.4 19.1777 324.53 19.1777 322.532L19.1006 305.888C19.0988 305.646 19.2942 305.449 19.5362 305.447C19.5381 305.447 19.5381 305.447 19.5396 305.447C19.7798 305.447 19.9752 305.641 19.9786 305.881C19.9959 307.535 21.153 309.125 23.2363 310.357L135.557 375.621C137.607 376.813 140.352 377.508 143.298 377.583C143.336 377.571 143.332 377.569 143.418 377.566C146.718 377.631 149.74 376.933 152.01 375.62L329.386 273.208C331.478 272.007 332.678 270.357 332.678 268.682C332.678 268.44 332.873 268.243 333.117 268.243C333.359 268.243 333.556 268.438 333.556 268.68L333.613 285.363C333.635 287.384 332.31 289.262 329.88 290.652L152.505 393.064C150.207 394.403 147.138 395.132 143.826 395.132ZM19.9904 308.605L20.0555 322.53C20.0555 324.206 21.2129 325.808 23.3131 327.04L135.632 392.305C137.672 393.501 140.438 394.192 143.417 394.25C146.763 394.314 149.809 393.619 152.064 392.306L329.442 289.892C331.585 288.665 332.753 287.059 332.734 285.371C332.734 285.37 332.734 285.368 332.734 285.367L332.686 271.406C332.05 272.37 331.078 273.248 329.822 273.969L152.448 376.38C150.068 377.756 146.86 378.482 143.524 378.446C143.484 378.458 143.455 378.475 143.4 378.464C140.262 378.402 137.32 377.662 135.114 376.38L22.7918 311.115C21.5625 310.386 20.616 309.534 19.9904 308.605Z" fill="#373B42"/>
<path d="M166.645 311.749C163.535 313.545 163.519 316.453 166.609 318.249L194.337 334.363C197.428 336.159 202.449 336.159 205.56 334.363L257.509 304.37C260.636 302.565 260.653 299.656 257.562 297.86L229.834 281.746C226.743 279.95 221.722 279.95 218.594 281.756L166.645 311.749Z" fill="#DBDEE4"/>
<path d="M155.261 242.573C154.136 243.222 154.14 244.271 155.247 244.915L166.062 251.2C167.179 251.849 168.98 251.849 170.105 251.2L182.794 243.873C183.919 243.224 183.925 242.18 182.807 241.531L171.993 235.246C170.886 234.603 169.075 234.597 167.95 235.246L155.261 242.573Z" fill="#DBDEE4"/>
<path d="M178.322 229.259C177.198 229.908 177.201 230.957 178.309 231.601L189.123 237.886C190.24 238.535 192.042 238.535 193.166 237.886L205.856 230.559C206.981 229.91 206.986 228.866 205.869 228.217L195.055 221.933C193.947 221.289 192.136 221.283 191.012 221.933L178.322 229.259Z" fill="#DBDEE4"/>
<path d="M222.411 228.165C221.287 228.814 221.29 229.863 222.398 230.507L233.212 236.792C234.329 237.441 236.131 237.441 237.255 236.792L249.945 229.465C251.069 228.816 251.075 227.773 249.958 227.124L239.143 220.839C238.036 220.196 236.225 220.19 235.101 220.839L222.411 228.165Z" fill="#DBDEE4"/>
<path d="M201.382 215.945C200.257 216.594 200.261 217.643 201.368 218.287L212.183 224.572C213.3 225.221 215.101 225.221 216.226 224.572L228.916 217.245C230.04 216.596 230.046 215.553 228.929 214.903L218.114 208.619C217.007 207.975 215.196 207.969 214.071 208.619L201.382 215.945Z" fill="#DBDEE4"/>
<path d="M199.349 241.479C198.225 242.128 198.229 243.177 199.336 243.821L210.151 250.106C211.268 250.755 213.069 250.755 214.194 250.106L226.883 242.779C228.008 242.13 228.013 241.087 226.896 240.438L216.082 234.153C214.974 233.509 213.163 233.504 212.039 234.153L199.349 241.479Z" fill="#DBDEE4"/>
<path d="M197.318 267.013C196.194 267.662 196.198 268.712 197.305 269.355L208.12 275.64C209.227 276.283 211.038 276.289 212.162 275.64L224.852 268.313C225.976 267.664 225.972 266.615 224.865 265.972L214.051 259.687C212.943 259.043 211.132 259.037 210.008 259.687L197.318 267.013Z" fill="#DBDEE4"/>
<path d="M176.289 254.793C175.164 255.442 175.168 256.491 176.276 257.135L187.09 263.42C188.207 264.069 190.009 264.069 191.133 263.42L203.823 256.093C204.947 255.444 204.953 254.401 203.836 253.752L193.021 247.467C191.914 246.823 190.103 246.818 188.979 247.467L176.289 254.793Z" fill="#DBDEE4"/>
<path d="M63.0087 295.835C61.8944 296.478 61.8881 297.533 62.9954 298.176L73.81 304.461C74.9272 305.11 76.7387 305.105 77.8529 304.461L90.5528 297.129C91.6772 296.48 91.683 295.436 90.5658 294.787L79.7512 288.503C78.644 287.859 76.833 287.853 75.7085 288.503L63.0087 295.835Z" fill="#DBDEE4"/>
<path d="M39.9482 309.149C38.8339 309.792 38.8276 310.847 39.9348 311.49L50.7494 317.775C51.8666 318.424 53.6778 318.419 54.7924 317.775L67.4922 310.443C68.6167 309.794 68.6224 308.75 67.5053 308.101L56.6907 301.816C55.5834 301.173 53.7724 301.167 52.648 301.816L39.9482 309.149Z" fill="#DBDEE4"/>
<path d="M84.036 308.055C82.9217 308.698 82.9155 309.753 84.0227 310.397L94.8373 316.682C95.9545 317.331 97.766 317.325 98.8803 316.682L111.58 309.349C112.705 308.7 112.71 307.657 111.593 307.008L100.779 300.723C99.6713 300.079 97.8603 300.074 96.7359 300.723L84.036 308.055Z" fill="#DBDEE4"/>
<path d="M60.9765 321.369C59.8622 322.012 59.8559 323.067 60.9631 323.711L71.7778 329.995C72.8949 330.645 74.7062 330.639 75.8207 329.995L88.5205 322.663C89.645 322.014 89.6508 320.971 88.5336 320.322L77.719 314.037C76.6117 313.393 74.8008 313.388 73.6763 314.037L60.9765 321.369Z" fill="#DBDEE4"/>
<path d="M86.0692 282.521C84.955 283.164 84.9487 284.219 86.0559 284.862L96.8706 291.147C97.9877 291.796 99.7989 291.791 100.913 291.147L113.613 283.815C114.738 283.166 114.744 282.122 113.626 281.473L102.812 275.188C101.705 274.545 99.8935 274.539 98.7691 275.188L86.0692 282.521Z" fill="#DBDEE4"/>
<path d="M82.0047 333.589C80.8904 334.232 80.8844 335.287 81.9916 335.931L92.8062 342.216C93.9134 342.859 95.7344 342.859 96.8489 342.216L109.549 334.883C110.673 334.234 110.669 333.185 109.562 332.542L98.7474 326.257C97.6402 325.613 95.829 325.607 94.7045 326.257L82.0047 333.589Z" fill="#DBDEE4"/>
<path d="M105.066 320.275C103.952 320.918 103.946 321.973 105.053 322.617L115.868 328.902C116.975 329.545 118.796 329.545 119.91 328.902L132.61 321.569C133.735 320.92 133.731 319.871 132.624 319.228L121.809 312.943C120.702 312.299 118.89 312.293 117.766 312.943L105.066 320.275Z" fill="#DBDEE4"/>
<path d="M128.127 306.961C127.012 307.605 127.006 308.66 128.114 309.303L138.928 315.588C140.036 316.231 141.856 316.231 142.971 315.588L201.792 281.628C202.916 280.978 202.912 279.93 201.805 279.286L190.99 273.001C189.883 272.358 188.072 272.352 186.947 273.001L128.127 306.961Z" fill="#DBDEE4"/>
<path d="M130.157 281.427C129.043 282.07 129.037 283.125 130.144 283.769L140.958 290.053C142.076 290.703 143.887 290.697 145.001 290.053L157.701 282.721C158.825 282.072 158.831 281.029 157.714 280.38L146.9 274.095C145.792 273.451 143.981 273.446 142.857 274.095L130.157 281.427Z" fill="#DBDEE4"/>
<path d="M107.097 294.741C105.982 295.384 105.976 296.439 107.083 297.083L117.898 303.367C119.015 304.017 120.826 304.011 121.941 303.367L134.641 296.035C135.765 295.386 135.771 294.343 134.654 293.693L123.839 287.409C122.732 286.765 120.921 286.76 119.797 287.409L107.097 294.741Z" fill="#DBDEE4"/>
<path d="M153.229 268.107C152.105 268.756 152.109 269.805 153.216 270.449L164.031 276.734C165.148 277.383 166.949 277.383 168.074 276.734L180.763 269.407C181.887 268.758 181.893 267.715 180.776 267.066L169.962 260.781C168.854 260.137 167.043 260.132 165.919 260.781L153.229 268.107Z" fill="#DBDEE4"/>
<path d="M132.201 255.887C131.077 256.536 131.08 257.585 132.188 258.229L143.002 264.513C144.119 265.163 145.921 265.163 147.045 264.513L159.735 257.187C160.859 256.538 160.865 255.494 159.748 254.845L148.933 248.56C147.826 247.917 146.015 247.911 144.891 248.56L132.201 255.887Z" fill="#DBDEE4"/>
<path d="M109.131 269.207C108.016 269.85 108.01 270.905 109.117 271.548L119.932 277.833C121.049 278.482 122.86 278.477 123.975 277.833L136.675 270.501C137.799 269.852 137.805 268.808 136.688 268.159L125.873 261.874C124.766 261.231 122.955 261.225 121.831 261.874L109.131 269.207Z" fill="#DBDEE4"/>
<path d="M243.438 240.385C242.314 241.035 242.318 242.084 243.425 242.727L254.24 249.012C255.347 249.655 257.158 249.661 258.282 249.012L270.972 241.686C272.096 241.036 272.093 239.987 270.986 239.344L260.171 233.059C259.064 232.416 257.252 232.41 256.128 233.059L243.438 240.385Z" fill="#DBDEE4"/>
<path d="M220.377 253.699C219.253 254.348 219.257 255.398 220.364 256.041L231.179 262.326C232.286 262.969 234.097 262.975 235.222 262.326L247.911 254.999C249.036 254.35 249.032 253.301 247.925 252.658L237.11 246.373C236.003 245.729 234.192 245.723 233.067 246.373L220.377 253.699Z" fill="#DBDEE4"/>
<path d="M189.166 55.8763C189.091 55.8763 189.015 55.8575 188.945 55.8173L175.793 48.1814C175.584 48.0596 175.513 47.7904 175.635 47.5814C175.755 47.3697 176.024 47.3002 176.235 47.422L189.387 55.0578C189.596 55.1796 189.667 55.4488 189.545 55.6578C189.464 55.7982 189.317 55.8763 189.166 55.8763Z" fill="#373B42"/>
<path d="M14.2326 190.319C14.1571 190.319 14.0818 190.301 14.0115 190.259L0.859102 182.586C0.650043 182.464 0.579485 182.195 0.701262 181.986C0.821209 181.776 1.09038 181.705 1.30127 181.828L14.4537 189.502C14.6628 189.623 14.7331 189.892 14.6116 190.102C14.5311 190.242 14.3837 190.319 14.2326 190.319Z" fill="#373B42"/>
<path d="M17.0355 301.98C16.96 301.98 16.8847 301.961 16.8144 301.919L3.68599 294.278C1.95943 293.285 1.00795 291.221 1.00795 288.468L0.630859 158.554C0.630859 156.042 1.44881 153.165 2.93705 150.454C4.57973 147.431 6.8428 144.978 9.30682 143.55L186.649 41.1439C189.09 39.7482 191.393 39.5501 193.127 40.5782L206.245 48.196C206.248 48.1978 206.252 48.1994 206.255 48.2012C206.464 48.323 206.534 48.5922 206.413 48.8012C206.291 49.0121 206.024 49.0816 205.813 48.9606C204.349 48.1092 202.365 48.3201 200.237 49.5478L22.9132 151.953C20.5848 153.275 18.4417 155.6 16.8332 158.52C15.4119 161.131 14.6386 163.857 14.6556 166.194L15.0157 296.11C15.0157 298.484 15.8336 300.324 17.2584 301.162C17.4659 301.285 17.5362 301.553 17.4144 301.762C17.3321 301.902 17.1865 301.98 17.0355 301.98ZM190.659 40.8086C189.577 40.8086 188.36 41.1763 187.086 41.9052L9.74506 144.31C7.42006 145.658 5.27511 147.99 3.70638 150.875C2.28843 153.459 1.50839 156.186 1.50839 158.554V158.686L1.88548 288.467C1.88548 290.894 2.68094 292.687 4.12632 293.517L14.9059 299.793C14.4052 298.776 14.1379 297.522 14.1379 296.111L13.7778 166.292C13.759 163.717 14.5717 160.84 16.0633 158.098C17.7489 155.037 20.012 152.592 22.4365 151.211L199.797 48.7874C201.065 48.057 202.297 47.6532 203.434 47.5796L192.682 41.336C192.089 40.9835 191.404 40.8086 190.659 40.8086Z" fill="#373B42"/>
<path d="M186.221 20.8351C184.614 19.8925 182.388 20.0315 179.931 21.4377L58.5182 91.5473C57.3901 92.1964 56.3239 93.0616 55.3348 94.0816C52.847 96.6313 50.8999 100.139 50.1117 103.554C49.8491 104.651 49.7101 105.748 49.7101 106.799L49.9884 279.584C49.9884 282.38 50.9926 284.328 52.5689 285.255L42.6948 279.537C41.1185 278.61 40.1297 276.648 40.1142 273.851L39.8359 101.051C39.8359 100.015 39.9598 98.9339 40.2222 97.8366C41.0103 94.4216 42.9418 90.9292 45.4455 88.3638C46.419 87.3439 47.516 86.4632 48.6441 85.8141L170.057 15.7199C172.515 14.2983 174.74 14.1747 176.347 15.0865L186.221 20.8351Z" fill="#DBDEE4"/>
<path d="M55.3346 94.0816C52.8468 96.6313 50.8996 100.139 50.1115 103.554L40.2217 97.8366C41.0098 94.4216 42.9413 90.9292 45.445 88.3638L55.3346 94.0816Z" fill="#F0F2F5"/>
<path d="M52.5687 285.694C52.4932 285.694 52.4179 285.675 52.3492 285.634L42.4751 279.917C40.6834 278.864 39.6907 276.71 39.6752 273.853L39.3975 101.052C39.3975 99.9543 39.5313 98.839 39.7952 97.7349C40.6027 94.2329 42.5472 90.7042 45.1309 88.057C46.1409 87.0008 47.2811 86.0921 48.4246 85.4336L169.837 15.34C172.34 13.8912 174.732 13.6649 176.562 14.7047L186.409 20.4373C186.421 20.4434 186.431 20.4501 186.443 20.4562C186.65 20.5787 186.721 20.8479 186.599 21.0562C186.474 21.2652 186.208 21.3366 185.999 21.214L185.973 21.1994C184.449 20.3197 182.383 20.5419 180.149 21.8184L58.7378 91.927C57.6815 92.5356 56.6425 93.363 55.6497 94.3873C53.2116 96.8856 51.3016 100.348 50.5385 103.653C50.2795 104.737 50.1494 105.794 50.1494 106.799L50.4272 279.583C50.4272 282.1 51.2673 283.98 52.7916 284.877C52.9991 284.999 53.0694 285.267 52.9476 285.476C52.8671 285.616 52.7195 285.694 52.5687 285.694ZM174.033 14.9399C172.889 14.9399 171.608 15.329 170.276 16.0999L48.8634 86.194C47.7901 86.8121 46.7169 87.6669 45.7617 88.6672C43.3202 91.1678 41.4102 94.6322 40.6489 97.9353C40.4004 98.9762 40.2753 100.023 40.2753 101.051L40.553 273.849C40.5669 276.383 41.4068 278.27 42.9175 279.159L50.3673 283.472C49.8306 282.412 49.5494 281.096 49.5494 279.583L49.2716 106.8C49.2716 105.725 49.4103 104.599 49.6847 103.452C50.482 100 52.4762 96.3818 55.0205 93.7748C56.0697 92.6929 57.1722 91.8151 58.2988 91.166L179.711 21.0577C181.059 20.2853 182.367 19.8645 183.569 19.7992L176.124 15.4649C175.505 15.1139 174.799 14.9399 174.033 14.9399Z" fill="#373B42"/>
<path d="M49.7576 124.791C49.6821 124.791 49.6068 124.772 49.5381 124.732L39.6639 119.015C39.4531 118.893 39.3828 118.625 39.5027 118.415C39.6261 118.205 39.8955 118.134 40.1027 118.255L49.9768 123.973C50.1877 124.094 50.258 124.363 50.1381 124.573C50.0558 124.712 49.9084 124.791 49.7576 124.791Z" fill="#373B42"/>
<path d="M49.9729 272.702C49.8974 272.702 49.8221 272.683 49.7518 272.643L39.8777 266.91C39.6686 266.788 39.598 266.519 39.7198 266.31C39.8398 266.098 40.1089 266.029 40.3198 266.15L50.194 271.884C50.403 272.006 50.4736 272.275 50.3518 272.484C50.2713 272.624 50.1239 272.702 49.9729 272.702Z" fill="#373B42"/>
<path d="M173.395 25.6458C173.319 25.6458 173.244 25.627 173.175 25.5868L163.317 19.8685C163.106 19.7467 163.036 19.4783 163.157 19.2685C163.277 19.0576 163.548 18.9881 163.756 19.1091L173.614 24.8271C173.825 24.9489 173.896 25.2172 173.774 25.4271C173.693 25.5677 173.546 25.6458 173.395 25.6458Z" fill="#373B42"/>
<path d="M188.802 26.493C188.786 20.8905 184.807 18.6358 179.931 21.4508L58.5217 91.546C53.6347 94.3675 49.6921 101.196 49.7081 106.798L49.758 124.325L188.852 44.0192L188.802 26.493Z" fill="#3571F7"/>
<path d="M49.7573 124.764C49.6818 124.764 49.6065 124.744 49.5378 124.705C49.4024 124.627 49.3183 124.482 49.3183 124.326L49.2686 106.799C49.2532 101.065 53.3048 94.0513 58.3028 91.1665L179.712 21.0713C182.226 19.6207 184.612 19.3996 186.43 20.4473C188.235 21.4863 189.233 23.6328 189.241 26.4919L189.291 44.0184C189.291 44.1752 189.207 44.321 189.071 44.3992L49.9765 124.705C49.9081 124.744 49.8325 124.764 49.7573 124.764ZM183.897 20.6741C182.757 20.6741 181.481 21.0624 180.151 21.8307L58.7416 91.9259C53.9871 94.6709 50.131 101.342 50.1464 106.797L50.1945 123.566L188.413 43.7663L188.364 26.4935C188.357 23.961 187.515 22.0837 185.992 21.2074C185.373 20.8507 184.665 20.6741 183.897 20.6741Z" fill="#373B42"/>
<path d="M49.7578 124.325L49.9935 279.59C50.0095 285.206 53.9774 287.467 58.8647 284.645L180.274 214.55C185.149 211.735 189.103 204.9 189.087 199.284L188.852 44.0195L49.7578 124.325Z" fill="white"/>
<path d="M54.8924 286.303C53.9752 286.303 53.123 286.087 52.3685 285.653C50.5615 284.614 49.5635 282.461 49.5549 279.591L49.3184 124.325C49.3184 124.169 49.4025 124.023 49.5379 123.945L188.633 43.639C188.77 43.5601 188.935 43.5609 189.072 43.6382C189.207 43.7171 189.291 43.8611 189.291 44.0179L189.526 199.283C189.544 205.025 185.492 212.044 180.494 214.929L59.0848 285.025C57.6151 285.875 56.1886 286.303 54.8924 286.303ZM50.1961 124.578L50.4327 279.589C50.4394 282.132 51.283 284.016 52.8057 284.893C54.3436 285.777 56.4149 285.553 58.6455 284.266L180.055 214.17C184.809 211.424 188.665 204.748 188.648 199.286L188.415 44.7789L50.1961 124.578Z" fill="#373B42"/>
<path d="M59.3168 100.968C61.5216 99.6948 63.2952 100.705 63.3022 103.238C63.3093 105.75 61.5474 108.824 59.3426 110.097C57.1381 111.37 55.3645 110.337 55.3574 107.825C55.3501 105.292 57.112 102.24 59.3168 100.968Z" fill="white"/>
<path d="M75.903 91.391C78.0889 90.1291 79.8811 91.1286 79.8884 93.6619C79.8955 96.174 78.1148 99.2582 75.9288 100.52C73.724 101.793 71.9507 100.761 71.9434 98.2489C71.9363 95.7154 73.6984 92.6639 75.903 91.391Z" fill="white"/>
<path d="M92.4905 81.8038C94.6814 80.539 96.4592 81.5516 96.4663 84.0912C96.4733 86.6093 94.7073 89.69 92.5164 90.9551C90.3061 92.2312 88.5286 91.1963 88.5215 88.6782C88.5144 86.1386 90.2805 83.0799 92.4905 81.8038Z" fill="white"/>
<path d="M309.921 301.343C309.68 301.343 309.482 301.146 309.482 300.904V285.309C309.482 285.066 309.68 284.87 309.921 284.87C310.163 284.87 310.36 285.066 310.36 285.309V300.904C310.36 301.146 310.163 301.343 309.921 301.343Z" fill="#373B42"/>
<path d="M61.0776 194.073C60.8547 194.073 60.6302 194.015 60.4261 193.897C60.0179 193.662 59.7712 193.241 59.7694 192.769L59.7266 177.276C59.7266 177.119 59.8104 176.974 59.9461 176.896L178.228 108.6C178.365 108.521 178.53 108.522 178.667 108.599C178.802 108.677 178.886 108.822 178.886 108.979L178.929 124.053C178.933 125.391 178.216 126.638 177.057 127.307L61.7312 193.896C61.5268 194.014 61.3023 194.073 61.0776 194.073ZM60.6046 177.528L60.6475 192.765C60.6493 192.988 60.8001 193.099 60.8636 193.136C60.9287 193.173 61.1001 193.247 61.2921 193.136L176.618 126.546C177.504 126.034 178.055 125.08 178.051 124.055L178.01 109.738L60.6046 177.528Z" fill="#DBDEE4"/>
<path d="M60.1658 177.714C60.0903 177.714 60.015 177.694 59.9463 177.656C59.8109 177.578 59.7268 177.433 59.7268 177.276L59.6787 160.287C59.6787 160.13 59.7626 159.984 59.8982 159.906L178.18 91.6105C178.317 91.5316 178.482 91.5327 178.619 91.6097C178.754 91.6876 178.839 91.8327 178.839 91.9895L178.887 108.978C178.887 109.135 178.803 109.281 178.667 109.359L60.3853 177.655C60.3166 177.694 60.2413 177.714 60.1658 177.714ZM60.5568 160.539L60.603 176.517L178.009 108.726L177.962 92.7491L60.5568 160.539Z" fill="#BEC4CD"/>
<path d="M60.1176 160.725C60.0421 160.725 59.9669 160.705 59.8981 160.667C59.7628 160.589 59.6786 160.444 59.6786 160.287L59.6358 145.213C59.6324 143.875 60.3489 142.629 61.5082 141.959L176.834 75.37C177.242 75.1335 177.732 75.1343 178.14 75.3693C178.549 75.605 178.794 76.0267 178.795 76.4982L178.838 91.9895C178.838 92.1463 178.754 92.2921 178.619 92.3702L60.3372 160.666C60.2687 160.705 60.1932 160.725 60.1176 160.725ZM177.486 76.0714C177.422 76.0714 177.348 76.0861 177.273 76.1297L61.9472 142.719C61.0608 143.231 60.5104 144.186 60.5138 145.211L60.5548 159.528L177.96 91.7376L177.918 76.5C177.918 76.2771 177.767 76.1673 177.703 76.1297C177.664 76.1072 177.585 76.0714 177.486 76.0714Z" fill="#BEC4CD"/>
<path d="M61.0814 194.069C60.8569 194.069 60.6337 194.01 60.4299 193.893C60.0202 193.658 59.7766 193.236 59.775 192.764L59.6397 145.209C59.6363 143.873 60.3528 142.626 61.5121 141.956L74.6371 134.377C74.7742 134.298 74.9389 134.299 75.0761 134.377C75.2114 134.455 75.2956 134.599 75.2956 134.756L75.4414 185.725C75.4414 185.881 75.3575 186.027 75.2219 186.105L61.735 193.892C61.5306 194.01 61.3061 194.069 61.0814 194.069ZM74.4191 135.516L61.9508 142.716C61.0644 143.229 60.5141 144.183 60.5175 145.207L60.6528 192.762C60.6528 192.985 60.8036 193.095 60.8671 193.132C60.9306 193.169 61.1039 193.243 61.2957 193.132L74.5631 185.472L74.4191 135.516Z" fill="#BEC4CD"/>
<path d="M148.92 143.483C148.844 143.483 148.769 143.464 148.7 143.425C148.565 143.347 148.481 143.202 148.481 143.045L148.337 92.077C148.337 91.9202 148.421 91.7744 148.556 91.6963L163.341 83.1604C163.479 83.0815 163.643 83.0822 163.78 83.1596C163.916 83.2377 164 83.3825 164 83.5393L164.144 134.507C164.144 134.664 164.06 134.81 163.924 134.887L149.14 143.424C149.071 143.464 148.995 143.483 148.92 143.483ZM149.215 92.3289L149.357 142.286L163.266 134.255L163.124 84.299L149.215 92.3289Z" fill="#BEC4CD"/>
<path d="M134.138 152.019C134.062 152.019 133.987 152 133.918 151.961C133.783 151.883 133.699 151.738 133.699 151.581L133.553 100.613C133.553 100.456 133.637 100.31 133.772 100.232L148.557 91.6965C148.694 91.6176 148.859 91.6184 148.996 91.6957C149.131 91.7736 149.215 91.9186 149.215 92.0754L149.359 143.044C149.359 143.201 149.276 143.346 149.14 143.425L134.357 151.96C134.289 152 134.213 152.019 134.138 152.019ZM134.431 100.865L134.575 150.822L148.482 142.792L148.339 92.8348L134.431 100.865Z" fill="#BEC4CD"/>
<path d="M119.354 160.555C119.278 160.555 119.202 160.536 119.134 160.497C118.999 160.419 118.915 160.274 118.915 160.117L118.771 109.15C118.771 108.993 118.855 108.847 118.99 108.769L133.773 100.232C133.91 100.153 134.075 100.154 134.212 100.231C134.348 100.31 134.432 100.454 134.432 100.611L134.577 151.579C134.577 151.736 134.493 151.882 134.358 151.96L119.573 160.496C119.504 160.536 119.429 160.555 119.354 160.555ZM119.649 109.402L119.791 159.357L133.7 151.327L133.556 101.37L119.649 109.402Z" fill="#BEC4CD"/>
<path d="M104.569 169.091C104.494 169.091 104.418 169.072 104.35 169.033C104.214 168.955 104.13 168.81 104.13 168.653L103.984 117.686C103.984 117.529 104.069 117.383 104.204 117.305L118.989 108.769C119.126 108.69 119.29 108.691 119.428 108.769C119.563 108.847 119.647 108.991 119.647 109.148L119.791 160.116C119.791 160.273 119.707 160.418 119.572 160.497L104.788 169.032C104.72 169.072 104.645 169.091 104.569 169.091ZM104.862 117.938L105.006 167.894L118.913 159.863L118.771 109.908L104.862 117.938Z" fill="#BEC4CD"/>
<path d="M89.7852 177.628C89.7096 177.628 89.6344 177.608 89.5656 177.57C89.4303 177.492 89.3461 177.347 89.3461 177.19L89.2021 126.222C89.2021 126.065 89.286 125.919 89.4217 125.841L104.205 117.305C104.342 117.226 104.507 117.227 104.644 117.304C104.779 117.383 104.863 117.527 104.863 117.684L105.009 168.652C105.009 168.809 104.925 168.954 104.79 169.032L90.0047 177.569C89.9359 177.609 89.8604 177.628 89.7852 177.628ZM90.0799 126.474L90.2224 176.431L104.131 168.4L103.987 118.444L90.0799 126.474Z" fill="#BEC4CD"/>
<path d="M75.0018 186.164C74.9263 186.164 74.8511 186.144 74.7823 186.106C74.647 186.028 74.5628 185.883 74.5628 185.726L74.417 134.758C74.417 134.601 74.5011 134.455 74.6365 134.377L89.4212 125.841C89.5584 125.762 89.723 125.763 89.8602 125.841C89.9956 125.919 90.0797 126.063 90.0797 126.22L90.2237 177.189C90.2237 177.345 90.1396 177.491 90.0042 177.569L75.2211 186.105C75.1526 186.144 75.0771 186.164 75.0018 186.164ZM75.295 135.01L75.439 184.967L89.3459 176.936L89.2035 126.98L75.295 135.01Z" fill="#BEC4CD"/>
<path d="M163.706 134.946C163.631 134.946 163.555 134.927 163.487 134.888C163.351 134.81 163.267 134.665 163.267 134.508L163.123 83.5411C163.123 83.3843 163.207 83.2385 163.343 83.1604L176.828 75.3737C177.236 75.1372 177.725 75.138 178.132 75.3729C178.542 75.6079 178.786 76.0296 178.787 76.5018L178.923 124.057C178.926 125.393 178.21 126.639 177.05 127.309L163.925 134.887C163.857 134.927 163.782 134.946 163.706 134.946ZM164.001 83.7931L164.143 133.749L176.612 126.549C177.498 126.037 178.048 125.083 178.045 124.058L177.91 76.5034C177.91 76.2805 177.759 76.17 177.695 76.1331C177.63 76.0963 177.459 76.0218 177.267 76.1331L164.001 83.7931Z" fill="#BEC4CD"/>
<path d="M89.1696 167.193C88.2299 167.193 87.3521 166.972 86.572 166.527L74.7759 159.793C73.4779 159.059 71.693 159.27 69.7469 160.394L68.8691 158.873C71.3742 157.427 73.7815 157.211 75.6435 158.267L87.4414 165.002C88.7394 165.741 90.5259 165.532 92.4704 164.409C94.5657 163.199 96.5392 161.108 98.029 158.522L109.757 138.207C111.404 135.359 113.609 133.042 115.965 131.68C118.472 130.234 120.872 130.02 122.736 131.079L134.539 137.806C135.836 138.551 137.62 138.34 139.565 137.217C141.66 136.008 143.635 133.916 145.127 131.327L156.856 111.013C158.499 108.167 160.702 105.85 163.058 104.49C165.561 103.042 167.97 102.827 169.832 103.884L168.968 105.411C167.665 104.674 165.88 104.887 163.936 106.011C161.842 107.219 159.867 109.307 158.375 111.891L146.648 132.204C145.005 135.055 142.802 137.376 140.442 138.737C137.934 140.187 135.527 140.396 133.668 139.331L121.865 132.605C120.574 131.868 118.789 132.078 116.843 133.201C114.749 134.41 112.772 136.5 111.276 139.086L99.5494 159.399C97.9085 162.249 95.7053 164.568 93.3476 165.93C91.8923 166.77 90.471 167.193 89.1696 167.193Z" fill="#024DF5" fill-opacity="0.8"/>
<path d="M169.384 99.7187C171.107 98.7238 172.51 99.5235 172.516 101.498C172.521 103.478 171.127 105.893 169.404 106.888C167.691 107.877 166.288 107.077 166.282 105.097C166.276 103.122 167.671 100.708 169.384 99.7187Z" fill="#373B42"/>
<path d="M140.839 133.597C142.562 132.602 143.965 133.402 143.971 135.376C143.976 137.356 142.582 139.771 140.859 140.766C139.146 141.755 137.743 140.955 137.737 138.975C137.732 137 139.126 134.586 140.839 133.597Z" fill="#373B42"/>
<path d="M116.607 128.427C118.33 127.433 119.734 128.232 119.739 130.207C119.745 132.187 118.351 134.602 116.628 135.596C114.915 136.586 113.511 135.786 113.506 133.806C113.5 131.831 114.894 129.417 116.607 128.427Z" fill="#373B42"/>
<path d="M95.2684 160.699C96.9916 159.704 98.3949 160.503 98.4004 162.478C98.4059 164.458 97.0117 166.873 95.2888 167.868C93.5758 168.857 92.1725 168.057 92.167 166.077C92.1613 164.103 93.5557 161.688 95.2684 160.699Z" fill="#373B42"/>
<path d="M69.2918 155.305C71.015 154.31 72.4183 155.109 72.4238 157.084C72.4293 159.064 71.0351 161.479 69.3122 162.474C67.5992 163.463 66.1959 162.663 66.1904 160.683C66.1847 158.709 67.5789 156.294 69.2918 155.305Z" fill="#373B42"/>
<path d="M61.2855 205.566C61.1347 205.566 60.987 205.487 60.9047 205.346C60.7848 205.136 60.8566 204.868 61.066 204.747L179.432 136.404C179.636 136.283 179.907 136.352 180.032 136.564C180.152 136.774 180.08 137.043 179.87 137.164L61.5047 205.507C61.4363 205.547 61.361 205.566 61.2855 205.566Z" fill="#BEC4CD"/>
<path d="M61.2855 216.818C61.1347 216.818 60.987 216.739 60.9047 216.599C60.7848 216.389 60.8566 216.121 61.066 216L179.432 147.656C179.636 147.535 179.907 147.604 180.032 147.816C180.152 148.026 180.08 148.295 179.87 148.415L61.5047 216.759C61.4363 216.799 61.361 216.818 61.2855 216.818Z" fill="#BEC4CD"/>
<path d="M88.4917 235.513L95.584 231.419C95.6149 242.289 87.9604 255.547 78.4903 261.014C69.01 266.488 61.3161 262.091 61.2852 251.221C61.2544 240.327 68.8984 227.087 78.3787 221.614L78.4017 229.764C72.8572 232.965 68.3593 240.755 68.3776 247.126C68.3956 253.486 72.9228 256.066 78.4673 252.864C84.0118 249.663 88.5097 241.873 88.4917 235.513Z" fill="#BEC4CD"/>
<path d="M78.3789 221.613C87.849 216.146 95.5534 220.525 95.5842 231.418L88.4916 235.513C88.4736 229.142 83.9464 226.562 78.4019 229.763L78.3789 221.613Z" fill="#F0F2F5"/>
<path d="M121.186 196.898L121.22 205.042C115.665 208.249 111.177 216.034 111.195 222.405C111.213 228.765 115.73 231.35 121.275 228.149L121.308 236.293C111.828 241.767 104.133 237.371 104.103 226.5C104.072 215.606 111.716 202.366 121.186 196.898Z" fill="#BEC4CD"/>
<path d="M121.197 196.892C130.667 191.425 138.362 195.809 138.392 206.703C138.423 217.573 130.779 230.825 121.309 236.293L121.286 228.143C126.83 224.942 131.318 217.157 131.3 210.798C131.282 204.427 126.765 201.853 121.221 205.042L121.197 196.892Z" fill="#F0F2F5"/>
<path d="M164.015 172.171C173.486 166.715 181.18 171.088 181.211 181.982C181.241 192.852 173.587 206.11 164.117 211.578C160.019 213.943 156.261 214.46 153.299 213.41L158.351 204.659C159.984 205.032 161.959 204.66 164.094 203.428C169.638 200.227 174.136 192.436 174.118 186.077C174.1 179.706 169.583 177.132 164.039 180.321L164.015 172.171Z" fill="#F0F2F5"/>
<path d="M164.005 172.177L164.038 180.321C158.483 183.528 153.986 191.318 154.004 197.69C154.015 201.608 155.745 204.079 158.351 204.659L153.299 213.41C149.423 212.038 146.929 207.958 146.911 201.785C146.88 190.891 154.525 177.65 164.005 172.177Z" fill="#BEC4CD"/>
<path d="M319.034 187.521C308.802 193.426 308.748 203.006 318.913 208.911C329.09 214.822 345.649 214.829 355.881 208.925C366.124 203.013 366.178 193.42 356.001 187.508C345.836 181.603 329.277 181.61 319.034 187.521Z" fill="black"/>
<path d="M311.282 183.158L311.324 193.594C311.335 197.44 313.863 201.281 318.913 204.214C329.09 210.125 345.648 210.132 355.88 204.228C361.035 201.253 363.609 197.346 363.599 193.445L363.557 183.009C363.568 186.91 360.994 190.818 355.839 193.792C345.607 199.697 329.048 199.69 318.871 193.779C313.821 190.845 311.293 187.005 311.282 183.158Z" fill="#BEC4CD"/>
<path d="M340.761 197.742V208.345C339.693 208.55 338.569 208.652 337.456 208.652C336.343 208.652 335.241 208.561 334.162 208.367V197.777C335.241 197.97 336.343 198.049 337.456 198.049C338.569 198.049 339.682 197.947 340.761 197.742Z" fill="#F0F2F5"/>
<path d="M337.392 209.079C330.613 209.079 323.84 207.584 318.691 204.594C313.671 201.677 310.899 197.77 310.885 193.595L310.844 183.18C310.844 183.175 310.844 183.169 310.844 183.164V183.16C310.844 183.16 310.844 183.16 310.844 183.159C310.844 182.918 311.039 182.72 311.281 182.72H311.283C311.524 182.72 311.72 182.915 311.722 183.157V183.158C311.732 187.007 314.35 190.643 319.093 193.399C329.135 199.232 345.523 199.238 355.62 193.412C360.467 190.614 363.13 186.92 363.118 183.011C363.118 182.768 363.313 182.571 363.555 182.57H363.557C363.799 182.57 363.994 182.766 363.996 183.007L364.039 193.442C364.051 197.681 361.23 201.646 356.1 204.607C350.934 207.589 344.16 209.079 337.392 209.079ZM311.737 187.176L311.763 193.592C311.775 197.443 314.393 201.081 319.133 203.835C329.177 209.669 345.565 209.672 355.661 203.848C360.508 201.05 363.171 197.356 363.16 193.445L363.135 187.017C361.94 189.71 359.527 192.171 356.059 194.172C345.72 200.142 328.937 200.131 318.65 194.159C315.284 192.202 312.929 189.803 311.737 187.176Z" fill="#373B42"/>
<path d="M319.034 172.389C308.802 178.294 308.748 187.874 318.913 193.779C329.09 199.69 345.649 199.697 355.881 193.792C366.124 187.881 366.178 178.287 356.001 172.376C345.836 166.471 329.277 166.478 319.034 172.389Z" fill="white"/>
<path d="M337.394 198.643C330.613 198.644 323.84 197.148 318.691 194.158C313.652 191.23 310.88 187.31 310.885 183.12C310.892 178.901 313.707 174.956 318.815 172.01C329.165 166.034 345.946 166.027 356.222 171.996C361.268 174.928 364.044 178.852 364.038 183.048C364.032 187.271 361.213 191.222 356.1 194.172C350.934 197.153 344.16 198.643 337.394 198.643ZM337.564 168.389C330.943 168.389 324.313 169.849 319.254 172.769C314.429 175.553 311.77 179.23 311.763 183.121C311.757 186.985 314.376 190.635 319.133 193.399C329.176 199.232 345.564 199.239 355.661 193.413C360.491 190.625 363.154 186.944 363.16 183.047C363.166 179.178 360.544 175.523 355.779 172.756C350.769 169.845 344.172 168.389 337.564 168.389Z" fill="#373B42"/>
<g opacity="0.1">
<path d="M347.626 178.232C352.536 181.067 352.562 185.678 347.665 188.524C342.786 191.359 334.826 191.359 329.915 188.524C324.986 185.678 324.96 181.067 329.839 178.232C334.736 175.386 342.696 175.386 347.626 178.232Z" fill="#373B42"/>
</g>
<path d="M351.323 132.621L351.155 178.733C351.15 180.585 349.932 182.437 347.497 183.852C342.619 186.687 334.658 186.687 329.748 183.852C327.265 182.419 326.026 180.537 326.031 178.661L326.199 132.55C326.194 134.426 327.432 136.307 329.915 137.741C334.826 140.576 342.786 140.576 347.665 137.741C350.1 136.326 351.318 134.474 351.323 132.621Z" fill="#373B42"/>
<path d="M338.634 186.41C335.34 186.41 332.043 185.685 329.528 184.232C326.985 182.764 325.588 180.785 325.593 178.66L325.761 132.548C325.763 132.306 325.958 132.111 326.2 132.111H326.202C326.443 132.111 326.641 132.309 326.639 132.551C326.632 134.347 327.873 136.056 330.135 137.361C334.922 140.125 342.687 140.125 347.443 137.361C349.655 136.076 350.876 134.395 350.885 132.627V132.62C350.886 132.378 351.082 132.183 351.324 132.183H351.325C351.567 132.183 351.763 132.381 351.763 132.622C351.763 132.623 351.763 132.623 351.763 132.623L351.595 178.734C351.589 180.83 350.211 182.782 347.718 184.232C345.218 185.684 341.927 186.41 338.634 186.41ZM326.628 135.37L326.471 178.663C326.465 180.46 327.707 182.168 329.967 183.472C334.754 186.236 342.519 186.236 347.275 183.472C349.49 182.186 350.711 180.503 350.716 178.732L350.874 135.441C350.217 136.44 349.209 137.351 347.886 138.121C342.886 141.026 334.726 141.027 329.696 138.121C328.329 137.332 327.293 136.396 326.628 135.37Z" fill="#373B42"/>
<path d="M351.323 125.666L351.155 171.777C351.15 173.63 349.932 175.481 347.497 176.896C342.619 179.731 334.658 179.731 329.748 176.896C327.265 175.463 326.026 173.582 326.031 171.705L326.199 125.594C326.194 127.471 327.432 129.352 329.915 130.785C334.826 133.62 342.786 133.62 347.665 130.785C350.1 129.37 351.318 127.518 351.323 125.666Z" fill="white"/>
<path d="M338.634 179.454C335.34 179.454 332.043 178.729 329.528 177.276C326.985 175.808 325.588 173.829 325.593 171.705L325.761 125.593C325.763 125.351 325.958 125.156 326.2 125.156H326.202C326.443 125.157 326.641 125.354 326.639 125.596C326.632 127.392 327.873 129.1 330.135 130.406C334.922 133.17 342.687 133.17 347.443 130.406C349.655 129.121 350.876 127.439 350.885 125.672V125.664C350.886 125.422 351.082 125.227 351.324 125.227H351.325C351.567 125.228 351.763 125.425 351.763 125.667C351.763 125.667 351.763 125.667 351.763 125.667L351.595 171.779C351.589 173.874 350.211 175.826 347.718 177.276C345.218 178.728 341.927 179.454 338.634 179.454ZM326.628 128.414L326.471 171.707C326.465 173.504 327.707 175.212 329.967 176.516C334.754 179.28 342.519 179.28 347.275 176.516C349.49 175.23 350.711 173.547 350.716 171.776L350.874 128.485C350.217 129.484 349.209 130.395 347.886 131.165C342.886 134.07 334.726 134.071 329.696 131.165C328.329 130.376 327.293 129.44 326.628 128.414Z" fill="#373B42"/>
<path d="M347.625 120.493C352.535 123.328 352.561 127.939 347.664 130.785C342.785 133.62 334.825 133.62 329.914 130.785C324.985 127.939 324.959 123.328 329.838 120.493C334.735 117.647 342.695 117.647 347.625 120.493Z" fill="#373B42"/>
<path d="M338.801 133.343C335.508 133.343 332.211 132.618 329.695 131.165C327.16 129.701 325.762 127.73 325.759 125.612C325.757 123.515 327.127 121.561 329.616 120.113C334.627 117.202 342.803 117.201 347.844 120.113C350.366 121.569 351.758 123.535 351.762 125.647C351.764 127.75 350.387 129.71 347.885 131.165C345.385 132.617 342.095 133.343 338.801 133.343ZM338.719 118.795C335.578 118.795 332.442 119.488 330.059 120.873C327.85 122.156 326.635 123.839 326.637 125.611C326.64 127.402 327.881 129.105 330.134 130.405C334.922 133.169 342.687 133.169 347.443 130.405C349.663 129.115 350.886 127.426 350.884 125.648C350.881 123.863 349.646 122.167 347.405 120.872C345.006 119.488 341.86 118.795 338.719 118.795Z" fill="#373B42"/>
<path d="M347.625 120.493C352.535 123.328 352.561 127.939 347.664 130.785C342.785 133.62 334.825 133.62 329.914 130.785C324.985 127.939 324.959 123.328 329.838 120.493C334.735 117.647 342.695 117.647 347.625 120.493Z" fill="#373B42"/>
<path d="M338.801 133.343C335.508 133.343 332.211 132.618 329.695 131.165C327.16 129.701 325.762 127.73 325.759 125.612C325.757 123.515 327.127 121.561 329.616 120.113C334.627 117.202 342.803 117.201 347.844 120.113C350.366 121.569 351.758 123.535 351.762 125.647C351.764 127.75 350.387 129.71 347.885 131.165C345.385 132.617 342.095 133.343 338.801 133.343ZM338.719 118.795C335.578 118.795 332.442 119.488 330.059 120.873C327.85 122.156 326.635 123.839 326.637 125.611C326.64 127.402 327.881 129.105 330.134 130.405C334.922 133.169 342.687 133.169 347.443 130.405C349.663 129.115 350.886 127.426 350.884 125.648C350.881 123.863 349.646 122.167 347.405 120.872C345.006 119.488 341.86 118.795 338.719 118.795Z" fill="#373B42"/>
<path d="M344.603 99.6312L344.525 124.708C344.522 125.576 343.951 126.444 342.81 127.108C340.523 128.437 336.792 128.437 334.49 127.108C333.326 126.436 332.746 125.554 332.748 124.675L332.827 99.5977C332.824 100.477 333.405 101.359 334.569 102.031C336.87 103.36 340.602 103.36 342.889 102.031C344.03 101.367 344.601 100.5 344.603 99.6312Z" fill="white"/>
<path d="M338.655 128.536C337.069 128.536 335.482 128.187 334.271 127.487C333.004 126.756 332.308 125.756 332.31 124.674L332.388 99.5969C332.388 99.5969 332.388 99.5961 332.388 99.5951C332.39 99.3534 332.586 99.1579 332.828 99.1579H332.829C333.071 99.1587 333.267 99.356 333.267 99.5985C333.263 100.353 333.805 101.082 334.789 101.651C336.97 102.909 340.504 102.909 342.667 101.651C343.629 101.093 344.161 100.376 344.164 99.6346V99.6293C344.164 99.3876 344.362 99.1921 344.603 99.1921C344.603 99.1921 344.603 99.1921 344.605 99.1921C344.847 99.1929 345.042 99.3894 345.042 99.6319C345.042 99.6319 345.042 99.6319 345.042 99.6327L344.965 124.709C344.962 125.777 344.274 126.764 343.031 127.487C341.827 128.187 340.241 128.536 338.655 128.536ZM333.259 101.579L333.187 124.676C333.186 125.431 333.728 126.159 334.71 126.728C336.891 127.986 340.424 127.986 342.588 126.728C343.552 126.169 344.083 125.45 344.087 124.706L344.157 101.611C343.872 101.902 343.521 102.171 343.109 102.411C340.702 103.81 336.771 103.81 334.349 102.411C333.92 102.162 333.554 101.883 333.259 101.579Z" fill="#373B42"/>
<path d="M342.871 97.2063C345.173 98.5351 345.185 100.697 342.89 102.031C340.603 103.36 336.872 103.36 334.57 102.031C332.26 100.697 332.247 98.5354 334.534 97.2063C336.829 95.8725 340.561 95.8725 342.871 97.2063Z" fill="white"/>
<path d="M338.735 103.46C337.149 103.46 335.562 103.11 334.351 102.411C333.087 101.682 332.391 100.686 332.39 99.6076C332.388 98.5367 333.07 97.5492 334.313 96.8266C336.727 95.4259 340.664 95.4241 343.092 96.8266C344.349 97.5528 345.043 98.5456 345.043 99.6222C345.045 100.695 344.359 101.686 343.111 102.411C341.907 103.11 340.321 103.46 338.735 103.46ZM338.697 96.6403C337.268 96.6403 335.839 96.9549 334.756 97.5857C333.794 98.1439 333.266 98.8613 333.267 99.6055C333.267 100.358 333.809 101.084 334.79 101.651C336.971 102.909 340.505 102.909 342.668 101.651C343.635 101.089 344.167 100.369 344.165 99.6225C344.165 98.8725 343.627 98.1489 342.653 97.5855C341.561 96.9557 340.127 96.6403 338.697 96.6403Z" fill="#373B42"/>
<path d="M295.549 43.7219C295.487 62.5051 308.753 85.4945 325.116 94.9419C333.34 99.6847 340.803 100.122 346.195 96.9763L362.033 87.778C356.629 90.9105 349.165 90.4866 340.953 85.7313C324.591 76.2959 311.324 53.307 311.374 34.5236C311.399 25.1883 314.706 18.611 320.036 15.5156L304.198 24.7137C298.881 27.8094 295.574 34.3866 295.549 43.7219Z" fill="#373B42"/>
<path d="M338.379 99.4427C334.233 99.4427 329.645 98.0608 324.897 95.3227C308.409 85.8024 295.048 62.654 295.11 43.7201C295.135 34.5343 298.285 27.6494 303.977 24.335L319.815 15.1364C320.024 15.0147 320.293 15.0842 320.415 15.2958C320.537 15.5049 320.466 15.7743 320.257 15.8958C314.836 19.0438 311.837 25.6594 311.813 34.5246C311.763 53.186 324.935 75.9873 341.173 85.3505C348.968 89.866 356.298 90.5938 361.813 87.3985C362.017 87.2768 362.29 87.3463 362.412 87.5579C362.534 87.7681 362.463 88.0364 362.254 88.158H362.252C362.25 88.1587 362.249 88.1598 362.247 88.1606L346.416 97.3558C344.025 98.7499 341.312 99.4427 338.379 99.4427ZM315.883 18.4351L304.42 25.0937C299.006 28.245 296.011 34.8606 295.987 43.7224C295.987 43.7232 295.987 43.7232 295.987 43.7232C295.925 62.376 309.092 85.1825 325.336 94.562C333.161 99.0748 340.489 99.7958 345.974 96.5971L357.432 89.9428C352.489 90.8781 346.734 89.5861 340.734 86.1107C324.252 76.6069 310.885 53.4643 310.935 34.5225C310.954 27.7296 312.682 22.1969 315.883 18.4351Z" fill="#373B42"/>
<g opacity="0.63">
<path d="M333.908 88.7595C317.548 79.3145 304.285 56.3315 304.338 37.5426C304.391 18.7448 317.742 11.1457 334.101 20.5908C350.452 30.0311 363.708 52.9913 363.655 71.7891C363.601 90.5778 350.259 98.1998 333.908 88.7595Z" fill="#024DF5" fill-opacity="0.8"/>
</g>
<path d="M364.997 83.8184C364.925 109.071 347.058 119.263 325.081 106.574C303.104 93.8862 285.337 63.1213 285.408 37.8682C285.48 12.6152 303.363 2.4332 325.34 15.1215C347.317 27.8096 365.068 58.5653 364.997 83.8184ZM325.114 94.9369C341.465 104.377 354.807 96.7555 354.861 77.9666C354.914 59.1687 341.658 36.2086 325.307 26.7682C308.948 17.3232 295.597 24.9222 295.544 43.7201C295.491 62.5087 308.755 85.4919 325.114 94.9369Z" fill="white"/>
<path d="M342.93 112.486C337.379 112.486 331.228 110.631 324.86 106.954C302.792 94.2126 284.897 63.2201 284.969 37.8674C285.005 25.5353 289.23 16.3239 296.868 11.9284C304.56 7.50054 314.749 8.5001 325.56 14.7421C347.62 27.478 365.508 58.4663 365.436 83.8197C365.4 96.1568 361.175 105.372 353.537 109.767C350.38 111.585 346.8 112.486 342.93 112.486ZM307.485 10.0858C303.763 10.0858 300.328 10.949 297.306 12.6886C289.95 16.921 285.881 25.8643 285.847 37.8687C285.775 62.9417 303.475 93.5924 325.299 106.195C335.823 112.269 345.698 113.266 353.1 109.006C360.455 104.774 364.524 95.8281 364.558 83.8176C364.63 58.7446 346.937 28.0981 325.121 15.5012C318.889 11.9033 312.884 10.0858 307.485 10.0858ZM338.382 99.4411C334.231 99.4411 329.641 98.0574 324.895 95.3167C308.416 85.8034 295.052 62.6566 295.105 43.719C295.131 34.4979 298.303 27.6037 304.037 24.3039C309.808 20.9828 317.443 21.72 325.525 26.388C341.996 35.8971 355.352 59.0352 355.299 77.9676C355.273 87.1929 352.098 94.0916 346.361 97.3929C343.983 98.7612 341.291 99.4411 338.382 99.4411ZM312.02 23.1356C309.261 23.1356 306.715 23.775 304.474 25.0652C299.023 28.2011 296.009 34.8272 295.984 43.7206C295.93 62.3786 309.097 85.1833 325.334 94.557C333.119 99.0518 340.431 99.7897 345.924 96.6324C351.378 93.4931 354.395 86.8636 354.421 77.9658C354.474 59.3138 341.315 36.5169 325.087 27.1474C320.469 24.4824 316.02 23.1356 312.02 23.1356Z" fill="#373B42"/>
<path d="M297.022 12.346C304.26 8.13975 314.285 8.73897 325.337 15.1116C335.858 21.1963 345.411 31.4062 352.498 43.1723C354.527 46.5371 356.359 50.029 357.949 53.5898C362.42 63.5812 365.025 74.1024 364.99 83.8171C364.967 96.3664 360.53 105.205 353.386 109.342L369.22 100.146C376.365 95.9862 380.79 87.1704 380.824 74.6096C380.859 64.9064 378.254 54.3852 373.783 44.3938C372.193 40.833 370.36 37.3296 368.332 33.9648C361.245 22.199 351.703 11.9888 341.182 5.91562C330.108 -0.468786 320.082 -1.05651 312.845 3.15003L297.022 12.346Z" fill="#BEC4CD"/>
<path d="M352.499 43.1723C354.527 46.5371 356.36 50.029 357.95 53.5898L373.784 44.3938C372.193 40.833 370.361 37.3297 368.333 33.9648L352.499 43.1723Z" fill="#DBDEE4"/>
<path d="M353.385 109.783C353.234 109.783 353.086 109.705 353.006 109.565C352.884 109.355 352.954 109.086 353.164 108.965L353.203 108.943C360.499 104.693 364.53 95.7737 364.552 83.8215C364.627 58.7475 346.938 28.097 325.122 15.4965C314.556 9.40375 304.657 8.41882 297.243 12.7257C297.03 12.8467 296.763 12.7772 296.643 12.5663C296.521 12.3572 296.591 12.0878 296.801 11.9663L312.626 2.76847C320.331 -1.70827 330.548 -0.723342 341.398 5.53929C363.458 18.2786 381.343 49.2653 381.268 74.6135C381.23 86.9054 377.031 96.1082 369.444 100.526L353.634 109.708C353.627 109.712 353.618 109.717 353.612 109.721L353.606 109.724C353.605 109.724 353.606 109.724 353.605 109.724C353.536 109.764 353.46 109.783 353.385 109.783ZM307.482 9.20541C313.034 9.20541 319.188 11.0605 325.561 14.7358C347.62 27.4769 365.505 58.4694 365.429 83.8239C365.411 93.3423 362.89 101.006 358.227 106.024L369.001 99.7667C376.309 95.5121 380.353 86.5782 380.389 74.6096C380.465 49.5423 362.775 18.8979 340.959 6.29818C330.39 0.197831 320.484 -0.783971 313.068 3.52735L302.294 9.78895C303.95 9.39931 305.685 9.20541 307.482 9.20541Z" fill="#373B42"/>
<path d="M190.598 431.827C193.773 429.995 193.791 427.021 190.637 425.189C187.483 423.356 182.351 423.357 179.176 425.189C176.002 427.022 175.986 429.994 179.14 431.826C182.294 433.659 187.424 433.66 190.598 431.827Z" fill="white"/>
<path d="M184.863 433.631C182.709 433.631 180.556 433.157 178.92 432.206C177.259 431.24 176.345 429.93 176.347 428.518C176.349 427.097 177.276 425.779 178.958 424.81C182.25 422.909 187.588 422.909 190.859 424.809C192.519 425.774 193.433 427.083 193.431 428.496C193.428 429.918 192.5 431.236 190.818 432.207C189.174 433.157 187.017 433.631 184.863 433.631ZM184.916 424.249C182.92 424.249 180.921 424.689 179.397 425.57C177.998 426.377 177.226 427.425 177.224 428.519C177.223 429.606 177.982 430.646 179.363 431.446C182.389 433.208 187.332 433.206 190.379 431.447C191.779 430.639 192.551 429.59 192.553 428.495C192.555 427.409 191.795 426.37 190.417 425.569C188.904 424.689 186.912 424.249 184.916 424.249Z" fill="#DBDEE4"/>
<path d="M184.908 426.414C183.671 426.414 182.473 426.696 181.622 427.187C180.939 427.582 180.547 428.066 180.546 428.517C180.545 428.962 180.93 429.44 181.601 429.83C182.444 430.32 183.637 430.602 184.873 430.602C186.109 430.602 187.306 430.32 188.156 429.829C188.84 429.434 189.233 428.949 189.233 428.498C189.234 428.053 188.85 427.575 188.179 427.185C187.336 426.695 186.144 426.414 184.908 426.414Z" fill="#024DF5" fill-opacity="0.8"/>
<path d="M212.851 410.509C211.522 410.509 210.236 410.812 209.323 411.339C208.589 411.763 208.168 412.283 208.167 412.767C208.166 413.245 208.579 413.759 209.3 414.178C210.206 414.704 211.487 415.006 212.814 415.006C214.142 415.006 215.427 414.704 216.34 414.177C217.075 413.753 217.496 413.232 217.497 412.747C217.498 412.27 217.085 411.756 216.365 411.337C215.46 410.811 214.179 410.509 212.851 410.509Z" fill="#373B42"/>
</g>
<defs>
<clipPath id="clip0_212_8200">
<rect width="525" height="450" fill="white" transform="translate(0.630859)"/>
</clipPath>
</defs>
</svg>
