<svg width="526" height="450" viewBox="0 0 526 450" fill="none" xmlns="http://www.w3.org/2000/svg">
<g clip-path="url(#clip0_212_5455)">
<path d="M65.0411 414.091C64.8905 414.091 64.7435 414.013 64.663 413.873C64.5416 413.664 64.6118 413.395 64.8203 413.274L189.237 340.965C189.446 340.843 189.714 340.913 189.836 341.123C189.957 341.332 189.887 341.6 189.679 341.722L65.2617 414.032C65.1915 414.072 65.1162 414.091 65.0411 414.091Z" fill="#DBDEE4"/>
<path d="M115.22 382.139C113.894 382.139 112.611 382.441 111.699 382.968C110.967 383.39 110.547 383.91 110.546 384.392C110.545 384.869 110.957 385.382 111.676 385.8C112.58 386.325 113.858 386.626 115.183 386.626C116.508 386.626 117.79 386.325 118.701 385.799C119.434 385.376 119.854 384.856 119.855 384.373C119.856 383.896 119.444 383.383 118.726 382.965C117.822 382.44 116.544 382.139 115.22 382.139Z" fill="#373B42"/>
<path d="M214.662 442.357C214.587 442.357 214.512 442.338 214.442 442.298L152.052 406.037C151.199 405.54 150.689 404.653 150.69 403.664C150.69 402.675 151.204 401.789 152.059 401.294L214.873 365.025C215.077 364.905 215.349 364.974 215.472 365.186C215.592 365.395 215.52 365.663 215.311 365.784L152.497 402.053C151.915 402.389 151.566 402.992 151.566 403.665C151.564 404.338 151.912 404.941 152.494 405.28L214.883 441.54C215.092 441.661 215.162 441.93 215.041 442.138C214.96 442.279 214.813 442.357 214.662 442.357Z" fill="#DBDEE4"/>
<path d="M451.101 435.785C451.026 435.785 450.95 435.766 450.88 435.726L326.463 363.416C326.254 363.294 326.184 363.026 326.306 362.817C326.426 362.607 326.694 362.538 326.904 362.659L451.321 434.968C451.53 435.09 451.6 435.358 451.479 435.567C451.398 435.707 451.251 435.785 451.101 435.785Z" fill="#DBDEE4"/>
<path d="M443.25 437.143C440.083 435.315 440.065 432.348 443.212 430.52C446.358 428.691 451.48 428.692 454.647 430.521C457.814 432.349 457.83 435.314 454.683 437.143C451.536 438.971 446.418 438.972 443.25 437.143Z" fill="white"/>
<path d="M448.976 438.944C446.827 438.944 444.675 438.47 443.032 437.522C441.354 436.554 440.429 435.238 440.427 433.819C440.425 432.41 441.337 431.103 442.993 430.141C446.257 428.246 451.583 428.245 454.867 430.142C456.544 431.11 457.469 432.424 457.471 433.842C457.474 435.251 456.562 436.558 454.905 437.522C453.273 438.47 451.126 438.944 448.976 438.944ZM443.47 436.764C446.512 438.52 451.446 438.52 454.464 436.764C455.841 435.965 456.597 434.927 456.595 433.843C456.593 432.751 455.825 431.706 454.429 430.9C451.388 429.143 446.452 429.142 443.434 430.899C442.057 431.698 441.301 432.735 441.303 433.819C441.304 434.912 442.074 435.958 443.47 436.764Z" fill="#DBDEE4"/>
<path d="M448.931 431.743C450.166 431.743 451.361 432.024 452.21 432.514C452.891 432.908 453.282 433.391 453.283 433.84C453.284 434.284 452.9 434.762 452.231 435.151C451.389 435.64 450.199 435.921 448.966 435.921C447.732 435.921 446.538 435.64 445.69 435.15C445.008 434.756 444.616 434.272 444.615 433.823C444.615 433.379 444.998 432.901 445.667 432.512C446.508 432.023 447.698 431.743 448.931 431.743Z" fill="#024DF5" fill-opacity="0.8"/>
<path d="M421.049 415.873C422.375 415.873 423.658 416.175 424.57 416.701C425.302 417.124 425.722 417.643 425.723 418.125C425.724 418.602 425.312 419.115 424.593 419.533C423.689 420.058 422.411 420.36 421.086 420.36C419.761 420.36 418.479 420.058 417.568 419.532C416.835 419.109 416.415 418.589 416.414 418.106C416.414 417.629 416.825 417.116 417.543 416.699C418.447 416.174 419.725 415.873 421.049 415.873Z" fill="#373B42"/>
<path d="M136.933 197.865C136.858 197.865 136.781 197.846 136.712 197.805L105.877 179.776C104.784 179.141 104.104 177.96 104.104 176.693V87.7609C104.104 87.5188 104.3 87.3229 104.542 87.3229C104.783 87.3229 104.98 87.5188 104.98 87.7609V176.693C104.98 177.649 105.493 178.54 106.317 179.019L137.154 197.049C137.362 197.171 137.433 197.439 137.311 197.648C137.229 197.788 137.083 197.865 136.933 197.865Z" fill="#DBDEE4"/>
<g opacity="0.1">
<path d="M44.9763 284.794C37.9325 288.86 37.8951 295.443 44.8933 299.51L296.718 445.854C303.716 449.921 315.081 449.921 322.124 445.854L454.002 369.715C461.046 365.648 461.083 359.065 454.085 354.999L202.26 208.654C195.261 204.587 183.898 204.587 176.854 208.654L44.9763 284.794Z" fill="black"/>
</g>
<path d="M459.349 350.925C459.349 353.579 457.573 356.271 454.039 358.303L322.146 434.44C320.022 435.667 317.513 436.528 314.84 437.004C313.119 437.334 311.306 437.498 309.511 437.498C307.717 437.498 305.941 437.352 304.201 437.04C301.473 436.565 298.909 435.704 296.767 434.44L44.937 288.1C41.4396 286.085 39.7002 283.449 39.7002 280.812L39.627 250.086C39.627 252.741 41.3666 255.396 44.8456 257.392L296.676 403.751C298.854 405.033 301.436 405.894 304.201 406.352C305.941 406.663 307.717 406.791 309.512 406.791C311.306 406.791 313.1 406.626 314.84 406.296C317.495 405.821 319.985 404.96 322.091 403.751L453.948 327.615C457.5 325.546 459.258 322.89 459.258 320.181L459.349 350.925Z" fill="#BEC4CD"/>
<path d="M314.839 406.296V437.004C313.118 437.334 311.305 437.498 309.51 437.498C307.716 437.498 305.94 437.352 304.2 437.04V406.352C305.94 406.663 307.716 406.791 309.51 406.791C311.305 406.791 313.099 406.626 314.839 406.296Z" fill="#F0F2F5"/>
<path d="M309.399 437.935C304.536 437.935 299.971 436.833 296.538 434.827L44.7102 288.481C41.1997 286.453 39.2649 283.728 39.2649 280.808L39.1826 250.125C39.1826 250.114 39.1826 250.103 39.1826 250.092V250.091C39.1826 250.091 39.1826 250.091 39.1826 250.09C39.1826 249.849 39.3776 249.653 39.6207 249.652C39.862 249.652 40.0587 249.848 40.0587 250.089V250.122C40.0723 252.73 41.8498 255.179 45.066 257.02L296.897 403.368C300.231 405.313 304.7 406.361 309.509 406.357C314.165 406.341 318.553 405.279 321.864 403.367L453.736 327.227C457.019 325.312 458.828 322.809 458.828 320.181C458.828 319.94 459.022 319.744 459.266 319.743C459.507 319.743 459.704 319.939 459.704 320.18L459.786 350.915C459.786 353.88 457.822 356.64 454.255 358.688L322.367 434.827C318.911 436.814 314.347 437.918 309.512 437.935C309.475 437.935 309.437 437.935 309.399 437.935ZM40.0674 253.453L40.1409 280.807C40.1409 283.402 41.92 285.858 45.15 287.723L296.979 434.07C300.305 436.014 304.778 437.061 309.509 437.059C314.193 437.042 318.605 435.98 321.929 434.069L453.818 357.929C457.101 356.044 458.91 353.554 458.91 350.916L458.836 323.51C457.938 325.182 456.355 326.713 454.176 327.985L322.302 404.126C318.862 406.112 314.32 407.216 309.512 407.233C304.521 407.208 299.92 406.147 296.456 404.124L44.6282 257.779C42.5051 256.564 40.9586 255.084 40.0674 253.453Z" fill="#373B42"/>
<path d="M445.678 363.573C445.437 363.573 445.24 363.377 445.24 363.135V332.388C445.24 332.146 445.437 331.95 445.678 331.95C445.92 331.95 446.116 332.146 446.116 332.388V363.135C446.116 363.377 445.92 363.573 445.678 363.573Z" fill="#373B42"/>
<path d="M104.139 305.969C104.12 307.252 103.68 308.17 102.953 308.591L100.262 310.156C100.989 309.716 101.429 308.817 101.448 307.535C101.448 304.951 99.6302 301.814 97.3916 300.512L77.7933 289.2C76.6451 288.549 75.6312 288.492 74.8848 288.913L77.5758 287.348C78.322 286.926 79.3362 286.984 80.4841 287.635L100.082 298.947C102.321 300.248 104.139 303.387 104.139 305.969Z" fill="#373B42"/>
<path d="M100.261 310.594C100.113 310.594 99.9671 310.517 99.8851 310.379C99.7619 310.173 99.8288 309.906 100.036 309.781C100.646 309.411 100.994 308.611 101.011 307.528C101.011 305.102 99.2883 302.122 97.1703 300.891L77.5753 289.579C76.6139 289.035 75.7345 288.936 75.1015 289.294C74.8912 289.412 74.6243 289.34 74.5062 289.13C74.3865 288.922 74.4583 288.655 74.6653 288.534L77.3563 286.969C78.2785 286.45 79.4622 286.552 80.7008 287.254L100.301 298.568C102.699 299.962 104.578 303.213 104.578 305.97C104.578 305.972 104.578 305.975 104.578 305.977C104.556 307.396 104.056 308.459 103.172 308.97L100.482 310.535C100.412 310.575 100.337 310.594 100.261 310.594ZM76.7845 288.315C77.1813 288.414 77.592 288.582 78.0095 288.818L97.6096 300.133C100.008 301.527 101.887 304.778 101.887 307.535C101.88 307.998 101.82 308.424 101.712 308.806L102.732 308.213C103.339 307.861 103.683 307.064 103.702 305.966C103.7 303.534 101.977 300.556 99.861 299.326L80.2661 288.014C79.3047 287.47 78.4253 287.37 77.7923 287.729L76.7845 288.315Z" fill="#373B42"/>
<path d="M97.3851 300.516C99.6329 301.814 101.447 304.956 101.44 307.54C101.432 310.122 99.6063 311.163 97.3584 309.866L77.757 298.546C75.5092 297.249 73.6947 294.106 73.7022 291.523C73.7096 288.94 75.5358 287.899 77.7837 289.197L97.3851 300.516Z" fill="white"/>
<path d="M99.185 310.864C98.5486 310.864 97.8524 310.657 97.139 310.245L77.5389 298.926C75.1747 297.56 73.2568 294.239 73.2637 291.521C73.2688 290.113 73.7701 289.05 74.6785 288.528C75.5869 288.005 76.7691 288.105 78.0025 288.817L97.6044 300.136C99.9686 301.501 101.885 304.823 101.878 307.541C101.874 308.948 101.373 310.011 100.465 310.533C100.081 310.754 99.6486 310.864 99.185 310.864ZM75.9596 289.075C75.6466 289.075 75.3625 289.145 75.1145 289.288C74.4884 289.647 74.1429 290.442 74.1393 291.524C74.1324 293.961 75.8535 296.942 77.9764 298.167L97.5765 309.486C98.5258 310.034 99.395 310.138 100.028 309.774C100.653 309.414 100.998 308.62 101.001 307.538C101.008 305.1 99.2872 302.12 97.1658 300.895L77.564 289.576C76.9879 289.243 76.4404 289.075 75.9596 289.075Z" fill="#373B42"/>
<path d="M44.9304 242.686C37.8866 246.753 37.8492 253.335 44.8474 257.402L296.672 403.747C303.67 407.813 315.035 407.814 322.079 403.747L453.956 327.607C461 323.54 461.037 316.958 454.039 312.891L202.214 166.546C195.216 162.48 183.851 162.48 176.808 166.546L44.9304 242.686Z" fill="#373B42"/>
<path d="M309.36 407.221C304.68 407.221 300.006 406.189 296.453 404.126L44.6285 257.781C41.1147 255.739 39.1832 253 39.1865 250.069C39.1899 247.118 41.1521 244.362 44.7123 242.307L176.59 166.167C183.737 162.042 195.333 162.039 202.436 166.168L454.262 312.512C457.774 314.554 459.707 317.293 459.702 320.223C459.699 323.174 457.736 325.931 454.176 327.986L322.299 404.126C318.725 406.189 314.039 407.221 309.36 407.221ZM44.9313 242.686L45.1503 243.066C41.8724 244.958 40.0659 247.445 40.0626 250.07C40.0593 252.676 41.8366 255.145 45.0699 257.024L296.894 403.369C303.754 407.355 314.953 407.356 321.861 403.368L453.738 327.228C457.016 325.336 458.823 322.848 458.826 320.222C458.829 317.618 457.052 315.148 453.82 313.27L201.994 166.925C195.132 162.939 183.934 162.939 177.028 166.926L45.1501 243.066L44.9313 242.686Z" fill="#373B42"/>
<path d="M42.0771 250.074C42.0771 251.894 43.536 253.795 46.0767 255.27L297.903 401.616C300.919 403.37 304.984 404.337 309.361 404.337C313.721 404.337 317.803 403.37 320.852 401.616L452.724 325.476C455.313 323.985 456.805 322.066 456.805 320.214C456.805 318.395 455.346 316.493 452.806 315.018L200.979 168.673C197.963 166.919 193.898 165.951 189.521 165.951C185.161 165.951 181.079 166.919 178.031 168.673L46.1586 244.812C43.5688 246.304 42.0771 248.221 42.0771 250.074Z" fill="white"/>
<path d="M309.363 404.775C304.915 404.775 300.766 403.787 297.683 401.994L45.8576 255.648C43.1786 254.092 41.6406 252.061 41.6406 250.074C41.6406 248.063 43.2076 246.007 45.9414 244.433L177.812 168.293C180.931 166.5 185.088 165.513 189.522 165.513C193.97 165.513 198.117 166.501 201.202 168.294L453.027 314.639C455.706 316.196 457.244 318.228 457.244 320.214C457.244 322.225 455.677 324.281 452.944 325.855L321.071 401.995C317.956 403.788 313.797 404.775 309.363 404.775ZM189.522 166.389C185.24 166.389 181.235 167.335 178.25 169.052L46.3797 245.191C43.9249 246.605 42.5167 248.385 42.5167 250.074C42.5167 251.74 43.8957 253.496 46.2993 254.891L298.125 401.237C301.076 402.953 305.067 403.899 309.363 403.899C313.647 403.899 317.65 402.953 320.634 401.236L452.506 325.096C454.961 323.683 456.369 321.904 456.369 320.214C456.369 318.548 454.99 316.792 452.587 315.397L200.761 169.051C197.809 167.334 193.818 166.389 189.522 166.389Z" fill="#373B42"/>
<path d="M156.283 196.576C154.337 197.714 104.803 226.492 102.506 227.827C98.8321 229.959 92.8403 229.959 89.1561 227.837L82.4502 223.956C84.7475 222.621 146.928 186.496 149.546 184.975L156.252 188.845C159.936 190.977 159.957 194.444 156.283 196.576Z" fill="#373B42"/>
<path d="M95.8255 229.86C93.333 229.86 90.8402 229.312 88.9379 228.217L82.2317 224.336C82.0965 224.257 82.0127 224.113 82.0127 223.957C82.0127 223.801 82.0949 223.656 82.2299 223.578C84.5275 222.243 146.707 186.118 149.326 184.597C149.463 184.517 149.629 184.518 149.765 184.596L156.472 188.466C158.401 189.583 159.464 191.095 159.465 192.723C159.465 194.343 158.415 195.846 156.504 196.955C154.669 198.028 111.47 223.126 102.827 228.146L102.726 228.205C100.826 229.308 98.3267 229.86 95.8255 229.86ZM83.3233 223.956L89.376 227.458C92.9446 229.513 98.7373 229.509 102.285 227.448L102.388 227.388C111.031 222.368 154.233 197.268 156.063 196.198C156.063 196.198 156.063 196.197 156.063 196.197C157.694 195.252 158.59 194.018 158.59 192.724C158.588 191.421 157.682 190.178 156.034 189.225L149.547 185.481C144.974 188.138 90.2467 219.933 83.3233 223.956Z" fill="#373B42"/>
<path d="M106.305 219.629C104.778 219.629 103.35 219.292 102.288 218.678C101.331 218.126 100.803 217.434 100.802 216.729C100.802 216.035 101.315 215.354 102.247 214.811L143.917 190.598C144.976 189.983 146.403 189.644 147.936 189.644C149.472 189.644 150.908 189.985 151.978 190.603C152.924 191.149 153.445 191.835 153.445 192.534C153.446 193.232 152.931 193.916 151.993 194.461L110.324 218.675C109.264 219.291 107.837 219.629 106.305 219.629Z" fill="white"/>
<path d="M95.5036 225.908C93.9769 225.908 92.5503 225.57 91.4877 224.957C90.5309 224.405 90.0042 223.713 90.0029 223.009C90.0017 222.314 90.5173 221.631 91.4539 221.086C92.5126 220.472 93.9389 220.133 95.4726 220.133C97.0088 220.133 98.4449 220.473 99.5144 221.091C100.459 221.637 100.98 222.323 100.981 223.022C100.983 223.72 100.467 224.404 99.5293 224.95C98.4664 225.568 97.0373 225.908 95.5036 225.908Z" fill="white"/>
<path d="M95.4997 224.737C94.5921 224.737 93.7439 224.536 93.1122 224.171C92.5436 223.843 92.2303 223.432 92.2295 223.013C92.2287 222.6 92.5354 222.194 93.092 221.871C93.7214 221.505 94.5693 221.304 95.481 221.304C96.3943 221.304 97.2481 221.506 97.8839 221.873C98.4454 222.198 98.7553 222.606 98.7561 223.022C98.7569 223.436 98.4502 223.843 97.8928 224.168C97.2611 224.535 96.4114 224.737 95.4997 224.737Z" fill="#024DF5" fill-opacity="0.8"/>
<path d="M334.761 410.294C336.214 409.456 337.387 410.146 337.391 411.815C337.396 413.506 336.231 415.524 334.778 416.363C333.288 417.223 332.115 416.555 332.11 414.864C332.106 413.195 333.271 411.155 334.761 410.294Z" fill="#373B42"/>
<path d="M345.627 404.019C347.08 403.18 348.253 403.871 348.258 405.539C348.263 407.23 347.097 409.249 345.645 410.087C344.154 410.948 342.981 410.279 342.977 408.588C342.972 406.92 344.138 404.879 345.627 404.019Z" fill="#373B42"/>
<path d="M356.497 397.743C357.949 396.904 359.122 397.595 359.127 399.264C359.132 400.955 357.966 402.973 356.514 403.812C355.024 404.672 353.851 404.004 353.846 402.313C353.841 400.644 355.006 398.603 356.497 397.743Z" fill="#373B42"/>
<path d="M424.644 358.404C426.096 357.566 427.27 358.256 427.274 359.925C427.279 361.616 426.114 363.634 424.661 364.473C423.171 365.333 421.998 364.665 421.993 362.974C421.989 361.306 423.154 359.265 424.644 358.404Z" fill="#373B42"/>
<path d="M435.51 352.129C436.963 351.29 438.136 351.981 438.141 353.649C438.145 355.34 436.98 357.359 435.527 358.197C434.037 359.058 432.864 358.39 432.859 356.699C432.855 355.03 434.02 352.989 435.51 352.129Z" fill="#373B42"/>
<path d="M404.964 375.902C406.451 375.044 407.655 372.958 407.65 371.249C407.645 369.541 406.433 368.85 404.946 369.708L376.154 386.332C374.667 387.19 373.467 389.274 373.472 390.983C373.477 392.691 374.685 393.384 376.172 392.526L404.964 375.902Z" fill="#373B42"/>
<path d="M280.331 425.34C280.089 425.34 279.893 425.144 279.893 424.902V394.248C279.893 394.006 280.089 393.81 280.331 393.81C280.572 393.81 280.769 394.006 280.769 394.248V424.902C280.768 425.144 280.572 425.34 280.331 425.34Z" fill="#373B42"/>
<path d="M59.6265 297.081C59.3852 297.081 59.1885 296.885 59.1885 296.643V265.99C59.1885 265.748 59.3852 265.552 59.6265 265.552C59.8678 265.552 60.0646 265.748 60.0646 265.99V296.643C60.0643 296.885 59.8676 297.081 59.6265 297.081Z" fill="#373B42"/>
<path d="M220.836 370.005C223.273 371.412 225.24 374.819 225.232 377.619C225.224 380.42 223.244 381.548 220.807 380.141L173.476 352.809C171.039 351.402 169.072 347.995 169.08 345.194C169.088 342.394 171.068 341.266 173.505 342.673L220.836 370.005Z" fill="#F0F2F5"/>
<path d="M220.776 372.807C219.719 372.197 218.865 372.699 218.861 373.914C218.858 375.145 219.706 376.614 220.764 377.225C221.848 377.851 222.702 377.365 222.706 376.133C222.709 374.919 221.861 373.433 220.776 372.807Z" fill="#373B42"/>
<path d="M81.8516 259.738L131.601 288.638L188.445 255.821L138.551 226.992L81.8516 259.738Z" fill="#DBDEE4"/>
<path d="M121.855 266.829C125.988 269.264 131.287 270.658 136.726 271.007C143.833 271.463 151.23 270.127 156.721 266.988C162.212 263.85 164.62 259.591 163.93 255.462C163.413 252.312 161.073 249.226 156.927 246.794C147.344 241.157 131.736 241.096 122.057 246.622C112.375 252.157 112.268 261.199 121.855 266.829Z" fill="white"/>
<path d="M139.472 271.532C138.55 271.532 137.626 271.503 136.699 271.444C131.002 271.079 125.652 269.574 121.632 267.206C116.876 264.413 114.269 260.692 114.291 256.728C114.315 252.735 116.996 249.011 121.841 246.242C131.638 240.649 147.476 240.726 157.149 246.417C161.245 248.819 163.807 252.006 164.363 255.391C165.111 259.877 162.406 264.242 156.939 267.368C152.231 270.059 145.983 271.532 139.472 271.532ZM139.327 242.96C133.161 242.96 126.999 244.305 122.276 247.002C117.713 249.61 115.19 253.066 115.168 256.732C115.147 260.371 117.6 263.823 122.077 266.451C122.077 266.451 122.077 266.451 122.077 266.451C125.981 268.751 131.194 270.213 136.754 270.569C144.088 271.042 151.277 269.596 156.505 266.608C161.635 263.674 164.184 259.638 163.498 255.535C162.987 252.409 160.575 249.44 156.706 247.172C151.937 244.367 145.631 242.96 139.327 242.96Z" fill="#373B42"/>
<path d="M143.927 259.469C138.437 262.604 136.026 266.87 136.73 271.002C143.838 271.46 151.236 270.124 156.726 266.989C162.216 263.853 164.627 259.587 163.937 255.463C156.815 254.998 149.417 256.333 143.927 259.469Z" fill="#024DF5" fill-opacity="0.8"/>
<path d="M129.177 250.804C125.767 252.751 125.727 255.933 129.103 257.917C132.472 259.896 137.972 259.922 141.382 257.975C144.792 256.028 144.825 252.841 141.456 250.862C138.08 248.878 132.587 248.856 129.177 250.804Z" fill="#DBDEE4"/>
<path d="M139.473 271.533C138.551 271.533 137.627 271.503 136.7 271.444C131.003 271.079 125.653 269.574 121.633 267.206C116.877 264.413 114.27 260.692 114.292 256.728C114.316 252.735 116.997 249.011 121.842 246.242C131.639 240.649 147.477 240.726 157.15 246.417C161.246 248.819 163.808 252.007 164.364 255.392C165.112 259.877 162.407 264.243 156.94 267.369C152.232 270.059 145.984 271.533 139.473 271.533ZM139.328 242.96C133.162 242.96 127 244.305 122.277 247.002C117.714 249.61 115.191 253.066 115.168 256.733C115.148 260.371 117.601 263.823 122.078 266.451C122.078 266.451 122.078 266.451 122.078 266.452C125.982 268.751 131.195 270.214 136.755 270.569C144.089 271.042 151.277 269.596 156.506 266.608C161.636 263.674 164.185 259.638 163.499 255.535C162.988 252.41 160.576 249.441 156.707 247.172C151.938 244.367 145.632 242.96 139.328 242.96Z" fill="#373B42"/>
<path d="M149.184 220.855L199.078 249.665L256.301 216.631L206.551 187.731L149.184 220.855Z" fill="#024DF5" fill-opacity="0.8"/>
<path d="M168.256 223.321C168.156 224.298 168.757 225.298 170.047 226.048L190.8 238.108C192.097 238.862 193.821 239.213 195.507 239.158C197.011 239.123 198.503 238.776 199.653 238.112L237.128 216.475C238.285 215.808 238.89 214.945 238.956 214.074C239.049 213.101 238.448 212.101 237.15 211.347L216.397 199.287C215.107 198.537 213.383 198.186 211.704 198.237L207.992 217.951L208.375 215.94L238.956 214.074C238.89 214.945 238.285 215.808 237.128 216.475L199.653 238.112C198.503 238.776 197.011 239.123 195.507 239.158L198.829 221.452L168.256 223.321Z" fill="white"/>
<path d="M195.168 239.602C193.47 239.602 191.814 239.202 190.58 238.487L169.829 226.426C168.433 225.615 167.7 224.467 167.82 223.277C167.843 223.064 168.015 222.898 168.229 222.885L198.804 221.015C198.97 221.013 199.071 221.062 199.16 221.162C199.249 221.263 199.286 221.4 199.262 221.533L196.041 238.693C197.333 238.596 198.52 238.261 199.435 237.733L236.911 216.096C237.671 215.658 238.186 215.12 238.405 214.546L208.742 216.357L208.426 218.033C208.379 218.27 208.178 218.429 207.912 218.382C207.676 218.337 207.519 218.108 207.564 217.871L207.565 217.863L211.274 198.156C211.314 197.954 211.487 197.805 211.692 197.799C213.523 197.751 215.31 198.148 216.621 198.909L237.374 210.969C238.768 211.78 239.506 212.925 239.394 214.111C239.394 214.119 239.393 214.126 239.393 214.134C239.305 215.176 238.58 216.144 237.35 216.855L199.874 238.491C198.707 239.166 197.161 239.558 195.52 239.596C195.403 239.6 195.285 239.602 195.168 239.602ZM168.698 223.734C168.788 224.441 169.343 225.131 170.27 225.669L191.021 237.729C192.116 238.365 193.603 238.722 195.144 238.726L198.297 221.923L168.698 223.734ZM212.069 198.67L208.907 215.469L238.512 213.662C238.415 212.952 237.857 212.264 236.931 211.726L216.178 199.666C215.09 199.033 213.609 198.676 212.069 198.67Z" fill="#373B42"/>
<path d="M198.833 221.451L195.511 239.158C197.014 239.123 198.507 238.776 199.657 238.112L237.132 216.475C238.289 215.807 238.893 214.944 238.959 214.073L208.378 215.94L207.996 217.951C207.829 218.814 207.151 219.59 206.141 220.172C205.132 220.755 203.791 221.146 202.3 221.24L198.833 221.451Z" fill="white"/>
<path d="M195.511 239.596C195.382 239.596 195.261 239.54 195.177 239.442C195.092 239.341 195.056 239.207 195.079 239.077L198.402 221.37C198.439 221.173 198.605 221.026 198.805 221.014L202.271 220.803C203.647 220.717 204.944 220.358 205.922 219.794C206.844 219.261 207.427 218.577 207.566 217.868L207.946 215.859C207.984 215.662 208.15 215.515 208.35 215.503L238.931 213.637C239.068 213.627 239.181 213.677 239.27 213.767C239.359 213.857 239.405 213.981 239.395 214.108C239.314 215.165 238.587 216.14 237.35 216.855L199.874 238.491C198.708 239.166 197.161 239.558 195.521 239.597C195.518 239.596 195.514 239.596 195.511 239.596ZM199.201 221.868L196.043 238.694C197.332 238.596 198.522 238.261 199.437 237.733L236.913 216.096C237.672 215.658 238.187 215.12 238.406 214.546L208.743 216.357L208.427 218.033C208.239 218.997 207.505 219.891 206.361 220.552C205.266 221.183 203.834 221.583 202.327 221.677L199.201 221.868Z" fill="#373B42"/>
<path d="M170.08 220.923C168.93 221.587 168.325 222.45 168.26 223.321L198.834 221.452L202.3 221.24C203.791 221.146 205.132 220.755 206.141 220.172C207.151 219.59 207.83 218.814 207.996 217.951L211.708 198.236C210.204 198.271 208.712 198.619 207.555 199.287L170.08 220.923Z" fill="white"/>
<path d="M168.259 223.76C168.143 223.76 168.03 223.713 167.948 223.629C167.859 223.539 167.812 223.414 167.823 223.288C167.903 222.231 168.627 221.256 169.86 220.544L207.336 198.908C208.508 198.231 210.058 197.837 211.697 197.799C211.851 197.806 211.955 197.853 212.041 197.953C212.126 198.054 212.162 198.188 212.138 198.318L208.428 218.032C208.239 218.997 207.506 219.891 206.361 220.552C205.266 221.183 203.834 221.583 202.327 221.677L168.287 223.759C168.276 223.759 168.268 223.76 168.259 223.76ZM170.298 221.303C169.542 221.74 169.031 222.276 168.812 222.849L202.273 220.803C203.648 220.717 204.945 220.358 205.923 219.794C206.845 219.261 207.429 218.578 207.567 217.869L211.174 198.702C209.885 198.8 208.693 199.136 207.774 199.667L170.298 221.303Z" fill="#373B42"/>
<path d="M140.095 296.339L190.394 325.559L247.867 292.378L197.421 263.232L140.095 296.339Z" fill="#024DF5" fill-opacity="0.8"/>
<path d="M271.531 290.582L321.831 319.802L379.303 286.621L328.858 257.475L271.531 290.582Z" fill="#024DF5" fill-opacity="0.8"/>
<path d="M203.683 283.209C209.661 286.683 210.834 291.876 207.219 296.042L213.203 304.537L198.549 301.048C191.346 303.128 182.383 302.432 176.405 298.957C168.914 294.604 168.954 287.547 176.477 283.204C184.009 278.855 196.191 278.855 203.683 283.209ZM195.312 294.15C198.247 292.454 198.263 289.707 195.346 288.012C192.421 286.312 187.678 286.312 184.742 288.007C181.815 289.697 181.799 292.445 184.725 294.145C187.641 295.839 192.385 295.839 195.312 294.15Z" fill="white"/>
<path d="M261.217 285.146L318.008 252.354L267.307 222.895L210.354 255.778L261.217 285.146Z" fill="#DBDEE4"/>
<path d="M238.242 249.527C237.423 250 237.276 250.744 237.907 251.322L240.244 254.284C240.543 254.66 240.406 255.105 239.889 255.404L232.525 259.655C231.404 260.303 231.398 261.34 232.504 261.983L253.22 274.022C254.326 274.664 256.125 274.669 257.246 274.022L295.838 251.74C296.952 251.097 296.958 250.05 295.851 249.407L275.136 237.369C274.03 236.726 272.231 236.731 271.118 237.373L263.754 241.625C263.245 241.919 262.468 242.002 261.819 241.827L256.714 240.464C255.725 240.092 254.441 240.174 253.605 240.657L238.242 249.527Z" fill="white"/>
<path d="M254.419 249.081C249.639 251.811 249.583 256.271 254.316 259.052C259.038 261.827 266.748 261.863 271.527 259.133C276.307 256.404 276.354 251.937 271.631 249.162C266.899 246.382 259.199 246.351 254.419 249.081Z" fill="#DBDEE4"/>
<path d="M257.507 250.896C254.454 252.64 254.418 255.489 257.441 257.266C260.458 259.038 265.383 259.062 268.437 257.318C271.49 255.574 271.52 252.721 268.503 250.948C265.479 249.172 260.561 249.152 257.507 250.896Z" fill="white"/>
<path d="M259.312 301.739L203.31 334.08L253.131 363.037L309.293 330.608L259.312 301.739Z" fill="#DBDEE4"/>
<path d="M233.805 329.426C234.709 327.133 236.873 324.997 240.325 323.005C242.981 321.471 245.932 320.396 249.152 319.794C252.372 319.192 255.639 319.163 259.051 319.708C261.944 320.181 264.463 321.041 266.633 322.303C269.741 324.109 271.411 326.345 271.619 329.025C271.804 331.405 270.754 333.268 268.42 334.616C267.675 335.046 266.981 335.332 266.287 335.476C265.594 335.59 264.926 335.605 264.307 335.476C263.912 335.418 263.344 335.203 262.603 334.859C262.722 335.734 262.569 336.565 262.194 337.353C261.843 338.127 261.195 338.787 260.327 339.288C259.383 339.833 258.144 340.206 256.707 340.407C255.221 340.607 253.638 340.521 251.932 340.192C250.202 339.848 248.646 339.26 247.265 338.457C245.563 337.468 244.283 336.235 243.475 334.73C242.642 333.24 242.451 331.864 242.904 330.602C243.332 329.355 244.179 328.381 245.42 327.664C246.339 327.133 247.479 326.761 248.816 326.532C250.154 326.331 251.614 326.345 253.246 326.575L251.301 324.811L254.206 323.134L262.651 330.745C263.808 331.792 264.497 332.365 264.646 332.451C264.941 332.623 265.287 332.709 265.733 332.709C266.154 332.695 266.525 332.594 266.823 332.423C267.394 332.093 267.819 331.477 268.121 330.559C268.474 329.355 268.283 328.122 267.572 326.875C266.862 325.628 265.705 324.553 264.175 323.665C262.399 322.632 260.275 321.916 257.803 321.543C255.331 321.17 252.707 321.256 249.957 321.758C247.207 322.288 244.728 323.177 242.518 324.453C239.986 325.915 238.269 327.563 237.367 329.455C236.441 331.333 236.529 333.254 237.533 335.189C238.586 337.124 240.358 338.815 242.874 340.277C245.489 341.797 248.329 342.786 251.37 343.23C254.412 343.646 257.456 343.517 260.554 342.786C263.602 342.055 266.479 340.937 269.135 339.403C271.941 337.784 273.83 336.15 274.805 334.501C275.755 332.838 276.06 331.347 275.647 330.015L278.576 328.323C279.165 329.298 279.356 330.502 279.199 331.964C279.018 333.412 278.342 334.86 277.195 336.322C275.999 337.784 274.135 339.26 271.528 340.765C269.145 342.141 266.639 343.245 264.011 344.048C261.359 344.865 258.733 345.323 256.085 345.424C253.461 345.538 250.963 345.352 248.639 344.836C245.723 344.177 243.081 343.159 240.738 341.797C238.123 340.277 236.153 338.529 234.903 336.536C233.309 334.085 232.951 331.72 233.805 329.426ZM251.877 328.108C250.343 328.051 249.055 328.337 248.012 328.939C247.317 329.341 246.844 329.814 246.593 330.358C246.318 330.917 246.29 331.591 246.483 332.365C246.677 333.139 247.167 333.942 247.929 334.788C248.692 335.633 249.529 336.321 250.442 336.852C251.897 337.697 253.404 338.17 254.913 338.242C256.447 338.3 257.636 338.07 258.53 337.554C259.151 337.196 259.599 336.737 259.899 336.135C260.224 335.548 260.327 334.86 260.232 334.114C260.138 333.34 259.746 332.537 259.058 331.677C258.32 330.817 257.434 330.072 256.348 329.441C254.893 328.595 253.386 328.151 251.877 328.108Z" fill="#024DF5" fill-opacity="0.8"/>
<path d="M416.742 190.852L416.713 198.862C416.713 200.06 415.919 201.272 414.346 202.181L380.674 221.753C379.923 222.186 379.071 222.518 378.148 222.749C376.026 223.283 373.572 223.268 371.465 222.705C370.614 222.474 369.82 222.157 369.112 221.753L335.252 202.196C333.636 201.272 332.842 200.045 332.842 198.833L332.871 190.822C332.871 192.035 333.665 193.262 335.281 194.185L369.141 213.742C369.834 214.147 370.628 214.464 371.465 214.68C373.572 215.258 376.026 215.272 378.148 214.738C379.086 214.522 379.952 214.175 380.702 213.742L414.375 194.171C415.948 193.247 416.742 192.049 416.742 190.852Z" fill="#BEC4CD"/>
<path d="M378.148 214.738V222.749C376.027 223.283 373.573 223.269 371.466 222.705V214.681C373.573 215.258 376.027 215.273 378.148 214.738Z" fill="#F0F2F5"/>
<path d="M374.899 223.572C372.728 223.572 370.555 223.092 368.901 222.132L335.033 202.576C333.338 201.611 332.403 200.283 332.403 198.837L332.429 190.825C332.429 190.583 332.626 190.388 332.867 190.388C333.11 190.388 333.305 190.584 333.305 190.826C333.305 191.921 334.104 193.007 335.497 193.807L369.365 213.363C372.444 215.136 377.431 215.136 380.483 213.363L414.15 193.794C415.533 192.989 416.297 191.95 416.306 190.869V190.851C416.306 190.609 416.503 190.414 416.744 190.414C416.987 190.414 417.182 190.61 417.182 190.852C417.182 190.86 417.182 190.869 417.182 190.877L417.155 198.864C417.155 200.268 416.21 201.616 414.565 202.563L380.897 222.131C379.244 223.092 377.071 223.572 374.899 223.572ZM333.298 193.107L333.279 198.839C333.279 199.955 334.056 201.013 335.469 201.817L369.339 221.374C372.408 223.153 377.393 223.154 380.455 221.374L414.125 201.806C415.495 201.018 416.279 199.946 416.279 198.863L416.297 193.149C415.873 193.665 415.3 194.139 414.592 194.552L380.924 214.121C377.631 216.034 372.251 216.035 368.927 214.122L335.06 194.566C334.329 194.147 333.736 193.651 333.298 193.107Z" fill="#373B42"/>
<path d="M414.33 187.481C417.535 189.332 417.552 192.324 414.367 194.175L380.698 213.742C377.522 215.587 372.347 215.592 369.142 213.742L335.277 194.19C332.072 192.339 332.063 189.342 335.24 187.496L368.909 167.93C372.094 166.079 377.26 166.079 380.465 167.93L414.33 187.481Z" fill="white"/>
<path d="M374.929 215.557C372.756 215.557 370.584 215.079 368.924 214.121L335.06 194.569C333.364 193.591 332.43 192.264 332.429 190.833C332.427 189.41 333.347 188.09 335.021 187.118L368.69 167.551C371.987 165.636 377.365 165.634 380.686 167.55L414.55 187.102C416.248 188.081 417.181 189.408 417.185 190.838C417.187 192.26 416.265 193.579 414.59 194.553L380.92 214.12C379.271 215.078 377.102 215.557 374.929 215.557ZM374.681 166.977C372.668 166.977 370.658 167.421 369.132 168.308L335.462 187.875C334.069 188.684 333.303 189.734 333.305 190.832C333.306 191.937 334.085 192.995 335.498 193.811L369.362 213.363C372.438 215.138 377.427 215.138 380.479 213.363L414.148 193.797C415.543 192.986 416.311 191.936 416.309 190.84C416.307 189.735 415.527 188.677 414.113 187.861L380.248 168.309C378.71 167.421 376.693 166.977 374.681 166.977Z" fill="#373B42"/>
<path d="M394.601 199.373C394.992 199.727 394.902 200.185 394.39 200.483L391.527 202.147C391.015 202.444 390.225 202.498 389.604 202.277L384.68 200.514C383.115 201.048 381.45 201.449 379.739 201.7L378.433 204.963C378.271 205.371 377.647 205.657 376.929 205.654H372.857C372.43 205.658 372.034 205.559 371.748 205.394C371.55 205.279 371.404 205.133 371.339 204.967L369.996 201.697C368.282 201.445 366.613 201.052 365.049 200.514L360.137 202.28C359.519 202.502 358.728 202.441 358.22 202.147L355.331 200.479C354.822 200.185 354.714 199.727 355.094 199.369L358.128 196.518C357.195 195.614 356.517 194.652 356.07 193.656L350.42 192.889C350.134 192.852 349.88 192.768 349.681 192.653C349.395 192.488 349.223 192.259 349.229 192.012L349.216 189.653C349.207 189.237 349.699 188.875 350.41 188.784L356.032 188.013C356.467 187.024 357.147 186.055 358.064 185.147L355.005 182.3C354.62 181.942 354.71 181.484 355.222 181.186L358.085 179.523C358.597 179.225 359.388 179.171 360.001 179.397L364.932 181.156C366.497 180.622 368.155 180.232 369.873 179.969L371.185 176.71C371.341 176.298 371.965 176.012 372.683 176.016H376.755C377.179 176.011 377.573 176.109 377.857 176.273C378.058 176.389 378.203 176.537 378.267 176.706L379.616 179.965C381.337 180.228 383.006 180.621 384.577 181.156L389.475 179.389C390.093 179.168 390.89 179.225 391.399 179.519L394.287 181.186C394.796 181.48 394.898 181.942 394.518 182.3L391.483 185.143C392.411 186.051 393.101 187.021 393.555 188.013L399.185 188.784C399.477 188.82 399.734 188.904 399.934 189.019C400.219 189.183 400.389 189.411 400.382 189.657L400.395 192.016C400.404 192.432 399.912 192.794 399.208 192.889L393.58 193.656C393.138 194.656 392.465 195.614 391.548 196.522L394.601 199.373ZM368.764 194.35C372.118 196.287 377.548 196.287 380.888 194.346C384.227 192.405 384.21 189.26 380.856 187.323C377.494 185.383 372.064 185.383 368.724 187.323C365.385 189.264 365.402 192.41 368.764 194.35Z" fill="#024DF5" fill-opacity="0.8"/>
<path d="M500.01 140.56L506.223 136.951L506.252 126.765L500.039 130.375L500.01 140.56Z" fill="#373B42"/>
<path d="M500.009 140.999C499.934 140.999 499.858 140.979 499.79 140.94C499.654 140.862 499.57 140.716 499.57 140.559L499.6 130.374C499.6 130.218 499.684 130.073 499.817 129.995L506.03 126.385C506.168 126.306 506.334 126.306 506.471 126.385C506.606 126.463 506.691 126.609 506.691 126.766L506.661 136.951C506.661 137.107 506.577 137.251 506.444 137.33L500.23 140.94C500.162 140.979 500.085 140.999 500.009 140.999ZM500.477 130.628L500.45 139.796L505.784 136.697L505.811 127.528L500.477 130.628Z" fill="#373B42"/>
<path d="M419.25 14.5673C420.276 13.9648 421.708 14.0464 423.271 14.9578L502.864 60.9051C506.005 62.712 508.528 67.1063 508.512 70.6869L508.349 128.646C508.349 130.436 507.714 131.69 506.689 132.292L512.903 128.678C513.929 128.076 514.564 126.822 514.564 125.032L514.726 67.0895C514.742 63.492 512.203 59.0977 509.078 57.2914L429.485 11.3441C427.922 10.4327 426.49 10.3511 425.465 10.9536L419.25 14.5673Z" fill="#F0F2F5"/>
<path d="M506.689 132.731C506.538 132.731 506.393 132.653 506.311 132.513C506.189 132.305 506.259 132.037 506.467 131.914C506.468 131.913 506.468 131.913 506.468 131.912H506.47C507.399 131.365 507.91 130.205 507.91 128.645L508.073 70.6862C508.089 67.2316 505.654 63.0149 502.645 61.286L423.052 15.3372C421.706 14.5528 420.41 14.4072 419.488 14.937L419.476 14.9446L419.474 14.9454L419.472 14.9472C419.26 15.0664 418.994 14.9978 418.872 14.7886C418.751 14.5803 418.821 14.312 419.028 14.1895C419.03 14.1887 419.03 14.1887 419.03 14.1877L419.032 14.1869C419.039 14.1836 419.044 14.1801 419.049 14.1775L425.243 10.5737C426.441 9.8709 428.07 10.0096 429.706 10.9655L509.297 56.9118C512.55 58.7908 515.181 63.3571 515.166 67.0913L515.003 125.033C515.003 126.917 514.336 128.346 513.124 129.056L506.911 132.672C506.84 132.712 506.765 132.731 506.689 132.731ZM421.437 13.8045C422.099 13.9125 422.795 14.1714 423.493 14.5785L503.084 60.5255C506.335 62.3944 508.966 66.9538 508.951 70.6887L508.788 128.646C508.788 129.439 508.669 130.152 508.443 130.764L512.681 128.297C513.612 127.753 514.125 126.592 514.125 125.031L514.288 67.0882C514.303 63.6336 511.867 59.41 508.858 57.6708L429.265 11.7238C427.912 10.9343 426.604 10.7895 425.687 11.3312L421.437 13.8045Z" fill="#373B42"/>
<path d="M423.277 14.9528C420.149 13.147 417.605 14.6085 417.595 18.2029L417.43 76.1518C417.42 79.7459 419.948 84.1354 423.075 85.9415L489.803 124.465L500.011 140.56L500.04 130.375L502.669 131.893C505.797 133.699 508.341 132.237 508.351 128.643L508.515 70.6939C508.525 67.0997 505.998 62.7102 502.87 60.9041L423.277 14.9528Z" fill="white"/>
<path d="M500.01 140.999C499.863 140.999 499.722 140.924 499.64 140.795L489.49 124.791L422.857 86.3211C419.611 84.4482 416.981 79.8859 416.992 76.151L417.156 18.2021C417.161 16.3025 417.832 14.8727 419.044 14.175C420.258 13.4755 421.839 13.6152 423.497 14.5727L503.09 60.524C506.335 62.3969 508.965 66.9599 508.955 70.6949L508.79 128.644C508.785 130.543 508.115 131.973 506.903 132.67C505.687 133.372 504.105 133.229 502.45 132.272L500.477 131.133L500.449 140.561C500.449 140.756 500.319 140.928 500.132 140.981C500.091 140.993 500.051 140.999 500.01 140.999ZM420.745 14.6156C420.28 14.6156 419.853 14.7218 419.481 14.9363C418.552 15.4704 418.039 16.6311 418.034 18.2039L417.869 76.1528C417.859 79.6082 420.294 83.8285 423.296 85.5616L490.023 124.085C490.085 124.12 490.136 124.17 490.174 124.23L499.576 139.055L499.6 130.374C499.6 130.217 499.684 130.072 499.82 129.994C499.957 129.916 500.122 129.916 500.258 129.994L502.888 131.513C504.262 132.304 505.527 132.445 506.465 131.91C507.394 131.375 507.906 130.214 507.912 128.642L508.076 70.6928C508.087 67.2374 505.652 63.0164 502.65 61.283L423.057 15.3316C422.233 14.8565 421.444 14.6156 420.745 14.6156Z" fill="#373B42"/>
<path d="M456.833 61.0458C455.544 60.3018 454.502 60.8962 454.498 62.3768C454.494 63.8574 455.529 65.6632 456.818 66.4072L490.428 85.8113C491.717 86.5553 492.77 85.9554 492.774 84.4748C492.778 82.9942 491.732 81.1939 490.444 80.4499L456.833 61.0458Z" fill="#DBDEE4"/>
<path d="M476.595 86.5543C475.306 85.8103 474.264 86.4046 474.26 87.8852C474.255 89.3658 475.291 91.1717 476.58 91.9157L490.429 99.911C491.718 100.655 492.771 100.055 492.775 98.5745C492.779 97.0939 491.733 95.2936 490.444 94.5496L476.595 86.5543Z" fill="white"/>
<path d="M491.476 100.672C491.079 100.672 490.648 100.544 490.209 100.292L476.36 92.2951C474.932 91.4713 473.818 89.5341 473.821 87.8848C473.823 87.0079 474.143 86.3409 474.723 86.0075C475.305 85.6724 476.048 85.7323 476.814 86.1747L490.663 94.17C492.099 94.9981 493.218 96.9338 493.213 98.5763C493.211 99.4524 492.889 100.119 492.307 100.455C492.056 100.6 491.775 100.672 491.476 100.672ZM475.547 86.6735C475.402 86.6735 475.271 86.7053 475.16 86.7688C474.863 86.9393 474.701 87.3362 474.699 87.8865C474.695 89.2058 475.657 90.8765 476.799 91.5358L490.648 99.5319C491.126 99.8063 491.572 99.8678 491.869 99.694C492.169 99.5217 492.334 99.1241 492.335 98.5737C492.34 97.2613 491.373 95.5932 490.225 94.9298L476.375 86.9345C476.077 86.7619 475.791 86.6735 475.547 86.6735Z" fill="#373B42"/>
<path d="M373.525 38.4305C374.55 37.8281 375.983 37.9096 377.561 38.8211L457.138 84.7683C460.263 86.5747 462.802 90.9532 462.802 94.5502L462.639 152.509C462.623 154.3 462.005 155.553 460.979 156.138L467.194 152.524C468.203 151.939 468.838 150.686 468.854 148.895L469.017 90.9362C469.017 87.3387 466.477 82.9607 463.352 81.1538L383.776 35.2066C382.197 34.2954 380.765 34.2141 379.739 34.8163L373.525 38.4305Z" fill="#F0F2F5"/>
<path d="M460.98 156.577C460.829 156.577 460.682 156.498 460.599 156.358C460.479 156.148 460.55 155.88 460.759 155.759L460.795 155.738C461.688 155.207 462.187 154.061 462.201 152.505L462.364 94.5494C462.364 91.1016 459.92 86.8832 456.919 85.1482L377.343 39.2007C375.968 38.4077 374.699 38.2603 373.766 38.7987L373.746 38.8106C373.535 38.9316 373.267 38.862 373.146 38.6521C373.024 38.4437 373.094 38.1754 373.302 38.0529C373.31 38.0479 373.319 38.0428 373.327 38.0385L379.518 34.4372C380.734 33.7222 382.323 33.8612 383.995 34.8272L463.572 80.7742C466.816 82.6497 469.456 87.2086 469.456 90.9367L469.293 148.896C469.275 150.789 468.608 152.211 467.416 152.904L461.239 156.496C461.225 156.504 461.212 156.512 461.198 156.52C461.129 156.558 461.054 156.577 460.98 156.577ZM375.721 37.6611C376.379 37.7709 377.072 38.0313 377.782 38.4412L457.357 84.3892C460.601 86.2639 463.241 90.8226 463.241 94.5507L463.079 152.51C463.072 153.3 462.954 154.008 462.73 154.613L466.974 152.145C467.889 151.614 468.4 150.458 468.416 148.891L468.578 90.9357C468.578 87.4879 466.135 83.2697 463.133 81.5337L383.556 35.5867C382.171 34.7868 380.893 34.6463 379.962 35.1949L375.721 37.6611Z" fill="#373B42"/>
<path d="M377.56 38.8225C374.432 37.0167 371.878 38.4604 371.868 42.0546L371.703 100.016C371.693 103.61 374.231 107.993 377.359 109.799L379.977 111.311L379.948 121.497L390.224 117.227L456.941 155.745C460.069 157.551 462.624 156.107 462.634 152.513L462.798 94.5516C462.808 90.9574 460.271 86.5738 457.143 84.768L377.56 38.8225Z" fill="white"/>
<path d="M459.49 156.965C458.631 156.965 457.689 156.683 456.722 156.124L390.192 117.715L380.116 121.902C379.984 121.958 379.823 121.944 379.705 121.861C379.581 121.779 379.509 121.642 379.509 121.495L379.538 111.564L377.14 110.178C373.889 108.304 371.255 103.743 371.265 100.014L371.429 42.0533C371.434 40.1614 372.103 38.7367 373.312 38.0415C374.532 37.3386 376.118 37.4824 377.779 38.4427L457.362 84.3879C460.613 86.2636 463.248 90.8238 463.237 94.5519L463.073 152.513C463.068 154.405 462.399 155.83 461.19 156.525C460.681 156.819 460.107 156.965 459.49 156.965ZM390.224 116.788C390.3 116.788 390.377 116.807 390.444 116.847L457.161 155.364C458.542 156.161 459.814 156.301 460.753 155.765C461.679 155.233 462.19 154.077 462.195 152.512L462.36 94.5506C462.37 91.1021 459.93 86.8846 456.923 85.1479L377.34 39.2027C375.959 38.4053 374.685 38.264 373.749 38.8022C372.823 39.3345 372.312 40.4902 372.307 42.0554L372.142 100.016C372.132 103.466 374.572 107.683 377.579 109.419L380.197 110.931C380.332 111.009 380.416 111.155 380.416 111.312L380.389 120.838L390.057 116.821C390.11 116.799 390.168 116.788 390.224 116.788Z" fill="#373B42"/>
<path d="M441.091 96.8418L441.01 125.192C440.993 127.833 439.13 128.886 436.83 127.573L397.559 104.893C395.258 103.565 393.396 100.341 393.412 97.7006L393.493 69.3666C393.493 66.7421 395.356 65.6729 397.656 67.001L436.943 89.6812C439.244 91.0096 441.091 94.2172 441.091 96.8418Z" fill="#024DF5" fill-opacity="0.8"/>
<path d="M352.653 369.34C351.126 369.34 349.698 369.002 348.635 368.388C347.679 367.836 347.151 367.144 347.149 366.439C347.149 365.745 347.663 365.064 348.595 364.522L390.265 340.308C391.324 339.693 392.75 339.354 394.284 339.354C395.82 339.354 397.256 339.695 398.326 340.313C399.272 340.859 399.793 341.545 399.793 342.244C399.794 342.942 399.278 343.626 398.34 344.171L356.671 368.386C355.611 369.001 354.185 369.34 352.653 369.34Z" fill="#BEC4CD"/>
<path d="M23.9965 164.121L11.6992 156.975L11.5176 92.9354L23.8149 100.082L23.9965 164.121Z" fill="#F0F2F5"/>
<path d="M23.9971 164.559C23.9218 164.559 23.8449 164.54 23.7763 164.5L11.4777 157.353C11.3442 157.275 11.2605 157.132 11.2605 156.976L11.0791 92.9364C11.0791 92.7794 11.1629 92.6344 11.2981 92.5557C11.4349 92.4779 11.6009 92.4771 11.7377 92.5565L24.0363 99.7028C24.1697 99.7806 24.2535 99.9244 24.2535 100.08L24.4349 164.119C24.4349 164.277 24.3511 164.422 24.2159 164.5C24.1477 164.54 24.0724 164.559 23.9971 164.559ZM12.1363 156.722L23.5572 163.359L23.3777 100.334L11.9567 93.6975L12.1363 156.722Z" fill="#373B42"/>
<path d="M23.8149 100.082L11.5176 92.9352L171.726 0.438782L184.023 7.58532L23.8149 100.082Z" fill="#DBDEE4"/>
<path d="M23.8157 100.519C23.7404 100.519 23.6636 100.5 23.5949 100.46L11.2963 93.3136C11.1611 93.2352 11.0791 93.0908 11.0791 92.9348C11.0791 92.7782 11.1629 92.634 11.2981 92.5559L171.507 0.059698C171.644 -0.0181767 171.81 -0.0189476 171.947 0.0604641L184.244 7.20675C184.379 7.28514 184.461 7.42962 184.461 7.58562C184.461 7.74214 184.377 7.88636 184.242 7.96449L24.0347 100.461C23.9663 100.5 23.891 100.519 23.8157 100.519ZM12.3915 92.9363L23.816 99.5754L183.149 7.58383L171.727 0.944755L12.3915 92.9363Z" fill="#373B42"/>
<path d="M184.021 7.58527L184.202 71.6247L23.9941 164.121L23.8125 100.081L184.021 7.58527Z" fill="white"/>
<path d="M23.9954 164.559C23.9201 164.559 23.8448 164.54 23.7764 164.501C23.6411 164.423 23.5573 164.279 23.5573 164.122L23.376 100.083C23.376 99.9257 23.4598 99.7807 23.595 99.702L183.803 7.20588C183.94 7.12801 184.104 7.12749 184.241 7.20537C184.376 7.28375 184.46 7.42772 184.46 7.58398L184.641 71.6234C184.641 71.7804 184.557 71.9254 184.422 72.004L24.2144 164.5C24.146 164.539 24.0707 164.559 23.9954 164.559ZM24.2521 100.334L24.4316 163.364L183.765 71.3721L183.586 8.34249L24.2521 100.334Z" fill="#373B42"/>
<path d="M92.4771 70.3536L92.6003 113.838L34.8029 147.268L34.6797 103.784L92.4771 70.3536Z" fill="#024DF5" fill-opacity="0.8"/>
<path d="M102.739 73.6428C102.133 73.6428 101.545 73.3284 101.22 72.7664C100.735 71.9285 101.023 70.8572 101.861 70.3736L167.416 32.5254C168.25 32.0405 169.323 32.3279 169.809 33.1666C170.293 34.0045 170.006 35.0758 169.168 35.5595L103.613 73.4076C103.337 73.5672 103.036 73.6428 102.739 73.6428Z" fill="#DBDEE4"/>
<path d="M102.739 89.5131C102.133 89.5131 101.545 89.1988 101.22 88.6367C100.735 87.7988 101.023 86.7275 101.861 86.2439L167.416 48.3958C168.25 47.9116 169.323 48.1985 169.809 49.0369C170.293 49.8749 170.006 50.9462 169.168 51.4298L103.613 89.2779C103.337 89.4375 103.036 89.5131 102.739 89.5131Z" fill="#DBDEE4"/>
<path d="M102.739 105.383C102.133 105.383 101.545 105.069 101.22 104.507C100.735 103.669 101.023 102.598 101.861 102.114L153.885 72.0778C154.718 71.5929 155.793 71.8806 156.279 72.719C156.763 73.5569 156.475 74.6282 155.637 75.1118L103.613 105.148C103.337 105.308 103.036 105.383 102.739 105.383Z" fill="#DBDEE4"/>
<path d="M54.2405 105.83C54.6137 105.615 54.927 105.573 55.1747 105.721C55.4283 105.865 55.5497 106.149 55.551 106.577C55.5528 107.228 55.2652 107.872 54.6762 108.51L42.9251 121.315L54.7103 120.531C55.301 120.495 55.5913 120.806 55.5933 121.456C55.5946 121.878 55.4752 122.307 55.2231 122.744C54.9772 123.17 54.6644 123.496 54.2912 123.711C54.1168 123.812 53.942 123.878 53.7671 123.903L40.7036 124.704C39.92 124.761 39.5268 124.33 39.5242 123.431L39.5235 123.127C39.5209 122.227 39.9103 121.351 40.6918 120.498L53.7171 106.243C53.8913 106.067 54.0658 105.931 54.2405 105.83Z" fill="white"/>
<path d="M68.886 90.1635C69.2833 89.9342 69.6027 89.902 69.8563 90.0605C70.104 90.2155 70.2314 90.5022 70.2326 90.9307C70.2329 91.0278 70.2211 91.1451 70.2034 91.2663C70.1796 91.3908 70.1558 91.4879 70.1379 91.5466L61.5524 125.672C61.4689 126.018 61.319 126.361 61.0969 126.69C60.8807 127.016 60.6102 127.269 60.2852 127.457C59.8878 127.686 59.5684 127.718 59.3148 127.567C59.0671 127.405 58.9398 127.118 58.9385 126.689C58.9382 126.592 58.95 126.482 58.9677 126.354C58.9915 126.229 59.0092 126.136 59.0333 126.073L67.6128 91.9513C67.7022 91.6016 67.8521 91.2658 68.0742 90.9366C68.2904 90.6113 68.5609 90.3513 68.886 90.1635Z" fill="white"/>
<path d="M74.8717 93.9199C75.0705 93.8052 75.2449 93.7391 75.4017 93.7247L88.4649 92.9168C89.2485 92.8661 89.6418 93.2905 89.6443 94.1897L89.6451 94.494C89.6477 95.3931 89.2583 96.2761 88.4767 97.1223L75.4516 111.384C75.2954 111.55 75.1209 111.686 74.9222 111.8C74.5789 111.998 74.2717 112.03 74.0058 111.9C73.7464 111.759 73.6129 111.476 73.6116 111.053C73.6098 110.403 73.9034 109.756 74.4923 109.111L86.2434 96.3053L74.4582 97.089C73.8675 97.1323 73.5711 96.8251 73.5693 96.175C73.5681 95.7461 73.6995 95.3168 73.9574 94.877C74.2218 94.4338 74.5284 94.118 74.8717 93.9199Z" fill="white"/>
<g opacity="0.1">
<path d="M79.2852 418.662C92.495 426.289 92.5505 438.651 79.4265 446.277C66.3023 453.904 44.9762 453.905 31.7664 446.278C18.5566 438.651 18.4582 426.281 31.5822 418.654C44.7061 411.027 66.0754 411.035 79.2852 418.662Z" fill="black"/>
</g>
<path d="M89.7228 417.177L89.6829 427.368C89.6562 432.336 86.3926 437.292 79.8657 441.088C74.3775 444.272 67.4642 446.124 60.3109 446.643C57.4336 446.856 54.5163 446.856 51.6524 446.63C44.5525 446.097 37.6922 444.246 32.2175 441.089C25.5572 437.239 22.2271 432.203 22.2403 427.155L22.2936 416.991C22.2936 422.026 25.6238 427.061 32.2709 430.898C37.7324 434.042 44.5792 435.893 51.6524 436.439C54.5163 436.666 57.4336 436.666 60.3109 436.452C67.4906 435.946 74.4174 434.095 79.9188 430.897C86.446 427.102 89.7095 422.146 89.7228 417.177Z" fill="#BEC4CD"/>
<path d="M60.3109 436.452V446.643C57.4335 446.856 54.5162 446.856 51.6523 446.63V436.439C54.5162 436.666 57.4335 436.666 60.3109 436.452Z" fill="#F0F2F5"/>
<path d="M56.0738 447.225C47.3645 447.225 38.6448 445.305 31.9929 441.464C25.4078 437.662 21.7884 432.582 21.8057 427.159L21.8571 416.972C21.8571 416.971 21.8571 416.97 21.8571 416.968V416.966C21.8588 416.725 22.0542 416.53 22.2959 416.53H22.2977C22.5393 416.531 22.7349 416.728 22.7349 416.97C22.7349 416.971 22.7349 416.971 22.7349 416.972V416.972C22.7212 422.067 26.1845 426.875 32.4832 430.513C45.5439 438.053 66.7275 438.055 79.7025 430.513C85.8488 426.942 89.2518 422.224 89.2897 417.224V417.17C89.2915 416.929 89.4869 416.734 89.7285 416.734H89.7303C89.972 416.735 90.1676 416.932 90.1676 417.174C90.1676 417.175 90.1676 417.175 90.1676 417.176V417.176C90.1676 417.194 90.1676 417.21 90.1676 417.227L90.1163 427.368C90.1008 432.71 86.5417 437.716 80.0936 441.464C73.4823 445.304 64.7831 447.225 56.0738 447.225ZM22.7123 421.493L22.6831 427.163C22.6676 432.257 26.1291 437.067 32.4314 440.704C45.4921 448.245 66.6756 448.246 79.6506 440.704C85.8193 437.12 89.2242 432.383 89.2379 427.365L89.2671 421.74C87.8305 425.331 84.712 428.618 80.1446 431.273C66.9264 438.953 45.3483 438.955 32.0442 431.273C27.3345 428.553 24.1424 425.179 22.7123 421.493Z" fill="#373B42"/>
<path d="M79.7823 403.277C92.9921 410.904 93.0475 423.266 79.9236 430.893C66.7994 438.52 45.4733 438.52 32.2634 430.893C19.0536 423.266 18.9553 410.896 32.0793 403.269C45.2032 395.642 66.5724 395.651 79.7823 403.277Z" fill="white"/>
<path d="M56.1245 437.034C47.4152 437.034 38.6955 435.114 32.0436 431.273C25.4824 427.485 21.8651 422.422 21.8565 417.018C21.8496 411.66 25.4018 406.643 31.8586 402.89C45.0854 395.205 66.6824 395.206 80.0017 402.898C86.5492 406.677 90.1599 411.73 90.1668 417.124C90.1736 422.487 86.6145 427.512 80.144 431.273C73.5348 435.113 64.8338 437.034 56.1245 437.034ZM55.8862 397.993C47.3311 397.993 38.7897 399.878 32.3007 403.649C26.1252 407.238 22.7272 411.985 22.7341 417.017C22.7427 422.094 26.204 426.888 32.4824 430.513C45.5431 438.054 66.7266 438.055 79.7016 430.513C85.8909 426.917 89.2957 422.162 89.2888 417.125C89.282 412.057 85.8273 407.275 79.5626 403.658C73.022 399.881 64.4464 397.993 55.8862 397.993Z" fill="#373B42"/>
<path d="M32.4163 417.05C32.4163 419.89 33.9482 422.739 37.0016 425.15C37.7088 425.707 38.5016 426.243 39.38 426.746C48.5937 432.071 63.5285 432.071 72.6992 426.736C73.5136 426.264 74.2528 425.771 74.917 425.246C78.0024 422.857 79.5453 419.997 79.556 417.147C79.5773 413.633 77.2526 410.108 72.6134 407.43C63.3783 402.094 48.4435 402.094 39.2727 407.43C37.8477 408.255 36.6372 409.165 35.6516 410.14C35.2659 410.515 34.9124 410.912 34.591 411.308C33.6267 412.508 32.9839 413.783 32.6625 415.079C32.6089 415.294 32.5662 415.508 32.5339 415.722C32.4589 416.14 32.416 416.569 32.416 416.986C32.4163 417.008 32.4163 417.029 32.4163 417.05Z" fill="white"/>
<path d="M56.0448 431.169C49.9379 431.169 43.8242 429.821 39.161 427.126C38.2831 426.623 37.4654 426.073 36.7298 425.495C33.6215 423.04 31.9775 420.12 31.9775 417.05V416.986C31.9775 416.557 32.0205 416.105 32.1025 415.644C32.1351 415.428 32.1813 415.201 32.238 414.973C32.5774 413.596 33.2546 412.27 34.2507 411.033C34.6089 410.588 34.9776 410.182 35.3463 409.826C36.363 408.819 37.611 407.885 39.053 407.05C48.3351 401.651 63.489 401.65 72.8328 407.05C77.4738 409.729 80.018 413.316 79.9957 417.15C79.9853 420.201 78.276 423.201 75.1867 425.593C74.5233 426.119 73.7793 426.618 72.9184 427.115C68.2756 429.817 62.1618 431.169 56.0448 431.169ZM55.9198 403.865C49.9621 403.865 44.013 405.18 39.4937 407.81C38.1152 408.607 36.927 409.496 35.9602 410.452C35.6157 410.787 35.2711 411.167 34.9332 411.584C34.0195 412.72 33.3987 413.931 33.0902 415.184C33.0389 415.386 32.9992 415.586 32.9685 415.788C32.893 416.209 32.8555 416.608 32.8555 416.986V417.05C32.8555 419.841 34.383 422.524 37.2754 424.805C37.9749 425.357 38.7567 425.883 39.5986 426.365C48.6918 431.619 63.4397 431.617 72.4781 426.355C73.3029 425.878 74.0125 425.403 74.6452 424.902C77.5203 422.675 79.1078 419.922 79.1183 417.145C79.1388 413.639 76.7506 410.324 72.3942 407.809C67.8436 405.18 61.8773 403.865 55.9198 403.865Z" fill="#373B42"/>
<path d="M79.5567 417.147C79.546 419.997 78.0032 422.857 74.9177 425.246C74.2106 424.689 73.4285 424.164 72.5608 423.661C63.3255 418.325 48.3908 418.325 39.2198 423.661C38.4057 424.132 37.6663 424.636 37.0023 425.15C33.9489 422.739 32.417 419.889 32.417 417.05V416.986C32.417 416.568 32.4599 416.14 32.5346 415.722C32.5669 415.508 32.6096 415.293 32.6635 415.079C32.9849 413.783 33.6275 412.508 34.592 411.308C34.9132 410.911 35.2669 410.515 35.6526 410.14C36.6382 409.165 37.849 408.254 39.2737 407.43C48.4447 402.094 63.3793 402.094 72.6146 407.43C77.2531 410.108 79.5783 413.633 79.5567 417.147Z" fill="#373B42"/>
<path d="M74.9173 425.685C74.8213 425.685 74.7252 425.653 74.6447 425.591C73.9624 425.052 73.2081 424.544 72.3388 424.04C63.2384 418.78 48.4789 418.78 39.4402 424.04C38.6825 424.478 37.9538 424.968 37.2716 425.497C37.1138 425.62 36.8909 425.619 36.7298 425.495C33.6215 423.04 31.9775 420.12 31.9775 417.05C31.9775 416.557 32.0205 416.105 32.1025 415.644C32.1351 415.428 32.1813 415.201 32.238 414.973C32.5774 413.596 33.2546 412.27 34.2507 411.033C34.6089 410.588 34.9776 410.182 35.3463 409.826C36.363 408.819 37.611 407.885 39.053 407.05C48.3351 401.651 63.4872 401.651 72.8343 407.05C77.4753 409.73 80.0178 413.316 79.9954 417.15C79.9835 420.202 78.2757 423.201 75.1864 425.593C75.1077 425.654 75.0116 425.685 74.9173 425.685ZM55.8664 419.231C61.9819 419.231 68.1076 420.58 72.7794 423.281C73.5699 423.74 74.2727 424.203 74.9138 424.689C77.6176 422.504 79.1073 419.835 79.1175 417.145V417.145C79.1381 413.64 76.7499 410.325 72.3952 407.81C63.2915 402.551 48.5317 402.551 39.4933 407.81C38.1149 408.607 36.9267 409.496 35.9599 410.452C35.6154 410.787 35.2708 411.167 34.9329 411.584C34.0191 412.72 33.3984 413.931 33.0899 415.184C33.0386 415.386 32.999 415.586 32.9682 415.788C32.8928 416.209 32.8551 416.608 32.8551 416.986C32.8551 419.753 34.29 422.357 37.0094 424.593C37.6438 424.12 38.3106 423.679 38.9997 423.281C43.6392 420.581 49.7493 419.231 55.8664 419.231Z" fill="#373B42"/>
<path d="M94.388 372.862L79.0752 417.632C79.0811 420.917 76.795 424.059 72.6366 426.471C68.2425 429.027 62.3668 430.429 56.0889 430.429C49.8052 430.429 43.9064 429.022 39.4839 426.471C35.2794 424.042 32.9534 420.894 32.9303 417.597H32.9189L17.5889 372.758C16.262 367.836 18.9788 362.799 25.5956 358.68C32.9705 354.091 43.8434 351.443 55.8592 351.443C67.8751 351.443 78.7823 354.079 86.2206 358.68C92.9404 362.827 95.7146 367.905 94.388 372.862Z" fill="url(#paint0_linear_212_5455)"/>
<path d="M110.727 359.534L110.69 372.157C110.69 373.044 109.642 373.796 108.151 374.006L96.1081 375.645C95.3807 377.297 94.3577 378.899 93.0019 380.44L97.883 377.605C98.5116 377.235 98.8445 376.754 98.8445 376.261L98.8074 388.896C98.8074 389.389 98.4745 389.869 97.8459 390.239L91.7199 393.801C91.3995 393.986 91.0296 394.122 90.623 394.221C89.6615 394.455 88.5521 394.418 87.6153 394.072L77.0765 390.301C73.736 391.447 70.1738 392.31 66.5131 392.84L63.7274 399.817C63.5302 400.297 63.0249 400.704 62.3591 400.963C61.8291 401.185 61.188 401.296 60.5101 401.296H51.7957C50.9821 401.308 50.218 401.148 49.6387 400.84C49.5647 400.815 49.4906 400.778 49.4291 400.741C48.9979 400.495 48.6897 400.187 48.554 399.829L45.6822 392.84C42.0091 392.298 38.4469 391.46 35.0941 390.301L24.5922 394.085C24.4443 394.134 24.2964 394.184 24.1361 394.221C23.9142 394.27 23.6924 394.295 23.4582 394.319C22.4103 394.43 21.2887 394.258 20.4998 393.802L14.3245 390.227C13.6712 389.857 13.3262 389.352 13.3262 388.846L13.3633 376.224C13.3633 376.73 13.7083 377.223 14.3616 377.605L18.8115 380.169C17.5543 378.714 16.5928 377.198 15.9024 375.645L3.82281 374.006C3.20638 373.919 2.66415 373.747 2.23296 373.5C1.64143 373.155 1.2717 372.674 1.2717 372.157V372.12L1.24707 367.078L1.28392 354.456L1.30855 359.498V359.522C1.30855 360.04 1.67827 360.52 2.27005 360.866C2.7015 361.112 3.24373 361.285 3.85991 361.371L15.9395 363.01C16.8886 365.143 18.343 367.201 20.3399 369.137L20.3028 381.032L20.5369 381.167C21.1779 381.537 22.0406 381.734 22.9035 381.734V381.709C23.1992 381.709 23.495 381.697 23.791 381.66C24.0746 381.611 24.3704 381.549 24.6293 381.451L35.1312 377.679C38.484 378.825 42.0459 379.664 45.7193 380.206L48.5911 387.195C48.7268 387.552 49.035 387.861 49.4662 388.107C49.5279 388.144 49.5772 388.169 49.6389 388.193C50.2305 388.501 51.007 388.674 51.8328 388.662H60.535C61.2007 388.662 61.8293 388.551 62.3594 388.341C63.0495 388.095 63.5549 387.676 63.7524 387.195L66.5504 380.218C70.2112 379.676 73.7733 378.813 77.1139 377.679L87.6402 381.439C88.2074 381.648 88.836 381.747 89.4646 381.735V381.71C89.8836 381.71 90.3028 381.661 90.6847 381.574C91.0791 381.488 91.4491 381.352 91.757 381.168L91.7695 381.155L91.8066 369.137C93.7664 367.202 95.2086 365.143 96.1455 363.011L108.188 361.372C109.495 361.199 110.456 360.595 110.678 359.855V359.843C110.715 359.744 110.727 359.646 110.727 359.534Z" fill="#373B42"/>
<path d="M51.7072 401.736C50.8585 401.736 50.051 401.557 49.432 401.228C49.3771 401.216 49.2709 401.159 49.2041 401.119C48.671 400.814 48.3125 400.431 48.1446 399.985L45.3706 393.237C41.7361 392.687 38.2832 391.857 35.0976 390.766L24.7407 394.499C24.5555 394.56 24.4013 394.61 24.2333 394.649C23.9932 394.702 23.7549 394.729 23.5046 394.756C22.3269 394.878 21.1163 394.666 20.2796 394.182L14.1041 390.607C13.3309 390.171 12.8868 389.529 12.8868 388.847L12.9244 376.223C12.9244 375.981 13.1215 375.786 13.3632 375.786C13.6066 375.786 13.802 375.983 13.802 376.225C13.802 376.576 14.0797 376.932 14.5821 377.227L17.1057 378.681C16.5211 377.828 16.0169 376.947 15.6023 376.047L3.76405 374.441C3.08511 374.346 2.49713 374.158 2.01359 373.882C1.26096 373.444 0.832323 372.815 0.832323 372.157L0.806641 367.082L0.844265 354.455C0.844265 354.213 1.04142 354.017 1.28307 354.017C1.52471 354.017 1.72037 354.213 1.7219 354.455L1.74578 359.496C1.74578 359.859 2.01664 360.211 2.48976 360.487C2.86684 360.702 3.36231 360.859 3.91954 360.937L15.9961 362.576C16.1471 362.596 16.2772 362.693 16.3389 362.832C17.2836 364.955 18.7322 366.97 20.644 368.822C20.7296 368.905 20.7777 369.019 20.7777 369.139L20.74 380.779L20.7555 380.787C21.2835 381.093 22.0123 381.274 22.7682 381.294C22.8112 381.28 22.8556 381.271 22.9019 381.271C23.1796 381.271 23.4555 381.26 23.735 381.225C23.9424 381.189 24.2341 381.132 24.4722 381.041L34.98 377.266C35.0742 377.232 35.1771 377.231 35.2714 377.264C38.539 378.381 42.076 379.225 45.781 379.771C45.9352 379.794 46.0638 379.895 46.1237 380.038L48.9955 387.028C49.0933 387.287 49.3299 387.524 49.6831 387.726C49.7278 387.753 49.7586 387.77 49.7962 387.784C50.3791 388.085 51.1027 388.22 51.8243 388.223H60.5337C61.1405 388.223 61.7167 388.123 62.1967 387.933C62.771 387.727 63.1945 387.392 63.3437 387.028L66.14 380.054C66.1982 379.909 66.3285 379.807 66.4827 379.784C70.0881 379.249 73.6182 378.401 76.9717 377.263C77.0627 377.232 77.1654 377.233 77.2599 377.266L87.7865 381.024C88.2596 381.199 88.7876 381.293 89.3279 381.296C89.3708 381.28 89.417 381.27 89.4633 381.27C89.8353 381.27 90.2245 381.227 90.5879 381.145C90.8605 381.086 91.1125 381.001 91.3285 380.897L91.3662 369.135C91.3662 369.018 91.4142 368.906 91.4965 368.824C93.386 366.958 94.8157 364.943 95.7432 362.833C95.8049 362.694 95.9335 362.596 96.0844 362.575L108.127 360.936C109.21 360.793 110.054 360.323 110.246 359.759C110.251 359.733 110.258 359.708 110.266 359.686C110.277 359.659 110.287 359.62 110.287 359.534V359.532C110.287 359.291 110.484 359.095 110.726 359.095C110.969 359.095 111.165 359.292 111.165 359.534C111.165 359.535 111.165 359.535 111.165 359.536C111.165 359.538 111.165 359.541 111.165 359.543L111.127 372.158C111.127 373.277 109.954 374.194 108.211 374.44L96.4069 376.047C95.9594 377.027 95.409 377.984 94.7626 378.909L97.6601 377.225C98.1368 376.945 98.4025 376.604 98.4041 376.266V376.259C98.4041 376.018 98.6012 375.822 98.8428 375.822C99.0863 375.822 99.2817 376.019 99.2817 376.261C99.2817 376.261 99.2817 376.261 99.2817 376.262V376.263C99.2817 376.265 99.2817 376.267 99.2817 376.268L99.2441 388.897C99.2441 389.558 98.8259 390.17 98.0679 390.616L91.9386 394.181C91.5959 394.38 91.1997 394.532 90.7248 394.647C89.6464 394.909 88.4566 394.85 87.4623 394.484L77.0711 390.765C73.7931 391.881 70.347 392.711 66.8255 393.237L64.1339 399.979C63.8923 400.566 63.3195 401.059 62.5171 401.371C61.953 401.608 61.2553 401.735 60.5095 401.735H51.7951C51.7674 401.736 51.7364 401.736 51.7072 401.736ZM35.0943 389.862C35.1423 389.862 35.1921 389.869 35.2384 389.886C38.4837 391.008 42.0191 391.856 45.7462 392.405C45.9004 392.428 46.0289 392.53 46.0892 392.673L48.9609 399.663C49.0588 399.922 49.2954 400.159 49.6468 400.361C49.6966 400.391 49.7428 400.413 49.7789 400.425C50.3567 400.726 51.0768 400.88 51.79 400.858H60.5113C61.1422 400.858 61.7218 400.754 62.1898 400.559C62.7676 400.334 63.1773 400.004 63.3213 399.651L66.1057 392.677C66.1639 392.532 66.296 392.428 66.4502 392.406C70.0591 391.884 73.5857 391.036 76.9341 389.886C77.0302 389.854 77.1313 389.855 77.2238 389.888L87.7626 393.66C88.5907 393.965 89.6228 394.013 90.5195 393.795C90.9053 393.702 91.2346 393.576 91.4986 393.422L97.626 389.86C98.0974 389.583 98.3682 389.231 98.3682 388.896L98.4007 377.789C98.3098 377.857 98.2104 377.922 98.1057 377.984L93.2231 380.82C93.0345 380.926 92.7995 380.886 92.6625 380.719C92.5271 380.553 92.5304 380.312 92.6729 380.151C93.9655 378.683 94.9857 377.108 95.7076 375.469C95.7694 375.329 95.8979 375.231 96.0489 375.211L108.091 373.572C109.343 373.395 110.251 372.8 110.251 372.157L110.284 361.06C109.775 361.433 109.07 361.698 108.246 361.807L96.4468 363.413C95.4969 365.493 94.0842 367.478 92.2463 369.321L92.2087 381.157C92.2087 381.273 92.1625 381.383 92.0801 381.466C92.0545 381.491 92.0149 381.525 91.9841 381.544C91.6429 381.748 91.2383 381.903 90.7804 382.003C90.4034 382.088 90.0004 382.137 89.6096 382.147C89.5359 382.176 89.4485 382.174 89.3644 382.174C88.7093 382.174 88.0632 382.063 87.4887 381.849L77.1113 378.144C73.8281 379.248 70.3821 380.079 66.8641 380.615L64.1603 387.359C63.9134 387.96 63.3117 388.467 62.5077 388.754C61.9404 388.979 61.2528 389.101 60.5362 389.101H51.8338C50.9543 389.102 50.1039 388.93 49.4369 388.582C49.3939 388.568 49.3289 388.535 49.2433 388.484C48.7102 388.18 48.3501 387.797 48.1819 387.35L45.408 380.602C41.7955 380.056 38.3411 379.229 35.135 378.144L24.7796 381.864C24.4778 381.979 24.1332 382.047 23.8674 382.093C23.5828 382.129 23.3138 382.144 23.0444 382.148C23 382.164 22.9534 382.174 22.9039 382.174C21.9508 382.174 21.0076 381.946 20.3185 381.547L20.0837 381.412C19.9483 381.334 19.8642 381.188 19.8642 381.03L19.9018 369.321C18.0416 367.492 16.6082 365.506 15.6396 363.412L3.80139 361.806C3.12245 361.711 2.53627 361.523 2.05273 361.247C1.92746 361.173 1.81109 361.095 1.70462 361.012L1.6858 367.08L1.71148 372.117C1.71148 372.494 1.98234 372.846 2.45394 373.121C2.83101 373.336 3.3265 373.493 3.88551 373.571L15.9621 375.21C16.113 375.231 16.2433 375.327 16.3048 375.466C16.9889 377.008 17.9437 378.493 19.1441 379.882C19.2831 380.044 19.2864 380.284 19.1492 380.449C19.0137 380.614 18.7754 380.655 18.5919 380.55L14.143 377.986C14.0195 377.913 13.9047 377.837 13.7985 377.757L13.7659 388.848C13.7659 389.202 14.0487 389.566 14.5409 389.845L20.7197 393.422C21.4037 393.818 22.412 393.99 23.4131 393.883C23.6291 393.86 23.8367 393.837 24.0423 393.792C24.1777 393.761 24.3063 393.717 24.433 393.675L34.9459 389.887C34.9932 389.87 35.0447 389.862 35.0943 389.862Z" fill="#373B42"/>
<path d="M98.6485 337.717L98.6114 350.352C98.6114 350.697 98.4511 351.042 98.1182 351.362L91.6348 357.439L91.6716 344.805L98.155 338.728C98.4882 338.42 98.6485 338.062 98.6485 337.717Z" fill="#373B42"/>
<path d="M91.6341 357.878C91.5742 357.878 91.5157 357.866 91.4593 357.841C91.2982 357.772 91.1953 357.613 91.1953 357.437L91.2329 344.803C91.2329 344.682 91.2827 344.567 91.3719 344.484L97.8541 338.407C98.0856 338.194 98.2073 337.958 98.2091 337.721V337.716C98.2091 337.474 98.4062 337.278 98.6478 337.278C98.8913 337.278 99.0867 337.475 99.0867 337.717V337.718V337.718C99.0867 337.72 99.0867 337.722 99.0867 337.724L99.0506 350.352C99.0506 350.823 98.8329 351.282 98.4233 351.678L91.9342 357.759C91.8519 357.837 91.7439 357.878 91.6341 357.878ZM92.1108 344.995L92.0765 356.423L97.8183 351.042C98.0515 350.816 98.1732 350.583 98.1732 350.352L98.2042 339.282L92.1108 344.995Z" fill="#373B42"/>
<path d="M20.2046 344.817L20.1675 357.451L13.6226 351.362C13.2775 351.042 13.1172 350.684 13.1172 350.327L13.1543 337.705C13.1543 338.05 13.3144 338.407 13.6597 338.728L20.2046 344.817Z" fill="#373B42"/>
<path d="M20.1673 357.89C20.0594 357.89 19.9514 357.85 19.869 357.773L13.3251 351.684C12.9015 351.293 12.6787 350.823 12.6787 350.327L12.7148 337.704C12.7148 337.461 12.9119 337.266 13.1536 337.266C13.397 337.266 13.5924 337.463 13.5924 337.705C13.5924 337.941 13.7192 338.183 13.9576 338.406L20.5033 344.495C20.5942 344.578 20.6438 344.695 20.6438 344.818L20.6062 357.453C20.6062 357.627 20.5015 357.785 20.3422 357.854C20.2855 357.878 20.2255 357.89 20.1673 357.89ZM13.5873 339.261L13.5566 350.328C13.5566 350.576 13.6801 350.817 13.9217 351.04L19.7321 356.447L19.7664 345.007L13.5873 339.261Z" fill="#373B42"/>
<path d="M74.341 357.021L74.2999 369.643C74.3077 366.91 72.5052 364.173 68.8981 362.09C61.7103 357.94 50.0977 357.94 42.9564 362.091C39.4087 364.152 37.6326 366.85 37.625 369.552L37.6662 356.929C37.6738 354.227 39.4499 351.53 42.9976 349.468C50.1391 345.318 61.7515 345.318 68.9393 349.468C72.5464 351.551 74.3487 354.287 74.341 357.021Z" fill="#373B42"/>
<path d="M74.2992 370.082H74.2974C74.0558 370.082 73.8601 369.884 73.8601 369.642C73.8687 366.952 72.0291 364.405 68.6791 362.47C61.626 358.398 50.1821 358.398 43.1768 362.47C39.8903 364.38 38.0745 366.893 38.0644 369.545V369.554C38.0644 369.795 37.8672 369.991 37.6255 369.991C37.6255 369.991 37.6256 369.991 37.6238 369.991C37.3822 369.99 37.1865 369.793 37.1865 369.551L37.2259 356.927C37.2363 353.947 39.206 351.164 42.7755 349.088C50.0276 344.876 61.8623 344.876 69.1591 349.088C72.7921 351.187 74.7893 354.004 74.7792 357.023L74.738 369.645C74.738 369.887 74.5411 370.082 74.2992 370.082ZM55.9102 358.551C60.6866 358.551 65.4699 359.605 69.1182 361.711C71.3469 362.998 72.9603 364.556 73.8705 366.264L73.9015 357.019C73.9102 354.329 72.0705 351.782 68.7206 349.848C61.6674 345.775 50.2235 345.777 43.2181 349.848C39.9281 351.759 38.1124 354.274 38.104 356.931L38.0748 366.173C38.9801 364.5 40.5609 362.974 42.7347 361.711C46.3608 359.605 51.1319 358.551 55.9102 358.551Z" fill="#373B42"/>
<path d="M98.3321 375.235C99.1678 375.993 98.9757 376.972 97.8803 377.609L91.7587 381.167C90.6633 381.803 88.9736 381.918 87.6469 381.444L77.1165 377.675C73.7704 378.817 70.2111 379.674 66.5513 380.213L63.7591 387.189C63.412 388.062 62.077 388.674 60.5415 388.666H51.8355C50.9215 388.676 50.0754 388.464 49.464 388.111C49.0392 387.866 48.7282 387.552 48.5874 387.197L45.7164 380.204C42.0506 379.666 38.4818 378.826 35.137 377.675L24.635 381.453C23.3134 381.926 21.6225 381.796 20.5342 381.167L14.3579 377.601C13.2697 376.973 13.0384 375.994 13.8513 375.227L20.3396 369.131C18.3421 367.197 16.8938 365.141 15.9381 363.011L3.8565 361.371C3.24337 361.291 2.70086 361.112 2.27576 360.866C1.66492 360.514 1.29648 360.024 1.30995 359.495L1.2815 354.452C1.26245 353.562 2.31438 352.787 3.83488 352.592L15.8558 350.943C16.7878 348.83 18.2415 346.757 20.2026 344.815L13.6602 338.728C12.8387 337.961 13.0305 336.982 14.1259 336.345L20.2476 332.788C21.343 332.151 23.0329 332.037 24.3453 332.518L34.89 336.28C38.2362 335.137 41.7815 334.305 45.4552 333.742L48.2614 326.773C48.5945 325.892 49.9293 325.28 51.465 325.288H60.1708C61.0792 325.279 61.9212 325.488 62.5288 325.839C62.9574 326.086 63.2689 326.404 63.4051 326.765L66.2899 333.734C69.9699 334.297 73.5387 335.137 76.898 336.28L87.3715 332.502C88.6931 332.028 90.3982 332.151 91.4863 332.779L97.6623 336.345C98.7506 336.973 98.9678 337.961 98.155 338.728L91.6667 344.807C93.6499 346.749 95.1267 348.822 96.0966 350.943L108.136 352.591C108.76 352.669 109.31 352.849 109.739 353.096C110.346 353.447 110.71 353.934 110.697 354.46L110.725 359.503C110.744 360.392 109.692 361.168 108.186 361.371L96.1507 363.011C95.2045 365.149 93.765 367.198 91.8039 369.14L98.3321 375.235ZM43.0825 364.495C50.2543 368.636 61.8666 368.636 69.0079 364.485C76.1495 360.335 76.1116 353.609 68.9395 349.468C61.7515 345.318 50.1392 345.318 42.9979 349.468C35.8565 353.618 35.8947 360.345 43.0825 364.495Z" fill="white"/>
<path d="M51.7721 389.105C50.8274 389.105 49.9307 388.888 49.2452 388.49C48.724 388.19 48.3553 387.799 48.1787 387.36L45.4048 380.602C41.7855 380.055 38.3344 379.228 35.1404 378.14L24.7851 381.866C23.3586 382.376 21.5225 382.244 20.3156 381.547L14.1386 377.981C13.4357 377.575 13.0086 377.015 12.9367 376.404C12.875 375.871 13.0927 375.34 13.5506 374.908L19.707 369.123C17.9479 367.356 16.5817 365.437 15.6405 363.413L3.79873 361.806C3.14545 361.721 2.54377 361.527 2.05692 361.247C1.28702 360.803 0.855041 360.161 0.870541 359.484L0.843122 354.454C0.819237 353.33 2.02616 352.381 3.77813 352.155L15.5564 350.541C16.4701 348.544 17.8194 346.625 19.5716 344.828L13.3618 339.048C12.8905 338.608 12.6641 338.068 12.724 337.529C12.7926 336.924 13.2127 336.368 13.9053 335.965L20.0259 332.407C21.2347 331.706 23.0707 331.583 24.4954 332.105L34.8935 335.815C38.0462 334.748 41.4923 333.918 45.1408 333.346L47.8548 326.609C48.2473 325.574 49.7167 324.849 51.4344 324.849C51.4446 324.849 51.4568 324.849 51.467 324.849L60.1712 324.848C61.1672 324.862 62.0502 325.055 62.748 325.458C63.2778 325.764 63.6479 326.163 63.8159 326.61L66.6003 333.337C70.2452 333.908 73.705 334.74 76.8921 335.815L87.2217 332.088C88.6584 331.576 90.5014 331.702 91.705 332.399L97.8823 335.965C98.58 336.367 99.0036 336.925 99.0737 337.536C99.1372 338.073 98.9177 338.61 98.4565 339.046L92.2983 344.816C94.0675 346.611 95.4427 348.533 96.3925 350.54L108.196 352.156C108.858 352.238 109.469 352.432 109.959 352.716C110.723 353.157 111.152 353.797 111.135 354.47L111.164 359.499C111.188 360.618 109.988 361.569 108.244 361.805L96.4507 363.413C95.5301 365.413 94.1809 367.333 92.4337 369.127L98.6298 374.912C99.1065 375.345 99.338 375.881 99.2813 376.419C99.2163 377.027 98.7978 377.584 98.1018 377.988L91.9797 381.546C90.7778 382.242 88.9366 382.369 87.4997 381.857L77.1136 378.139C73.846 379.245 70.4 380.074 66.8648 380.609L64.1678 387.352C63.7511 388.393 62.27 389.092 60.5402 389.105H51.8359C51.8151 389.105 51.7927 389.105 51.7721 389.105ZM35.1369 377.236C35.1849 377.236 35.2329 377.244 35.2792 377.26C38.5349 378.379 42.0683 379.224 45.7801 379.77C45.9343 379.793 46.0647 379.894 46.1231 380.038L48.9931 387.03C49.096 387.288 49.3344 387.529 49.684 387.73C50.2445 388.055 51.0846 388.241 51.8306 388.227H60.5417C61.8566 388.196 63.074 387.717 63.3517 387.026L66.1429 380.049C66.2011 379.905 66.3333 379.801 66.4875 379.778C70.1101 379.246 73.6384 378.398 76.9747 377.259C77.069 377.229 77.1701 377.229 77.2643 377.262L87.7945 381.031C89.0083 381.462 90.5463 381.363 91.5371 380.787L97.6592 377.229C98.1084 376.969 98.3742 376.649 98.4083 376.328C98.4426 376.002 98.2248 375.73 98.0362 375.559C98.0345 375.558 98.0329 375.557 98.0312 375.555L91.5042 369.46C91.4168 369.379 91.3671 369.265 91.3653 369.146C91.3635 369.026 91.41 368.911 91.4956 368.827C93.3866 366.952 94.8182 364.935 95.7491 362.833C95.8109 362.694 95.9395 362.597 96.0904 362.576L108.126 360.936C109.372 360.767 110.3 360.154 110.286 359.511L110.257 354.462C110.266 354.106 109.998 353.751 109.52 353.475C109.131 353.25 108.633 353.094 108.081 353.026L96.0358 351.377C95.8866 351.356 95.7598 351.261 95.6963 351.124C94.7346 349.016 93.2756 346.995 91.3605 345.12C91.2748 345.036 91.2268 344.921 91.2283 344.801C91.2301 344.682 91.2797 344.568 91.3673 344.486L97.8546 338.406C98.0345 338.237 98.2403 337.965 98.2027 337.638C98.1651 337.31 97.894 336.985 97.4432 336.724L91.2659 333.158C90.2836 332.592 88.7097 332.488 87.518 332.914L77.0463 336.692C76.9503 336.725 76.8458 336.726 76.7566 336.695C73.506 335.589 69.9622 334.739 66.2232 334.167C66.0723 334.144 65.9437 334.043 65.8838 333.901L62.9985 326.932C62.8989 326.664 62.6608 326.421 62.3094 326.217C61.7522 325.896 60.936 325.751 60.1765 325.726L51.4654 325.727C51.4568 325.727 51.4466 325.727 51.4362 325.727C50.118 325.727 48.9313 326.241 48.6709 326.928L45.8609 333.905C45.8043 334.049 45.6741 334.152 45.5214 334.175C41.7753 334.749 38.247 335.597 35.0325 336.695C34.9397 336.728 34.8388 336.727 34.7428 336.692L24.1974 332.931C23.011 332.497 21.4473 332.596 20.4685 333.167L14.3479 336.724C13.9005 336.984 13.6329 337.305 13.5971 337.628C13.5595 337.956 13.7737 338.232 13.9607 338.406L20.5013 344.493C20.5887 344.574 20.6403 344.689 20.6418 344.808C20.6436 344.928 20.5974 345.042 20.5115 345.127C18.6137 347.006 17.1821 349.023 16.258 351.119C16.1962 351.259 16.0677 351.357 15.9167 351.378L3.89504 353.025C2.64007 353.187 1.70754 353.797 1.721 354.442L1.74845 359.492C1.73982 359.85 2.01246 360.207 2.496 360.486C2.8835 360.709 3.37389 360.865 3.91383 360.936L15.9973 362.576C16.1482 362.596 16.2768 362.693 16.34 362.832C17.2934 364.959 18.742 366.972 20.6449 368.815C20.7305 368.899 20.7803 369.014 20.7785 369.134C20.7768 369.254 20.7272 369.368 20.6395 369.45L14.152 375.546C13.9754 375.713 13.7714 375.98 13.8093 376.302C13.8469 376.626 14.1264 376.96 14.5774 377.221L20.7544 380.787C21.7385 381.356 23.3055 381.46 24.4886 381.039L34.9877 377.261C35.0358 377.245 35.0871 377.236 35.1369 377.236ZM56.048 368.028C51.2784 368.028 46.5038 366.977 42.8621 364.875C39.2326 362.78 37.2319 359.967 37.2286 356.957C37.2235 353.966 39.195 351.171 42.7764 349.088C50.0285 344.876 61.8632 344.876 69.16 349.088C72.7808 351.178 74.7765 353.986 74.7801 356.994C74.7852 359.986 72.8136 362.782 69.2286 364.865C65.6009 366.973 60.8262 368.028 56.048 368.028ZM43.3012 364.115C50.3459 368.182 61.7793 368.176 68.7865 364.106C72.0902 362.186 73.9075 359.661 73.9024 356.995C73.8991 354.314 72.0595 351.776 68.7215 349.848C61.6683 345.775 50.2245 345.777 43.2191 349.848C39.9172 351.766 38.1014 354.291 38.1067 356.956C38.1098 359.64 39.9545 362.182 43.3012 364.115Z" fill="#373B42"/>
<path d="M206.826 443.168C203.658 441.339 203.64 438.373 206.787 436.544C209.933 434.716 215.055 434.717 218.222 436.545C221.389 438.374 221.405 441.339 218.258 443.167C215.111 444.996 209.993 444.997 206.826 443.168Z" fill="white"/>
<path d="M212.549 444.968C210.4 444.968 208.248 444.494 206.607 443.546C204.929 442.578 204.004 441.263 204.002 439.844C203.999 438.434 204.91 437.128 206.566 436.165C209.832 434.269 215.16 434.269 218.443 436.166C220.119 437.134 221.045 438.449 221.046 439.866C221.048 441.276 220.138 442.582 218.48 443.546C216.848 444.494 214.699 444.968 212.549 444.968ZM212.496 435.607C210.505 435.607 208.517 436.046 207.008 436.923C205.632 437.722 204.876 438.76 204.878 439.844C204.88 440.936 205.65 441.982 207.045 442.789C210.085 444.545 215.019 444.543 218.039 442.789C219.416 441.989 220.172 440.952 220.17 439.868C220.169 438.776 219.401 437.731 218.005 436.924C216.484 436.046 214.487 435.607 212.496 435.607Z" fill="#DBDEE4"/>
<path d="M212.507 437.767C213.742 437.767 214.937 438.048 215.786 438.539C216.467 438.932 216.859 439.415 216.859 439.865C216.86 440.309 216.476 440.786 215.807 441.175C214.965 441.665 213.775 441.945 212.542 441.945C211.308 441.945 210.114 441.664 209.266 441.174C208.584 440.781 208.192 440.297 208.191 439.847C208.191 439.403 208.574 438.925 209.243 438.536C210.084 438.047 211.274 437.767 212.507 437.767Z" fill="#024DF5" fill-opacity="0.8"/>
<path d="M184.623 421.897C185.95 421.897 187.233 422.199 188.144 422.726C188.876 423.148 189.297 423.668 189.297 424.15C189.298 424.627 188.886 425.14 188.167 425.558C187.263 426.083 185.985 426.384 184.661 426.384C183.336 426.384 182.053 426.082 181.142 425.557C180.41 425.134 179.989 424.614 179.988 424.13C179.988 423.654 180.399 423.141 181.118 422.723C182.021 422.198 183.299 421.897 184.623 421.897Z" fill="#373B42"/>
</g>
<defs>
<linearGradient id="paint0_linear_212_5455" x1="55.9863" y1="433.416" x2="55.9863" y2="355.075" gradientUnits="userSpaceOnUse">
<stop stop-color="#024DF5"/>
<stop offset="1" stop-color="white"/>
</linearGradient>
<clipPath id="clip0_212_5455">
<rect width="525" height="450" fill="white" transform="translate(0.630859)"/>
</clipPath>
</defs>
</svg>
